/* XPM */
static char *berry[] = {
/* columns rows colors chars-per-pixel */
"48 64 6 1 ",
"  c #008751",
". c black",
"X c #00E436",
"o c #7E2553",
"O c #FF004D",
"+ c #FFA300",
/* pixels */
"        ................XXXXXXXX........XXXXXXXX",
"        ................XXXXXXXX........XXXXXXXX",
"        ................XXXXXXXX........XXXXXXXX",
"        ................XXXXXXXX........XXXXXXXX",
"        ................XXXXXXXX........XXXXXXXX",
"        ................XXXXXXXX........XXXXXXXX",
"        ................XXXXXXXX........XXXXXXXX",
"        ................XXXXXXXX........XXXXXXXX",
"........        XXXXXXXX                ........",
"........        XXXXXXXX                ........",
"........        XXXXXXXX                ........",
"........        XXXXXXXX                ........",
"........        XXXXXXXX                ........",
"........        XXXXXXXX                ........",
"........        XXXXXXXX                ........",
"........        XXXXXXXX                ........",
"ooooooooOOOOOOOOOOOOOOOOOOOOOOOOOOOOOOOOoooooooo",
"ooooooooOOOOOOOOOOOOOOOOOOOOOOOOOOOOOOOOoooooooo",
"ooooooooOOOOOOOOOOOOOOOOOOOOOOOOOOOOOOOOoooooooo",
"ooooooooOOOOOOOOOOOOOOOOOOOOOOOOOOOOOOOOoooooooo",
"ooooooooOOOOOOOOOOOOOOOOOOOOOOOOOOOOOOOOoooooooo",
"ooooooooOOOOOOOOOOOOOOOOOOOOOOOOOOOOOOOOoooooooo",
"ooooooooOOOOOOOOOOOOOOOOOOOOOOOOOOOOOOOOoooooooo",
"ooooooooOOOOOOOOOOOOOOOOOOOOOOOOOOOOOOOOoooooooo",
"OOOOOOOO++++++++OOOOOOOOOOOOOOOOOOOOOOOOOOOOOOOO",
"OOOOOOOO++++++++OOOOOOOOOOOOOOOOOOOOOOOOOOOOOOOO",
"OOOOOOOO++++++++OOOOOOOOOOOOOOOOOOOOOOOOOOOOOOOO",
"OOOOOOOO++++++++OOOOOOOOOOOOOOOOOOOOOOOOOOOOOOOO",
"OOOOOOOO++++++++OOOOOOOOOOOOOOOOOOOOOOOOOOOOOOOO",
"OOOOOOOO++++++++OOOOOOOOOOOOOOOOOOOOOOOOOOOOOOOO",
"OOOOOOOO++++++++OOOOOOOOOOOOOOOOOOOOOOOOOOOOOOOO",
"OOOOOOOO++++++++OOOOOOOOOOOOOOOOOOOOOOOOOOOOOOOO",
"OOOOOOOOOOOOOOOOOOOOOOOOOOOOOOOO++++++++OOOOOOOO",
"OOOOOOOOOOOOOOOOOOOOOOOOOOOOOOOO++++++++OOOOOOOO",
"OOOOOOOOOOOOOOOOOOOOOOOOOOOOOOOO++++++++OOOOOOOO",
"OOOOOOOOOOOOOOOOOOOOOOOOOOOOOOOO++++++++OOOOOOOO",
"OOOOOOOOOOOOOOOOOOOOOOOOOOOOOOOO++++++++OOOOOOOO",
"OOOOOOOOOOOOOOOOOOOOOOOOOOOOOOOO++++++++OOOOOOOO",
"OOOOOOOOOOOOOOOOOOOOOOOOOOOOOOOO++++++++OOOOOOOO",
"OOOOOOOOOOOOOOOOOOOOOOOOOOOOOOOO++++++++OOOOOOOO",
"OOOOOOOOOOOOOOOO++++++++OOOOOOOOOOOOOOOOOOOOOOOO",
"OOOOOOOOOOOOOOOO++++++++OOOOOOOOOOOOOOOOOOOOOOOO",
"OOOOOOOOOOOOOOOO++++++++OOOOOOOOOOOOOOOOOOOOOOOO",
"OOOOOOOOOOOOOOOO++++++++OOOOOOOOOOOOOOOOOOOOOOOO",
"OOOOOOOOOOOOOOOO++++++++OOOOOOOOOOOOOOOOOOOOOOOO",
"OOOOOOOOOOOOOOOO++++++++OOOOOOOOOOOOOOOOOOOOOOOO",
"OOOOOOOOOOOOOOOO++++++++OOOOOOOOOOOOOOOOOOOOOOOO",
"OOOOOOOOOOOOOOOO++++++++OOOOOOOOOOOOOOOOOOOOOOOO",
"ooooooooOOOOOOOOOOOOOOOOOOOOOOOOOOOOOOOOoooooooo",
"ooooooooOOOOOOOOOOOOOOOOOOOOOOOOOOOOOOOOoooooooo",
"ooooooooOOOOOOOOOOOOOOOOOOOOOOOOOOOOOOOOoooooooo",
"ooooooooOOOOOOOOOOOOOOOOOOOOOOOOOOOOOOOOoooooooo",
"ooooooooOOOOOOOOOOOOOOOOOOOOOOOOOOOOOOOOoooooooo",
"ooooooooOOOOOOOOOOOOOOOOOOOOOOOOOOOOOOOOoooooooo",
"ooooooooOOOOOOOOOOOOOOOOOOOOOOOOOOOOOOOOoooooooo",
"ooooooooOOOOOOOOOOOOOOOOOOOOOOOOOOOOOOOOoooooooo",
"........ooooooooOOOOOOOOOOOOOOOOoooooooo........",
"........ooooooooOOOOOOOOOOOOOOOOoooooooo........",
"........ooooooooOOOOOOOOOOOOOOOOoooooooo........",
"........ooooooooOOOOOOOOOOOOOOOOoooooooo........",
"........ooooooooOOOOOOOOOOOOOOOOoooooooo........",
"........ooooooooOOOOOOOOOOOOOOOOoooooooo........",
"........ooooooooOOOOOOOOOOOOOOOOoooooooo........",
"........ooooooooOOOOOOOOOOOOOOOOoooooooo........"
};
