/* XPM */
static char *player[] = {
/* columns rows colors chars-per-pixel */
"53 64 12 1 ",
"  c black",
". c #D95763",
"X c #AC3232",
"o c #D9A066",
"O c #791E26",
"+ c #EEC39A",
"@ c #45283C",
"# c #639BFF",
"$ c #663931",
"% c #5FCDE4",
"& c #306082",
"* c #3F3F74",
/* pixels */
"                        ............XXXXXXXXXXX      ",
"                        ............XXXXXXXXXXX      ",
"                        ............XXXXXXXXXXX      ",
"                        ............XXXXXXXXXXX      ",
"                        ............XXXXXXXXXXX      ",
"                        ............XXXXXXXXXXX      ",
"                  ............XXXXXXXXXXXXXXXXXXXXXXX",
"                  ............XXXXXXXXXXXXXXXXXXXXXXX",
"                  ............XXXXXXXXXXXXXXXXXXXXXXX",
"                  ............XXXXXXXXXXXXXXXXXXXXXXX",
"                  ............XXXXXXXXXXXXXXXXXXXXXXX",
"                  ............XXXXXXXXXXXXXXXXXXXXXXX",
"            ......XXXXXXXXXXXXoooooooooooooooooOOOOOO",
"            ......XXXXXXXXXXXXoooooooooooooooooOOOOOO",
"            ......XXXXXXXXXXXXoooooooooooooooooOOOOOO",
"            ......XXXXXXXXXXXXoooooooooooooooooOOOOOO",
"            ......XXXXXXXXXXXXoooooooooooooooooOOOOOO",
"            XXXXXXXXXXXX+++++++++++++++++ooooooOOOOOO",
"            XXXXXXXXXXXX+++++++++++++++++ooooooOOOOOO",
"            XXXXXXXXXXXX+++++++++++++++++ooooooOOOOOO",
"            XXXXXXXXXXXX+++++++++++++++++ooooooOOOOOO",
"            XXXXXXXXXXXX+++++++++++++++++ooooooOOOOOO",
"            XXXXXXXXXXXX+++++++++++++++++ooooooOOOOOO",
"       .....XXXXXXXXXXXX+++++++++++++++++ooooooOOOOOO",
"       .....XXXXXXXXXXXX+++++++++++++++++ooooooOOOOOO",
"       .....XXXXXXXXXXXX+++++++++++++++++ooooooOOOOOO",
"       .....XXXXXXXXXXXX+++++++++++++++++ooooooOOOOOO",
"       .....XXXXXXXXXXXX+++++++++++++++++ooooooOOOOOO",
"       .....XXXXXXXXXXXX+++++++++++++++++ooooooOOOOOO",
"       .....XXXXXXOOOOOO@@@@@@###########OOOOOO      ",
"       .....XXXXXXOOOOOO@@@@@@###########OOOOOO      ",
"       .....XXXXXXOOOOOO@@@@@@###########OOOOOO      ",
"       .....XXXXXXOOOOOO@@@@@@###########OOOOOO      ",
"       .....XXXXXXOOOOOO@@@@@@###########OOOOOO      ",
"       .....XXXXXXOOOOOO@@@@@@###########OOOOOO      ",
"......XXXXXX$$$$$$%%%%%%@@@@@@###########            ",
"......XXXXXX$$$$$$%%%%%%@@@@@@###########            ",
"......XXXXXX$$$$$$%%%%%%@@@@@@###########            ",
"......XXXXXX$$$$$$%%%%%%@@@@@@###########            ",
"......XXXXXX$$$$$$%%%%%%@@@@@@###########            ",
"......XXXXXX$$$$$$%%%%%%@@@@@@%%%%%%#####            ",
"            $$$$$$++++++%%%%%%%%%%%%#####            ",
"            $$$$$$++++++%%%%%%%%%%%%#####            ",
"            $$$$$$++++++%%%%%%%%%%%%#####            ",
"            $$$$$$++++++%%%%%%%%%%%%#####            ",
"            $$$$$$++++++%%%%%%%%%%%%#####            ",
"            $$$$$$++++++%%%%%%%%%%%%#####            ",
"                  $$$$$$&&&&&&&&&&&&&&&&&            ",
"                  $$$$$$&&&&&&&&&&&&&&&&&            ",
"                  $$$$$$&&&&&&&&&&&&&&&&&            ",
"                  $$$$$$&&&&&&&&&&&&&&&&&            ",
"                  $$$$$$&&&&&&&&&&&&&&&&&            ",
"                        &&&&&&      &&&&&            ",
"                        &&&&&&      &&&&&            ",
"                        &&&&&&      &&&&&            ",
"                        &&&&&&      &&&&&            ",
"                        &&&&&&      &&&&&            ",
"                        &&&&&&      &&&&&            ",
"                        ******      *****            ",
"                        ******      *****            ",
"                        ******      *****            ",
"                        ******      *****            ",
"                        ******      *****            ",
"                        ******      *****            "
};
