/* XPM */
static char *seed[] = {
/* columns rows colors chars-per-pixel */
"48 64 3 1 ",
"  c black",
". c #E5EB63",
"X c #90B640",
/* pixels */
"                                                ",
"                                                ",
"                                                ",
"                                                ",
"                                                ",
"                                                ",
"                                                ",
"                                                ",
"                                                ",
"                                                ",
"                                                ",
"                                                ",
"                                                ",
"                                                ",
"               ............XXXXXX               ",
"               ............XXXXXX               ",
"               ............XXXXXX               ",
"               ............XXXXXX               ",
"               ............XXXXXX               ",
"               ............XXXXXX               ",
"         ........................XXXXXX         ",
"         ........................XXXXXX         ",
"         ........................XXXXXX         ",
"         ........................XXXXXX         ",
"         ........................XXXXXX         ",
"         ........................XXXXXX         ",
"         ........................XXXXXX         ",
"         ........................XXXXXX         ",
"         ........................XXXXXX         ",
"         ........................XXXXXX         ",
"         ........................XXXXXX         ",
"         ........................XXXXXX         ",
"               ............XXXXXX               ",
"               ............XXXXXX               ",
"               ............XXXXXX               ",
"               ............XXXXXX               ",
"               ............XXXXXX               ",
"               ............XXXXXX               ",
"               XXXXXX......XXXXXX               ",
"               XXXXXX......XXXXXX               ",
"               XXXXXX......XXXXXX               ",
"               XXXXXX......XXXXXX               ",
"               XXXXXX......XXXXXX               ",
"               XXXXXX......XXXXXX               ",
"                     XXXXXX                     ",
"                     XXXXXX                     ",
"                     XXXXXX                     ",
"                     XXXXXX                     ",
"                     XXXXXX                     ",
"                     XXXXXX                     ",
"                                                ",
"                                                ",
"                                                ",
"                                                ",
"                                                ",
"                                                ",
"                                                ",
"                                                ",
"                                                ",
"                                                ",
"                                                ",
"                                                ",
"                                                ",
"                                                "
};
