/* XPM */
static char *debug_12[] = {
/* columns rows colors chars-per-pixel */
"64 64 164 2 ",
"   c black",
".  c #010101",
"X  c #020202",
"o  c gray1",
"O  c #040404",
"+  c #070707",
"@  c #090909",
"#  c gray4",
"$  c #0B0B0B",
"%  c #0C0C0C",
"&  c gray5",
"*  c gray6",
"=  c #101010",
"-  c #111111",
";  c #131313",
":  c gray8",
">  c #151515",
",  c #161616",
"<  c #181818",
"1  c #191919",
"2  c gray10",
"3  c #1B1B1B",
"4  c gray11",
"5  c #1D1D1D",
"6  c gray12",
"7  c #202020",
"8  c gray14",
"9  c #282828",
"0  c gray16",
"q  c #2F2F2F",
"w  c gray19",
"e  c #323232",
"r  c gray20",
"t  c #353535",
"y  c gray21",
"u  c gray23",
"i  c #3C3C3C",
"p  c gray24",
"a  c #3F3F3F",
"s  c #414141",
"d  c gray26",
"f  c #434343",
"g  c #444444",
"h  c #464646",
"j  c gray28",
"k  c #494949",
"l  c gray29",
"z  c #4B4B4B",
"x  c gray30",
"c  c #505050",
"v  c #515151",
"b  c gray32",
"n  c gray33",
"m  c #565656",
"M  c gray36",
"N  c #5D5D5D",
"B  c #5F5F5F",
"V  c #606060",
"C  c gray38",
"Z  c gray40",
"A  c #686868",
"S  c gray42",
"D  c #6D6D6D",
"F  c gray43",
"G  c #6F6F6F",
"H  c gray44",
"J  c #727272",
"K  c gray46",
"L  c #767676",
"P  c #777777",
"I  c #797979",
"U  c gray50",
"Y  c #808080",
"T  c #838383",
"R  c #848484",
"E  c gray52",
"W  c #868686",
"Q  c gray53",
"!  c #888888",
"~  c gray54",
"^  c #8B8B8B",
"/  c gray55",
"(  c #8D8D8D",
")  c #8E8E8E",
"_  c gray56",
"`  c gray57",
"'  c #939393",
"]  c #959595",
"[  c gray59",
"{  c #979797",
"}  c #989898",
"|  c gray60",
" . c #9A9A9A",
".. c gray61",
"X. c #9D9D9D",
"o. c #9F9F9F",
"O. c #A0A0A0",
"+. c gray63",
"@. c #A2A2A2",
"#. c gray64",
"$. c #A5A5A5",
"%. c gray65",
"&. c gray66",
"*. c #AAAAAA",
"=. c #ACACAC",
"-. c gray68",
";. c #AEAEAE",
":. c #AFAFAF",
">. c gray69",
",. c gray70",
"<. c #B4B4B4",
"1. c #B6B6B6",
"2. c #B7B7B7",
"3. c gray72",
"4. c #B9B9B9",
"5. c gray74",
"6. c #C0C0C0",
"7. c #C1C1C1",
"8. c gray76",
"9. c #C3C3C3",
"0. c #C5C5C5",
"q. c #C6C6C6",
"w. c #CACACA",
"e. c #CBCBCB",
"r. c #CDCDCD",
"t. c #CECECE",
"y. c gray81",
"u. c #D0D0D0",
"i. c gray82",
"p. c gray83",
"a. c #D7D7D7",
"s. c #D8D8D8",
"d. c gray85",
"f. c #DADADA",
"g. c gainsboro",
"h. c #DDDDDD",
"j. c gray87",
"k. c #DFDFDF",
"l. c gray88",
"z. c #E1E1E1",
"x. c gray89",
"c. c gray90",
"v. c #E6E6E6",
"b. c #E7E7E7",
"n. c gray92",
"m. c #ECECEC",
"M. c gray93",
"N. c #EEEEEE",
"B. c #EFEFEF",
"V. c gray94",
"C. c #F1F1F1",
"Z. c gray95",
"A. c #F4F4F4",
"S. c gray96",
"D. c #F6F6F6",
"F. c gray97",
"G. c #F8F8F8",
"H. c #F9F9F9",
"J. c gray98",
"K. c #FBFBFB",
"L. c gray99",
"P. c #FDFDFD",
"I. c #FEFEFE",
"U. c white",
/* pixels */
"                                                                                                                                ",
"                                                                                                                                ",
"                                                                                                                                ",
"                                                                                                                                ",
"                                                                                                                                ",
"                                                                                                                                ",
"                                                                                                                                ",
"                                                                                                                                ",
"                                                                                                                                ",
"                                                                                                                                ",
"                                                                                                                                ",
"                                                                                                                                ",
"                                                                                                                                ",
"                                                                                                                                ",
"                                                                                                                                ",
"                                                                                                                                ",
"                                                                                                                                ",
"                                                                                                                                ",
"                                                                                                                                ",
"                                                                                                                                ",
"                                                                                                                                ",
"                                                                                                                                ",
"                                                                                                                                ",
"            5 ( d.D.N.9.Z o                                             5 ( d.D.N.9.Z o                 7 E t.M.F.h.5.L >       ",
"          j V.U.U.U.U.U.U.7.$                                         j V.U.U.U.U.U.U.7.$             P F.U.U.U.U.U.U.U...      ",
"        9 A.U.y.a # 8 _ U.U.#.                                      9 A.U.y.a # 8 _ U.U.#.          ^ U.U.e.b > O > f | ~       ",
"        ,.U.k.=         ! U.U.e                                     ,.U.k.=         ! U.U.e       j U.U.$.o                     ",
"      4 I.U.V           % C.U.`     G U.U.[           * z.U.c.:   4 I.U.V           % C.U.`       e.U.h.@                       ",
"      A U.H.&           D K.U.p.      ,.U.U.h         #.U.P.a     A U.H.&           D K.U.p.    w U.U.D                         ",
"      } U.y.        @ @.U.U.U.K.+     : c.U.x.=     n U.U.U       } U.y.        @ @.U.U.U.K.+   H U.U.6                         ",
"      2.U.;.      7 t.U.g.I U.U.3       s P.U.@.  1 m.U.6.X       2.U.;.      7 t.U.g.I U.U.3   X.U.C.                          ",
"      0.U.O.    g m.U.1.- p U.U.0         R U.U.v 1.U.n.2         0.U.O.    g m.U.1.- p U.U.0   >.U.k.                          ",
"      q.U...  L L.I.R X   i U.U.9         O q.U.G.U.I.l           q.U...  L L.I.R X   i U.U.9   1.U.j.                          ",
"      3.U.-.*.U.Z.c       k U.U.3           6 V.U.U.`             3.U.-.*.U.Z.c       k U.U.3   &.U.N.                          ",
"      o.U.U.U.a.9         S U.G.o           t H.U.U.9.o           o.U.U.U.a.9         S U.G.o   / U.U.<                         ",
"      J U.U.:.&           +.U.r.          = j.U.i.I.U.T           J U.U.:.&           +.U.r.    m U.U.M                         ",
"      q U.U.v           # M.U.Y           -.U.B.3 ] U.P.d         q U.U.v           # M.U.Y     = S.U.w.X                       ",
"        u.U.i.@         W U.G.7         F U.U.B   % k.U.v.>         u.U.i.@         W U.G.7       ' U.U.Q                       ",
"        g U.U.9.u $ 6 ) I.U.Y         r H.U.<.      d I.U.2..       g U.U.9.u $ 6 ) I.U.Y         % s.U.U.4.l ; O : g | ~       ",
"          F P.U.U.U.U.U.U. ..       * h.U.N.2         { U.U.K         F P.U.U.U.U.U.U. ..           , 8.U.U.U.U.U.U.U.U...      ",
"            t %.c.H.b.,.z           =.U.U.N           % l.U.J.y         t %.c.H.b.,.z                   x $.j.A.S.f.,.C =       ",
"                                                                                                                                ",
"                                                                                                                                ",
"                                                                                                                                ",
"                                                                                                                                ",
"                                                                                                                                ",
"                                                                                                                                ",
"                                                                                                                                ",
"                                                                                                                                ",
"                                                                                                                                ",
"                                                                                                                                ",
"                                                                                                                                ",
"                                                                                                                                ",
"                                                                                                                                ",
"                                                                                                                                ",
"                                                                                                                                ",
"                                                                                                                                ",
"                                                                                                                                ",
"                                                                                                                                ",
"                                                                                                                                ",
"                                                                                                                                ",
"                                                                                                                                ",
"                                                                                                                                ",
"                                                                                                                                "
};
