/* XPM */
static char *debug_31[] = {
/* columns rows colors chars-per-pixel */
"64 64 144 2 ",
"   c black",
".  c #010101",
"X  c #020202",
"o  c gray1",
"O  c #040404",
"+  c #070707",
"@  c gray3",
"#  c #090909",
"$  c gray4",
"%  c #0B0B0B",
"&  c #0C0C0C",
"*  c gray5",
"=  c gray6",
"-  c #101010",
";  c #111111",
":  c gray8",
">  c #151515",
",  c #191919",
"<  c gray10",
"1  c #1B1B1B",
"2  c gray11",
"3  c #1D1D1D",
"4  c gray12",
"5  c #202020",
"6  c gray14",
"7  c #282828",
"8  c gray16",
"9  c #2F2F2F",
"0  c #323232",
"q  c gray20",
"w  c #343434",
"e  c #353535",
"r  c gray21",
"t  c gray23",
"y  c #3C3C3C",
"u  c gray24",
"i  c #3F3F3F",
"p  c #414141",
"a  c gray26",
"s  c #444444",
"d  c #464646",
"f  c gray28",
"g  c #494949",
"h  c gray29",
"j  c #4B4B4B",
"k  c #4C4C4C",
"l  c #505050",
"z  c #515151",
"x  c gray33",
"c  c #585858",
"v  c gray35",
"b  c #5D5D5D",
"n  c #5F5F5F",
"m  c #606060",
"M  c gray40",
"N  c #686868",
"B  c gray42",
"V  c #6D6D6D",
"C  c gray43",
"Z  c #6F6F6F",
"A  c #727272",
"S  c #747474",
"D  c gray46",
"F  c #767676",
"G  c #797979",
"H  c #7C7C7C",
"J  c gray50",
"K  c #808080",
"L  c #838383",
"P  c #848484",
"I  c #868686",
"U  c #888888",
"Y  c #8D8D8D",
"T  c #8E8E8E",
"R  c gray56",
"E  c gray57",
"W  c #959595",
"Q  c gray59",
"!  c #979797",
"~  c #989898",
"^  c #9A9A9A",
"/  c gray61",
"(  c #9F9F9F",
")  c #A0A0A0",
"_  c gray63",
"`  c #A2A2A2",
"'  c gray64",
"]  c #A4A4A4",
"[  c gray65",
"{  c #AAAAAA",
"}  c #ACACAC",
"|  c gray68",
" . c #AEAEAE",
".. c #AFAFAF",
"X. c gray70",
"o. c #B4B4B4",
"O. c #B6B6B6",
"+. c #B7B7B7",
"@. c gray72",
"#. c gray",
"$. c #C0C0C0",
"%. c #C1C1C1",
"&. c #C3C3C3",
"*. c #C5C5C5",
"=. c #C6C6C6",
"-. c #CDCDCD",
";. c #CECECE",
":. c gray81",
">. c #D0D0D0",
",. c gray82",
"<. c gray83",
"1. c #D7D7D7",
"2. c gray85",
"3. c gray86",
"4. c gainsboro",
"5. c #DDDDDD",
"6. c gray87",
"7. c #DFDFDF",
"8. c gray88",
"9. c #E1E1E1",
"0. c gray89",
"q. c #E4E4E4",
"w. c gray90",
"e. c #E6E6E6",
"r. c #E7E7E7",
"t. c #E9E9E9",
"y. c gray92",
"u. c #ECECEC",
"i. c gray93",
"p. c #EEEEEE",
"a. c #EFEFEF",
"s. c gray94",
"d. c #F1F1F1",
"f. c gray95",
"g. c #F4F4F4",
"h. c #F6F6F6",
"j. c #F8F8F8",
"k. c #F9F9F9",
"l. c gray98",
"z. c #FBFBFB",
"x. c gray99",
"c. c #FDFDFD",
"v. c #FEFEFE",
"b. c white",
/* pixels */
"                                                                                                                                ",
"                                                                                                                                ",
"                                                                                                                                ",
"                                                                                                                                ",
"                                                                                                                                ",
"                                                                                                                                ",
"                                                                                                                                ",
"                                                                                                                                ",
"                                                                                                                                ",
"                                                                                                                                ",
"                                                                                                                                ",
"                                                                                                                                ",
"                                                                                                                                ",
"                                                                                                                                ",
"                                                                                                                                ",
"                                                                                                                                ",
"                                                                                                                                ",
"                                                                                                                                ",
"                                                                                                                                ",
"                                                                                                                                ",
"                                                                                                                                ",
"                                                                                                                                ",
"                                                                                                                                ",
"            3 Y 2.h.p.&.M o                                               @ S i.b.]               w b.b.b.b.b.b.b.b.b.8.        ",
"          f s.b.b.b.b.b.b.%.%                                         O M q.b.b.b.]               w b.b.b.b.b.b.b.b.b.8.        ",
"        7 g.b.:.i $ 6 R b.b.'                                     . c 3.b.a.v b.b.]               w b.b.k                       ",
"        X.b.7.-         U b.b.0                                   + t.b.#.3   b.b.]               w b.b.k                       ",
"      2 v.b.m           & d.b.E     Z b.b.Q           = 9.b.w.:     G S .     b.b.]               w b.b.k                       ",
"      N b.k.*           V z.b.<.      X.b.b.d         ' b.c.i                 b.b.]               w b.b.k                       ",
"      ~ b.:.        # ` b.b.b.z.+     : w.b.0.-     x b.b.J                   b.b.]               w b.b.k                       ",
"      +.b. .      5 ;.b.4.G b.b.1       p c.b.`   , u.b.$.X                   b.b.]               w b.b.k                       ",
"      *.b.)     s u.b.O.; u b.b.8         P b.b.z O.b.y.<                     b.b.]               w b.b.b.b.b.b.b.b.b.H         ",
"      =.b./   F x.v.P X   y b.b.7         O =.b.j.b.v.h                       b.b.]               w b.b.b.b.b.b.b.b.b.H         ",
"      @.b.| { b.f.l       g b.b.1           4 s.b.b.E                         b.b.]               w b.b.k                       ",
"      ( b.b.b.1.7         B b.j.o           e k.b.b.&.o                       b.b.]               w b.b.k                       ",
"      A b.b...*           _ b.-.          - 6.b.,.v.b.L                       b.b.]               w b.b.k                       ",
"      9 b.b.z           $ i.b.K           | b.a.1 W b.c.a                     b.b.]               w b.b.k                       ",
"        >.b.,.#         I b.j.5         C b.b.n   & 7.b.e.>                   b.b.]               w b.b.k                       ",
"        s b.b.&.t % 4 T v.b.K         q k.b.o.      a v.b.+..                 b.b.]               w b.b.k                       ",
"          C c.b.b.b.b.b.b.^ .       = 5.b.p.<         ! b.b.D       ~ b.b.b.b.b.b.b.b.b.b.)       w b.b.k                       ",
"            e [ w.k.r.X.j           } b.b.b           & 8.b.l.r     ~ b.b.b.b.b.b.b.b.b.b.)       w b.b.k                       ",
"                                                                                                                                ",
"                                                                                                                                ",
"                                                                                                                                ",
"                                                                                                                                ",
"                                                                                                                                ",
"                                                                                                                                ",
"                                                                                                                                ",
"                                                                                                                                ",
"                                                                                                                                ",
"                                                                                                                                ",
"                                                                                                                                ",
"                                                                                                                                ",
"                                                                                                                                ",
"                                                                                                                                ",
"                                                                                                                                ",
"                                                                                                                                ",
"                                                                                                                                ",
"                                                                                                                                ",
"                                                                                                                                ",
"                                                                                                                                ",
"                                                                                                                                ",
"                                                                                                                                ",
"                                                                                                                                "
};
