/* XPM */
static char *debug_2[] = {
/* columns rows colors chars-per-pixel */
"64 64 154 2 ",
"   c black",
".  c #010101",
"X  c #020202",
"o  c gray1",
"O  c #040404",
"+  c #070707",
"@  c gray3",
"#  c #090909",
"$  c gray4",
"%  c #0B0B0B",
"&  c #0C0C0C",
"*  c gray5",
"=  c gray6",
"-  c #101010",
";  c #111111",
":  c gray8",
">  c #151515",
",  c #161616",
"<  c #191919",
"1  c gray10",
"2  c #1B1B1B",
"3  c gray11",
"4  c #1D1D1D",
"5  c gray12",
"6  c #202020",
"7  c gray14",
"8  c #272727",
"9  c #282828",
"0  c gray16",
"q  c #2F2F2F",
"w  c #323232",
"e  c gray20",
"r  c #353535",
"t  c gray21",
"y  c gray22",
"u  c #3A3A3A",
"i  c gray23",
"p  c #3C3C3C",
"a  c gray24",
"s  c #3F3F3F",
"d  c #414141",
"f  c gray26",
"g  c #444444",
"h  c #464646",
"j  c gray28",
"k  c #494949",
"l  c gray29",
"z  c #4B4B4B",
"x  c #505050",
"c  c #515151",
"v  c #535353",
"b  c gray33",
"n  c #5A5A5A",
"m  c #5D5D5D",
"M  c #5F5F5F",
"N  c #606060",
"B  c #626262",
"V  c gray39",
"C  c gray40",
"Z  c #686868",
"A  c #6A6A6A",
"S  c gray42",
"D  c #6C6C6C",
"F  c #6D6D6D",
"G  c gray43",
"H  c #6F6F6F",
"J  c #717171",
"K  c #727272",
"L  c gray46",
"P  c #767676",
"I  c #797979",
"U  c gray48",
"Y  c gray50",
"T  c #808080",
"R  c #838383",
"E  c #848484",
"W  c #868686",
"Q  c #888888",
"!  c gray55",
"~  c #8D8D8D",
"^  c #8E8E8E",
"/  c gray56",
"(  c gray57",
")  c #959595",
"_  c gray59",
"`  c #979797",
"'  c #989898",
"]  c gray60",
"[  c #9A9A9A",
"{  c gray61",
"}  c #9D9D9D",
"|  c #9F9F9F",
" . c #A0A0A0",
".. c gray63",
"X. c #A2A2A2",
"o. c gray64",
"O. c #A4A4A4",
"+. c gray65",
"@. c #A9A9A9",
"#. c #AAAAAA",
"$. c #ACACAC",
"%. c gray68",
"&. c #AEAEAE",
"*. c #AFAFAF",
"=. c #B2B2B2",
"-. c gray70",
";. c #B4B4B4",
":. c #B6B6B6",
">. c #B7B7B7",
",. c gray72",
"<. c #B9B9B9",
"1. c #C0C0C0",
"2. c #C1C1C1",
"3. c #C3C3C3",
"4. c #C5C5C5",
"5. c #C6C6C6",
"6. c #C8C8C8",
"7. c #CDCDCD",
"8. c #CECECE",
"9. c gray81",
"0. c #D0D0D0",
"q. c gray82",
"w. c gray83",
"e. c #D7D7D7",
"r. c gray85",
"t. c gainsboro",
"y. c #DDDDDD",
"u. c gray87",
"i. c #DFDFDF",
"p. c gray88",
"a. c #E1E1E1",
"s. c gray89",
"d. c gray90",
"f. c #E6E6E6",
"g. c #E7E7E7",
"h. c gray91",
"j. c gray92",
"k. c #ECECEC",
"l. c gray93",
"z. c #EEEEEE",
"x. c #EFEFEF",
"c. c gray94",
"v. c #F1F1F1",
"b. c gray95",
"n. c #F4F4F4",
"m. c #F6F6F6",
"M. c #F8F8F8",
"N. c #F9F9F9",
"B. c gray98",
"V. c #FBFBFB",
"C. c gray99",
"Z. c #FDFDFD",
"A. c #FEFEFE",
"S. c white",
/* pixels */
"                                                                                                                                ",
"                                                                                                                                ",
"                                                                                                                                ",
"                                                                                                                                ",
"                                                                                                                                ",
"                                                                                                                                ",
"                                                                                                                                ",
"                                                                                                                                ",
"                                                                                                                                ",
"                                                                                                                                ",
"                                                                                                                                ",
"                                                                                                                                ",
"                                                                                                                                ",
"                                                                                                                                ",
"                                                                                                                                ",
"                                                                                                                                ",
"                                                                                                                                ",
"                                                                                                                                ",
"                                                                                                                                ",
"                                                                                                                                ",
"                                                                                                                                ",
"                                                                                                                                ",
"                                                                                                                                ",
"            4 ~ r.m.z.3.C o                                             4 ~ r.m.z.3.C o             . n >.f.B.g.@.r             ",
"          j c.S.S.S.S.S.S.2.%                                         j c.S.S.S.S.S.S.2.%         1 5.S.S.S.S.S.S.C.B           ",
"        9 n.S.9.s $ 7 / S.S.o.                                      9 n.S.9.s $ 7 / S.S.o.        *.S.g.V , @ l d.S.V.8         ",
"        -.S.i.-         Q S.S.w                                     -.S.i.-         Q S.S.w       3 <.,         u S.S./         ",
"      3 A.S.N           & v.S.(     H S.S._           = a.S.d.:   3 A.S.N           & v.S.(                       i.S.3.        ",
"      Z S.N.*           F V.S.w.      -.S.S.h         o.S.Z.s     Z S.N.*           F V.S.w.                      6.S.8.        ",
"      ' S.9.        # X.S.S.S.V.+     : d.S.s.-     b S.S.Y       ' S.9.        # X.S.S.S.V.+                     s.S.=.        ",
"      >.S.&.      6 8.S.t.I S.S.2       d Z.S.X.  < k.S.1.X       >.S.&.      6 8.S.t.I S.S.2                   y S.S.D         ",
"      4.S. .    g k.S.:.; a S.S.0         E S.S.c :.S.j.1         4.S. .    g k.S.:.; a S.S.0                 + 7.S.h.*         ",
"      5.S.{   P C.A.E X   p S.S.9         O 5.S.M.S.A.l           5.S.{   P C.A.E X   p S.S.9                 X.S.S.v           ",
"      ,.S.%.#.S.b.x       k S.S.2           5 c.S.S.(             ,.S.%.#.S.b.x       k S.S.2               ! S.S.Q             ",
"      | S.S.S.e.9         S S.M.o           r N.S.S.3.o           | S.S.S.e.9         S S.M.o             R S.S.| .             ",
"      K S.S.*.*           ..S.7.          - u.S.q.A.S.R           K S.S.*.*           ..S.7.            U S.S.O.X               ",
"      q S.S.c           $ l.S.T           %.S.x.2 ) S.Z.f         q S.S.c           $ l.S.T           J S.S...X                 ",
"        0.S.q.#         W S.M.6         G S.S.M   & i.S.f.>         0.S.q.#         W S.M.6         A S.S.} X                   ",
"        g S.S.3.i % 5 ^ A.S.T         e N.S.;.      f A.S.>..       g S.S.3.i % 5 ^ A.S.T         B A.S.] .                     ",
"          G Z.S.S.S.S.S.S.[ .       = y.S.z.1         ` S.S.L         G Z.S.S.S.S.S.S.[ .         B.S.S.S.S.S.S.S.S.S.S.6.      ",
"            r +.d.N.g.-.z           $.S.S.m           & p.S.B.t         r +.d.N.g.-.z             C.S.S.S.S.S.S.S.S.S.S.6.      ",
"                                                                                                                                ",
"                                                                                                                                ",
"                                                                                                                                ",
"                                                                                                                                ",
"                                                                                                                                ",
"                                                                                                                                ",
"                                                                                                                                ",
"                                                                                                                                ",
"                                                                                                                                ",
"                                                                                                                                ",
"                                                                                                                                ",
"                                                                                                                                ",
"                                                                                                                                ",
"                                                                                                                                ",
"                                                                                                                                ",
"                                                                                                                                ",
"                                                                                                                                ",
"                                                                                                                                ",
"                                                                                                                                ",
"                                                                                                                                ",
"                                                                                                                                ",
"                                                                                                                                ",
"                                                                                                                                "
};
