/* XPM */
static char *debug_9[] = {
/* columns rows colors chars-per-pixel */
"64 64 163 2 ",
"   c black",
".  c #010101",
"X  c #020202",
"o  c gray1",
"O  c #040404",
"+  c gray2",
"@  c #060606",
"#  c #070707",
"$  c gray3",
"%  c #090909",
"&  c gray4",
"*  c #0B0B0B",
"=  c #0C0C0C",
"-  c gray5",
";  c #0E0E0E",
":  c gray6",
">  c #101010",
",  c #111111",
"<  c gray8",
"1  c #151515",
"2  c #191919",
"3  c gray10",
"4  c #1B1B1B",
"5  c gray11",
"6  c #1D1D1D",
"7  c #1E1E1E",
"8  c gray12",
"9  c #202020",
"0  c gray14",
"q  c gray15",
"w  c #272727",
"e  c #282828",
"r  c gray16",
"t  c #2F2F2F",
"y  c #323232",
"u  c gray20",
"i  c #353535",
"p  c gray21",
"a  c gray23",
"s  c #3C3C3C",
"d  c gray24",
"f  c #3F3F3F",
"g  c #414141",
"h  c gray26",
"j  c #444444",
"k  c #464646",
"l  c gray28",
"z  c #484848",
"x  c #494949",
"c  c gray29",
"v  c #4B4B4B",
"b  c #4E4E4E",
"n  c gray31",
"m  c #505050",
"M  c #515151",
"N  c gray33",
"B  c #555555",
"V  c #565656",
"C  c #5D5D5D",
"Z  c gray37",
"A  c #5F5F5F",
"S  c #606060",
"D  c gray40",
"F  c #686868",
"G  c gray42",
"H  c #6D6D6D",
"J  c gray43",
"K  c #6F6F6F",
"L  c #727272",
"P  c gray45",
"I  c gray46",
"U  c #767676",
"Y  c #797979",
"T  c gray50",
"R  c #808080",
"E  c gray51",
"W  c #838383",
"Q  c #848484",
"!  c #868686",
"~  c #888888",
"^  c #8D8D8D",
"/  c #8E8E8E",
"(  c gray56",
")  c #909090",
"_  c gray57",
"`  c #929292",
"'  c gray58",
"]  c #959595",
"[  c gray59",
"{  c #979797",
"}  c #989898",
"|  c #9A9A9A",
" . c gray61",
".. c #9D9D9D",
"X. c #9F9F9F",
"o. c #A0A0A0",
"O. c gray63",
"+. c #A2A2A2",
"@. c gray64",
"#. c #A5A5A5",
"$. c gray65",
"%. c #A9A9A9",
"&. c #AAAAAA",
"*. c #ACACAC",
"=. c gray68",
"-. c #AEAEAE",
";. c #AFAFAF",
":. c #B1B1B1",
">. c #B2B2B2",
",. c gray70",
"<. c #B4B4B4",
"1. c #B6B6B6",
"2. c #B7B7B7",
"3. c gray72",
"4. c #C0C0C0",
"5. c #C1C1C1",
"6. c #C3C3C3",
"7. c #C5C5C5",
"8. c #C6C6C6",
"9. c #CACACA",
"0. c #CDCDCD",
"q. c #CECECE",
"w. c gray81",
"e. c #D0D0D0",
"r. c gray82",
"t. c gray83",
"y. c #D5D5D5",
"u. c #D7D7D7",
"i. c #D8D8D8",
"p. c gray85",
"a. c #DADADA",
"s. c gainsboro",
"d. c #DDDDDD",
"f. c gray87",
"g. c #DFDFDF",
"h. c gray88",
"j. c #E1E1E1",
"k. c gray89",
"l. c gray90",
"z. c #E6E6E6",
"x. c #E7E7E7",
"c. c gray91",
"v. c #E9E9E9",
"b. c gray92",
"n. c #ECECEC",
"m. c gray93",
"M. c #EEEEEE",
"N. c #EFEFEF",
"B. c gray94",
"V. c #F1F1F1",
"C. c gray95",
"Z. c #F3F3F3",
"A. c #F4F4F4",
"S. c #F6F6F6",
"D. c gray97",
"F. c #F8F8F8",
"G. c #F9F9F9",
"H. c gray98",
"J. c #FBFBFB",
"K. c gray99",
"L. c #FDFDFD",
"P. c #FEFEFE",
"I. c white",
/* pixels */
"                                                                                                                                ",
"                                                                                                                                ",
"                                                                                                                                ",
"                                                                                                                                ",
"                                                                                                                                ",
"                                                                                                                                ",
"                                                                                                                                ",
"                                                                                                                                ",
"                                                                                                                                ",
"                                                                                                                                ",
"                                                                                                                                ",
"                                                                                                                                ",
"                                                                                                                                ",
"                                                                                                                                ",
"                                                                                                                                ",
"                                                                                                                                ",
"                                                                                                                                ",
"                                                                                                                                ",
"                                                                                                                                ",
"                                                                                                                                ",
"                                                                                                                                ",
"                                                                                                                                ",
"                                                                                                                                ",
"            6 ^ p.S.M.6.D o                                             6 ^ p.S.M.6.D o               k =.x.H.v.>.z             ",
"          l B.I.I.I.I.I.I.5.*                                         l B.I.I.I.I.I.I.5.*         O O.I.I.I.I.I.I.I.)           ",
"        e A.I.w.f & 0 ( I.I.@.                                      e A.I.w.f & 0 ( I.I.@.        ) I.L.` r $ q ..I.I.Z         ",
"        ,.I.g.>         ~ I.I.y                                     ,.I.g.>         ~ I.I.y     0 K.I.!           :.I.g..       ",
"      5 P.I.S           = V.I._     K I.I.[           : j.I.l.<   5 P.I.S           = V.I._     I I.H.=           d I.I.s       ",
"      F I.G.-           H J.I.t.      ,.I.I.k         @.I.L.f     F I.G.-           H J.I.t.    } I.z.            O G.I.P       ",
"      } I.w.        % +.I.I.I.J.#     < l.I.k.>     N I.I.T       } I.w.        % +.I.I.I.J.#   _ I.H.X             a.I.{       ",
"      2.I.-.      9 q.I.s.Y I.I.4       g L.I.+.  2 n.I.4.X       2.I.-.      9 q.I.s.Y I.I.4   S I.I.B             0.I.$.      ",
"      7.I.o.    j n.I.1., d I.I.r         Q I.I.M 1.I.b.3         7.I.o.    j n.I.1., d I.I.r   - n.I.N.F 7 @ 6 V =.L.I.%.      ",
"      8.I. .  U K.P.Q X   s I.I.e         O 8.I.F.I.P.c           8.I. .  U K.P.Q X   s I.I.e     l S.I.I.I.I.I.I.I.I.I.}       ",
"      3.I.=.&.I.C.m       x I.I.4           8 B.I.I._             3.I.=.&.I.C.m       x I.I.4       q  .g.G.D.s.$.m i.I.W       ",
"      X.I.I.I.u.e         G I.F.o           i G.I.I.6.o           X.I.I.I.u.e         G I.F.o                     @ G.I.n       ",
"      L I.I.;.-           O.I.0.          > f.I.r.P.I.W           L I.I.;.-           O.I.0.                      b I.J.<       ",
"      t I.I.M           & m.I.R           =.I.N.4 ] I.L.h         t I.I.M           & m.I.R                     + q.I.#.        ",
"        e.I.r.%         ! I.F.9         J I.I.A   = g.I.z.1         e.I.r.%         ! I.F.9                   ; -.I.Z.w         ",
"        j I.I.6.a * 8 / P.I.R         u G.I.<.      h P.I.2..       j I.I.6.a * 8 / P.I.R             + < d E z.I.G.M           ",
"          J L.I.I.I.I.I.I.| .       : d.I.M.3         { I.I.I         J L.I.I.I.I.I.I.| .         ~ I.I.I.I.I.I.y.p             ",
"            i $.l.G.x.,.v           *.I.I.C           = h.I.H.p         i $.l.G.x.,.v             ~ I.F.c.9.' l .               ",
"                                                                                                                                ",
"                                                                                                                                ",
"                                                                                                                                ",
"                                                                                                                                ",
"                                                                                                                                ",
"                                                                                                                                ",
"                                                                                                                                ",
"                                                                                                                                ",
"                                                                                                                                ",
"                                                                                                                                ",
"                                                                                                                                ",
"                                                                                                                                ",
"                                                                                                                                ",
"                                                                                                                                ",
"                                                                                                                                ",
"                                                                                                                                ",
"                                                                                                                                ",
"                                                                                                                                ",
"                                                                                                                                ",
"                                                                                                                                ",
"                                                                                                                                ",
"                                                                                                                                ",
"                                                                                                                                "
};
