/* XPM */
static char *debug_11[] = {
/* columns rows colors chars-per-pixel */
"64 64 160 2 ",
"   c black",
".  c #010101",
"X  c #020202",
"o  c gray1",
"O  c #040404",
"+  c gray2",
"@  c #070707",
"#  c gray3",
"$  c #090909",
"%  c gray4",
"&  c #0B0B0B",
"*  c #0C0C0C",
"=  c gray5",
"-  c #0E0E0E",
";  c gray6",
":  c #101010",
">  c #111111",
",  c gray8",
"<  c #151515",
"1  c #191919",
"2  c gray10",
"3  c #1B1B1B",
"4  c gray11",
"5  c #1D1D1D",
"6  c gray12",
"7  c #202020",
"8  c gray13",
"9  c #222222",
"0  c gray14",
"q  c #272727",
"w  c #282828",
"e  c gray16",
"r  c gray17",
"t  c #2F2F2F",
"y  c gray19",
"u  c #323232",
"i  c gray20",
"p  c #343434",
"a  c #353535",
"s  c gray21",
"d  c #393939",
"f  c gray23",
"g  c #3C3C3C",
"h  c gray24",
"j  c #3F3F3F",
"k  c #414141",
"l  c gray26",
"z  c #444444",
"x  c #464646",
"c  c gray28",
"v  c #494949",
"b  c gray29",
"n  c #4B4B4B",
"m  c #505050",
"M  c #515151",
"N  c gray33",
"B  c #555555",
"V  c gray36",
"C  c #5D5D5D",
"Z  c #5F5F5F",
"A  c #606060",
"S  c gray39",
"D  c gray40",
"F  c #686868",
"G  c gray42",
"H  c #6D6D6D",
"J  c gray43",
"K  c #6F6F6F",
"L  c #727272",
"P  c gray46",
"I  c #767676",
"U  c #797979",
"Y  c gray49",
"T  c gray50",
"R  c #808080",
"E  c gray51",
"W  c #838383",
"Q  c #848484",
"!  c #868686",
"~  c #888888",
"^  c #8D8D8D",
"/  c #8E8E8E",
"(  c gray56",
")  c gray57",
"_  c #929292",
"`  c #959595",
"'  c gray59",
"]  c #979797",
"[  c #989898",
"{  c #9A9A9A",
"}  c #9B9B9B",
"|  c gray61",
" . c #9F9F9F",
".. c #A0A0A0",
"X. c gray63",
"o. c #A2A2A2",
"O. c gray64",
"+. c gray65",
"@. c #AAAAAA",
"#. c gray67",
"$. c #ACACAC",
"%. c gray68",
"&. c #AEAEAE",
"*. c #AFAFAF",
"=. c #B1B1B1",
"-. c #B2B2B2",
";. c gray70",
":. c #B4B4B4",
">. c #B6B6B6",
",. c #B7B7B7",
"<. c gray72",
"1. c gray74",
"2. c gray75",
"3. c #C0C0C0",
"4. c #C1C1C1",
"5. c gray76",
"6. c #C3C3C3",
"7. c #C5C5C5",
"8. c #C6C6C6",
"9. c gray78",
"0. c #CDCDCD",
"q. c #CECECE",
"w. c gray81",
"e. c #D0D0D0",
"r. c gray82",
"t. c gray83",
"y. c #D5D5D5",
"u. c #D7D7D7",
"i. c #D8D8D8",
"p. c gray85",
"a. c gainsboro",
"s. c #DDDDDD",
"d. c gray87",
"f. c #DFDFDF",
"g. c gray88",
"h. c #E1E1E1",
"j. c gray89",
"k. c gray90",
"l. c #E6E6E6",
"z. c #E7E7E7",
"x. c gray92",
"c. c #ECECEC",
"v. c gray93",
"b. c #EEEEEE",
"n. c #EFEFEF",
"m. c gray94",
"M. c #F1F1F1",
"N. c gray95",
"B. c #F4F4F4",
"V. c gray96",
"C. c #F6F6F6",
"Z. c gray97",
"A. c #F8F8F8",
"S. c #F9F9F9",
"D. c gray98",
"F. c #FBFBFB",
"G. c gray99",
"H. c #FDFDFD",
"J. c #FEFEFE",
"K. c white",
/* pixels */
"                                                                                                                                ",
"                                                                                                                                ",
"                                                                                                                                ",
"                                                                                                                                ",
"                                                                                                                                ",
"                                                                                                                                ",
"                                                                                                                                ",
"                                                                                                                                ",
"                                                                                                                                ",
"                                                                                                                                ",
"                                                                                                                                ",
"                                                                                                                                ",
"                                                                                                                                ",
"                                                                                                                                ",
"                                                                                                                                ",
"                                                                                                                                ",
"                                                                                                                                ",
"                                                                                                                                ",
"                                                                                                                                ",
"                                                                                                                                ",
"                                                                                                                                ",
"                                                                                                                                ",
"                                                                                                                                ",
"            5 ^ p.C.b.6.D o                                             5 ^ p.C.b.6.D o           i.K.K.K.K.G.v.9.T ,           ",
"          c m.K.K.K.K.K.K.4.&                                         c m.K.K.K.K.K.K.4.&         i.K.K.K.K.K.K.K.K.c.y         ",
"        w B.K.w.j % 0 ( K.K.O.                                      w B.K.w.j % 0 ( K.K.O.        i.K.[     + 0 E H.K.e.        ",
"        ;.K.f.:         ~ K.K.u                                     ;.K.f.:         ~ K.K.u       i.K.[           } K.K.9       ",
"      4 J.K.A           * M.K.)     K K.K.'           ; h.K.k.,   4 J.K.A           * M.K.)       i.K.[           B K.K.d       ",
"      F K.S.=           H F.K.t.      ;.K.K.x         O.K.H.j     F K.S.=           H F.K.t.      i.K.[           V K.K.8       ",
"      [ K.w.        $ o.K.K.K.F.@     , k.K.j.:     N K.K.T       [ K.w.        $ o.K.K.K.F.@     i.K.[         X 2.K.t.        ",
"      ,.K.&.      7 q.K.a.U K.K.3       k H.K.o.  1 c.K.3.X       ,.K.&.      7 q.K.a.U K.K.3     i.K.[     - d =.K.V.h         ",
"      7.K...    z c.K.>.> h K.K.e         Q K.K.M >.K.x.2         7.K...    z c.K.>.> h K.K.e     i.K.K.K.K.K.K.K.0.q           ",
"      8.K.|   I G.J.Q X   g K.K.w         O 8.K.A.K.J.b           8.K.|   I G.J.Q X   g K.K.w     i.K.K.K.K.K.K.K.K.y.s         ",
"      <.K.%.@.K.N.m       v K.K.3           6 m.K.K.)             <.K.%.@.K.N.m       v K.K.3     i.K.[     * r Y c.K.Z.q       ",
"       .K.K.K.u.w         G K.A.o           a S.K.K.6.o            .K.K.K.u.w         G K.A.o     i.K.[           w S.K.#.      ",
"      L K.K.*.=           X.K.0.          : d.K.r.J.K.W           L K.K.*.=           X.K.0.      i.K.[             1.K.a.      ",
"      t K.K.M           % v.K.R           %.K.n.3 ` K.H.l         t K.K.M           % v.K.R       i.K.[             5.K.e.      ",
"        e.K.r.$         ! K.A.7         J K.K.Z   * f.K.l.<         e.K.r.$         ! K.A.7       i.K.[           7 A.K._       ",
"        z K.K.6.f & 6 / J.K.R         i S.K.:.      l J.K.,..       z K.K.6.f & 6 / J.K.R         i.K.[     O 3 C f.K.n.4       ",
"          J H.K.K.K.K.K.K.{ .       ; s.K.b.2         ] K.K.P         J H.K.K.K.K.K.K.{ .         i.K.K.K.K.K.K.K.K.g.p         ",
"            a +.k.S.z.;.n           $.K.K.C           * g.K.D.s         a +.k.S.z.;.n             i.K.K.K.K.Z.h.-.S #           ",
"                                                                                                                                ",
"                                                                                                                                ",
"                                                                                                                                ",
"                                                                                                                                ",
"                                                                                                                                ",
"                                                                                                                                ",
"                                                                                                                                ",
"                                                                                                                                ",
"                                                                                                                                ",
"                                                                                                                                ",
"                                                                                                                                ",
"                                                                                                                                ",
"                                                                                                                                ",
"                                                                                                                                ",
"                                                                                                                                ",
"                                                                                                                                ",
"                                                                                                                                ",
"                                                                                                                                ",
"                                                                                                                                ",
"                                                                                                                                ",
"                                                                                                                                ",
"                                                                                                                                ",
"                                                                                                                                "
};
