/* XPM */
static char *debug_20[] = {
/* columns rows colors chars-per-pixel */
"64 64 155 2 ",
"   c black",
".  c #010101",
"X  c #020202",
"o  c gray1",
"O  c #040404",
"+  c #060606",
"@  c #070707",
"#  c gray3",
"$  c #090909",
"%  c gray4",
"&  c #0B0B0B",
"*  c #0C0C0C",
"=  c gray5",
"-  c gray6",
";  c #101010",
":  c #111111",
">  c gray8",
",  c #151515",
"<  c #161616",
"1  c #191919",
"2  c gray10",
"3  c #1B1B1B",
"4  c gray11",
"5  c #1D1D1D",
"6  c gray12",
"7  c #202020",
"8  c gray13",
"9  c gray14",
"0  c #252525",
"q  c #282828",
"w  c gray16",
"e  c #2A2A2A",
"r  c #2F2F2F",
"t  c #323232",
"y  c gray20",
"u  c #353535",
"i  c gray21",
"p  c #393939",
"a  c gray23",
"s  c #3C3C3C",
"d  c gray24",
"f  c #3F3F3F",
"g  c #414141",
"h  c gray26",
"j  c #444444",
"k  c #464646",
"l  c gray28",
"z  c #494949",
"x  c gray29",
"c  c #4B4B4B",
"v  c #505050",
"b  c #515151",
"n  c gray33",
"m  c #585858",
"M  c gray35",
"N  c #5D5D5D",
"B  c #5F5F5F",
"V  c #606060",
"C  c #626262",
"Z  c gray40",
"A  c #686868",
"S  c gray42",
"D  c #6C6C6C",
"F  c #6D6D6D",
"G  c gray43",
"H  c #6F6F6F",
"J  c #727272",
"K  c #747474",
"L  c gray46",
"P  c #767676",
"I  c #797979",
"U  c gray50",
"Y  c #808080",
"T  c #838383",
"R  c #848484",
"E  c #868686",
"W  c #888888",
"Q  c #8D8D8D",
"!  c #8E8E8E",
"~  c gray56",
"^  c gray57",
"/  c #929292",
"(  c #959595",
")  c gray59",
"_  c #979797",
"`  c #989898",
"'  c #9A9A9A",
"]  c gray61",
"[  c #9F9F9F",
"{  c #A0A0A0",
"}  c gray63",
"|  c #A2A2A2",
" . c gray64",
".. c #A4A4A4",
"X. c gray65",
"o. c #A7A7A7",
"O. c #AAAAAA",
"+. c #ACACAC",
"@. c gray68",
"#. c #AEAEAE",
"$. c #AFAFAF",
"%. c gray70",
"&. c #B4B4B4",
"*. c #B6B6B6",
"=. c #B7B7B7",
"-. c gray72",
";. c gray",
":. c #C0C0C0",
">. c #C1C1C1",
",. c #C3C3C3",
"<. c #C5C5C5",
"1. c #C6C6C6",
"2. c #CDCDCD",
"3. c #CECECE",
"4. c gray81",
"5. c #D0D0D0",
"6. c gray82",
"7. c gray83",
"8. c #D5D5D5",
"9. c #D7D7D7",
"0. c gray85",
"q. c gray86",
"w. c gainsboro",
"e. c #DDDDDD",
"r. c gray87",
"t. c #DFDFDF",
"y. c gray88",
"u. c #E1E1E1",
"i. c gray89",
"p. c #E4E4E4",
"a. c gray90",
"s. c #E6E6E6",
"d. c #E7E7E7",
"f. c #E9E9E9",
"g. c gray92",
"h. c #ECECEC",
"j. c gray93",
"k. c #EEEEEE",
"l. c #EFEFEF",
"z. c gray94",
"x. c #F1F1F1",
"c. c gray95",
"v. c #F3F3F3",
"b. c #F4F4F4",
"n. c gray96",
"m. c #F6F6F6",
"M. c gray97",
"N. c #F8F8F8",
"B. c #F9F9F9",
"V. c gray98",
"C. c #FBFBFB",
"Z. c gray99",
"A. c #FDFDFD",
"S. c #FEFEFE",
"D. c white",
/* pixels */
"                                                                                                                                ",
"                                                                                                                                ",
"                                                                                                                                ",
"                                                                                                                                ",
"                                                                                                                                ",
"                                                                                                                                ",
"                                                                                                                                ",
"                                                                                                                                ",
"                                                                                                                                ",
"                                                                                                                                ",
"                                                                                                                                ",
"                                                                                                                                ",
"                                                                                                                                ",
"                                                                                                                                ",
"                                                                                                                                ",
"                                                                                                                                ",
"                                                                                                                                ",
"                                                                                                                                ",
"                                                                                                                                ",
"                                                                                                                                ",
"                                                                                                                                ",
"                                                                                                                                ",
"                                                                                                                                ",
"            5 Q 0.m.k.,.Z o                                               # K j.D...                        0 M.D.D.{           ",
"          l z.D.D.D.D.D.D.>.&                                         O Z p.D.D.D...                        ;.D.D.D.{           ",
"        q b.D.4.f % 9 ~ D.D. .                                    . m q.D.l.M D.D...                      C D.v.s.D.{           ",
"        %.D.t.;         W D.D.t                                   @ f.D.;.5   D.D...                    < j.D.D 5.D.{           ",
"      4 S.D.V           * x.D.^     H D.D.)           - u.D.a.>     I K .     D.D...                    o.D.1.X 5.D.{           ",
"      A D.B.=           F C.D.7.      %.D.D.k          .D.A.f                 D.D...                  z D.B.e   5.D.{           ",
"      ` D.4.        $ | D.D.D.C.@     > a.D.i.;     n D.D.U                   D.D...                & y.D.U     5.D.{           ",
"      =.D.#.      7 3.D.w.I D.D.3       g A.D.|   1 h.D.:.X                   D.D...                ! D.8.+     5.D.{           ",
"      <.D.{     j h.D.*.: d D.D.w         R D.D.b *.D.g.2                     D.D...              y Z.A.p       5.D.{           ",
"      1.D.]   P Z.S.R X   s D.D.q         O 1.D.N.D.S.x                       D.D...            o 3.D./         5.D.{           ",
"      -.D.@.O.D.c.v       z D.D.3           6 z.D.D.^                         D.D...            L D.u.*         5.D.{           ",
"      [ D.D.D.9.q         S D.N.o           u B.D.D.,.o                       D.D...          8 n.D.x           5.D.{           ",
"      J D.D.$.=           } D.2.          ; r.D.6.S.D.T                       D.D...          A D.D.D.D.D.D.D.D.D.D.D.D.D.+.    ",
"      r D.D.b           % j.D.Y           @.D.l.3 ( D.A.h                     D.D...          A D.D.D.D.D.D.D.D.D.D.D.D.D.+.    ",
"        5.D.6.$         E D.N.7         G D.D.B   * t.D.s.,                   D.D...                            5.D.{           ",
"        j D.D.,.a & 6 ! S.D.Y         y B.D.&.      h S.D.=..                 D.D...                            5.D.{           ",
"          G A.D.D.D.D.D.D.' .       - e.D.k.2         _ D.D.L       ` D.D.D.D.D.D.D.D.D.D.{                     5.D.{           ",
"            u X.a.B.d.%.c           +.D.D.N           * y.D.V.i     ` D.D.D.D.D.D.D.D.D.D.{                     5.D.{           ",
"                                                                                                                                ",
"                                                                                                                                ",
"                                                                                                                                ",
"                                                                                                                                ",
"                                                                                                                                ",
"                                                                                                                                ",
"                                                                                                                                ",
"                                                                                                                                ",
"                                                                                                                                ",
"                                                                                                                                ",
"                                                                                                                                ",
"                                                                                                                                ",
"                                                                                                                                ",
"                                                                                                                                ",
"                                                                                                                                ",
"                                                                                                                                ",
"                                                                                                                                ",
"                                                                                                                                ",
"                                                                                                                                ",
"                                                                                                                                ",
"                                                                                                                                ",
"                                                                                                                                ",
"                                                                                                                                "
};
