/* XPM */
static char *debug_27[] = {
/* columns rows colors chars-per-pixel */
"64 64 168 2 ",
"   c black",
".  c #010101",
"X  c #020202",
"o  c gray1",
"O  c #040404",
"+  c gray2",
"@  c #070707",
"#  c gray3",
"$  c #090909",
"%  c gray4",
"&  c #0B0B0B",
"*  c #0C0C0C",
"=  c gray5",
"-  c #0E0E0E",
";  c gray6",
":  c #101010",
">  c #111111",
",  c gray8",
"<  c #151515",
"1  c #191919",
"2  c gray10",
"3  c #1B1B1B",
"4  c gray11",
"5  c #1D1D1D",
"6  c gray12",
"7  c #202020",
"8  c gray13",
"9  c #222222",
"0  c gray14",
"q  c #272727",
"w  c #282828",
"e  c gray16",
"r  c gray17",
"t  c #2F2F2F",
"y  c gray19",
"u  c #323232",
"i  c gray20",
"p  c #343434",
"a  c #353535",
"s  c gray21",
"d  c #393939",
"f  c gray23",
"g  c #3C3C3C",
"h  c gray24",
"j  c #3F3F3F",
"k  c #414141",
"l  c gray26",
"z  c #444444",
"x  c #464646",
"c  c gray28",
"v  c #494949",
"b  c gray29",
"n  c #4B4B4B",
"m  c #505050",
"M  c #515151",
"N  c gray33",
"B  c #555555",
"V  c #585858",
"C  c gray35",
"Z  c gray36",
"A  c #5D5D5D",
"S  c #5F5F5F",
"D  c #606060",
"F  c gray39",
"G  c gray40",
"H  c #686868",
"J  c gray42",
"K  c #6D6D6D",
"L  c gray43",
"P  c #6F6F6F",
"I  c #727272",
"U  c #747474",
"Y  c gray46",
"T  c #767676",
"R  c #797979",
"E  c gray49",
"W  c gray50",
"Q  c #808080",
"!  c gray51",
"~  c #838383",
"^  c #848484",
"/  c #868686",
"(  c #888888",
")  c #8D8D8D",
"_  c #8E8E8E",
"`  c gray56",
"'  c gray57",
"]  c #929292",
"[  c #959595",
"{  c gray59",
"}  c #979797",
"|  c #989898",
" . c #9A9A9A",
".. c #9B9B9B",
"X. c gray61",
"o. c #9F9F9F",
"O. c #A0A0A0",
"+. c gray63",
"@. c #A2A2A2",
"#. c gray64",
"$. c #A4A4A4",
"%. c gray65",
"&. c #AAAAAA",
"*. c gray67",
"=. c #ACACAC",
"-. c gray68",
";. c #AEAEAE",
":. c #AFAFAF",
">. c #B1B1B1",
",. c #B2B2B2",
"<. c gray70",
"1. c #B4B4B4",
"2. c #B6B6B6",
"3. c #B7B7B7",
"4. c gray72",
"5. c gray74",
"6. c gray",
"7. c gray75",
"8. c #C0C0C0",
"9. c #C1C1C1",
"0. c gray76",
"q. c #C3C3C3",
"w. c #C5C5C5",
"e. c #C6C6C6",
"r. c gray78",
"t. c #CDCDCD",
"y. c #CECECE",
"u. c gray81",
"i. c #D0D0D0",
"p. c gray82",
"a. c gray83",
"s. c #D5D5D5",
"d. c #D7D7D7",
"f. c #D8D8D8",
"g. c gray85",
"h. c gray86",
"j. c gainsboro",
"k. c #DDDDDD",
"l. c gray87",
"z. c #DFDFDF",
"x. c gray88",
"c. c #E1E1E1",
"v. c gray89",
"b. c #E4E4E4",
"n. c gray90",
"m. c #E6E6E6",
"M. c #E7E7E7",
"N. c #E9E9E9",
"B. c gray92",
"V. c #ECECEC",
"C. c gray93",
"Z. c #EEEEEE",
"A. c #EFEFEF",
"S. c gray94",
"D. c #F1F1F1",
"F. c gray95",
"G. c #F4F4F4",
"H. c gray96",
"J. c #F6F6F6",
"K. c gray97",
"L. c #F8F8F8",
"P. c #F9F9F9",
"I. c gray98",
"U. c #FBFBFB",
"Y. c gray99",
"T. c #FDFDFD",
"R. c #FEFEFE",
"E. c white",
/* pixels */
"                                                                                                                                ",
"                                                                                                                                ",
"                                                                                                                                ",
"                                                                                                                                ",
"                                                                                                                                ",
"                                                                                                                                ",
"                                                                                                                                ",
"                                                                                                                                ",
"                                                                                                                                ",
"                                                                                                                                ",
"                                                                                                                                ",
"                                                                                                                                ",
"                                                                                                                                ",
"                                                                                                                                ",
"                                                                                                                                ",
"                                                                                                                                ",
"                                                                                                                                ",
"                                                                                                                                ",
"                                                                                                                                ",
"                                                                                                                                ",
"                                                                                                                                ",
"                                                                                                                                ",
"                                                                                                                                ",
"            5 ) g.J.Z.q.G o                                               # U C.E.$.              f.E.E.E.E.Y.C.r.W ,           ",
"          c S.E.E.E.E.E.E.9.&                                         O G b.E.E.E.$.              f.E.E.E.E.E.E.E.E.V.y         ",
"        w G.E.u.j % 0 ` E.E.#.                                    . V h.E.A.C E.E.$.              f.E.|     + 0 ! T.E.i.        ",
"        <.E.z.:         ( E.E.u                                   @ N.E.6.5   E.E.$.              f.E.|           ..E.E.9       ",
"      4 R.E.D           * D.E.'     P E.E.{           ; c.E.n.,     R U .     E.E.$.              f.E.|           B E.E.d       ",
"      H E.P.=           K U.E.a.      <.E.E.x         #.E.T.j                 E.E.$.              f.E.|           Z E.E.8       ",
"      | E.u.        $ @.E.E.E.U.@     , n.E.v.:     N E.E.W                   E.E.$.              f.E.|         X 7.E.a.        ",
"      3.E.;.      7 y.E.j.R E.E.3       k T.E.@.  1 V.E.8.X                   E.E.$.              f.E.|     - d >.E.H.h         ",
"      w.E.O.    z V.E.2.> h E.E.e         ^ E.E.M 2.E.B.2                     E.E.$.              f.E.E.E.E.E.E.E.t.q           ",
"      e.E.X.  T Y.R.^ X   g E.E.w         O e.E.L.E.R.b                       E.E.$.              f.E.E.E.E.E.E.E.E.s.s         ",
"      4.E.-.&.E.F.m       v E.E.3           6 S.E.E.'                         E.E.$.              f.E.|     * r E V.E.K.q       ",
"      o.E.E.E.d.w         J E.L.o           a P.E.E.q.o                       E.E.$.              f.E.|           w P.E.*.      ",
"      I E.E.:.=           +.E.t.          : l.E.p.R.E.~                       E.E.$.              f.E.|             5.E.j.      ",
"      t E.E.M           % C.E.Q           -.E.A.3 [ E.T.l                     E.E.$.              f.E.|             0.E.i.      ",
"        i.E.p.$         / E.L.7         L E.E.S   * z.E.m.<                   E.E.$.              f.E.|           7 L.E.]       ",
"        z E.E.q.f & 6 _ R.E.Q         i P.E.1.      l R.E.3..                 E.E.$.              f.E.|     O 3 A z.E.A.4       ",
"          L T.E.E.E.E.E.E. ..       ; k.E.Z.2         } E.E.Y       | E.E.E.E.E.E.E.E.E.E.O.      f.E.E.E.E.E.E.E.E.x.p         ",
"            a %.n.P.M.<.n           =.E.E.A           * x.E.I.s     | E.E.E.E.E.E.E.E.E.E.O.      f.E.E.E.E.K.c.,.F #           ",
"                                                                                                                                ",
"                                                                                                                                ",
"                                                                                                                                ",
"                                                                                                                                ",
"                                                                                                                                ",
"                                                                                                                                ",
"                                                                                                                                ",
"                                                                                                                                ",
"                                                                                                                                ",
"                                                                                                                                ",
"                                                                                                                                ",
"                                                                                                                                ",
"                                                                                                                                ",
"                                                                                                                                ",
"                                                                                                                                ",
"                                                                                                                                ",
"                                                                                                                                ",
"                                                                                                                                ",
"                                                                                                                                ",
"                                                                                                                                ",
"                                                                                                                                ",
"                                                                                                                                ",
"                                                                                                                                "
};
