/* XPM */
static char *debug_29[] = {
/* columns rows colors chars-per-pixel */
"64 64 156 2 ",
"   c black",
".  c #010101",
"X  c #020202",
"o  c gray1",
"O  c #040404",
"+  c #060606",
"@  c #070707",
"#  c gray3",
"$  c #090909",
"%  c gray4",
"&  c #0B0B0B",
"*  c #0C0C0C",
"=  c gray5",
"-  c #0E0E0E",
";  c gray6",
":  c #101010",
">  c #111111",
",  c gray7",
"<  c gray8",
"1  c #151515",
"2  c #191919",
"3  c gray10",
"4  c #1B1B1B",
"5  c gray11",
"6  c #1D1D1D",
"7  c #1E1E1E",
"8  c gray12",
"9  c #202020",
"0  c gray13",
"q  c gray14",
"w  c #282828",
"e  c gray16",
"r  c gray18",
"t  c #2F2F2F",
"y  c gray19",
"u  c #323232",
"i  c gray20",
"p  c #353535",
"a  c gray21",
"s  c #393939",
"d  c gray23",
"f  c #3C3C3C",
"g  c gray24",
"h  c #3F3F3F",
"j  c #414141",
"k  c gray26",
"l  c #444444",
"z  c #464646",
"x  c gray28",
"c  c #494949",
"v  c gray29",
"b  c #4B4B4B",
"n  c gray31",
"m  c #505050",
"M  c #515151",
"N  c gray33",
"B  c #585858",
"V  c gray35",
"C  c #5D5D5D",
"Z  c gray37",
"A  c #5F5F5F",
"S  c #606060",
"D  c gray38",
"F  c gray40",
"G  c #686868",
"H  c gray42",
"J  c #6D6D6D",
"K  c gray43",
"L  c #6F6F6F",
"P  c #727272",
"I  c #747474",
"U  c gray46",
"Y  c #767676",
"T  c #797979",
"R  c gray50",
"E  c #808080",
"W  c #818181",
"Q  c #838383",
"!  c #848484",
"~  c #868686",
"^  c #888888",
"/  c #8D8D8D",
"(  c #8E8E8E",
")  c gray56",
"_  c gray57",
"`  c #959595",
"'  c gray59",
"]  c #979797",
"[  c #989898",
"{  c #9A9A9A",
"}  c gray61",
"|  c #9F9F9F",
" . c #A0A0A0",
".. c gray63",
"X. c #A2A2A2",
"o. c gray64",
"O. c #A4A4A4",
"+. c gray65",
"@. c #AAAAAA",
"#. c #ACACAC",
"$. c gray68",
"%. c #AEAEAE",
"&. c #AFAFAF",
"*. c gray69",
"=. c #B2B2B2",
"-. c gray70",
";. c #B4B4B4",
":. c #B6B6B6",
">. c #B7B7B7",
",. c gray72",
"<. c gray",
"1. c #C0C0C0",
"2. c #C1C1C1",
"3. c #C3C3C3",
"4. c #C5C5C5",
"5. c #C6C6C6",
"6. c #CDCDCD",
"7. c #CECECE",
"8. c gray81",
"9. c #D0D0D0",
"0. c gray82",
"q. c gray83",
"w. c #D7D7D7",
"e. c gray85",
"r. c #DADADA",
"t. c gray86",
"y. c gainsboro",
"u. c #DDDDDD",
"i. c gray87",
"p. c #DFDFDF",
"a. c gray88",
"s. c #E1E1E1",
"d. c gray89",
"f. c #E4E4E4",
"g. c gray90",
"h. c #E6E6E6",
"j. c #E7E7E7",
"k. c #E9E9E9",
"l. c gray92",
"z. c #ECECEC",
"x. c gray93",
"c. c #EEEEEE",
"v. c #EFEFEF",
"b. c gray94",
"n. c #F1F1F1",
"m. c gray95",
"M. c #F4F4F4",
"N. c #F6F6F6",
"B. c #F8F8F8",
"V. c #F9F9F9",
"C. c gray98",
"Z. c #FBFBFB",
"A. c gray99",
"S. c #FDFDFD",
"D. c #FEFEFE",
"F. c white",
/* pixels */
"                                                                                                                                ",
"                                                                                                                                ",
"                                                                                                                                ",
"                                                                                                                                ",
"                                                                                                                                ",
"                                                                                                                                ",
"                                                                                                                                ",
"                                                                                                                                ",
"                                                                                                                                ",
"                                                                                                                                ",
"                                                                                                                                ",
"                                                                                                                                ",
"                                                                                                                                ",
"                                                                                                                                ",
"                                                                                                                                ",
"                                                                                                                                ",
"                                                                                                                                ",
"                                                                                                                                ",
"                                                                                                                                ",
"                                                                                                                                ",
"                                                                                                                                ",
"                                                                                                                                ",
"                                                                                                                                ",
"            6 / e.N.c.3.F o                                               # I x.F.O.            ! F.F.F.F.B.h.1.W 6             ",
"          x b.F.F.F.F.F.F.2.&                                         O F f.F.F.F.O.            ! F.F.F.F.F.F.F.F.C.R .         ",
"        w M.F.8.h % q ) F.F.o.                                    . B t.F.v.V F.F.O.            ! F.z.    # 0 A 9.F.F.)         ",
"        -.F.p.:         ^ F.F.u                                   @ k.F.<.6   F.F.O.            ! F.z.          + *.F.F.h       ",
"      5 D.F.S           * n.F._     L F.F.'           ; s.F.g.<     T I .     F.F.O.            ! F.z.            , b.F.=.      ",
"      G F.V.=           J Z.F.q.      -.F.F.z         o.F.S.h                 F.F.O.            ! F.z.              } F.V.+     ",
"      [ F.8.        $ X.F.F.F.Z.@     < g.F.d.:     N F.F.R                   F.F.O.            ! F.z.              D F.F.p     ",
"      >.F.%.      9 7.F.y.T F.F.4       j S.F.X.  2 z.F.1.X                   F.F.O.            ! F.z.              f F.F.n     ",
"      4.F. .    l z.F.:.> g F.F.e         ! F.F.M :.F.l.3                     F.F.O.            ! F.z.              r F.F.Z     ",
"      5.F.}   Y A.D.! X   f F.F.w         O 5.F.B.F.D.v                       F.F.O.            ! F.z.              y F.F.N     ",
"      ,.F.$.@.F.m.m       c F.F.4           8 b.F.F._                         F.F.O.            ! F.z.              j F.F.h     ",
"      | F.F.F.w.w         H F.B.o           p V.F.F.3.o                       F.F.O.            ! F.z.              J F.F.7     ",
"      P F.F.&.=           ..F.6.          : i.F.0.D.F.Q                       F.F.O.            ! F.z.              :.F.w.      ",
"      t F.F.M           % x.F.E           $.F.v.4 ` F.S.k                     F.F.O.            ! F.z.            u S.F.~       ",
"        9.F.0.$         ~ F.B.9         K F.F.A   * p.F.h.1                   F.F.O.            ! F.z.          8 r.F.z.1       ",
"        l F.F.3.d & 8 ( D.F.E         i V.F.;.      k D.F.>..                 F.F.O.            ! F.z.    - i W b.F.B.z         ",
"          K S.F.F.F.F.F.F.{ .       ; u.F.c.3         ] F.F.U       [ F.F.F.F.F.F.F.F.F.F. .    ! F.F.F.F.F.F.F.F.w.s           ",
"            p +.g.V.j.-.b           #.F.F.C           * a.F.C.a     [ F.F.F.F.F.F.F.F.F.F. .    ! F.F.F.S.n.q.X.M o             ",
"                                                                                                                                ",
"                                                                                                                                ",
"                                                                                                                                ",
"                                                                                                                                ",
"                                                                                                                                ",
"                                                                                                                                ",
"                                                                                                                                ",
"                                                                                                                                ",
"                                                                                                                                ",
"                                                                                                                                ",
"                                                                                                                                ",
"                                                                                                                                ",
"                                                                                                                                ",
"                                                                                                                                ",
"                                                                                                                                ",
"                                                                                                                                ",
"                                                                                                                                ",
"                                                                                                                                ",
"                                                                                                                                ",
"                                                                                                                                ",
"                                                                                                                                ",
"                                                                                                                                ",
"                                                                                                                                "
};
