/* XPM */
static char *debug_6[] = {
/* columns rows colors chars-per-pixel */
"64 64 166 2 ",
"   c black",
".  c #010101",
"X  c #020202",
"o  c gray1",
"O  c #040404",
"+  c #070707",
"@  c gray3",
"#  c #090909",
"$  c gray4",
"%  c #0B0B0B",
"&  c #0C0C0C",
"*  c gray5",
"=  c gray6",
"-  c #101010",
";  c #111111",
":  c gray8",
">  c #151515",
",  c #161616",
"<  c gray9",
"1  c #191919",
"2  c gray10",
"3  c #1B1B1B",
"4  c gray11",
"5  c #1D1D1D",
"6  c #1E1E1E",
"7  c gray12",
"8  c #202020",
"9  c gray13",
"0  c gray14",
"q  c #252525",
"w  c #282828",
"e  c gray16",
"r  c #2A2A2A",
"t  c gray17",
"y  c #2D2D2D",
"u  c #2F2F2F",
"i  c gray19",
"p  c #323232",
"a  c gray20",
"s  c #353535",
"d  c gray21",
"f  c gray23",
"g  c #3C3C3C",
"h  c gray24",
"j  c #3E3E3E",
"k  c #3F3F3F",
"l  c #414141",
"z  c gray26",
"x  c #444444",
"c  c gray27",
"v  c #464646",
"b  c gray28",
"n  c #494949",
"m  c gray29",
"M  c #4B4B4B",
"N  c #505050",
"B  c #515151",
"V  c gray33",
"C  c #565656",
"Z  c #585858",
"A  c gray35",
"S  c #5B5B5B",
"D  c #5D5D5D",
"F  c #5F5F5F",
"G  c #606060",
"H  c gray40",
"J  c #686868",
"K  c gray42",
"L  c #6D6D6D",
"P  c gray43",
"I  c #6F6F6F",
"U  c #727272",
"Y  c #747474",
"T  c gray46",
"R  c #767676",
"E  c #797979",
"W  c gray50",
"Q  c #808080",
"!  c gray51",
"~  c #838383",
"^  c #848484",
"/  c #868686",
"(  c #888888",
")  c #8D8D8D",
"_  c #8E8E8E",
"`  c gray56",
"'  c #909090",
"]  c gray57",
"[  c #939393",
"{  c #959595",
"}  c gray59",
"|  c #979797",
" . c #989898",
".. c #9A9A9A",
"X. c #9B9B9B",
"o. c gray61",
"O. c #9D9D9D",
"+. c #9F9F9F",
"@. c #A0A0A0",
"#. c gray63",
"$. c #A2A2A2",
"%. c gray64",
"&. c #A5A5A5",
"*. c gray65",
"=. c #AAAAAA",
"-. c #ACACAC",
";. c gray68",
":. c #AEAEAE",
">. c #AFAFAF",
",. c gray70",
"<. c #B4B4B4",
"1. c #B6B6B6",
"2. c #B7B7B7",
"3. c gray72",
"4. c #B9B9B9",
"5. c gray",
"6. c gray75",
"7. c #C0C0C0",
"8. c #C1C1C1",
"9. c #C3C3C3",
"0. c #C5C5C5",
"q. c #C6C6C6",
"w. c #C8C8C8",
"e. c gray79",
"r. c gray80",
"t. c #CDCDCD",
"y. c #CECECE",
"u. c gray81",
"i. c #D0D0D0",
"p. c gray82",
"a. c gray83",
"s. c #D5D5D5",
"d. c #D7D7D7",
"f. c gray85",
"g. c gainsboro",
"h. c #DDDDDD",
"j. c gray87",
"k. c #DFDFDF",
"l. c gray88",
"z. c #E1E1E1",
"x. c gray89",
"c. c #E4E4E4",
"v. c gray90",
"b. c #E6E6E6",
"n. c #E7E7E7",
"m. c #E9E9E9",
"M. c gray92",
"N. c #ECECEC",
"B. c gray93",
"V. c #EEEEEE",
"C. c #EFEFEF",
"Z. c gray94",
"A. c #F1F1F1",
"S. c gray95",
"D. c #F3F3F3",
"F. c #F4F4F4",
"G. c #F6F6F6",
"H. c gray97",
"J. c #F8F8F8",
"K. c #F9F9F9",
"L. c gray98",
"P. c #FBFBFB",
"I. c gray99",
"U. c #FDFDFD",
"Y. c #FEFEFE",
"T. c white",
/* pixels */
"                                                                                                                                ",
"                                                                                                                                ",
"                                                                                                                                ",
"                                                                                                                                ",
"                                                                                                                                ",
"                                                                                                                                ",
"                                                                                                                                ",
"                                                                                                                                ",
"                                                                                                                                ",
"                                                                                                                                ",
"                                                                                                                                ",
"                                                                                                                                ",
"                                                                                                                                ",
"                                                                                                                                ",
"                                                                                                                                ",
"                                                                                                                                ",
"                                                                                                                                ",
"                                                                                                                                ",
"                                                                                                                                ",
"                                                                                                                                ",
"                                                                                                                                ",
"                                                                                                                                ",
"                                                                                                                                ",
"            5 ) f.G.V.9.H o                                             5 ) f.G.V.9.H o                   d ' e.N.L.T.o.        ",
"          b Z.T.T.T.T.T.T.8.%                                         b Z.T.T.T.T.T.T.8.%             < <.T.T.T.T.T.T.o.        ",
"        w F.T.u.k $ 0 ` T.T.%.                                      w F.T.u.k $ 0 ` T.T.%.          2 l.T.D.' z : O             ",
"        ,.T.k.-         ( T.T.p                                     ,.T.k.-         ( T.T.p         5.T.d.9                     ",
"      4 Y.T.G           & A.T.]     I T.T.}           = z.T.v.:   4 Y.T.G           & A.T.]       n T.K.0                       ",
"      J T.K.*           L P.T.a.      ,.T.T.v         %.T.U.k     J T.K.*           L P.T.a.      &.T.#.                        ",
"       .T.u.        # $.T.T.T.P.+     : v.T.x.-     V T.T.W        .T.u.        # $.T.T.T.P.+     c.T.Z                         ",
"      2.T.:.      8 y.T.g.E T.T.3       l U.T.$.  1 N.T.7.X       2.T.:.      8 y.T.g.E T.T.3   6 T.T.S ( w.V.P.N.4.V           ",
"      0.T.@.    x N.T.1.; h T.T.e         ^ T.T.B 1.T.M.2         0.T.@.    x N.T.1.; h T.T.e   s T.T.T.T.T.T.T.T.T.T.o.        ",
"      q.T.o.  R I.Y.^ X   g T.T.w         O q.T.J.T.Y.m           q.T.o.  R I.Y.^ X   g T.T.w   c T.T.s.Y i % @ k r.T.T.A       ",
"      3.T.;.=.T.S.N       n T.T.3           7 Z.T.T.]             3.T.;.=.T.S.N       n T.T.3   M T.T.w           = m.T.6.      ",
"      +.T.T.T.d.w         K T.J.o           s K.T.T.9.o           +.T.T.T.d.w         K T.J.o   j T.T.s             O.T.Z.      ",
"      U T.T.>.*           #.T.t.          - j.T.p.Y.T.~           U T.T.>.*           #.T.t.    9 T.T.C             ! T.H.      ",
"      u T.T.B           $ B.T.Q           ;.T.C.3 { T.U.z         u T.T.B           $ B.T.Q     . V.T.[             %.T.s.      ",
"        i.T.p.#         / T.J.8         P T.T.F   & k.T.b.>         i.T.p.#         / T.J.8       X.T.Z.>         r J.T.!       ",
"        x T.T.9.f % 7 _ Y.T.Q         a K.T.<.      z Y.T.2..       x T.T.9.f % 7 _ Y.T.Q         q J.T.p.l $ , Z v.T.x.-       ",
"          P U.T.T.T.T.T.T....       = h.T.V.2         | T.T.T         P U.T.T.T.T.T.T....           A I.T.T.T.T.T.T.j.t         ",
"            s *.v.K.n.,.M           -.T.T.D           & l.T.L.d         s *.v.K.n.,.M                 y $.z.K.Z.w.T &           ",
"                                                                                                                                ",
"                                                                                                                                ",
"                                                                                                                                ",
"                                                                                                                                ",
"                                                                                                                                ",
"                                                                                                                                ",
"                                                                                                                                ",
"                                                                                                                                ",
"                                                                                                                                ",
"                                                                                                                                ",
"                                                                                                                                ",
"                                                                                                                                ",
"                                                                                                                                ",
"                                                                                                                                ",
"                                                                                                                                ",
"                                                                                                                                ",
"                                                                                                                                ",
"                                                                                                                                ",
"                                                                                                                                ",
"                                                                                                                                ",
"                                                                                                                                ",
"                                                                                                                                ",
"                                                                                                                                "
};
