/* XPM */
static char *debug_0[] = {
/* columns rows colors chars-per-pixel */
"64 64 132 2 ",
"   c black",
".  c #010101",
"X  c #020202",
"o  c gray1",
"O  c #040404",
"+  c #070707",
"@  c #090909",
"#  c gray4",
"$  c #0B0B0B",
"%  c #0C0C0C",
"&  c gray5",
"*  c gray6",
"=  c #101010",
"-  c #111111",
";  c gray8",
":  c #151515",
">  c #191919",
",  c gray10",
"<  c #1B1B1B",
"1  c gray11",
"2  c #1D1D1D",
"3  c gray12",
"4  c #202020",
"5  c gray14",
"6  c #282828",
"7  c gray16",
"8  c #2F2F2F",
"9  c #323232",
"0  c gray20",
"q  c #353535",
"w  c gray21",
"e  c gray23",
"r  c #3C3C3C",
"t  c gray24",
"y  c #3F3F3F",
"u  c #414141",
"i  c gray26",
"p  c #444444",
"a  c #464646",
"s  c gray28",
"d  c #494949",
"f  c gray29",
"g  c #4B4B4B",
"h  c #505050",
"j  c #515151",
"k  c gray33",
"l  c #5D5D5D",
"z  c #5F5F5F",
"x  c #606060",
"c  c gray40",
"v  c #686868",
"b  c gray42",
"n  c #6D6D6D",
"m  c gray43",
"M  c #6F6F6F",
"N  c #727272",
"B  c gray46",
"V  c #767676",
"C  c #797979",
"Z  c gray50",
"A  c #808080",
"S  c #838383",
"D  c #848484",
"F  c #868686",
"G  c #888888",
"H  c #8D8D8D",
"J  c #8E8E8E",
"K  c gray56",
"L  c gray57",
"P  c #959595",
"I  c gray59",
"U  c #979797",
"Y  c #989898",
"T  c #9A9A9A",
"R  c gray61",
"E  c #9F9F9F",
"W  c #A0A0A0",
"Q  c gray63",
"!  c #A2A2A2",
"~  c gray64",
"^  c gray65",
"/  c #AAAAAA",
"(  c #ACACAC",
")  c gray68",
"_  c #AEAEAE",
"`  c #AFAFAF",
"'  c gray70",
"]  c #B4B4B4",
"[  c #B6B6B6",
"{  c #B7B7B7",
"}  c gray72",
"|  c #C0C0C0",
" . c #C1C1C1",
".. c #C3C3C3",
"X. c #C5C5C5",
"o. c #C6C6C6",
"O. c #CDCDCD",
"+. c #CECECE",
"@. c gray81",
"#. c #D0D0D0",
"$. c gray82",
"%. c gray83",
"&. c #D7D7D7",
"*. c gray85",
"=. c gainsboro",
"-. c #DDDDDD",
";. c gray87",
":. c #DFDFDF",
">. c gray88",
",. c #E1E1E1",
"<. c gray89",
"1. c gray90",
"2. c #E6E6E6",
"3. c #E7E7E7",
"4. c gray92",
"5. c #ECECEC",
"6. c gray93",
"7. c #EEEEEE",
"8. c #EFEFEF",
"9. c gray94",
"0. c #F1F1F1",
"q. c gray95",
"w. c #F4F4F4",
"e. c #F6F6F6",
"r. c #F8F8F8",
"t. c #F9F9F9",
"y. c gray98",
"u. c #FBFBFB",
"i. c gray99",
"p. c #FDFDFD",
"a. c #FEFEFE",
"s. c white",
/* pixels */
"                                                                                                                                ",
"                                                                                                                                ",
"                                                                                                                                ",
"                                                                                                                                ",
"                                                                                                                                ",
"                                                                                                                                ",
"                                                                                                                                ",
"                                                                                                                                ",
"                                                                                                                                ",
"                                                                                                                                ",
"                                                                                                                                ",
"                                                                                                                                ",
"                                                                                                                                ",
"                                                                                                                                ",
"                                                                                                                                ",
"                                                                                                                                ",
"                                                                                                                                ",
"                                                                                                                                ",
"                                                                                                                                ",
"                                                                                                                                ",
"                                                                                                                                ",
"                                                                                                                                ",
"                                                                                                                                ",
"            2 H *.e.7...c o                                             2 H *.e.7...c o               2 H *.e.7...c o           ",
"          s 9.s.s.s.s.s.s. .$                                         s 9.s.s.s.s.s.s. .$           s 9.s.s.s.s.s.s. .$         ",
"        6 w.s.@.y # 5 K s.s.~                                       6 w.s.@.y # 5 K s.s.~         6 w.s.@.y # 5 K s.s.~         ",
"        ' s.:.=         G s.s.9                                     ' s.:.=         G s.s.9       ' s.:.=         G s.s.9       ",
"      1 a.s.x           % 0.s.L     M s.s.I           * ,.s.1.;   1 a.s.x           % 0.s.L     1 a.s.x           % 0.s.L       ",
"      v s.t.&           n u.s.%.      ' s.s.a         ~ s.p.y     v s.t.&           n u.s.%.    v s.t.&           n u.s.%.      ",
"      Y s.@.        @ ! s.s.s.u.+     ; 1.s.<.=     k s.s.Z       Y s.@.        @ ! s.s.s.u.+   Y s.@.        @ ! s.s.s.u.+     ",
"      { s._       4 +.s.=.C s.s.<       u p.s.!   > 5.s.| X       { s._       4 +.s.=.C s.s.<   { s._       4 +.s.=.C s.s.<     ",
"      X.s.W     p 5.s.[ - t s.s.7         D s.s.j [ s.4.,         X.s.W     p 5.s.[ - t s.s.7   X.s.W     p 5.s.[ - t s.s.7     ",
"      o.s.R   V i.a.D X   r s.s.6         O o.s.r.s.a.f           o.s.R   V i.a.D X   r s.s.6   o.s.R   V i.a.D X   r s.s.6     ",
"      } s.) / s.q.h       d s.s.<           3 9.s.s.L             } s.) / s.q.h       d s.s.<   } s.) / s.q.h       d s.s.<     ",
"      E s.s.s.&.6         b s.r.o           q t.s.s...o           E s.s.s.&.6         b s.r.o   E s.s.s.&.6         b s.r.o     ",
"      N s.s.` &           Q s.O.          = ;.s.$.a.s.S           N s.s.` &           Q s.O.    N s.s.` &           Q s.O.      ",
"      8 s.s.j           # 6.s.A           ) s.8.< P s.p.i         8 s.s.j           # 6.s.A     8 s.s.j           # 6.s.A       ",
"        #.s.$.@         F s.r.4         m s.s.z   % :.s.2.:         #.s.$.@         F s.r.4       #.s.$.@         F s.r.4       ",
"        p s.s...e $ 3 J a.s.A         0 t.s.]       i a.s.{ .       p s.s...e $ 3 J a.s.A         p s.s...e $ 3 J a.s.A         ",
"          m p.s.s.s.s.s.s.T .       * -.s.7.,         U s.s.B         m p.s.s.s.s.s.s.T .           m p.s.s.s.s.s.s.T .         ",
"            q ^ 1.t.3.' g           ( s.s.l           % >.s.y.w         q ^ 1.t.3.' g                 q ^ 1.t.3.' g             ",
"                                                                                                                                ",
"                                                                                                                                ",
"                                                                                                                                ",
"                                                                                                                                ",
"                                                                                                                                ",
"                                                                                                                                ",
"                                                                                                                                ",
"                                                                                                                                ",
"                                                                                                                                ",
"                                                                                                                                ",
"                                                                                                                                ",
"                                                                                                                                ",
"                                                                                                                                ",
"                                                                                                                                ",
"                                                                                                                                ",
"                                                                                                                                ",
"                                                                                                                                ",
"                                                                                                                                ",
"                                                                                                                                ",
"                                                                                                                                ",
"                                                                                                                                ",
"                                                                                                                                ",
"                                                                                                                                "
};
