/* XPM */
static char *debug_18[] = {
/* columns rows colors chars-per-pixel */
"64 64 161 2 ",
"   c black",
".  c #010101",
"X  c #020202",
"o  c gray1",
"O  c #040404",
"+  c #070707",
"@  c gray3",
"#  c #090909",
"$  c gray4",
"%  c #0B0B0B",
"&  c #0C0C0C",
"*  c gray5",
"=  c gray6",
"-  c #101010",
";  c #111111",
":  c gray8",
">  c #151515",
",  c #161616",
"<  c #191919",
"1  c gray10",
"2  c #1B1B1B",
"3  c gray11",
"4  c #1D1D1D",
"5  c gray12",
"6  c #202020",
"7  c gray14",
"8  c #272727",
"9  c #282828",
"0  c gray16",
"q  c #2F2F2F",
"w  c #323232",
"e  c gray20",
"r  c #353535",
"t  c gray21",
"y  c gray22",
"u  c #3A3A3A",
"i  c gray23",
"p  c #3C3C3C",
"a  c gray24",
"s  c #3F3F3F",
"d  c #414141",
"f  c gray26",
"g  c #444444",
"h  c #464646",
"j  c gray28",
"k  c #494949",
"l  c gray29",
"z  c #4B4B4B",
"x  c #505050",
"c  c #515151",
"v  c #535353",
"b  c gray33",
"n  c #585858",
"m  c gray35",
"M  c #5A5A5A",
"N  c #5D5D5D",
"B  c #5F5F5F",
"V  c #606060",
"C  c #626262",
"Z  c gray39",
"A  c gray40",
"S  c #686868",
"D  c #6A6A6A",
"F  c gray42",
"G  c #6C6C6C",
"H  c #6D6D6D",
"J  c gray43",
"K  c #6F6F6F",
"L  c #717171",
"P  c #727272",
"I  c #747474",
"U  c gray46",
"Y  c #767676",
"T  c #797979",
"R  c gray48",
"E  c gray50",
"W  c #808080",
"Q  c #838383",
"!  c #848484",
"~  c #868686",
"^  c #888888",
"/  c gray55",
"(  c #8D8D8D",
")  c #8E8E8E",
"_  c gray56",
"`  c gray57",
"'  c #959595",
"]  c gray59",
"[  c #979797",
"{  c #989898",
"}  c gray60",
"|  c #9A9A9A",
" . c gray61",
".. c #9D9D9D",
"X. c #9F9F9F",
"o. c #A0A0A0",
"O. c gray63",
"+. c #A2A2A2",
"@. c gray64",
"#. c #A4A4A4",
"$. c gray65",
"%. c #A9A9A9",
"&. c #AAAAAA",
"*. c #ACACAC",
"=. c gray68",
"-. c #AEAEAE",
";. c #AFAFAF",
":. c #B2B2B2",
">. c gray70",
",. c #B4B4B4",
"<. c #B6B6B6",
"1. c #B7B7B7",
"2. c gray72",
"3. c #B9B9B9",
"4. c gray",
"5. c #C0C0C0",
"6. c #C1C1C1",
"7. c #C3C3C3",
"8. c #C5C5C5",
"9. c #C6C6C6",
"0. c #C8C8C8",
"q. c #CDCDCD",
"w. c #CECECE",
"e. c gray81",
"r. c #D0D0D0",
"t. c gray82",
"y. c gray83",
"u. c #D7D7D7",
"i. c gray85",
"p. c gray86",
"a. c gainsboro",
"s. c #DDDDDD",
"d. c gray87",
"f. c #DFDFDF",
"g. c gray88",
"h. c #E1E1E1",
"j. c gray89",
"k. c #E4E4E4",
"l. c gray90",
"z. c #E6E6E6",
"x. c #E7E7E7",
"c. c gray91",
"v. c #E9E9E9",
"b. c gray92",
"n. c #ECECEC",
"m. c gray93",
"M. c #EEEEEE",
"N. c #EFEFEF",
"B. c gray94",
"V. c #F1F1F1",
"C. c gray95",
"Z. c #F4F4F4",
"A. c #F6F6F6",
"S. c #F8F8F8",
"D. c #F9F9F9",
"F. c gray98",
"G. c #FBFBFB",
"H. c gray99",
"J. c #FDFDFD",
"K. c #FEFEFE",
"L. c white",
/* pixels */
"                                                                                                                                ",
"                                                                                                                                ",
"                                                                                                                                ",
"                                                                                                                                ",
"                                                                                                                                ",
"                                                                                                                                ",
"                                                                                                                                ",
"                                                                                                                                ",
"                                                                                                                                ",
"                                                                                                                                ",
"                                                                                                                                ",
"                                                                                                                                ",
"                                                                                                                                ",
"                                                                                                                                ",
"                                                                                                                                ",
"                                                                                                                                ",
"                                                                                                                                ",
"                                                                                                                                ",
"                                                                                                                                ",
"                                                                                                                                ",
"                                                                                                                                ",
"                                                                                                                                ",
"                                                                                                                                ",
"            4 ( i.A.M.7.A o                                               @ I m.L.#.                . M 1.z.F.x.%.r             ",
"          j B.L.L.L.L.L.L.6.%                                         O A k.L.L.L.#.              1 9.L.L.L.L.L.L.H.C           ",
"        9 Z.L.e.s $ 7 _ L.L.@.                                    . n p.L.N.m L.L.#.              ;.L.x.Z , @ l l.L.G.8         ",
"        >.L.f.-         ^ L.L.w                                   + v.L.4.4   L.L.#.              3 3.,         u L.L._         ",
"      3 K.L.V           & V.L.`     K L.L.]           = h.L.l.:     T I .     L.L.#.                              f.L.7.        ",
"      S L.D.*           H G.L.y.      >.L.L.h         @.L.J.s                 L.L.#.                              0.L.w.        ",
"      { L.e.        # +.L.L.L.G.+     : l.L.j.-     b L.L.E                   L.L.#.                              j.L.:.        ",
"      1.L.-.      6 w.L.a.T L.L.2       d J.L.+.  < n.L.5.X                   L.L.#.                            y L.L.G         ",
"      8.L.o.    g n.L.<.; a L.L.0         ! L.L.c <.L.b.1                     L.L.#.                          + q.L.c.*         ",
"      9.L. .  Y H.K.! X   p L.L.9         O 9.L.S.L.K.l                       L.L.#.                          +.L.L.v           ",
"      2.L.=.&.L.C.x       k L.L.2           5 B.L.L.`                         L.L.#.                        / L.L.^             ",
"      X.L.L.L.u.9         F L.S.o           r D.L.L.7.o                       L.L.#.                      Q L.L.X..             ",
"      P L.L.;.*           O.L.q.          - d.L.t.K.L.Q                       L.L.#.                    R L.L.#.X               ",
"      q L.L.c           $ m.L.W           =.L.N.2 ' L.J.f                     L.L.#.                  L L.L.O.X                 ",
"        r.L.t.#         ~ L.S.6         J L.L.B   & f.L.z.>                   L.L.#.                D L.L...X                   ",
"        g L.L.7.i % 5 ) K.L.W         e D.L.,.      f K.L.1..                 L.L.#.              C K.L.} .                     ",
"          J J.L.L.L.L.L.L.| .       = s.L.M.1         [ L.L.U       { L.L.L.L.L.L.L.L.L.L.o.      F.L.L.L.L.L.L.L.L.L.L.0.      ",
"            r $.l.D.x.>.z           *.L.L.N           & g.L.F.t     { L.L.L.L.L.L.L.L.L.L.o.      H.L.L.L.L.L.L.L.L.L.L.0.      ",
"                                                                                                                                ",
"                                                                                                                                ",
"                                                                                                                                ",
"                                                                                                                                ",
"                                                                                                                                ",
"                                                                                                                                ",
"                                                                                                                                ",
"                                                                                                                                ",
"                                                                                                                                ",
"                                                                                                                                ",
"                                                                                                                                ",
"                                                                                                                                ",
"                                                                                                                                ",
"                                                                                                                                ",
"                                                                                                                                ",
"                                                                                                                                ",
"                                                                                                                                ",
"                                                                                                                                ",
"                                                                                                                                ",
"                                                                                                                                ",
"                                                                                                                                ",
"                                                                                                                                ",
"                                                                                                                                "
};
