/* XPM */
static char *debug_4[] = {
/* columns rows colors chars-per-pixel */
"64 64 147 2 ",
"   c black",
".  c #010101",
"X  c #020202",
"o  c gray1",
"O  c #040404",
"+  c #060606",
"@  c #070707",
"#  c #090909",
"$  c gray4",
"%  c #0B0B0B",
"&  c #0C0C0C",
"*  c gray5",
"=  c gray6",
"-  c #101010",
";  c #111111",
":  c gray8",
">  c #151515",
",  c #161616",
"<  c #191919",
"1  c gray10",
"2  c #1B1B1B",
"3  c gray11",
"4  c #1D1D1D",
"5  c gray12",
"6  c #202020",
"7  c gray13",
"8  c gray14",
"9  c #252525",
"0  c #282828",
"q  c gray16",
"w  c #2A2A2A",
"e  c #2F2F2F",
"r  c #323232",
"t  c gray20",
"y  c #353535",
"u  c gray21",
"i  c #393939",
"p  c gray23",
"a  c #3C3C3C",
"s  c gray24",
"d  c #3F3F3F",
"f  c #414141",
"g  c gray26",
"h  c #444444",
"j  c #464646",
"k  c gray28",
"l  c #494949",
"z  c gray29",
"x  c #4B4B4B",
"c  c #505050",
"v  c #515151",
"b  c gray33",
"n  c #5D5D5D",
"m  c #5F5F5F",
"M  c #606060",
"N  c #626262",
"B  c gray40",
"V  c #686868",
"C  c gray42",
"Z  c #6C6C6C",
"A  c #6D6D6D",
"S  c gray43",
"D  c #6F6F6F",
"F  c #727272",
"G  c gray46",
"H  c #767676",
"J  c #797979",
"K  c gray50",
"L  c #808080",
"P  c #838383",
"I  c #848484",
"U  c #868686",
"Y  c #888888",
"T  c #8D8D8D",
"R  c #8E8E8E",
"E  c gray56",
"W  c gray57",
"Q  c #929292",
"!  c #959595",
"~  c gray59",
"^  c #979797",
"/  c #989898",
"(  c #9A9A9A",
")  c gray61",
"_  c #9F9F9F",
"`  c #A0A0A0",
"'  c gray63",
"]  c #A2A2A2",
"[  c gray64",
"{  c gray65",
"}  c #A7A7A7",
"|  c #AAAAAA",
" . c #ACACAC",
".. c gray68",
"X. c #AEAEAE",
"o. c #AFAFAF",
"O. c gray70",
"+. c #B4B4B4",
"@. c #B6B6B6",
"#. c #B7B7B7",
"$. c gray72",
"%. c gray",
"&. c #C0C0C0",
"*. c #C1C1C1",
"=. c #C3C3C3",
"-. c #C5C5C5",
";. c #C6C6C6",
":. c #CDCDCD",
">. c #CECECE",
",. c gray81",
"<. c #D0D0D0",
"1. c gray82",
"2. c gray83",
"3. c #D5D5D5",
"4. c #D7D7D7",
"5. c gray85",
"6. c gainsboro",
"7. c #DDDDDD",
"8. c gray87",
"9. c #DFDFDF",
"0. c gray88",
"q. c #E1E1E1",
"w. c gray89",
"e. c gray90",
"r. c #E6E6E6",
"t. c #E7E7E7",
"y. c gray92",
"u. c #ECECEC",
"i. c gray93",
"p. c #EEEEEE",
"a. c #EFEFEF",
"s. c gray94",
"d. c #F1F1F1",
"f. c gray95",
"g. c #F3F3F3",
"h. c #F4F4F4",
"j. c gray96",
"k. c #F6F6F6",
"l. c gray97",
"z. c #F8F8F8",
"x. c #F9F9F9",
"c. c gray98",
"v. c #FBFBFB",
"b. c gray99",
"n. c #FDFDFD",
"m. c #FEFEFE",
"M. c white",
/* pixels */
"                                                                                                                                ",
"                                                                                                                                ",
"                                                                                                                                ",
"                                                                                                                                ",
"                                                                                                                                ",
"                                                                                                                                ",
"                                                                                                                                ",
"                                                                                                                                ",
"                                                                                                                                ",
"                                                                                                                                ",
"                                                                                                                                ",
"                                                                                                                                ",
"                                                                                                                                ",
"                                                                                                                                ",
"                                                                                                                                ",
"                                                                                                                                ",
"                                                                                                                                ",
"                                                                                                                                ",
"                                                                                                                                ",
"                                                                                                                                ",
"                                                                                                                                ",
"                                                                                                                                ",
"                                                                                                                                ",
"            4 T 5.k.p.=.B o                                             4 T 5.k.p.=.B o                     9 l.M.M.`           ",
"          k s.M.M.M.M.M.M.*.%                                         k s.M.M.M.M.M.M.*.%                   %.M.M.M.`           ",
"        0 h.M.,.d $ 8 E M.M.[                                       0 h.M.,.d $ 8 E M.M.[                 N M.g.r.M.`           ",
"        O.M.9.-         Y M.M.r                                     O.M.9.-         Y M.M.r             , i.M.Z <.M.`           ",
"      3 m.M.M           & d.M.W     D M.M.~           = q.M.e.:   3 m.M.M           & d.M.W             } M.;.X <.M.`           ",
"      V M.x.*           A v.M.2.      O.M.M.j         [ M.n.d     V M.x.*           A v.M.2.          l M.x.w   <.M.`           ",
"      / M.,.        # ] M.M.M.v.@     : e.M.w.-     b M.M.K       / M.,.        # ] M.M.M.v.@       % 0.M.K     <.M.`           ",
"      #.M.X.      6 >.M.6.J M.M.2       f n.M.]   < u.M.&.X       #.M.X.      6 >.M.6.J M.M.2       R M.3.+     <.M.`           ",
"      -.M.`     h u.M.@.; s M.M.q         I M.M.v @.M.y.1         -.M.`     h u.M.@.; s M.M.q     t b.n.i       <.M.`           ",
"      ;.M.)   H b.m.I X   a M.M.0         O ;.M.z.M.m.z           ;.M.)   H b.m.I X   a M.M.0   o >.M.Q         <.M.`           ",
"      $.M...| M.f.c       l M.M.2           5 s.M.M.W             $.M...| M.f.c       l M.M.2   G M.q.&         <.M.`           ",
"      _ M.M.M.4.0         C M.z.o           y x.M.M.=.o           _ M.M.M.4.0         C M.z.o 7 j.M.z           <.M.`           ",
"      F M.M.o.*           ' M.:.          - 8.M.1.m.M.P           F M.M.o.*           ' M.:.  V M.M.M.M.M.M.M.M.M.M.M.M.M. .    ",
"      e M.M.v           $ i.M.L           ..M.a.2 ! M.n.g         e M.M.v           $ i.M.L   V M.M.M.M.M.M.M.M.M.M.M.M.M. .    ",
"        <.M.1.#         U M.z.6         S M.M.m   & 9.M.r.>         <.M.1.#         U M.z.6                     <.M.`           ",
"        h M.M.=.p % 5 R m.M.L         t x.M.+.      g m.M.#..       h M.M.=.p % 5 R m.M.L                       <.M.`           ",
"          S n.M.M.M.M.M.M.( .       = 7.M.p.1         ^ M.M.G         S n.M.M.M.M.M.M.( .                       <.M.`           ",
"            y { e.x.t.O.x            .M.M.n           & 0.M.c.u         y { e.x.t.O.x                           <.M.`           ",
"                                                                                                                                ",
"                                                                                                                                ",
"                                                                                                                                ",
"                                                                                                                                ",
"                                                                                                                                ",
"                                                                                                                                ",
"                                                                                                                                ",
"                                                                                                                                ",
"                                                                                                                                ",
"                                                                                                                                ",
"                                                                                                                                ",
"                                                                                                                                ",
"                                                                                                                                ",
"                                                                                                                                ",
"                                                                                                                                ",
"                                                                                                                                ",
"                                                                                                                                ",
"                                                                                                                                ",
"                                                                                                                                ",
"                                                                                                                                ",
"                                                                                                                                ",
"                                                                                                                                ",
"                                                                                                                                "
};
