/* XPM */
static char *debug_14[] = {
/* columns rows colors chars-per-pixel */
"64 64 135 2 ",
"   c black",
".  c #010101",
"X  c #020202",
"o  c gray1",
"O  c #040404",
"+  c #070707",
"@  c #090909",
"#  c gray4",
"$  c #0B0B0B",
"%  c #0C0C0C",
"&  c gray5",
"*  c gray6",
"=  c #101010",
"-  c #111111",
";  c gray8",
":  c #151515",
">  c #191919",
",  c gray10",
"<  c #1B1B1B",
"1  c gray11",
"2  c #1D1D1D",
"3  c gray12",
"4  c #202020",
"5  c gray14",
"6  c #282828",
"7  c gray16",
"8  c #2F2F2F",
"9  c gray19",
"0  c #323232",
"q  c gray20",
"w  c #353535",
"e  c gray21",
"r  c gray23",
"t  c #3C3C3C",
"y  c gray24",
"u  c #3F3F3F",
"i  c gray25",
"p  c #414141",
"a  c gray26",
"s  c #444444",
"d  c #464646",
"f  c gray28",
"g  c #494949",
"h  c gray29",
"j  c #4B4B4B",
"k  c #505050",
"l  c #515151",
"z  c gray33",
"x  c #5D5D5D",
"c  c #5F5F5F",
"v  c #606060",
"b  c gray40",
"n  c #686868",
"m  c gray42",
"M  c #6D6D6D",
"N  c gray43",
"B  c #6F6F6F",
"V  c #727272",
"C  c gray46",
"Z  c #767676",
"A  c #797979",
"S  c gray50",
"D  c #808080",
"F  c #838383",
"G  c #848484",
"H  c #868686",
"J  c #888888",
"K  c #8D8D8D",
"L  c #8E8E8E",
"P  c gray56",
"I  c gray57",
"U  c #959595",
"Y  c gray59",
"T  c #979797",
"R  c #989898",
"E  c #9A9A9A",
"W  c gray61",
"Q  c #9F9F9F",
"!  c #A0A0A0",
"~  c gray63",
"^  c #A2A2A2",
"/  c gray64",
"(  c gray65",
")  c #AAAAAA",
"_  c #ACACAC",
"`  c gray68",
"'  c #AEAEAE",
"]  c #AFAFAF",
"[  c gray70",
"{  c #B4B4B4",
"}  c #B6B6B6",
"|  c #B7B7B7",
" . c gray72",
".. c #C0C0C0",
"X. c #C1C1C1",
"o. c #C3C3C3",
"O. c #C5C5C5",
"+. c #C6C6C6",
"@. c #CDCDCD",
"#. c #CECECE",
"$. c gray81",
"%. c #D0D0D0",
"&. c gray82",
"*. c gray83",
"=. c #D7D7D7",
"-. c gray85",
";. c gainsboro",
":. c #DDDDDD",
">. c gray87",
",. c #DFDFDF",
"<. c gray88",
"1. c #E1E1E1",
"2. c gray89",
"3. c gray90",
"4. c #E6E6E6",
"5. c #E7E7E7",
"6. c gray91",
"7. c gray92",
"8. c #ECECEC",
"9. c gray93",
"0. c #EEEEEE",
"q. c #EFEFEF",
"w. c gray94",
"e. c #F1F1F1",
"r. c gray95",
"t. c #F4F4F4",
"y. c #F6F6F6",
"u. c #F8F8F8",
"i. c #F9F9F9",
"p. c gray98",
"a. c #FBFBFB",
"s. c gray99",
"d. c #FDFDFD",
"f. c #FEFEFE",
"g. c white",
/* pixels */
"                                                                                                                                ",
"                                                                                                                                ",
"                                                                                                                                ",
"                                                                                                                                ",
"                                                                                                                                ",
"                                                                                                                                ",
"                                                                                                                                ",
"                                                                                                                                ",
"                                                                                                                                ",
"                                                                                                                                ",
"                                                                                                                                ",
"                                                                                                                                ",
"                                                                                                                                ",
"                                                                                                                                ",
"                                                                                                                                ",
"                                                                                                                                ",
"                                                                                                                                ",
"                                                                                                                                ",
"                                                                                                                                ",
"                                                                                                                                ",
"                                                                                                                                ",
"                                                                                                                                ",
"                                                                                                                                ",
"            2 K -.y.0.o.b o                                             2 K -.y.0.o.b o           i g.g.g.g.g.g.g.g.g.6.        ",
"          f w.g.g.g.g.g.g.X.$                                         f w.g.g.g.g.g.g.X.$         i g.g.g.g.g.g.g.g.g.6.        ",
"        6 t.g.$.u # 5 P g.g./                                       6 t.g.$.u # 5 P g.g./         i g.g.9                       ",
"        [ g.,.=         J g.g.0                                     [ g.,.=         J g.g.0       i g.g.9                       ",
"      1 f.g.v           % e.g.I     B g.g.Y           * 1.g.3.;   1 f.g.v           % e.g.I       i g.g.9                       ",
"      n g.i.&           M a.g.*.      [ g.g.d         / g.d.u     n g.i.&           M a.g.*.      i g.g.9                       ",
"      R g.$.        @ ^ g.g.g.a.+     ; 3.g.2.=     z g.g.S       R g.$.        @ ^ g.g.g.a.+     i g.g.9                       ",
"      | g.'       4 #.g.;.A g.g.<       p d.g.^   > 8.g...X       | g.'       4 #.g.;.A g.g.<     i g.g.9                       ",
"      O.g.!     s 8.g.} - y g.g.7         G g.g.l } g.7.,         O.g.!     s 8.g.} - y g.g.7     i g.g.g.g.g.g.g.g.g.W         ",
"      +.g.W   Z s.f.G X   t g.g.6         O +.g.u.g.f.h           +.g.W   Z s.f.G X   t g.g.6     i g.g.g.g.g.g.g.g.g.W         ",
"       .g.` ) g.r.k       g g.g.<           3 w.g.g.I              .g.` ) g.r.k       g g.g.<     i g.g.9                       ",
"      Q g.g.g.=.6         m g.u.o           w i.g.g.o.o           Q g.g.g.=.6         m g.u.o     i g.g.9                       ",
"      V g.g.] &           ~ g.@.          = >.g.&.f.g.F           V g.g.] &           ~ g.@.      i g.g.9                       ",
"      8 g.g.l           # 9.g.D           ` g.q.< U g.d.a         8 g.g.l           # 9.g.D       i g.g.9                       ",
"        %.g.&.@         H g.u.4         N g.g.c   % ,.g.4.:         %.g.&.@         H g.u.4       i g.g.9                       ",
"        s g.g.o.r $ 3 L f.g.D         q i.g.{       a f.g.| .       s g.g.o.r $ 3 L f.g.D         i g.g.9                       ",
"          N d.g.g.g.g.g.g.E .       * :.g.0.,         T g.g.C         N d.g.g.g.g.g.g.E .         i g.g.g.g.g.g.g.g.g.6.        ",
"            w ( 3.i.5.[ j           _ g.g.x           % <.g.p.e         w ( 3.i.5.[ j             i g.g.g.g.g.g.g.g.g.6.        ",
"                                                                                                                                ",
"                                                                                                                                ",
"                                                                                                                                ",
"                                                                                                                                ",
"                                                                                                                                ",
"                                                                                                                                ",
"                                                                                                                                ",
"                                                                                                                                ",
"                                                                                                                                ",
"                                                                                                                                ",
"                                                                                                                                ",
"                                                                                                                                ",
"                                                                                                                                ",
"                                                                                                                                ",
"                                                                                                                                ",
"                                                                                                                                ",
"                                                                                                                                ",
"                                                                                                                                ",
"                                                                                                                                ",
"                                                                                                                                ",
"                                                                                                                                ",
"                                                                                                                                ",
"                                                                                                                                "
};
