/* XPM */
static char *debug_3[] = {
/* columns rows colors chars-per-pixel */
"64 64 161 2 ",
"   c black",
".  c #010101",
"X  c #020202",
"o  c gray1",
"O  c #040404",
"+  c gray2",
"@  c #060606",
"#  c #070707",
"$  c gray3",
"%  c #090909",
"&  c gray4",
"*  c #0B0B0B",
"=  c #0C0C0C",
"-  c gray5",
";  c #0E0E0E",
":  c gray6",
">  c #101010",
",  c #111111",
"<  c #131313",
"1  c gray8",
"2  c #151515",
"3  c #191919",
"4  c gray10",
"5  c #1B1B1B",
"6  c gray11",
"7  c #1D1D1D",
"8  c gray12",
"9  c #202020",
"0  c #222222",
"q  c #232323",
"w  c gray14",
"e  c gray15",
"r  c #272727",
"t  c #282828",
"y  c gray16",
"u  c #2F2F2F",
"i  c #323232",
"p  c gray20",
"a  c #353535",
"s  c gray21",
"d  c #3A3A3A",
"f  c gray23",
"g  c #3C3C3C",
"h  c gray24",
"j  c #3F3F3F",
"k  c #414141",
"l  c gray26",
"z  c #434343",
"x  c #444444",
"c  c #464646",
"v  c gray28",
"b  c #484848",
"n  c #494949",
"m  c gray29",
"M  c #4B4B4B",
"N  c #4C4C4C",
"B  c #505050",
"V  c #515151",
"C  c #535353",
"Z  c gray33",
"A  c #585858",
"S  c #5A5A5A",
"D  c gray36",
"F  c #5D5D5D",
"G  c #5F5F5F",
"H  c #606060",
"J  c #646464",
"K  c gray40",
"L  c #676767",
"P  c #686868",
"I  c gray42",
"U  c #6D6D6D",
"Y  c gray43",
"T  c #6F6F6F",
"R  c #727272",
"E  c gray46",
"W  c #767676",
"Q  c #797979",
"!  c gray50",
"~  c #808080",
"^  c #838383",
"/  c #848484",
"(  c gray52",
")  c #868686",
"_  c #888888",
"`  c #8B8B8B",
"'  c #8D8D8D",
"]  c #8E8E8E",
"[  c gray56",
"{  c #909090",
"}  c gray57",
"|  c #959595",
" . c gray59",
".. c #979797",
"X. c #989898",
"o. c #9A9A9A",
"O. c #9B9B9B",
"+. c gray61",
"@. c #9F9F9F",
"#. c #A0A0A0",
"$. c gray63",
"%. c #A2A2A2",
"&. c gray64",
"*. c gray65",
"=. c #A9A9A9",
"-. c #AAAAAA",
";. c #ACACAC",
":. c gray68",
">. c #AEAEAE",
",. c #AFAFAF",
"<. c #B2B2B2",
"1. c gray70",
"2. c #B4B4B4",
"3. c #B6B6B6",
"4. c #B7B7B7",
"5. c gray72",
"6. c #C0C0C0",
"7. c #C1C1C1",
"8. c #C3C3C3",
"9. c #C5C5C5",
"0. c #C6C6C6",
"q. c #CDCDCD",
"w. c #CECECE",
"e. c gray81",
"r. c #D0D0D0",
"t. c gray82",
"y. c gray83",
"u. c #D7D7D7",
"i. c gray85",
"p. c gainsboro",
"a. c #DDDDDD",
"s. c gray87",
"d. c #DFDFDF",
"f. c gray88",
"g. c #E1E1E1",
"h. c #E2E2E2",
"j. c gray89",
"k. c gray90",
"l. c #E6E6E6",
"z. c #E7E7E7",
"x. c gray92",
"c. c #ECECEC",
"v. c gray93",
"b. c #EEEEEE",
"n. c #EFEFEF",
"m. c gray94",
"M. c #F1F1F1",
"N. c gray95",
"B. c #F3F3F3",
"V. c #F4F4F4",
"C. c gray96",
"Z. c #F6F6F6",
"A. c gray97",
"S. c #F8F8F8",
"D. c #F9F9F9",
"F. c gray98",
"G. c #FBFBFB",
"H. c gray99",
"J. c #FDFDFD",
"K. c #FEFEFE",
"L. c white",
/* pixels */
"                                                                                                                                ",
"                                                                                                                                ",
"                                                                                                                                ",
"                                                                                                                                ",
"                                                                                                                                ",
"                                                                                                                                ",
"                                                                                                                                ",
"                                                                                                                                ",
"                                                                                                                                ",
"                                                                                                                                ",
"                                                                                                                                ",
"                                                                                                                                ",
"                                                                                                                                ",
"                                                                                                                                ",
"                                                                                                                                ",
"                                                                                                                                ",
"                                                                                                                                ",
"                                                                                                                                ",
"                                                                                                                                ",
"                                                                                                                                ",
"                                                                                                                                ",
"                                                                                                                                ",
"                                                                                                                                ",
"            7 ' i.Z.b.8.K o                                             7 ' i.Z.b.8.K o           O C *.p.S.C.i.O.u             ",
"          v m.L.L.L.L.L.L.7.*                                         v m.L.L.L.L.L.L.7.*         b L.L.L.L.L.L.L.H.L           ",
"        t V.L.e.j & w [ L.L.&.                                      t V.L.e.j & w [ L.L.&.        x 4.S r $ 3 A h.L.F.q         ",
"        1.L.d.>         _ L.L.i                                     1.L.d.>         _ L.L.i                     f L.L.E         ",
"      6 K.L.H           = M.L.}     T L.L. .          : g.L.k.1   6 K.L.H           = M.L.}                     X S.L.`         ",
"      P L.D.-           U G.L.y.      1.L.L.c         &.L.J.j     P L.D.-           U G.L.y.                    ; K.L.U         ",
"      X.L.e.        % %.L.L.L.G.#     1 k.L.j.>     Z L.L.!       X.L.e.        % %.L.L.L.G.#                   Y L.A.4         ",
"      4.L.>.      9 w.L.p.Q L.L.5       k J.L.%.  3 c.L.6.X       4.L.>.      9 w.L.p.Q L.L.5             O e ^ D.J.D           ",
"      9.L.#.    x c.L.3., h L.L.y         / L.L.V 3.L.x.4         9.L.#.    x c.L.3., h L.L.y         { L.L.L.L.m.z             ",
"      0.L.+.  W H.K./ X   g L.L.t         O 0.L.S.L.K.m           0.L.+.  W H.K./ X   g L.L.t         { L.L.L.L.L.Z.( @         ",
"      5.L.:.-.L.N.B       n L.L.5           8 m.L.L.}             5.L.:.-.L.N.B       n L.L.5             O 6 v =.L.L.$.        ",
"      @.L.L.L.u.t         I L.S.o           a D.L.L.8.o           @.L.L.L.u.t         I L.S.o                     ! L.L.d       ",
"      R L.L.,.-           $.L.q.          > s.L.t.K.L.^           R L.L.,.-           $.L.q.                      3 L.L.P       ",
"      u L.L.V           & v.L.~           :.L.n.5 | L.J.l         u L.L.V           & v.L.~                       0 L.L.V       ",
"        r.L.t.%         ) L.S.9         Y L.L.G   = d.L.l.2         r.L.t.%         ) L.S.9                       } L.B.-       ",
"        x L.L.8.f * 8 ] K.L.~         p D.L.2.      l K.L.4..       x L.L.8.f * 8 ] K.L.~                 + 3 N <.L.L.L         ",
"          Y J.L.L.L.L.L.L.o..       : a.L.b.4         ..L.L.E         Y J.L.L.L.L.L.L.o..         6.L.L.L.L.L.L.L.M.J           ",
"            a *.k.D.z.1.M           ;.L.L.F           = f.L.F.s         a *.k.D.z.1.M             6.L.L.L.C.h.2.Y <             ",
"                                                                                                                                ",
"                                                                                                                                ",
"                                                                                                                                ",
"                                                                                                                                ",
"                                                                                                                                ",
"                                                                                                                                ",
"                                                                                                                                ",
"                                                                                                                                ",
"                                                                                                                                ",
"                                                                                                                                ",
"                                                                                                                                ",
"                                                                                                                                ",
"                                                                                                                                ",
"                                                                                                                                ",
"                                                                                                                                ",
"                                                                                                                                ",
"                                                                                                                                ",
"                                                                                                                                ",
"                                                                                                                                ",
"                                                                                                                                ",
"                                                                                                                                ",
"                                                                                                                                ",
"                                                                                                                                "
};
