/* XPM */
static char *debug_13[] = {
/* columns rows colors chars-per-pixel */
"64 64 148 2 ",
"   c black",
".  c #010101",
"X  c #020202",
"o  c gray1",
"O  c #040404",
"+  c #060606",
"@  c #070707",
"#  c gray3",
"$  c #090909",
"%  c gray4",
"&  c #0B0B0B",
"*  c #0C0C0C",
"=  c gray5",
"-  c #0E0E0E",
";  c gray6",
":  c #101010",
">  c #111111",
",  c gray7",
"<  c gray8",
"1  c #151515",
"2  c #191919",
"3  c gray10",
"4  c #1B1B1B",
"5  c gray11",
"6  c #1D1D1D",
"7  c #1E1E1E",
"8  c gray12",
"9  c #202020",
"0  c gray13",
"q  c gray14",
"w  c #282828",
"e  c gray16",
"r  c gray18",
"t  c #2F2F2F",
"y  c gray19",
"u  c #323232",
"i  c gray20",
"p  c #353535",
"a  c gray21",
"s  c #393939",
"d  c gray23",
"f  c #3C3C3C",
"g  c gray24",
"h  c #3F3F3F",
"j  c #414141",
"k  c gray26",
"l  c #444444",
"z  c #464646",
"x  c gray28",
"c  c #494949",
"v  c gray29",
"b  c #4B4B4B",
"n  c gray31",
"m  c #505050",
"M  c #515151",
"N  c gray33",
"B  c #5D5D5D",
"V  c gray37",
"C  c #5F5F5F",
"Z  c #606060",
"A  c gray38",
"S  c gray40",
"D  c #686868",
"F  c gray42",
"G  c #6D6D6D",
"H  c gray43",
"J  c #6F6F6F",
"K  c #727272",
"L  c gray46",
"P  c #767676",
"I  c #797979",
"U  c gray50",
"Y  c #808080",
"T  c #818181",
"R  c #838383",
"E  c #848484",
"W  c #868686",
"Q  c #888888",
"!  c #8D8D8D",
"~  c #8E8E8E",
"^  c gray56",
"/  c gray57",
"(  c #959595",
")  c gray59",
"_  c #979797",
"`  c #989898",
"'  c #9A9A9A",
"]  c gray61",
"[  c #9F9F9F",
"{  c #A0A0A0",
"}  c gray63",
"|  c #A2A2A2",
" . c gray64",
".. c gray65",
"X. c #AAAAAA",
"o. c #ACACAC",
"O. c gray68",
"+. c #AEAEAE",
"@. c #AFAFAF",
"#. c gray69",
"$. c #B2B2B2",
"%. c gray70",
"&. c #B4B4B4",
"*. c #B6B6B6",
"=. c #B7B7B7",
"-. c gray72",
";. c #C0C0C0",
":. c #C1C1C1",
">. c #C3C3C3",
",. c #C5C5C5",
"<. c #C6C6C6",
"1. c #CDCDCD",
"2. c #CECECE",
"3. c gray81",
"4. c #D0D0D0",
"5. c gray82",
"6. c gray83",
"7. c #D7D7D7",
"8. c gray85",
"9. c #DADADA",
"0. c gainsboro",
"q. c #DDDDDD",
"w. c gray87",
"e. c #DFDFDF",
"r. c gray88",
"t. c #E1E1E1",
"y. c gray89",
"u. c gray90",
"i. c #E6E6E6",
"p. c #E7E7E7",
"a. c gray92",
"s. c #ECECEC",
"d. c gray93",
"f. c #EEEEEE",
"g. c #EFEFEF",
"h. c gray94",
"j. c #F1F1F1",
"k. c gray95",
"l. c #F4F4F4",
"z. c #F6F6F6",
"x. c #F8F8F8",
"c. c #F9F9F9",
"v. c gray98",
"b. c #FBFBFB",
"n. c gray99",
"m. c #FDFDFD",
"M. c #FEFEFE",
"N. c white",
/* pixels */
"                                                                                                                                ",
"                                                                                                                                ",
"                                                                                                                                ",
"                                                                                                                                ",
"                                                                                                                                ",
"                                                                                                                                ",
"                                                                                                                                ",
"                                                                                                                                ",
"                                                                                                                                ",
"                                                                                                                                ",
"                                                                                                                                ",
"                                                                                                                                ",
"                                                                                                                                ",
"                                                                                                                                ",
"                                                                                                                                ",
"                                                                                                                                ",
"                                                                                                                                ",
"                                                                                                                                ",
"                                                                                                                                ",
"                                                                                                                                ",
"                                                                                                                                ",
"                                                                                                                                ",
"                                                                                                                                ",
"            6 ! 8.z.f.>.S o                                             6 ! 8.z.f.>.S o         E N.N.N.N.x.i.;.T 6             ",
"          x h.N.N.N.N.N.N.:.&                                         x h.N.N.N.N.N.N.:.&       E N.N.N.N.N.N.N.N.v.U .         ",
"        w l.N.3.h % q ^ N.N. .                                      w l.N.3.h % q ^ N.N. .      E N.s.    # 0 C 4.N.N.^         ",
"        %.N.e.:         Q N.N.u                                     %.N.e.:         Q N.N.u     E N.s.          + #.N.N.h       ",
"      5 M.N.Z           * j.N./     J N.N.)           ; t.N.u.<   5 M.N.Z           * j.N./     E N.s.            , h.N.$.      ",
"      D N.c.=           G b.N.6.      %.N.N.z          .N.m.h     D N.c.=           G b.N.6.    E N.s.              ] N.c.+     ",
"      ` N.3.        $ | N.N.N.b.@     < u.N.y.:     N N.N.U       ` N.3.        $ | N.N.N.b.@   E N.s.              A N.N.p     ",
"      =.N.+.      9 2.N.0.I N.N.4       j m.N.|   2 s.N.;.X       =.N.+.      9 2.N.0.I N.N.4   E N.s.              f N.N.n     ",
"      ,.N.{     l s.N.*.> g N.N.e         E N.N.M *.N.a.3         ,.N.{     l s.N.*.> g N.N.e   E N.s.              r N.N.V     ",
"      <.N.]   P n.M.E X   f N.N.w         O <.N.x.N.M.v           <.N.]   P n.M.E X   f N.N.w   E N.s.              y N.N.N     ",
"      -.N.O.X.N.k.m       c N.N.4           8 h.N.N./             -.N.O.X.N.k.m       c N.N.4   E N.s.              j N.N.h     ",
"      [ N.N.N.7.w         F N.x.o           p c.N.N.>.o           [ N.N.N.7.w         F N.x.o   E N.s.              G N.N.7     ",
"      K N.N.@.=           } N.1.          : w.N.5.M.N.R           K N.N.@.=           } N.1.    E N.s.              *.N.7.      ",
"      t N.N.M           % d.N.Y           O.N.g.4 ( N.m.k         t N.N.M           % d.N.Y     E N.s.            u m.N.W       ",
"        4.N.5.$         W N.x.9         H N.N.C   * e.N.i.1         4.N.5.$         W N.x.9     E N.s.          8 9.N.s.1       ",
"        l N.N.>.d & 8 ~ M.N.Y         i c.N.&.      k M.N.=..       l N.N.>.d & 8 ~ M.N.Y       E N.s.    - i T h.N.x.z         ",
"          H m.N.N.N.N.N.N.' .       ; q.N.f.3         _ N.N.L         H m.N.N.N.N.N.N.' .       E N.N.N.N.N.N.N.N.7.s           ",
"            p ..u.c.p.%.b           o.N.N.B           * r.N.v.a         p ..u.c.p.%.b           E N.N.N.m.j.6.| M o             ",
"                                                                                                                                ",
"                                                                                                                                ",
"                                                                                                                                ",
"                                                                                                                                ",
"                                                                                                                                ",
"                                                                                                                                ",
"                                                                                                                                ",
"                                                                                                                                ",
"                                                                                                                                ",
"                                                                                                                                ",
"                                                                                                                                ",
"                                                                                                                                ",
"                                                                                                                                ",
"                                                                                                                                ",
"                                                                                                                                ",
"                                                                                                                                ",
"                                                                                                                                ",
"                                                                                                                                ",
"                                                                                                                                ",
"                                                                                                                                ",
"                                                                                                                                ",
"                                                                                                                                ",
"                                                                                                                                "
};
