/* XPM */
static char *debug_28[] = {
/* columns rows colors chars-per-pixel */
"64 64 173 2 ",
"   c black",
".  c #010101",
"X  c #020202",
"o  c gray1",
"O  c #040404",
"+  c #070707",
"@  c gray3",
"#  c #090909",
"$  c gray4",
"%  c #0B0B0B",
"&  c #0C0C0C",
"*  c gray5",
"=  c gray6",
"-  c #101010",
";  c #111111",
":  c #131313",
">  c gray8",
",  c #151515",
"<  c #161616",
"1  c #181818",
"2  c #191919",
"3  c gray10",
"4  c #1B1B1B",
"5  c gray11",
"6  c #1D1D1D",
"7  c gray12",
"8  c #202020",
"9  c gray14",
"0  c #282828",
"q  c gray16",
"w  c #2F2F2F",
"e  c gray19",
"r  c #323232",
"t  c gray20",
"y  c #353535",
"u  c gray21",
"i  c gray23",
"p  c #3C3C3C",
"a  c gray24",
"s  c #3F3F3F",
"d  c #414141",
"f  c gray26",
"g  c #434343",
"h  c #444444",
"j  c #464646",
"k  c gray28",
"l  c #494949",
"z  c gray29",
"x  c #4B4B4B",
"c  c gray30",
"v  c #505050",
"b  c #515151",
"n  c gray32",
"m  c gray33",
"M  c #565656",
"N  c #585858",
"B  c gray35",
"V  c gray36",
"C  c #5D5D5D",
"Z  c #5F5F5F",
"A  c #606060",
"S  c gray38",
"D  c gray40",
"F  c #686868",
"G  c gray42",
"H  c #6D6D6D",
"J  c gray43",
"K  c #6F6F6F",
"L  c gray44",
"P  c #727272",
"I  c #747474",
"U  c gray46",
"Y  c #767676",
"T  c #777777",
"R  c #797979",
"E  c gray50",
"W  c #808080",
"Q  c #838383",
"!  c #848484",
"~  c gray52",
"^  c #868686",
"/  c gray53",
"(  c #888888",
")  c gray54",
"_  c #8B8B8B",
"`  c gray55",
"'  c #8D8D8D",
"]  c #8E8E8E",
"[  c gray56",
"{  c gray57",
"}  c #939393",
"|  c #959595",
" . c gray59",
".. c #979797",
"X. c #989898",
"o. c gray60",
"O. c #9A9A9A",
"+. c gray61",
"@. c #9D9D9D",
"#. c #9F9F9F",
"$. c #A0A0A0",
"%. c gray63",
"&. c #A2A2A2",
"*. c gray64",
"=. c #A4A4A4",
"-. c #A5A5A5",
";. c gray65",
":. c gray66",
">. c #AAAAAA",
",. c #ACACAC",
"<. c gray68",
"1. c #AEAEAE",
"2. c #AFAFAF",
"3. c gray69",
"4. c gray70",
"5. c #B4B4B4",
"6. c #B6B6B6",
"7. c #B7B7B7",
"8. c gray72",
"9. c #B9B9B9",
"0. c gray74",
"q. c gray",
"w. c #C0C0C0",
"e. c #C1C1C1",
"r. c gray76",
"t. c #C3C3C3",
"y. c #C5C5C5",
"u. c #C6C6C6",
"i. c #CACACA",
"p. c #CBCBCB",
"a. c #CDCDCD",
"s. c #CECECE",
"d. c gray81",
"f. c #D0D0D0",
"g. c gray82",
"h. c gray83",
"j. c #D7D7D7",
"k. c #D8D8D8",
"l. c gray85",
"z. c #DADADA",
"x. c gray86",
"c. c gainsboro",
"v. c #DDDDDD",
"b. c gray87",
"n. c #DFDFDF",
"m. c gray88",
"M. c #E1E1E1",
"N. c gray89",
"B. c #E4E4E4",
"V. c gray90",
"C. c #E6E6E6",
"Z. c #E7E7E7",
"A. c #E9E9E9",
"S. c gray92",
"D. c #ECECEC",
"F. c gray93",
"G. c #EEEEEE",
"H. c #EFEFEF",
"J. c gray94",
"K. c #F1F1F1",
"L. c gray95",
"P. c #F4F4F4",
"I. c gray96",
"U. c #F6F6F6",
"Y. c gray97",
"T. c #F8F8F8",
"R. c #F9F9F9",
"E. c gray98",
"W. c #FBFBFB",
"Q. c gray99",
"!. c #FDFDFD",
"~. c #FEFEFE",
"^. c white",
/* pixels */
"                                                                                                                                ",
"                                                                                                                                ",
"                                                                                                                                ",
"                                                                                                                                ",
"                                                                                                                                ",
"                                                                                                                                ",
"                                                                                                                                ",
"                                                                                                                                ",
"                                                                                                                                ",
"                                                                                                                                ",
"                                                                                                                                ",
"                                                                                                                                ",
"                                                                                                                                ",
"                                                                                                                                ",
"                                                                                                                                ",
"                                                                                                                                ",
"                                                                                                                                ",
"                                                                                                                                ",
"                                                                                                                                ",
"                                                                                                                                ",
"                                                                                                                                ",
"                                                                                                                                ",
"                                                                                                                                ",
"            6 ' l.U.G.t.D o                                               @ I F.^.=.                    8 ~ s.F.Y.v.0.Y ,       ",
"          k J.^.^.^.^.^.^.e.%                                         O D B.^.^.^.=.                  T Y.^.^.^.^.^.^.^.+.      ",
"        0 P.^.d.s $ 9 [ ^.^.*.                                    . N x.^.H.B ^.^.=.                _ ^.^.p.n , O , g o.)       ",
"        4.^.n.-         ( ^.^.r                                   + A.^.q.6   ^.^.=.              k ^.^.-.o                     ",
"      5 ~.^.A           & K.^.{     K ^.^. .          = M.^.V.>     R I .     ^.^.=.              p.^.v.#                       ",
"      F ^.R.*           H W.^.h.      4.^.^.j         *.^.!.s                 ^.^.=.            e ^.^.H                         ",
"      X.^.d.        # &.^.^.^.W.+     > V.^.N.-     m ^.^.E                   ^.^.=.            L ^.^.7                         ",
"      7.^.1.      8 s.^.c.R ^.^.4       d !.^.&.  2 D.^.w.X                   ^.^.=.            @.^.K.                          ",
"      y.^.$.    h D.^.6.; a ^.^.q         ! ^.^.b 6.^.S.3                     ^.^.=.            3.^.n.                          ",
"      u.^.+.  Y Q.~.! X   p ^.^.0         O u.^.T.^.~.z                       ^.^.=.            6.^.b.                          ",
"      8.^.<.>.^.L.v       l ^.^.4           7 J.^.^.{                         ^.^.=.            :.^.G.                          ",
"      #.^.^.^.j.0         G ^.T.o           y R.^.^.t.o                       ^.^.=.            ` ^.^.1                         ",
"      P ^.^.2.*           %.^.a.          - b.^.g.~.^.Q                       ^.^.=.            M ^.^.V                         ",
"      w ^.^.b           $ F.^.W           <.^.H.4 | ^.!.f                     ^.^.=.            - I.^.i.X                       ",
"        f.^.g.#         ^ ^.T.8         J ^.^.Z   & n.^.C.,                   ^.^.=.              } ^.^./                       ",
"        h ^.^.t.i % 7 ] ~.^.W         t R.^.5.      f ~.^.7..                 ^.^.=.              & k.^.^.9.z : O > h o.)       ",
"          J !.^.^.^.^.^.^.O..       = v.^.G.3         ..^.^.U       X.^.^.^.^.^.^.^.^.^.^.$.        < r.^.^.^.^.^.^.^.^.+.      ",
"            y ;.V.R.Z.4.x           ,.^.^.C           & m.^.E.u     X.^.^.^.^.^.^.^.^.^.^.$.            c -.b.P.I.z.4.S -       ",
"                                                                                                                                ",
"                                                                                                                                ",
"                                                                                                                                ",
"                                                                                                                                ",
"                                                                                                                                ",
"                                                                                                                                ",
"                                                                                                                                ",
"                                                                                                                                ",
"                                                                                                                                ",
"                                                                                                                                ",
"                                                                                                                                ",
"                                                                                                                                ",
"                                                                                                                                ",
"                                                                                                                                ",
"                                                                                                                                ",
"                                                                                                                                ",
"                                                                                                                                ",
"                                                                                                                                ",
"                                                                                                                                ",
"                                                                                                                                ",
"                                                                                                                                ",
"                                                                                                                                ",
"                                                                                                                                "
};
