/* XPM */
static char *debug_8[] = {
/* columns rows colors chars-per-pixel */
"64 64 172 2 ",
"   c black",
".  c #010101",
"X  c #020202",
"o  c gray1",
"O  c #040404",
"+  c gray2",
"@  c #070707",
"#  c gray3",
"$  c #090909",
"%  c gray4",
"&  c #0B0B0B",
"*  c #0C0C0C",
"=  c gray5",
"-  c #0E0E0E",
";  c gray6",
":  c #101010",
">  c #111111",
",  c gray8",
"<  c #151515",
"1  c gray9",
"2  c #191919",
"3  c gray10",
"4  c #1B1B1B",
"5  c gray11",
"6  c #1D1D1D",
"7  c gray12",
"8  c #202020",
"9  c gray13",
"0  c #222222",
"q  c gray14",
"w  c #252525",
"e  c #282828",
"r  c gray16",
"t  c #2A2A2A",
"y  c #2F2F2F",
"u  c #313131",
"i  c #323232",
"p  c gray20",
"a  c #353535",
"s  c gray21",
"d  c #373737",
"f  c gray23",
"g  c #3C3C3C",
"h  c gray24",
"j  c #3F3F3F",
"k  c gray25",
"l  c #414141",
"z  c gray26",
"x  c #444444",
"c  c gray27",
"v  c #464646",
"b  c gray28",
"n  c #494949",
"m  c gray29",
"M  c #4B4B4B",
"N  c gray30",
"B  c gray31",
"V  c #505050",
"C  c #515151",
"Z  c gray32",
"A  c gray33",
"S  c #565656",
"D  c #585858",
"F  c #5D5D5D",
"G  c #5F5F5F",
"H  c #606060",
"J  c #646464",
"K  c gray40",
"L  c #686868",
"P  c DimGray",
"I  c #6A6A6A",
"U  c gray42",
"Y  c #6D6D6D",
"T  c gray43",
"R  c #6F6F6F",
"E  c gray44",
"W  c #727272",
"Q  c gray46",
"!  c #767676",
"~  c #797979",
"^  c #7B7B7B",
"/  c #7E7E7E",
"(  c gray50",
")  c #808080",
"_  c gray51",
"`  c #838383",
"'  c #848484",
"]  c #868686",
"[  c gray53",
"{  c #888888",
"}  c gray55",
"|  c #8D8D8D",
" . c #8E8E8E",
".. c gray56",
"X. c gray57",
"o. c #959595",
"O. c gray59",
"+. c #979797",
"@. c #989898",
"#. c gray60",
"$. c #9A9A9A",
"%. c gray61",
"&. c #9F9F9F",
"*. c #A0A0A0",
"=. c gray63",
"-. c #A2A2A2",
";. c gray64",
":. c #A4A4A4",
">. c gray65",
",. c #AAAAAA",
"<. c gray67",
"1. c #ACACAC",
"2. c gray68",
"3. c #AEAEAE",
"4. c #AFAFAF",
"5. c gray70",
"6. c #B4B4B4",
"7. c #B6B6B6",
"8. c #B7B7B7",
"9. c gray72",
"0. c gray73",
"q. c #BBBBBB",
"w. c #C0C0C0",
"e. c #C1C1C1",
"r. c #C3C3C3",
"t. c #C5C5C5",
"y. c #C6C6C6",
"u. c gray79",
"i. c #CDCDCD",
"p. c #CECECE",
"a. c gray81",
"s. c #D0D0D0",
"d. c gray82",
"f. c #D2D2D2",
"g. c gray83",
"h. c #D5D5D5",
"j. c #D7D7D7",
"k. c #D8D8D8",
"l. c gray85",
"z. c gray86",
"x. c gainsboro",
"c. c #DDDDDD",
"v. c gray87",
"b. c #DFDFDF",
"n. c gray88",
"m. c #E1E1E1",
"M. c gray89",
"N. c #E4E4E4",
"B. c gray90",
"V. c #E6E6E6",
"C. c #E7E7E7",
"Z. c gray91",
"A. c #EAEAEA",
"S. c gray92",
"D. c #ECECEC",
"F. c gray93",
"G. c #EEEEEE",
"H. c #EFEFEF",
"J. c gray94",
"K. c #F1F1F1",
"L. c gray95",
"P. c #F4F4F4",
"I. c gray96",
"U. c #F6F6F6",
"Y. c #F8F8F8",
"T. c #F9F9F9",
"R. c gray98",
"E. c #FBFBFB",
"W. c gray99",
"Q. c #FDFDFD",
"!. c #FEFEFE",
"~. c white",
/* pixels */
"                                                                                                                                ",
"                                                                                                                                ",
"                                                                                                                                ",
"                                                                                                                                ",
"                                                                                                                                ",
"                                                                                                                                ",
"                                                                                                                                ",
"                                                                                                                                ",
"                                                                                                                                ",
"                                                                                                                                ",
"                                                                                                                                ",
"                                                                                                                                ",
"                                                                                                                                ",
"                                                                                                                                ",
"                                                                                                                                ",
"                                                                                                                                ",
"                                                                                                                                ",
"                                                                                                                                ",
"                                                                                                                                ",
"                                                                                                                                ",
"                                                                                                                                ",
"                                                                                                                                ",
"                                                                                                                                ",
"            6 | l.U.G.r.K o                                             6 | l.U.G.r.K o               c <.N.T.I.k.+.e           ",
"          b J.~.~.~.~.~.~.e.&                                         b J.~.~.~.~.~.~.e.&         . #.~.~.~.~.~.~.~.T.Z         ",
"        e P.~.a.j % q ..~.~.;.                                      e P.~.a.j % q ..~.~.;.        I ~.W.^ 0 @ < B z.~.H.=       ",
"        5.~.b.:         { ~.~.i                                     5.~.b.:         { ~.~.i       f.~.$.          d ~.~.N       ",
"      5 !.~.H           * K.~.X.    R ~.~.O.          ; m.~.B.,   5 !.~.H           * K.~.X.      P.~.]           4 ~.~.D       ",
"      L ~.T.=           Y E.~.g.      5.~.~.v         ;.~.Q.j     L ~.T.=           Y E.~.g.      j.~.f.O         G ~.~.u       ",
"      @.~.a.        $ -.~.~.~.E.@     , B.~.M.:     A ~.~.(       @.~.a.        $ -.~.~.~.E.@     ^ ~.~.%.+     e Z.~.t.        ",
"      8.~.3.      8 p.~.x.~ ~.~.4       l Q.~.-.  2 D.~.w.X       8.~.3.      8 p.~.x.~ ~.~.4     # q.~.~.i.g G F.~.b.7         ",
"      t.~.*.    x D.~.7.> h ~.~.r         ' ~.~.C 7.~.S.3         t.~.*.    x D.~.7.> h ~.~.r       # [ E.~.~.~.~.:.,           ",
"      y.~.%.  ! W.!.' X   g ~.~.e         O y.~.Y.~.!.m           y.~.%.  ! W.!.' X   g ~.~.e       o P H.~.~.~.~.a.h           ",
"      9.~.2.,.~.L.V       n ~.~.4           7 J.~.~.X.            9.~.2.,.~.L.V       n ~.~.4     * q.~.I./ 6 E A.~.E.J         ",
"      &.~.~.~.j.e         U ~.Y.o           a T.~.~.r.o           &.~.~.~.j.e         U ~.Y.o     1.~.A.y       > 0.~.E.u       ",
"      W ~.~.4.=           =.~.i.          : v.~.d.!.~.`           W ~.~.4.=           =.~.i.    w ~.~.K           - U.~.-.      ",
"      y ~.~.C           % F.~.)           2.~.H.4 o.~.Q.z         y ~.~.C           % F.~.)     Z ~.~.g             h.~.e.      ",
"        s.~.d.$         ] ~.Y.8         T ~.~.G   * b.~.V.<         s.~.d.$         ] ~.Y.8     m ~.~.{           9 T.~.;.      ",
"        x ~.~.r.f & 7  .!.~.)         p T.~.6.      z !.~.8..       x ~.~.r.f & 7  .!.~.)       & A.~.!.| t # 1 S z.~.!.h       ",
"          T Q.~.~.~.~.~.~.$..       ; c.~.G.3         +.~.~.Q         T Q.~.~.~.~.~.~.$..         k K.~.~.~.~.~.~.~.R.I         ",
"            a >.B.T.C.5.M           1.~.~.F           * n.~.R.s         a >.B.T.C.5.M               1 _ u.H.W.L.a.} q           ",
"                                                                                                                                ",
"                                                                                                                                ",
"                                                                                                                                ",
"                                                                                                                                ",
"                                                                                                                                ",
"                                                                                                                                ",
"                                                                                                                                ",
"                                                                                                                                ",
"                                                                                                                                ",
"                                                                                                                                ",
"                                                                                                                                ",
"                                                                                                                                ",
"                                                                                                                                ",
"                                                                                                                                ",
"                                                                                                                                ",
"                                                                                                                                ",
"                                                                                                                                ",
"                                                                                                                                ",
"                                                                                                                                ",
"                                                                                                                                ",
"                                                                                                                                ",
"                                                                                                                                ",
"                                                                                                                                "
};
