/* XPM */
static char *debug_19[] = {
/* columns rows colors chars-per-pixel */
"64 64 168 2 ",
"   c black",
".  c #010101",
"X  c #020202",
"o  c gray1",
"O  c #040404",
"+  c gray2",
"@  c #060606",
"#  c #070707",
"$  c gray3",
"%  c #090909",
"&  c gray4",
"*  c #0B0B0B",
"=  c #0C0C0C",
"-  c gray5",
";  c #0E0E0E",
":  c gray6",
">  c #101010",
",  c #111111",
"<  c #131313",
"1  c gray8",
"2  c #151515",
"3  c #191919",
"4  c gray10",
"5  c #1B1B1B",
"6  c gray11",
"7  c #1D1D1D",
"8  c gray12",
"9  c #202020",
"0  c #222222",
"q  c #232323",
"w  c gray14",
"e  c gray15",
"r  c #272727",
"t  c #282828",
"y  c gray16",
"u  c #2F2F2F",
"i  c #323232",
"p  c gray20",
"a  c #353535",
"s  c gray21",
"d  c #3A3A3A",
"f  c gray23",
"g  c #3C3C3C",
"h  c gray24",
"j  c #3F3F3F",
"k  c #414141",
"l  c gray26",
"z  c #434343",
"x  c #444444",
"c  c #464646",
"v  c gray28",
"b  c #484848",
"n  c #494949",
"m  c gray29",
"M  c #4B4B4B",
"N  c #4C4C4C",
"B  c #505050",
"V  c #515151",
"C  c #535353",
"Z  c gray33",
"A  c #585858",
"S  c gray35",
"D  c #5A5A5A",
"F  c gray36",
"G  c #5D5D5D",
"H  c #5F5F5F",
"J  c #606060",
"K  c #646464",
"L  c gray40",
"P  c #676767",
"I  c #686868",
"U  c gray42",
"Y  c #6D6D6D",
"T  c gray43",
"R  c #6F6F6F",
"E  c #727272",
"W  c #747474",
"Q  c gray46",
"!  c #767676",
"~  c #797979",
"^  c gray50",
"/  c #808080",
"(  c #838383",
")  c #848484",
"_  c gray52",
"`  c #868686",
"'  c #888888",
"]  c #8B8B8B",
"[  c #8D8D8D",
"{  c #8E8E8E",
"}  c gray56",
"|  c #909090",
" . c gray57",
".. c #959595",
"X. c gray59",
"o. c #979797",
"O. c #989898",
"+. c #9A9A9A",
"@. c #9B9B9B",
"#. c gray61",
"$. c #9F9F9F",
"%. c #A0A0A0",
"&. c gray63",
"*. c #A2A2A2",
"=. c gray64",
"-. c #A4A4A4",
";. c gray65",
":. c #A9A9A9",
">. c #AAAAAA",
",. c #ACACAC",
"<. c gray68",
"1. c #AEAEAE",
"2. c #AFAFAF",
"3. c #B2B2B2",
"4. c gray70",
"5. c #B4B4B4",
"6. c #B6B6B6",
"7. c #B7B7B7",
"8. c gray72",
"9. c gray",
"0. c #C0C0C0",
"q. c #C1C1C1",
"w. c #C3C3C3",
"e. c #C5C5C5",
"r. c #C6C6C6",
"t. c #CDCDCD",
"y. c #CECECE",
"u. c gray81",
"i. c #D0D0D0",
"p. c gray82",
"a. c gray83",
"s. c #D7D7D7",
"d. c gray85",
"f. c gray86",
"g. c gainsboro",
"h. c #DDDDDD",
"j. c gray87",
"k. c #DFDFDF",
"l. c gray88",
"z. c #E1E1E1",
"x. c #E2E2E2",
"c. c gray89",
"v. c #E4E4E4",
"b. c gray90",
"n. c #E6E6E6",
"m. c #E7E7E7",
"M. c #E9E9E9",
"N. c gray92",
"B. c #ECECEC",
"V. c gray93",
"C. c #EEEEEE",
"Z. c #EFEFEF",
"A. c gray94",
"S. c #F1F1F1",
"D. c gray95",
"F. c #F3F3F3",
"G. c #F4F4F4",
"H. c gray96",
"J. c #F6F6F6",
"K. c gray97",
"L. c #F8F8F8",
"P. c #F9F9F9",
"I. c gray98",
"U. c #FBFBFB",
"Y. c gray99",
"T. c #FDFDFD",
"R. c #FEFEFE",
"E. c white",
/* pixels */
"                                                                                                                                ",
"                                                                                                                                ",
"                                                                                                                                ",
"                                                                                                                                ",
"                                                                                                                                ",
"                                                                                                                                ",
"                                                                                                                                ",
"                                                                                                                                ",
"                                                                                                                                ",
"                                                                                                                                ",
"                                                                                                                                ",
"                                                                                                                                ",
"                                                                                                                                ",
"                                                                                                                                ",
"                                                                                                                                ",
"                                                                                                                                ",
"                                                                                                                                ",
"                                                                                                                                ",
"                                                                                                                                ",
"                                                                                                                                ",
"                                                                                                                                ",
"                                                                                                                                ",
"                                                                                                                                ",
"            7 [ d.J.C.w.L o                                               $ W V.E.-.              O C ;.g.L.H.d.@.u             ",
"          v A.E.E.E.E.E.E.q.*                                         O L v.E.E.E.-.              b E.E.E.E.E.E.E.Y.P           ",
"        t G.E.u.j & w } E.E.=.                                    . A f.E.Z.S E.E.-.              x 7.D r $ 3 A x.E.I.q         ",
"        4.E.k.>         ' E.E.i                                   # M.E.9.7   E.E.-.                            f E.E.Q         ",
"      6 R.E.J           = S.E. .    R E.E.X.          : z.E.b.1     ~ W .     E.E.-.                            X L.E.]         ",
"      I E.P.-           Y U.E.a.      4.E.E.c         =.E.T.j                 E.E.-.                            ; R.E.Y         ",
"      O.E.u.        % *.E.E.E.U.#     1 b.E.c.>     Z E.E.^                   E.E.-.                            T E.K.4         ",
"      7.E.1.      9 y.E.g.~ E.E.5       k T.E.*.  3 B.E.0.X                   E.E.-.                      O e ( P.T.F           ",
"      e.E.%.    x B.E.6., h E.E.y         ) E.E.V 6.E.N.4                     E.E.-.                  | E.E.E.E.A.z             ",
"      r.E.#.  ! Y.R.) X   g E.E.t         O r.E.L.E.R.m                       E.E.-.                  | E.E.E.E.E.J._ @         ",
"      8.E.<.>.E.D.B       n E.E.5           8 A.E.E. .                        E.E.-.                      O 6 v :.E.E.&.        ",
"      $.E.E.E.s.t         U E.L.o           a P.E.E.w.o                       E.E.-.                              ^ E.E.d       ",
"      E E.E.2.-           &.E.t.          > j.E.p.R.E.(                       E.E.-.                              3 E.E.I       ",
"      u E.E.V           & V.E./           <.E.Z.5 ..E.T.l                     E.E.-.                              0 E.E.V       ",
"        i.E.p.%         ` E.L.9         T E.E.H   = k.E.n.2                   E.E.-.                               .E.F.-       ",
"        x E.E.w.f * 8 { R.E./         p P.E.5.      l R.E.7..                 E.E.-.                      + 3 N 3.E.E.P         ",
"          T T.E.E.E.E.E.E.+..       : h.E.C.4         o.E.E.Q       O.E.E.E.E.E.E.E.E.E.E.%.      0.E.E.E.E.E.E.E.S.K           ",
"            a ;.b.P.m.4.M           ,.E.E.G           = l.E.I.s     O.E.E.E.E.E.E.E.E.E.E.%.      0.E.E.E.H.x.5.T <             ",
"                                                                                                                                ",
"                                                                                                                                ",
"                                                                                                                                ",
"                                                                                                                                ",
"                                                                                                                                ",
"                                                                                                                                ",
"                                                                                                                                ",
"                                                                                                                                ",
"                                                                                                                                ",
"                                                                                                                                ",
"                                                                                                                                ",
"                                                                                                                                ",
"                                                                                                                                ",
"                                                                                                                                ",
"                                                                                                                                ",
"                                                                                                                                ",
"                                                                                                                                ",
"                                                                                                                                ",
"                                                                                                                                ",
"                                                                                                                                ",
"                                                                                                                                ",
"                                                                                                                                ",
"                                                                                                                                "
};
