/* XPM */
static char *debug_21[] = {
/* columns rows colors chars-per-pixel */
"64 64 152 2 ",
"   c black",
".  c #010101",
"X  c #020202",
"o  c gray1",
"O  c #040404",
"+  c #070707",
"@  c gray3",
"#  c #090909",
"$  c gray4",
"%  c #0B0B0B",
"&  c #0C0C0C",
"*  c gray5",
"=  c gray6",
"-  c #101010",
";  c #111111",
":  c gray8",
">  c #151515",
",  c #191919",
"<  c gray10",
"1  c #1B1B1B",
"2  c gray11",
"3  c #1D1D1D",
"4  c gray12",
"5  c #202020",
"6  c gray13",
"7  c gray14",
"8  c #272727",
"9  c #282828",
"0  c gray16",
"q  c #2F2F2F",
"w  c #323232",
"e  c gray20",
"r  c #353535",
"t  c gray21",
"y  c gray23",
"u  c #3C3C3C",
"i  c gray24",
"p  c #3F3F3F",
"a  c gray25",
"s  c #414141",
"d  c gray26",
"f  c #444444",
"g  c #464646",
"h  c gray28",
"j  c #494949",
"k  c gray29",
"l  c #4B4B4B",
"z  c #4E4E4E",
"x  c #505050",
"c  c #515151",
"v  c gray33",
"b  c #585858",
"n  c gray35",
"m  c #5D5D5D",
"M  c #5F5F5F",
"N  c #606060",
"B  c gray40",
"V  c #686868",
"C  c gray42",
"Z  c #6D6D6D",
"A  c gray43",
"S  c #6F6F6F",
"D  c #727272",
"F  c #747474",
"G  c gray46",
"H  c #767676",
"J  c #797979",
"K  c gray50",
"L  c #808080",
"P  c #838383",
"I  c #848484",
"U  c #868686",
"Y  c #888888",
"T  c #8D8D8D",
"R  c #8E8E8E",
"E  c gray56",
"W  c #909090",
"Q  c gray57",
"!  c #959595",
"~  c gray59",
"^  c #979797",
"/  c #989898",
"(  c #9A9A9A",
")  c gray61",
"_  c #9F9F9F",
"`  c #A0A0A0",
"'  c gray63",
"]  c #A2A2A2",
"[  c gray64",
"{  c #A4A4A4",
"}  c gray65",
"|  c #AAAAAA",
" . c #ACACAC",
".. c gray68",
"X. c #AEAEAE",
"o. c #AFAFAF",
"O. c #B2B2B2",
"+. c gray70",
"@. c #B4B4B4",
"#. c gray71",
"$. c #B6B6B6",
"%. c #B7B7B7",
"&. c gray72",
"*. c gray",
"=. c gray75",
"-. c #C0C0C0",
";. c #C1C1C1",
":. c #C3C3C3",
">. c #C5C5C5",
",. c #C6C6C6",
"<. c #CDCDCD",
"1. c #CECECE",
"2. c gray81",
"3. c #D0D0D0",
"4. c gray82",
"5. c gray83",
"6. c #D7D7D7",
"7. c gray85",
"8. c #DADADA",
"9. c gray86",
"0. c gainsboro",
"q. c #DDDDDD",
"w. c gray87",
"e. c #DFDFDF",
"r. c gray88",
"t. c #E1E1E1",
"y. c gray89",
"u. c #E4E4E4",
"i. c gray90",
"p. c #E6E6E6",
"a. c #E7E7E7",
"s. c #E9E9E9",
"d. c #EAEAEA",
"f. c gray92",
"g. c #ECECEC",
"h. c gray93",
"j. c #EEEEEE",
"k. c #EFEFEF",
"l. c gray94",
"z. c #F1F1F1",
"x. c gray95",
"c. c #F4F4F4",
"v. c gray96",
"b. c #F6F6F6",
"n. c #F8F8F8",
"m. c #F9F9F9",
"M. c gray98",
"N. c #FBFBFB",
"B. c gray99",
"V. c #FDFDFD",
"C. c #FEFEFE",
"Z. c white",
/* pixels */
"                                                                                                                                ",
"                                                                                                                                ",
"                                                                                                                                ",
"                                                                                                                                ",
"                                                                                                                                ",
"                                                                                                                                ",
"                                                                                                                                ",
"                                                                                                                                ",
"                                                                                                                                ",
"                                                                                                                                ",
"                                                                                                                                ",
"                                                                                                                                ",
"                                                                                                                                ",
"                                                                                                                                ",
"                                                                                                                                ",
"                                                                                                                                ",
"                                                                                                                                ",
"                                                                                                                                ",
"                                                                                                                                ",
"                                                                                                                                ",
"                                                                                                                                ",
"                                                                                                                                ",
"                                                                                                                                ",
"            3 T 7.b.j.:.B o                                               @ F h.Z.{               a Z.Z.Z.Z.Z.Z.Z.Z.Z.N         ",
"          h l.Z.Z.Z.Z.Z.Z.;.%                                         O B u.Z.Z.Z.{               a Z.Z.Z.Z.Z.Z.Z.Z.Z.N         ",
"        9 c.Z.2.p $ 7 E Z.Z.[                                     . b 9.Z.k.n Z.Z.{               a Z.B.                        ",
"        +.Z.e.-         Y Z.Z.w                                   + s.Z.*.3   Z.Z.{               a Z.B.                        ",
"      2 C.Z.N           & z.Z.Q     S Z.Z.~           = t.Z.i.:     J F .     Z.Z.{               a Z.B.                        ",
"      V Z.m.*           Z N.Z.5.      +.Z.Z.g         [ Z.V.p                 Z.Z.{               a Z.B.                        ",
"      / Z.2.        # ] Z.Z.Z.N.+     : i.Z.y.-     v Z.Z.K                   Z.Z.{               a Z.B.                        ",
"      %.Z.X.      5 1.Z.0.J Z.Z.1       s V.Z.]   , g.Z.-.X                   Z.Z.{               a Z.Z.Z.V.s.4.[ l             ",
"      >.Z.`     f g.Z.$.; i Z.Z.0         I Z.Z.c $.Z.f.<                     Z.Z.{               a Z.Z.Z.Z.Z.Z.Z.Z.%.*         ",
"      ,.Z.)   H B.C.I X   u Z.Z.9         O ,.Z.n.Z.C.k                       Z.Z.{                       O , z =.Z.Z.[         ",
"      &.Z...| Z.x.x       j Z.Z.1           4 l.Z.Z.Q                         Z.Z.{                             X #.Z.B.,       ",
"      _ Z.Z.Z.6.9         C Z.n.o           r m.Z.Z.:.o                       Z.Z.{                               x Z.Z.f       ",
"      D Z.Z.o.*           ' Z.<.          - w.Z.4.C.Z.P                       Z.Z.{                               a Z.Z.g       ",
"      q Z.Z.c           $ h.Z.L           ..Z.k.1 ! Z.V.d                     Z.Z.{                               F Z.C.1       ",
"        3.Z.4.#         U Z.n.5         A Z.Z.M   & e.Z.p.>                   Z.Z.{                             6 d.Z.O.        ",
"        f Z.Z.:.y % 4 R C.Z.L         e m.Z.@.      d C.Z.%..                 Z.Z.{                       + 8 H h.Z.i.3         ",
"          A V.Z.Z.Z.Z.Z.Z.( .       = q.Z.j.<         ^ Z.Z.G       / Z.Z.Z.Z.Z.Z.Z.Z.Z.Z.`       W Z.Z.Z.Z.Z.Z.Z.:.6           ",
"            r } i.m.a.+.l            .Z.Z.m           & r.Z.M.t     / Z.Z.Z.Z.Z.Z.Z.Z.Z.Z.`       W Z.Z.Z.v.8.` h .             ",
"                                                                                                                                ",
"                                                                                                                                ",
"                                                                                                                                ",
"                                                                                                                                ",
"                                                                                                                                ",
"                                                                                                                                ",
"                                                                                                                                ",
"                                                                                                                                ",
"                                                                                                                                ",
"                                                                                                                                ",
"                                                                                                                                ",
"                                                                                                                                ",
"                                                                                                                                ",
"                                                                                                                                ",
"                                                                                                                                ",
"                                                                                                                                ",
"                                                                                                                                ",
"                                                                                                                                ",
"                                                                                                                                ",
"                                                                                                                                ",
"                                                                                                                                ",
"                                                                                                                                ",
"                                                                                                                                "
};
