/* XPM */
static char *debug_30[] = {
/* columns rows colors chars-per-pixel */
"64 64 144 2 ",
"   c black",
".  c #010101",
"X  c #020202",
"o  c gray1",
"O  c #040404",
"+  c #070707",
"@  c gray3",
"#  c #090909",
"$  c gray4",
"%  c #0B0B0B",
"&  c #0C0C0C",
"*  c gray5",
"=  c gray6",
"-  c #101010",
";  c #111111",
":  c gray8",
">  c #151515",
",  c #191919",
"<  c gray10",
"1  c #1B1B1B",
"2  c gray11",
"3  c #1D1D1D",
"4  c gray12",
"5  c #202020",
"6  c gray14",
"7  c #282828",
"8  c gray16",
"9  c #2F2F2F",
"0  c gray19",
"q  c #323232",
"w  c gray20",
"e  c #353535",
"r  c gray21",
"t  c gray23",
"y  c #3C3C3C",
"u  c gray24",
"i  c #3F3F3F",
"p  c gray25",
"a  c #414141",
"s  c gray26",
"d  c #444444",
"f  c #464646",
"g  c gray28",
"h  c #494949",
"j  c gray29",
"k  c #4B4B4B",
"l  c #505050",
"z  c #515151",
"x  c gray33",
"c  c #585858",
"v  c gray35",
"b  c #5D5D5D",
"n  c #5F5F5F",
"m  c #606060",
"M  c gray40",
"N  c #686868",
"B  c gray42",
"V  c #6D6D6D",
"C  c gray43",
"Z  c #6F6F6F",
"A  c #727272",
"S  c #747474",
"D  c gray46",
"F  c #767676",
"G  c #797979",
"H  c gray50",
"J  c #808080",
"K  c #838383",
"L  c #848484",
"P  c #868686",
"I  c #888888",
"U  c #8D8D8D",
"Y  c #8E8E8E",
"T  c gray56",
"R  c gray57",
"E  c #959595",
"W  c gray59",
"Q  c #979797",
"!  c #989898",
"~  c #9A9A9A",
"^  c gray61",
"/  c #9F9F9F",
"(  c #A0A0A0",
")  c gray63",
"_  c #A2A2A2",
"`  c gray64",
"'  c #A4A4A4",
"]  c gray65",
"[  c #AAAAAA",
"{  c #ACACAC",
"}  c gray68",
"|  c #AEAEAE",
" . c #AFAFAF",
".. c gray70",
"X. c #B4B4B4",
"o. c #B6B6B6",
"O. c #B7B7B7",
"+. c gray72",
"@. c gray",
"#. c #C0C0C0",
"$. c #C1C1C1",
"%. c #C3C3C3",
"&. c #C5C5C5",
"*. c #C6C6C6",
"=. c #CDCDCD",
"-. c #CECECE",
";. c gray81",
":. c #D0D0D0",
">. c gray82",
",. c gray83",
"<. c #D7D7D7",
"1. c gray85",
"2. c gray86",
"3. c gainsboro",
"4. c #DDDDDD",
"5. c gray87",
"6. c #DFDFDF",
"7. c gray88",
"8. c #E1E1E1",
"9. c gray89",
"0. c #E4E4E4",
"q. c gray90",
"w. c #E6E6E6",
"e. c #E7E7E7",
"r. c gray91",
"t. c #E9E9E9",
"y. c gray92",
"u. c #ECECEC",
"i. c gray93",
"p. c #EEEEEE",
"a. c #EFEFEF",
"s. c gray94",
"d. c #F1F1F1",
"f. c gray95",
"g. c #F4F4F4",
"h. c #F6F6F6",
"j. c #F8F8F8",
"k. c #F9F9F9",
"l. c gray98",
"z. c #FBFBFB",
"x. c gray99",
"c. c #FDFDFD",
"v. c #FEFEFE",
"b. c white",
/* pixels */
"                                                                                                                                ",
"                                                                                                                                ",
"                                                                                                                                ",
"                                                                                                                                ",
"                                                                                                                                ",
"                                                                                                                                ",
"                                                                                                                                ",
"                                                                                                                                ",
"                                                                                                                                ",
"                                                                                                                                ",
"                                                                                                                                ",
"                                                                                                                                ",
"                                                                                                                                ",
"                                                                                                                                ",
"                                                                                                                                ",
"                                                                                                                                ",
"                                                                                                                                ",
"                                                                                                                                ",
"                                                                                                                                ",
"                                                                                                                                ",
"                                                                                                                                ",
"                                                                                                                                ",
"                                                                                                                                ",
"            3 U 1.h.p.%.M o                                               @ S i.b.'               p b.b.b.b.b.b.b.b.b.r.        ",
"          g s.b.b.b.b.b.b.$.%                                         O M 0.b.b.b.'               p b.b.b.b.b.b.b.b.b.r.        ",
"        7 g.b.;.i $ 6 T b.b.`                                     . c 2.b.a.v b.b.'               p b.b.0                       ",
"        ..b.6.-         I b.b.q                                   + t.b.@.3   b.b.'               p b.b.0                       ",
"      2 v.b.m           & d.b.R     Z b.b.W           = 8.b.q.:     G S .     b.b.'               p b.b.0                       ",
"      N b.k.*           V z.b.,.      ..b.b.f         ` b.c.i                 b.b.'               p b.b.0                       ",
"      ! b.;.        # _ b.b.b.z.+     : q.b.9.-     x b.b.H                   b.b.'               p b.b.0                       ",
"      O.b.|       5 -.b.3.G b.b.1       a c.b._   , u.b.#.X                   b.b.'               p b.b.0                       ",
"      &.b.(     d u.b.o.; u b.b.8         L b.b.z o.b.y.<                     b.b.'               p b.b.b.b.b.b.b.b.b.^         ",
"      *.b.^   F x.v.L X   y b.b.7         O *.b.j.b.v.j                       b.b.'               p b.b.b.b.b.b.b.b.b.^         ",
"      +.b.} [ b.f.l       h b.b.1           4 s.b.b.R                         b.b.'               p b.b.0                       ",
"      / b.b.b.<.7         B b.j.o           e k.b.b.%.o                       b.b.'               p b.b.0                       ",
"      A b.b. .*           ) b.=.          - 5.b.>.v.b.K                       b.b.'               p b.b.0                       ",
"      9 b.b.z           $ i.b.J           } b.a.1 E b.c.s                     b.b.'               p b.b.0                       ",
"        :.b.>.#         P b.j.5         C b.b.n   & 6.b.w.>                   b.b.'               p b.b.0                       ",
"        d b.b.%.t % 4 Y v.b.J         w k.b.X.      s v.b.O..                 b.b.'               p b.b.0                       ",
"          C c.b.b.b.b.b.b.~ .       = 4.b.p.<         Q b.b.D       ! b.b.b.b.b.b.b.b.b.b.(       p b.b.b.b.b.b.b.b.b.r.        ",
"            e ] q.k.e...k           { b.b.b           & 7.b.l.r     ! b.b.b.b.b.b.b.b.b.b.(       p b.b.b.b.b.b.b.b.b.r.        ",
"                                                                                                                                ",
"                                                                                                                                ",
"                                                                                                                                ",
"                                                                                                                                ",
"                                                                                                                                ",
"                                                                                                                                ",
"                                                                                                                                ",
"                                                                                                                                ",
"                                                                                                                                ",
"                                                                                                                                ",
"                                                                                                                                ",
"                                                                                                                                ",
"                                                                                                                                ",
"                                                                                                                                ",
"                                                                                                                                ",
"                                                                                                                                ",
"                                                                                                                                ",
"                                                                                                                                ",
"                                                                                                                                ",
"                                                                                                                                ",
"                                                                                                                                ",
"                                                                                                                                ",
"                                                                                                                                "
};
