/* XPM */
static char *debug_22[] = {
/* columns rows colors chars-per-pixel */
"64 64 168 2 ",
"   c black",
".  c #010101",
"X  c #020202",
"o  c gray1",
"O  c #040404",
"+  c #070707",
"@  c gray3",
"#  c #090909",
"$  c gray4",
"%  c #0B0B0B",
"&  c #0C0C0C",
"*  c gray5",
"=  c gray6",
"-  c #101010",
";  c #111111",
":  c gray8",
">  c #151515",
",  c #161616",
"<  c gray9",
"1  c #191919",
"2  c gray10",
"3  c #1B1B1B",
"4  c gray11",
"5  c #1D1D1D",
"6  c #1E1E1E",
"7  c gray12",
"8  c #202020",
"9  c gray13",
"0  c gray14",
"q  c #252525",
"w  c #282828",
"e  c gray16",
"r  c #2A2A2A",
"t  c gray17",
"y  c #2D2D2D",
"u  c #2F2F2F",
"i  c gray19",
"p  c #323232",
"a  c gray20",
"s  c #353535",
"d  c gray21",
"f  c gray23",
"g  c #3C3C3C",
"h  c gray24",
"j  c #3E3E3E",
"k  c #3F3F3F",
"l  c #414141",
"z  c gray26",
"x  c #444444",
"c  c gray27",
"v  c #464646",
"b  c gray28",
"n  c #494949",
"m  c gray29",
"M  c #4B4B4B",
"N  c #505050",
"B  c #515151",
"V  c gray33",
"C  c #565656",
"Z  c #585858",
"A  c gray35",
"S  c #5B5B5B",
"D  c #5D5D5D",
"F  c #5F5F5F",
"G  c #606060",
"H  c gray40",
"J  c #686868",
"K  c gray42",
"L  c #6D6D6D",
"P  c gray43",
"I  c #6F6F6F",
"U  c #727272",
"Y  c #747474",
"T  c gray46",
"R  c #767676",
"E  c #797979",
"W  c gray50",
"Q  c #808080",
"!  c gray51",
"~  c #838383",
"^  c #848484",
"/  c #868686",
"(  c #888888",
")  c #8D8D8D",
"_  c #8E8E8E",
"`  c gray56",
"'  c #909090",
"]  c gray57",
"[  c #939393",
"{  c #959595",
"}  c gray59",
"|  c #979797",
" . c #989898",
".. c #9A9A9A",
"X. c #9B9B9B",
"o. c gray61",
"O. c #9D9D9D",
"+. c #9F9F9F",
"@. c #A0A0A0",
"#. c gray63",
"$. c #A2A2A2",
"%. c gray64",
"&. c #A4A4A4",
"*. c #A5A5A5",
"=. c gray65",
"-. c #AAAAAA",
";. c #ACACAC",
":. c gray68",
">. c #AEAEAE",
",. c #AFAFAF",
"<. c gray70",
"1. c #B4B4B4",
"2. c #B6B6B6",
"3. c #B7B7B7",
"4. c gray72",
"5. c #B9B9B9",
"6. c gray",
"7. c gray75",
"8. c #C0C0C0",
"9. c #C1C1C1",
"0. c #C3C3C3",
"q. c #C5C5C5",
"w. c #C6C6C6",
"e. c #C8C8C8",
"r. c gray79",
"t. c gray80",
"y. c #CDCDCD",
"u. c #CECECE",
"i. c gray81",
"p. c #D0D0D0",
"a. c gray82",
"s. c gray83",
"d. c #D5D5D5",
"f. c #D7D7D7",
"g. c gray85",
"h. c gray86",
"j. c gainsboro",
"k. c #DDDDDD",
"l. c gray87",
"z. c #DFDFDF",
"x. c gray88",
"c. c #E1E1E1",
"v. c gray89",
"b. c #E4E4E4",
"n. c gray90",
"m. c #E6E6E6",
"M. c #E7E7E7",
"N. c #E9E9E9",
"B. c gray92",
"V. c #ECECEC",
"C. c gray93",
"Z. c #EEEEEE",
"A. c #EFEFEF",
"S. c gray94",
"D. c #F1F1F1",
"F. c gray95",
"G. c #F3F3F3",
"H. c #F4F4F4",
"J. c #F6F6F6",
"K. c gray97",
"L. c #F8F8F8",
"P. c #F9F9F9",
"I. c gray98",
"U. c #FBFBFB",
"Y. c gray99",
"T. c #FDFDFD",
"R. c #FEFEFE",
"E. c white",
/* pixels */
"                                                                                                                                ",
"                                                                                                                                ",
"                                                                                                                                ",
"                                                                                                                                ",
"                                                                                                                                ",
"                                                                                                                                ",
"                                                                                                                                ",
"                                                                                                                                ",
"                                                                                                                                ",
"                                                                                                                                ",
"                                                                                                                                ",
"                                                                                                                                ",
"                                                                                                                                ",
"                                                                                                                                ",
"                                                                                                                                ",
"                                                                                                                                ",
"                                                                                                                                ",
"                                                                                                                                ",
"                                                                                                                                ",
"                                                                                                                                ",
"                                                                                                                                ",
"                                                                                                                                ",
"                                                                                                                                ",
"            5 ) g.J.Z.0.H o                                               @ Y C.E.&.                      d ' r.V.I.E.o.        ",
"          b S.E.E.E.E.E.E.9.%                                         O H b.E.E.E.&.                  < 1.E.E.E.E.E.E.o.        ",
"        w H.E.i.k $ 0 ` E.E.%.                                    . Z h.E.A.A E.E.&.                2 x.E.G.' z : O             ",
"        <.E.z.-         ( E.E.p                                   + N.E.6.5   E.E.&.                6.E.f.9                     ",
"      4 R.E.G           & D.E.]     I E.E.}           = c.E.n.:     E Y .     E.E.&.              n E.P.0                       ",
"      J E.P.*           L U.E.s.      <.E.E.v         %.E.T.k                 E.E.&.              *.E.#.                        ",
"       .E.i.        # $.E.E.E.U.+     : n.E.v.-     V E.E.W                   E.E.&.              b.E.Z                         ",
"      3.E.>.      8 u.E.j.E E.E.3       l T.E.$.  1 V.E.8.X                   E.E.&.            6 E.E.S ( e.Z.U.V.5.V           ",
"      q.E.@.    x V.E.2.; h E.E.e         ^ E.E.B 2.E.B.2                     E.E.&.            s E.E.E.E.E.E.E.E.E.E.o.        ",
"      w.E.o.  R Y.R.^ X   g E.E.w         O w.E.L.E.R.m                       E.E.&.            c E.E.d.Y i % @ k t.E.E.A       ",
"      4.E.:.-.E.F.N       n E.E.3           7 S.E.E.]                         E.E.&.            M E.E.w           = N.E.7.      ",
"      +.E.E.E.f.w         K E.L.o           s P.E.E.0.o                       E.E.&.            j E.E.s             O.E.S.      ",
"      U E.E.,.*           #.E.y.          - l.E.a.R.E.~                       E.E.&.            9 E.E.C             ! E.K.      ",
"      u E.E.B           $ C.E.Q           :.E.A.3 { E.T.z                     E.E.&.            . Z.E.[             %.E.d.      ",
"        p.E.a.#         / E.L.8         P E.E.F   & z.E.m.>                   E.E.&.              X.E.S.>         r L.E.!       ",
"        x E.E.0.f % 7 _ R.E.Q         a P.E.1.      z R.E.3..                 E.E.&.              q L.E.a.l $ , Z n.E.v.-       ",
"          P T.E.E.E.E.E.E....       = k.E.Z.2         | E.E.T        .E.E.E.E.E.E.E.E.E.E.@.        A Y.E.E.E.E.E.E.l.t         ",
"            s =.n.P.M.<.M           ;.E.E.D           & x.E.I.d      .E.E.E.E.E.E.E.E.E.E.@.          y $.c.P.S.e.T &           ",
"                                                                                                                                ",
"                                                                                                                                ",
"                                                                                                                                ",
"                                                                                                                                ",
"                                                                                                                                ",
"                                                                                                                                ",
"                                                                                                                                ",
"                                                                                                                                ",
"                                                                                                                                ",
"                                                                                                                                ",
"                                                                                                                                ",
"                                                                                                                                ",
"                                                                                                                                ",
"                                                                                                                                ",
"                                                                                                                                ",
"                                                                                                                                ",
"                                                                                                                                ",
"                                                                                                                                ",
"                                                                                                                                ",
"                                                                                                                                ",
"                                                                                                                                ",
"                                                                                                                                ",
"                                                                                                                                "
};
