/* XPM */
static char *debug_10[] = {
/* columns rows colors chars-per-pixel */
"64 64 166 2 ",
"   c black",
".  c #010101",
"X  c #020202",
"o  c gray1",
"O  c #040404",
"+  c #070707",
"@  c #090909",
"#  c gray4",
"$  c #0B0B0B",
"%  c #0C0C0C",
"&  c gray5",
"*  c gray6",
"=  c #101010",
"-  c #111111",
";  c gray7",
":  c #131313",
">  c gray8",
",  c #151515",
"<  c #161616",
"1  c #181818",
"2  c #191919",
"3  c gray10",
"4  c #1B1B1B",
"5  c gray11",
"6  c #1D1D1D",
"7  c gray12",
"8  c #202020",
"9  c #232323",
"0  c gray14",
"q  c #252525",
"w  c #282828",
"e  c gray16",
"r  c gray17",
"t  c #2D2D2D",
"y  c #2F2F2F",
"u  c #313131",
"i  c #323232",
"p  c gray20",
"a  c #353535",
"s  c gray21",
"d  c #373737",
"f  c #393939",
"g  c #3A3A3A",
"h  c gray23",
"j  c #3C3C3C",
"k  c gray24",
"l  c #3F3F3F",
"z  c #414141",
"x  c gray26",
"c  c #444444",
"v  c #464646",
"b  c gray28",
"n  c #494949",
"m  c gray29",
"M  c #4B4B4B",
"N  c #505050",
"B  c #515151",
"V  c gray33",
"C  c gray35",
"Z  c #5A5A5A",
"A  c #5D5D5D",
"S  c gray37",
"D  c #5F5F5F",
"F  c #606060",
"G  c gray39",
"H  c gray40",
"J  c #686868",
"K  c gray42",
"L  c #6D6D6D",
"P  c gray43",
"I  c #6F6F6F",
"U  c #727272",
"Y  c gray45",
"T  c gray46",
"R  c #767676",
"E  c #797979",
"W  c gray49",
"Q  c gray50",
"!  c #808080",
"~  c #838383",
"^  c #848484",
"/  c gray52",
"(  c #868686",
")  c #888888",
"_  c #8B8B8B",
"`  c gray55",
"'  c #8D8D8D",
"]  c #8E8E8E",
"[  c gray56",
"{  c gray57",
"}  c #959595",
"|  c gray59",
" . c #979797",
".. c #989898",
"X. c #9A9A9A",
"o. c gray61",
"O. c #9F9F9F",
"+. c #A0A0A0",
"@. c gray63",
"#. c #A2A2A2",
"$. c gray64",
"%. c #A4A4A4",
"&. c #A5A5A5",
"*. c gray65",
"=. c #AAAAAA",
"-. c #ACACAC",
";. c gray68",
":. c #AEAEAE",
">. c #AFAFAF",
",. c #B2B2B2",
"<. c gray70",
"1. c #B4B4B4",
"2. c gray71",
"3. c #B6B6B6",
"4. c #B7B7B7",
"5. c gray72",
"6. c gray73",
"7. c gray74",
"8. c gray75",
"9. c #C0C0C0",
"0. c #C1C1C1",
"q. c #C3C3C3",
"w. c gray77",
"e. c #C5C5C5",
"r. c #C6C6C6",
"t. c gray80",
"y. c #CDCDCD",
"u. c #CECECE",
"i. c gray81",
"p. c #D0D0D0",
"a. c gray82",
"s. c #D2D2D2",
"d. c LightGray",
"f. c gray83",
"g. c #D7D7D7",
"h. c #D8D8D8",
"j. c gray85",
"k. c gainsboro",
"l. c #DDDDDD",
"z. c gray87",
"x. c #DFDFDF",
"c. c gray88",
"v. c #E1E1E1",
"b. c gray89",
"n. c gray90",
"m. c #E6E6E6",
"M. c #E7E7E7",
"N. c gray92",
"B. c #ECECEC",
"V. c gray93",
"C. c #EEEEEE",
"Z. c #EFEFEF",
"A. c gray94",
"S. c #F1F1F1",
"D. c gray95",
"F. c #F4F4F4",
"G. c gray96",
"H. c #F6F6F6",
"J. c #F8F8F8",
"K. c #F9F9F9",
"L. c gray98",
"P. c #FBFBFB",
"I. c gray99",
"U. c #FDFDFD",
"Y. c #FEFEFE",
"T. c white",
/* pixels */
"                                                                                                                                ",
"                                                                                                                                ",
"                                                                                                                                ",
"                                                                                                                                ",
"                                                                                                                                ",
"                                                                                                                                ",
"                                                                                                                                ",
"                                                                                                                                ",
"                                                                                                                                ",
"                                                                                                                                ",
"                                                                                                                                ",
"                                                                                                                                ",
"                                                                                                                                ",
"                                                                                                                                ",
"                                                                                                                                ",
"                                                                                                                                ",
"                                                                                                                                ",
"                                                                                                                                ",
"                                                                                                                                ",
"                                                                                                                                ",
"                                                                                                                                ",
"                                                                                                                                ",
"                                                                                                                                ",
"            6 ' j.H.C.q.H o                                             6 ' j.H.C.q.H o                 1 U.T.T.{               ",
"          b A.T.T.T.T.T.T.0.$                                         b A.T.T.T.T.T.T.0.$               K T.G.T.b..             ",
"        w F.T.i.l # 0 [ T.T.$.                                      w F.T.i.l # 0 [ T.T.$.              8.T.W T.T.d             ",
"        <.T.x.=         ) T.T.i                                     <.T.x.=         ) T.T.i           < U.Y.2 p.T._             ",
"      5 Y.T.F           % S.T.{     I T.T.|           * v.T.n.>   5 Y.T.F           % S.T.{           J T.y.  / T.z.            ",
"      J T.K.&           L P.T.f.      <.T.T.v         $.T.U.l     J T.K.&           L P.T.f.          7.T.~   g T.T.u           ",
"      ..T.i.        @ #.T.T.T.P.+     > n.T.b.=     V T.T.Q       ..T.i.        @ #.T.T.T.P.+       > I.T.f   X B.T./           ",
"      4.T.:.      8 u.T.k.E T.T.4       z U.T.#.  2 B.T.9.X       4.T.:.      8 u.T.k.E T.T.4       H T.N.X     &.T.h.          ",
"      e.T.+.    c B.T.3.- k T.T.e         ^ T.T.B 3.T.N.3         e.T.+.    c B.T.3.- k T.T.e       6.T.%.      Z T.T.r         ",
"      r.T.o.  R I.Y.^ X   j T.T.w         O r.T.J.T.Y.m           r.T.o.  R I.Y.^ X   j T.T.w     : P.T.C       ; I.T.Q         ",
"      5.T.;.=.T.D.N       n T.T.4           7 A.T.T.{             5.T.;.=.T.D.N       n T.T.4     G T.I.;         w.T.s.        ",
"      O.T.T.T.g.w         K T.J.o           a K.T.T.q.o           O.T.T.T.g.w         K T.J.o     4.T.e.          E T.T.q       ",
"      U T.T.>.&           @.T.y.          = z.T.a.Y.T.~           U T.T.>.&           @.T.y.    - L.T.T.T.T.T.T.T.T.T.T.E       ",
"      y T.T.B           # V.T.!           ;.T.Z.4 } T.U.x         y T.T.B           # V.T.!     F T.T.T.T.T.T.T.T.T.T.T.t.      ",
"        p.T.a.@         ( T.J.8         P T.T.D   % x.T.m.,         p.T.a.@         ( T.J.8     2.T.q.              W T.T.8     ",
"        c T.T.q.h $ 7 ] Y.T.!         p K.T.1.      x Y.T.4..       c T.T.q.h $ 7 ] Y.T.!     * K.T.Y               t T.T.Y     ",
"          P U.T.T.T.T.T.T.X..       * l.T.C.3          .T.T.T         P U.T.T.T.T.T.T.X..     S T.T.9                 k.T.r.    ",
"            a *.n.K.M.<.M           -.T.T.A           % c.T.L.s         a *.n.K.M.<.M         ,.T.d.                  ` T.Y.4   ",
"                                                                                                                                ",
"                                                                                                                                ",
"                                                                                                                                ",
"                                                                                                                                ",
"                                                                                                                                ",
"                                                                                                                                ",
"                                                                                                                                ",
"                                                                                                                                ",
"                                                                                                                                ",
"                                                                                                                                ",
"                                                                                                                                ",
"                                                                                                                                ",
"                                                                                                                                ",
"                                                                                                                                ",
"                                                                                                                                ",
"                                                                                                                                ",
"                                                                                                                                ",
"                                                                                                                                ",
"                                                                                                                                ",
"                                                                                                                                ",
"                                                                                                                                ",
"                                                                                                                                ",
"                                                                                                                                "
};
