/* XPM */
static char *debug_25[] = {
/* columns rows colors chars-per-pixel */
"64 64 170 2 ",
"   c black",
".  c #010101",
"X  c #020202",
"o  c gray1",
"O  c #040404",
"+  c gray2",
"@  c #060606",
"#  c #070707",
"$  c gray3",
"%  c #090909",
"&  c gray4",
"*  c #0B0B0B",
"=  c #0C0C0C",
"-  c gray5",
";  c #0E0E0E",
":  c gray6",
">  c #101010",
",  c #111111",
"<  c gray8",
"1  c #151515",
"2  c #191919",
"3  c gray10",
"4  c #1B1B1B",
"5  c gray11",
"6  c #1D1D1D",
"7  c #1E1E1E",
"8  c gray12",
"9  c #202020",
"0  c gray14",
"q  c gray15",
"w  c #272727",
"e  c #282828",
"r  c gray16",
"t  c #2F2F2F",
"y  c #323232",
"u  c gray20",
"i  c #353535",
"p  c gray21",
"a  c gray23",
"s  c #3C3C3C",
"d  c gray24",
"f  c #3F3F3F",
"g  c #414141",
"h  c gray26",
"j  c #444444",
"k  c #464646",
"l  c gray28",
"z  c #484848",
"x  c #494949",
"c  c gray29",
"v  c #4B4B4B",
"b  c #4E4E4E",
"n  c gray31",
"m  c #505050",
"M  c #515151",
"N  c gray33",
"B  c #555555",
"V  c #565656",
"C  c #585858",
"Z  c gray35",
"A  c #5D5D5D",
"S  c gray37",
"D  c #5F5F5F",
"F  c #606060",
"G  c gray40",
"H  c #686868",
"J  c gray42",
"K  c #6D6D6D",
"L  c gray43",
"P  c #6F6F6F",
"I  c #727272",
"U  c gray45",
"Y  c #747474",
"T  c gray46",
"R  c #767676",
"E  c #797979",
"W  c gray50",
"Q  c #808080",
"!  c gray51",
"~  c #838383",
"^  c #848484",
"/  c #868686",
"(  c #888888",
")  c #8D8D8D",
"_  c #8E8E8E",
"`  c gray56",
"'  c #909090",
"]  c gray57",
"[  c #929292",
"{  c gray58",
"}  c #959595",
"|  c gray59",
" . c #979797",
".. c #989898",
"X. c #9A9A9A",
"o. c gray61",
"O. c #9D9D9D",
"+. c #9F9F9F",
"@. c #A0A0A0",
"#. c gray63",
"$. c #A2A2A2",
"%. c gray64",
"&. c #A4A4A4",
"*. c #A5A5A5",
"=. c gray65",
"-. c #A9A9A9",
";. c #AAAAAA",
":. c #ACACAC",
">. c gray68",
",. c #AEAEAE",
"<. c #AFAFAF",
"1. c #B1B1B1",
"2. c #B2B2B2",
"3. c gray70",
"4. c #B4B4B4",
"5. c #B6B6B6",
"6. c #B7B7B7",
"7. c gray72",
"8. c gray",
"9. c #C0C0C0",
"0. c #C1C1C1",
"q. c #C3C3C3",
"w. c #C5C5C5",
"e. c #C6C6C6",
"r. c #CACACA",
"t. c #CDCDCD",
"y. c #CECECE",
"u. c gray81",
"i. c #D0D0D0",
"p. c gray82",
"a. c gray83",
"s. c #D5D5D5",
"d. c #D7D7D7",
"f. c #D8D8D8",
"g. c gray85",
"h. c #DADADA",
"j. c gray86",
"k. c gainsboro",
"l. c #DDDDDD",
"z. c gray87",
"x. c #DFDFDF",
"c. c gray88",
"v. c #E1E1E1",
"b. c gray89",
"n. c #E4E4E4",
"m. c gray90",
"M. c #E6E6E6",
"N. c #E7E7E7",
"B. c gray91",
"V. c #E9E9E9",
"C. c gray92",
"Z. c #ECECEC",
"A. c gray93",
"S. c #EEEEEE",
"D. c #EFEFEF",
"F. c gray94",
"G. c #F1F1F1",
"H. c gray95",
"J. c #F3F3F3",
"K. c #F4F4F4",
"L. c #F6F6F6",
"P. c gray97",
"I. c #F8F8F8",
"U. c #F9F9F9",
"Y. c gray98",
"T. c #FBFBFB",
"R. c gray99",
"E. c #FDFDFD",
"W. c #FEFEFE",
"Q. c white",
/* pixels */
"                                                                                                                                ",
"                                                                                                                                ",
"                                                                                                                                ",
"                                                                                                                                ",
"                                                                                                                                ",
"                                                                                                                                ",
"                                                                                                                                ",
"                                                                                                                                ",
"                                                                                                                                ",
"                                                                                                                                ",
"                                                                                                                                ",
"                                                                                                                                ",
"                                                                                                                                ",
"                                                                                                                                ",
"                                                                                                                                ",
"                                                                                                                                ",
"                                                                                                                                ",
"                                                                                                                                ",
"                                                                                                                                ",
"                                                                                                                                ",
"                                                                                                                                ",
"                                                                                                                                ",
"                                                                                                                                ",
"            6 ) g.L.S.q.G o                                               $ Y A.Q.&.                  k >.N.Y.V.2.z             ",
"          l F.Q.Q.Q.Q.Q.Q.0.*                                         O G n.Q.Q.Q.&.              O #.Q.Q.Q.Q.Q.Q.Q.'           ",
"        e K.Q.u.f & 0 ` Q.Q.%.                                    . C j.Q.D.Z Q.Q.&.              ' Q.E.[ r $ q O.Q.Q.S         ",
"        3.Q.x.>         ( Q.Q.y                                   # V.Q.8.6   Q.Q.&.            0 R.Q./           1.Q.x..       ",
"      5 W.Q.F           = G.Q.]     P Q.Q.|           : v.Q.m.<     E Y .     Q.Q.&.            T Q.Y.=           d Q.Q.s       ",
"      H Q.U.-           K T.Q.a.      3.Q.Q.k         %.Q.E.f                 Q.Q.&.            ..Q.M.            O U.Q.U       ",
"      ..Q.u.        % $.Q.Q.Q.T.#     < m.Q.b.>     N Q.Q.W                   Q.Q.&.            ] Q.Y.X             h.Q. .      ",
"      6.Q.,.      9 y.Q.k.E Q.Q.4       g E.Q.$.  2 Z.Q.9.X                   Q.Q.&.            F Q.Q.B             t.Q.=.      ",
"      w.Q.@.    j Z.Q.5., d Q.Q.r         ^ Q.Q.M 5.Q.C.3                     Q.Q.&.            - Z.Q.D.H 7 @ 6 V >.E.Q.-.      ",
"      e.Q.o.  R R.W.^ X   s Q.Q.e         O e.Q.I.Q.W.c                       Q.Q.&.              l L.Q.Q.Q.Q.Q.Q.Q.Q.Q...      ",
"      7.Q.>.;.Q.H.m       x Q.Q.4           8 F.Q.Q.]                         Q.Q.&.                q o.x.U.P.k.=.m f.Q.~       ",
"      +.Q.Q.Q.d.e         J Q.I.o           i U.Q.Q.q.o                       Q.Q.&.                              @ U.Q.n       ",
"      I Q.Q.<.-           #.Q.t.          > z.Q.p.W.Q.~                       Q.Q.&.                              b Q.T.<       ",
"      t Q.Q.M           & A.Q.Q           >.Q.D.4 } Q.E.h                     Q.Q.&.                            + y.Q.*.        ",
"        i.Q.p.%         / Q.I.9         L Q.Q.D   = x.Q.M.1                   Q.Q.&.                          ; ,.Q.J.w         ",
"        j Q.Q.q.a * 8 _ W.Q.Q         u U.Q.4.      h W.Q.6..                 Q.Q.&.                  + < d ! M.Q.U.M           ",
"          L E.Q.Q.Q.Q.Q.Q.X..       : l.Q.S.3          .Q.Q.T       ..Q.Q.Q.Q.Q.Q.Q.Q.Q.Q.@.      ( Q.Q.Q.Q.Q.Q.s.p             ",
"            i =.m.U.N.3.v           :.Q.Q.A           = c.Q.Y.p     ..Q.Q.Q.Q.Q.Q.Q.Q.Q.Q.@.      ( Q.I.B.r.{ l .               ",
"                                                                                                                                ",
"                                                                                                                                ",
"                                                                                                                                ",
"                                                                                                                                ",
"                                                                                                                                ",
"                                                                                                                                ",
"                                                                                                                                ",
"                                                                                                                                ",
"                                                                                                                                ",
"                                                                                                                                ",
"                                                                                                                                ",
"                                                                                                                                ",
"                                                                                                                                ",
"                                                                                                                                ",
"                                                                                                                                ",
"                                                                                                                                ",
"                                                                                                                                ",
"                                                                                                                                ",
"                                                                                                                                ",
"                                                                                                                                ",
"                                                                                                                                ",
"                                                                                                                                ",
"                                                                                                                                "
};
