/* XPM */
static char *debug_26[] = {
/* columns rows colors chars-per-pixel */
"64 64 173 2 ",
"   c black",
".  c #010101",
"X  c #020202",
"o  c gray1",
"O  c #040404",
"+  c #070707",
"@  c gray3",
"#  c #090909",
"$  c gray4",
"%  c #0B0B0B",
"&  c #0C0C0C",
"*  c gray5",
"=  c gray6",
"-  c #101010",
";  c #111111",
":  c gray7",
">  c #131313",
",  c gray8",
"<  c #151515",
"1  c #161616",
"2  c #181818",
"3  c #191919",
"4  c gray10",
"5  c #1B1B1B",
"6  c gray11",
"7  c #1D1D1D",
"8  c gray12",
"9  c #202020",
"0  c #232323",
"q  c gray14",
"w  c #252525",
"e  c #282828",
"r  c gray16",
"t  c gray17",
"y  c #2D2D2D",
"u  c #2F2F2F",
"i  c #313131",
"p  c #323232",
"a  c gray20",
"s  c #353535",
"d  c gray21",
"f  c #373737",
"g  c #393939",
"h  c #3A3A3A",
"j  c gray23",
"k  c #3C3C3C",
"l  c gray24",
"z  c #3F3F3F",
"x  c #414141",
"c  c gray26",
"v  c #444444",
"b  c #464646",
"n  c gray28",
"m  c #494949",
"M  c gray29",
"N  c #4B4B4B",
"B  c #505050",
"V  c #515151",
"C  c gray33",
"Z  c #585858",
"A  c gray35",
"S  c #5A5A5A",
"D  c #5D5D5D",
"F  c gray37",
"G  c #5F5F5F",
"H  c #606060",
"J  c gray39",
"K  c gray40",
"L  c #686868",
"P  c gray42",
"I  c #6D6D6D",
"U  c gray43",
"Y  c #6F6F6F",
"T  c #727272",
"R  c gray45",
"E  c #747474",
"W  c gray46",
"Q  c #767676",
"!  c #797979",
"~  c gray49",
"^  c gray50",
"/  c #808080",
"(  c #838383",
")  c #848484",
"_  c gray52",
"`  c #868686",
"'  c #888888",
"]  c #8B8B8B",
"[  c gray55",
"{  c #8D8D8D",
"}  c #8E8E8E",
"|  c gray56",
" . c gray57",
".. c #959595",
"X. c gray59",
"o. c #979797",
"O. c #989898",
"+. c #9A9A9A",
"@. c gray61",
"#. c #9F9F9F",
"$. c #A0A0A0",
"%. c gray63",
"&. c #A2A2A2",
"*. c gray64",
"=. c #A4A4A4",
"-. c #A5A5A5",
";. c gray65",
":. c #AAAAAA",
">. c #ACACAC",
",. c gray68",
"<. c #AEAEAE",
"1. c #AFAFAF",
"2. c #B2B2B2",
"3. c gray70",
"4. c #B4B4B4",
"5. c gray71",
"6. c #B6B6B6",
"7. c #B7B7B7",
"8. c gray72",
"9. c gray73",
"0. c gray74",
"q. c gray",
"w. c gray75",
"e. c #C0C0C0",
"r. c #C1C1C1",
"t. c #C3C3C3",
"y. c gray77",
"u. c #C5C5C5",
"i. c #C6C6C6",
"p. c gray80",
"a. c #CDCDCD",
"s. c #CECECE",
"d. c gray81",
"f. c #D0D0D0",
"g. c gray82",
"h. c #D2D2D2",
"j. c LightGray",
"k. c gray83",
"l. c #D7D7D7",
"z. c #D8D8D8",
"x. c gray85",
"c. c gray86",
"v. c gainsboro",
"b. c #DDDDDD",
"n. c gray87",
"m. c #DFDFDF",
"M. c gray88",
"N. c #E1E1E1",
"B. c gray89",
"V. c #E4E4E4",
"C. c gray90",
"Z. c #E6E6E6",
"A. c #E7E7E7",
"S. c #E9E9E9",
"D. c gray92",
"F. c #ECECEC",
"G. c gray93",
"H. c #EEEEEE",
"J. c #EFEFEF",
"K. c gray94",
"L. c #F1F1F1",
"P. c gray95",
"I. c #F4F4F4",
"U. c gray96",
"Y. c #F6F6F6",
"T. c #F8F8F8",
"R. c #F9F9F9",
"E. c gray98",
"W. c #FBFBFB",
"Q. c gray99",
"!. c #FDFDFD",
"~. c #FEFEFE",
"^. c white",
/* pixels */
"                                                                                                                                ",
"                                                                                                                                ",
"                                                                                                                                ",
"                                                                                                                                ",
"                                                                                                                                ",
"                                                                                                                                ",
"                                                                                                                                ",
"                                                                                                                                ",
"                                                                                                                                ",
"                                                                                                                                ",
"                                                                                                                                ",
"                                                                                                                                ",
"                                                                                                                                ",
"                                                                                                                                ",
"                                                                                                                                ",
"                                                                                                                                ",
"                                                                                                                                ",
"                                                                                                                                ",
"                                                                                                                                ",
"                                                                                                                                ",
"                                                                                                                                ",
"                                                                                                                                ",
"                                                                                                                                ",
"            7 { x.Y.H.t.K o                                               @ E G.^.=.                    2 !.^.^. .              ",
"          n K.^.^.^.^.^.^.r.%                                         O K V.^.^.^.=.                    P ^.U.^.B..             ",
"        e I.^.d.z $ q | ^.^.*.                                    . Z c.^.J.A ^.^.=.                    w.^.~ ^.^.f             ",
"        3.^.m.-         ' ^.^.p                                   + S.^.q.7   ^.^.=.                  1 !.~.3 f.^.]             ",
"      6 ~.^.H           & L.^. .    Y ^.^.X.          = N.^.C.,     ! E .     ^.^.=.                  L ^.a.  _ ^.n.            ",
"      L ^.R.*           I W.^.k.      3.^.^.b         *.^.!.z                 ^.^.=.                  0.^.(   h ^.^.i           ",
"      O.^.d.        # &.^.^.^.W.+     , C.^.B.-     C ^.^.^                   ^.^.=.                , Q.^.g   X F.^._           ",
"      7.^.<.      9 s.^.v.! ^.^.5       x !.^.&.  3 F.^.e.X                   ^.^.=.                K ^.D.X     -.^.z.          ",
"      u.^.$.    v F.^.6.; l ^.^.r         ) ^.^.V 6.^.D.4                     ^.^.=.                9.^.=.      S ^.^.t         ",
"      i.^.@.  Q Q.~.) X   k ^.^.e         O i.^.T.^.~.M                       ^.^.=.              > W.^.A       : Q.^.^         ",
"      8.^.,.:.^.P.B       m ^.^.5           8 K.^.^. .                        ^.^.=.              J ^.Q.:         y.^.h.        ",
"      #.^.^.^.l.e         P ^.T.o           s R.^.^.t.o                       ^.^.=.              7.^.u.          ! ^.^.w       ",
"      T ^.^.1.*           %.^.a.          - n.^.g.~.^.(                       ^.^.=.            ; E.^.^.^.^.^.^.^.^.^.^.!       ",
"      u ^.^.V           $ G.^./           ,.^.J.5 ..^.!.c                     ^.^.=.            H ^.^.^.^.^.^.^.^.^.^.^.p.      ",
"        f.^.g.#         ` ^.T.9         U ^.^.G   & m.^.Z.<                   ^.^.=.            5.^.t.              ~ ^.^.9     ",
"        v ^.^.t.j % 8 } ~.^./         a R.^.4.      c ~.^.7..                 ^.^.=.          = R.^.R               y ^.^.R     ",
"          U !.^.^.^.^.^.^.+..       = b.^.H.4         o.^.^.W       O.^.^.^.^.^.^.^.^.^.^.$.  F ^.^.0                 v.^.i.    ",
"            s ;.C.R.A.3.N           >.^.^.D           & M.^.E.d     O.^.^.^.^.^.^.^.^.^.^.$.  2.^.j.                  [ ^.~.5   ",
"                                                                                                                                ",
"                                                                                                                                ",
"                                                                                                                                ",
"                                                                                                                                ",
"                                                                                                                                ",
"                                                                                                                                ",
"                                                                                                                                ",
"                                                                                                                                ",
"                                                                                                                                ",
"                                                                                                                                ",
"                                                                                                                                ",
"                                                                                                                                ",
"                                                                                                                                ",
"                                                                                                                                ",
"                                                                                                                                ",
"                                                                                                                                ",
"                                                                                                                                ",
"                                                                                                                                ",
"                                                                                                                                ",
"                                                                                                                                ",
"                                                                                                                                ",
"                                                                                                                                ",
"                                                                                                                                "
};
