/* XPM */
static char *debug_5[] = {
/* columns rows colors chars-per-pixel */
"64 64 145 2 ",
"   c black",
".  c #010101",
"X  c #020202",
"o  c gray1",
"O  c #040404",
"+  c #070707",
"@  c #090909",
"#  c gray4",
"$  c #0B0B0B",
"%  c #0C0C0C",
"&  c gray5",
"*  c gray6",
"=  c #101010",
"-  c #111111",
";  c gray8",
":  c #151515",
">  c #191919",
",  c gray10",
"<  c #1B1B1B",
"1  c gray11",
"2  c #1D1D1D",
"3  c gray12",
"4  c #202020",
"5  c gray13",
"6  c gray14",
"7  c #272727",
"8  c #282828",
"9  c gray16",
"0  c #2F2F2F",
"q  c #323232",
"w  c gray20",
"e  c #353535",
"r  c gray21",
"t  c gray23",
"y  c #3C3C3C",
"u  c gray24",
"i  c #3F3F3F",
"p  c gray25",
"a  c #414141",
"s  c gray26",
"d  c #444444",
"f  c #464646",
"g  c gray28",
"h  c #494949",
"j  c gray29",
"k  c #4B4B4B",
"l  c #4E4E4E",
"z  c #505050",
"x  c #515151",
"c  c gray33",
"v  c #5D5D5D",
"b  c #5F5F5F",
"n  c #606060",
"m  c gray40",
"M  c #686868",
"N  c gray42",
"B  c #6D6D6D",
"V  c gray43",
"C  c #6F6F6F",
"Z  c #727272",
"A  c #747474",
"S  c gray46",
"D  c #767676",
"F  c #797979",
"G  c gray50",
"H  c #808080",
"J  c #838383",
"K  c #848484",
"L  c #868686",
"P  c #888888",
"I  c #8D8D8D",
"U  c #8E8E8E",
"Y  c gray56",
"T  c #909090",
"R  c gray57",
"E  c #959595",
"W  c gray59",
"Q  c #979797",
"!  c #989898",
"~  c #9A9A9A",
"^  c gray61",
"/  c #9F9F9F",
"(  c #A0A0A0",
")  c gray63",
"_  c #A2A2A2",
"`  c gray64",
"'  c gray65",
"]  c #AAAAAA",
"[  c #ACACAC",
"{  c gray68",
"}  c #AEAEAE",
"|  c #AFAFAF",
" . c #B2B2B2",
".. c gray70",
"X. c #B4B4B4",
"o. c gray71",
"O. c #B6B6B6",
"+. c #B7B7B7",
"@. c gray72",
"#. c gray75",
"$. c #C0C0C0",
"%. c #C1C1C1",
"&. c #C3C3C3",
"*. c #C5C5C5",
"=. c #C6C6C6",
"-. c #CDCDCD",
";. c #CECECE",
":. c gray81",
">. c #D0D0D0",
",. c gray82",
"<. c gray83",
"1. c #D7D7D7",
"2. c gray85",
"3. c #DADADA",
"4. c gainsboro",
"5. c #DDDDDD",
"6. c gray87",
"7. c #DFDFDF",
"8. c gray88",
"9. c #E1E1E1",
"0. c gray89",
"q. c gray90",
"w. c #E6E6E6",
"e. c #E7E7E7",
"r. c #E9E9E9",
"t. c #EAEAEA",
"y. c gray92",
"u. c #ECECEC",
"i. c gray93",
"p. c #EEEEEE",
"a. c #EFEFEF",
"s. c gray94",
"d. c #F1F1F1",
"f. c gray95",
"g. c #F4F4F4",
"h. c gray96",
"j. c #F6F6F6",
"k. c #F8F8F8",
"l. c #F9F9F9",
"z. c gray98",
"x. c #FBFBFB",
"c. c gray99",
"v. c #FDFDFD",
"b. c #FEFEFE",
"n. c white",
/* pixels */
"                                                                                                                                ",
"                                                                                                                                ",
"                                                                                                                                ",
"                                                                                                                                ",
"                                                                                                                                ",
"                                                                                                                                ",
"                                                                                                                                ",
"                                                                                                                                ",
"                                                                                                                                ",
"                                                                                                                                ",
"                                                                                                                                ",
"                                                                                                                                ",
"                                                                                                                                ",
"                                                                                                                                ",
"                                                                                                                                ",
"                                                                                                                                ",
"                                                                                                                                ",
"                                                                                                                                ",
"                                                                                                                                ",
"                                                                                                                                ",
"                                                                                                                                ",
"                                                                                                                                ",
"                                                                                                                                ",
"            2 I 2.j.p.&.m o                                             2 I 2.j.p.&.m o           p n.n.n.n.n.n.n.n.n.n         ",
"          g s.n.n.n.n.n.n.%.$                                         g s.n.n.n.n.n.n.%.$         p n.n.n.n.n.n.n.n.n.n         ",
"        8 g.n.:.i # 6 Y n.n.`                                       8 g.n.:.i # 6 Y n.n.`         p n.c.                        ",
"        ..n.7.=         P n.n.q                                     ..n.7.=         P n.n.q       p n.c.                        ",
"      1 b.n.n           % d.n.R     C n.n.W           * 9.n.q.;   1 b.n.n           % d.n.R       p n.c.                        ",
"      M n.l.&           B x.n.<.      ..n.n.f         ` n.v.i     M n.l.&           B x.n.<.      p n.c.                        ",
"      ! n.:.        @ _ n.n.n.x.+     ; q.n.0.=     c n.n.G       ! n.:.        @ _ n.n.n.x.+     p n.c.                        ",
"      +.n.}       4 ;.n.4.F n.n.<       a v.n._   > u.n.$.X       +.n.}       4 ;.n.4.F n.n.<     p n.n.n.v.r.,.` k             ",
"      *.n.(     d u.n.O.- u n.n.9         K n.n.x O.n.y.,         *.n.(     d u.n.O.- u n.n.9     p n.n.n.n.n.n.n.n.+.&         ",
"      =.n.^   D c.b.K X   y n.n.8         O =.n.k.n.b.j           =.n.^   D c.b.K X   y n.n.8             O > l #.n.n.`         ",
"      @.n.{ ] n.f.z       h n.n.<           3 s.n.n.R             @.n.{ ] n.f.z       h n.n.<                   X o.n.c.>       ",
"      / n.n.n.1.8         N n.k.o           e l.n.n.&.o           / n.n.n.1.8         N n.k.o                     z n.n.d       ",
"      Z n.n.| &           ) n.-.          = 6.n.,.b.n.J           Z n.n.| &           ) n.-.                      p n.n.f       ",
"      0 n.n.x           # i.n.H           { n.a.< E n.v.s         0 n.n.x           # i.n.H                       A n.b.<       ",
"        >.n.,.@         L n.k.4         V n.n.b   % 7.n.w.:         >.n.,.@         L n.k.4                     5 t.n. .        ",
"        d n.n.&.t $ 3 U b.n.H         w l.n.X.      s b.n.+..       d n.n.&.t $ 3 U b.n.H                 + 7 D i.n.q.2         ",
"          V v.n.n.n.n.n.n.~ .       * 5.n.p.,         Q n.n.S         V v.n.n.n.n.n.n.~ .         T n.n.n.n.n.n.n.&.5           ",
"            e ' q.l.e...k           [ n.n.v           % 8.n.z.r         e ' q.l.e...k             T n.n.n.h.3.( g .             ",
"                                                                                                                                ",
"                                                                                                                                ",
"                                                                                                                                ",
"                                                                                                                                ",
"                                                                                                                                ",
"                                                                                                                                ",
"                                                                                                                                ",
"                                                                                                                                ",
"                                                                                                                                ",
"                                                                                                                                ",
"                                                                                                                                ",
"                                                                                                                                ",
"                                                                                                                                ",
"                                                                                                                                ",
"                                                                                                                                ",
"                                                                                                                                ",
"                                                                                                                                ",
"                                                                                                                                ",
"                                                                                                                                ",
"                                                                                                                                ",
"                                                                                                                                ",
"                                                                                                                                ",
"                                                                                                                                "
};
