/* XPM */
static char *debug_24[] = {
/* columns rows colors chars-per-pixel */
"64 64 176 2 ",
"   c black",
".  c #010101",
"X  c #020202",
"o  c gray1",
"O  c #040404",
"+  c gray2",
"@  c #070707",
"#  c gray3",
"$  c #090909",
"%  c gray4",
"&  c #0B0B0B",
"*  c #0C0C0C",
"=  c gray5",
"-  c #0E0E0E",
";  c gray6",
":  c #101010",
">  c #111111",
",  c gray8",
"<  c #151515",
"1  c gray9",
"2  c #191919",
"3  c gray10",
"4  c #1B1B1B",
"5  c gray11",
"6  c #1D1D1D",
"7  c gray12",
"8  c #202020",
"9  c gray13",
"0  c #222222",
"q  c gray14",
"w  c #252525",
"e  c #282828",
"r  c gray16",
"t  c #2A2A2A",
"y  c #2F2F2F",
"u  c #313131",
"i  c #323232",
"p  c gray20",
"a  c #353535",
"s  c gray21",
"d  c #373737",
"f  c gray23",
"g  c #3C3C3C",
"h  c gray24",
"j  c #3F3F3F",
"k  c gray25",
"l  c #414141",
"z  c gray26",
"x  c #444444",
"c  c gray27",
"v  c #464646",
"b  c gray28",
"n  c #494949",
"m  c gray29",
"M  c #4B4B4B",
"N  c gray30",
"B  c gray31",
"V  c #505050",
"C  c #515151",
"Z  c gray32",
"A  c gray33",
"S  c #565656",
"D  c #585858",
"F  c gray35",
"G  c #5D5D5D",
"H  c #5F5F5F",
"J  c #606060",
"K  c #646464",
"L  c gray40",
"P  c #686868",
"I  c DimGray",
"U  c #6A6A6A",
"Y  c gray42",
"T  c #6D6D6D",
"R  c gray43",
"E  c #6F6F6F",
"W  c gray44",
"Q  c #727272",
"!  c #747474",
"~  c gray46",
"^  c #767676",
"/  c #797979",
"(  c #7B7B7B",
")  c #7E7E7E",
"_  c gray50",
"`  c #808080",
"'  c gray51",
"]  c #838383",
"[  c #848484",
"{  c #868686",
"}  c gray53",
"|  c #888888",
" . c gray55",
".. c #8D8D8D",
"X. c #8E8E8E",
"o. c gray56",
"O. c gray57",
"+. c #959595",
"@. c gray59",
"#. c #979797",
"$. c #989898",
"%. c gray60",
"&. c #9A9A9A",
"*. c gray61",
"=. c #9F9F9F",
"-. c #A0A0A0",
";. c gray63",
":. c #A2A2A2",
">. c gray64",
",. c #A4A4A4",
"<. c gray65",
"1. c #AAAAAA",
"2. c gray67",
"3. c #ACACAC",
"4. c gray68",
"5. c #AEAEAE",
"6. c #AFAFAF",
"7. c gray70",
"8. c #B4B4B4",
"9. c #B6B6B6",
"0. c #B7B7B7",
"q. c gray72",
"w. c gray73",
"e. c #BBBBBB",
"r. c gray",
"t. c #C0C0C0",
"y. c #C1C1C1",
"u. c #C3C3C3",
"i. c #C5C5C5",
"p. c #C6C6C6",
"a. c gray79",
"s. c #CDCDCD",
"d. c #CECECE",
"f. c gray81",
"g. c #D0D0D0",
"h. c gray82",
"j. c #D2D2D2",
"k. c gray83",
"l. c #D5D5D5",
"z. c #D7D7D7",
"x. c #D8D8D8",
"c. c gray85",
"v. c gray86",
"b. c gainsboro",
"n. c #DDDDDD",
"m. c gray87",
"M. c #DFDFDF",
"N. c gray88",
"B. c #E1E1E1",
"V. c gray89",
"C. c #E4E4E4",
"Z. c gray90",
"A. c #E6E6E6",
"S. c #E7E7E7",
"D. c gray91",
"F. c #E9E9E9",
"G. c #EAEAEA",
"H. c gray92",
"J. c #ECECEC",
"K. c gray93",
"L. c #EEEEEE",
"P. c #EFEFEF",
"I. c gray94",
"U. c #F1F1F1",
"Y. c gray95",
"T. c #F4F4F4",
"R. c gray96",
"E. c #F6F6F6",
"W. c #F8F8F8",
"Q. c #F9F9F9",
"!. c gray98",
"~. c #FBFBFB",
"^. c gray99",
"/. c #FDFDFD",
"(. c #FEFEFE",
"). c white",
/* pixels */
"                                                                                                                                ",
"                                                                                                                                ",
"                                                                                                                                ",
"                                                                                                                                ",
"                                                                                                                                ",
"                                                                                                                                ",
"                                                                                                                                ",
"                                                                                                                                ",
"                                                                                                                                ",
"                                                                                                                                ",
"                                                                                                                                ",
"                                                                                                                                ",
"                                                                                                                                ",
"                                                                                                                                ",
"                                                                                                                                ",
"                                                                                                                                ",
"                                                                                                                                ",
"                                                                                                                                ",
"                                                                                                                                ",
"                                                                                                                                ",
"                                                                                                                                ",
"                                                                                                                                ",
"                                                                                                                                ",
"            6 ..c.E.L.u.L o                                               # ! K.).,.                  c 2.C.Q.R.x.#.e           ",
"          b I.).).).).).).y.&                                         O L C.).).).,.              . %.).).).).).).).Q.Z         ",
"        e T.).f.j % q o.).).>.                                    . D v.).P.F ).).,.              U ).^.( 0 @ < B v.).P.=       ",
"        7.).M.:         | ).).i                                   @ F.).r.6   ).).,.              j.).&.          d ).).N       ",
"      5 (.).J           * U.).O.    E ).).@.          ; B.).Z.,     / ! .     ).).,.              T.).{           4 ).).D       ",
"      P ).Q.=           T ~.).k.      7.).).v         >.)./.j                 ).).,.              z.).j.O         H ).).u       ",
"      $.).f.        $ :.).).).~.@     , Z.).V.:     A ).)._                   ).).,.              ( ).).*.+     e D.).i.        ",
"      0.).5.      8 d.).b./ ).).4       l /.).:.  2 J.).t.X                   ).).,.              # e.).).s.g H K.).M.7         ",
"      i.).-.    x J.).9.> h ).).r         [ ).).C 9.).H.3                     ).).,.                # } ~.).).).).,.,           ",
"      p.).*.  ^ ^.(.[ X   g ).).e         O p.).W.).(.m                       ).).,.                o I P.).).).).f.h           ",
"      q.).4.1.).Y.V       n ).).4           7 I.).).O.                        ).).,.              * e.).R.) 6 W G.).~.K         ",
"      =.).).).z.e         Y ).W.o           a Q.).).u.o                       ).).,.              3.).G.y       > w.).~.u       ",
"      Q ).).6.=           ;.).s.          : m.).h.(.).]                       ).).,.            w ).).L           - E.).:.      ",
"      y ).).C           % K.).`           4.).P.4 +.)./.z                     ).).,.            Z ).).g             l.).y.      ",
"        g.).h.$         { ).W.8         R ).).H   * M.).A.<                   ).).,.            m ).).|           9 Q.).>.      ",
"        x ).).u.f & 7 X.(.).`         p Q.).8.      z (.).0..                 ).).,.            & G.).(...t # 1 S v.).(.h       ",
"          R /.).).).).).).&..       ; n.).L.3         #.).).~       $.).).).).).).).).).).-.      k U.).).).).).).).!.U         ",
"            a <.Z.Q.S.7.M           3.).).G           * N.).!.s     $.).).).).).).).).).).-.        1 ' a.P.^.Y.f. .q           ",
"                                                                                                                                ",
"                                                                                                                                ",
"                                                                                                                                ",
"                                                                                                                                ",
"                                                                                                                                ",
"                                                                                                                                ",
"                                                                                                                                ",
"                                                                                                                                ",
"                                                                                                                                ",
"                                                                                                                                ",
"                                                                                                                                ",
"                                                                                                                                ",
"                                                                                                                                ",
"                                                                                                                                ",
"                                                                                                                                ",
"                                                                                                                                ",
"                                                                                                                                ",
"                                                                                                                                ",
"                                                                                                                                ",
"                                                                                                                                ",
"                                                                                                                                ",
"                                                                                                                                ",
"                                                                                                                                "
};
