/* XPM */
static char *debug_7[] = {
/* columns rows colors chars-per-pixel */
"64 64 146 2 ",
"   c black",
".  c #010101",
"X  c #020202",
"o  c gray1",
"O  c #040404",
"+  c #060606",
"@  c #070707",
"#  c gray3",
"$  c #090909",
"%  c gray4",
"&  c #0B0B0B",
"*  c #0C0C0C",
"=  c gray5",
"-  c #0E0E0E",
";  c gray6",
":  c #101010",
">  c #111111",
",  c gray8",
"<  c #151515",
"1  c #191919",
"2  c gray10",
"3  c #1B1B1B",
"4  c gray11",
"5  c #1D1D1D",
"6  c gray12",
"7  c #202020",
"8  c gray14",
"9  c #282828",
"0  c gray16",
"q  c #2C2C2C",
"w  c #2F2F2F",
"e  c #323232",
"r  c gray20",
"t  c #353535",
"y  c gray21",
"u  c gray23",
"i  c #3C3C3C",
"p  c gray24",
"a  c #3F3F3F",
"s  c #414141",
"d  c gray26",
"f  c #444444",
"g  c #464646",
"h  c gray28",
"j  c #494949",
"k  c gray29",
"l  c #4B4B4B",
"z  c #505050",
"x  c #515151",
"c  c gray33",
"v  c #585858",
"b  c #5B5B5B",
"n  c #5D5D5D",
"m  c #5F5F5F",
"M  c #606060",
"N  c gray40",
"B  c #686868",
"V  c gray42",
"C  c #6D6D6D",
"Z  c gray43",
"A  c #6F6F6F",
"S  c #727272",
"D  c gray45",
"F  c #747474",
"G  c gray46",
"H  c #767676",
"J  c #797979",
"K  c #7B7B7B",
"L  c gray50",
"P  c #808080",
"I  c #838383",
"U  c #848484",
"Y  c #868686",
"T  c #888888",
"R  c #8D8D8D",
"E  c #8E8E8E",
"W  c gray56",
"Q  c gray57",
"!  c #939393",
"~  c #959595",
"^  c gray59",
"/  c #979797",
"(  c #989898",
")  c #9A9A9A",
"_  c gray61",
"`  c #9F9F9F",
"'  c #A0A0A0",
"]  c gray63",
"[  c #A2A2A2",
"{  c gray64",
"}  c gray65",
"|  c #AAAAAA",
" . c #ACACAC",
".. c gray68",
"X. c #AEAEAE",
"o. c #AFAFAF",
"O. c gray69",
"+. c gray70",
"@. c #B4B4B4",
"#. c #B6B6B6",
"$. c #B7B7B7",
"%. c gray72",
"&. c #C0C0C0",
"*. c #C1C1C1",
"=. c #C3C3C3",
"-. c #C5C5C5",
";. c #C6C6C6",
":. c #CDCDCD",
">. c #CECECE",
",. c gray81",
"<. c #D0D0D0",
"1. c gray82",
"2. c #D2D2D2",
"3. c LightGray",
"4. c gray83",
"5. c #D7D7D7",
"6. c #D8D8D8",
"7. c gray85",
"8. c gainsboro",
"9. c #DDDDDD",
"0. c gray87",
"q. c #DFDFDF",
"w. c gray88",
"e. c #E1E1E1",
"r. c gray89",
"t. c gray90",
"y. c #E6E6E6",
"u. c #E7E7E7",
"i. c gray92",
"p. c #ECECEC",
"a. c gray93",
"s. c #EEEEEE",
"d. c #EFEFEF",
"f. c gray94",
"g. c #F1F1F1",
"h. c gray95",
"j. c #F4F4F4",
"k. c #F6F6F6",
"l. c #F8F8F8",
"z. c #F9F9F9",
"x. c gray98",
"c. c #FBFBFB",
"v. c gray99",
"b. c #FDFDFD",
"n. c #FEFEFE",
"m. c white",
/* pixels */
"                                                                                                                                ",
"                                                                                                                                ",
"                                                                                                                                ",
"                                                                                                                                ",
"                                                                                                                                ",
"                                                                                                                                ",
"                                                                                                                                ",
"                                                                                                                                ",
"                                                                                                                                ",
"                                                                                                                                ",
"                                                                                                                                ",
"                                                                                                                                ",
"                                                                                                                                ",
"                                                                                                                                ",
"                                                                                                                                ",
"                                                                                                                                ",
"                                                                                                                                ",
"                                                                                                                                ",
"                                                                                                                                ",
"                                                                                                                                ",
"                                                                                                                                ",
"                                                                                                                                ",
"                                                                                                                                ",
"            5 R 7.k.s.=.N o                                             5 R 7.k.s.=.N o         B m.m.m.m.m.m.m.m.m.m.m.O.      ",
"          h f.m.m.m.m.m.m.*.&                                         h f.m.m.m.m.m.m.*.&       B m.m.m.m.m.m.m.m.m.m.m.O.      ",
"        9 j.m.,.a % 8 W m.m.{                                       9 j.m.,.a % 8 W m.m.{                         - d.m.D       ",
"        +.m.q.:         T m.m.e                                     +.m.q.:         T m.m.e                       K m.s.*       ",
"      4 n.m.M           * g.m.Q     A m.m.^           ; e.m.t.,   4 n.m.M           * g.m.Q                     & p.m.I         ",
"      B m.z.=           C c.m.4.      +.m.m.g         { m.b.a     B m.z.=           C c.m.4.                    F m.k.<         ",
"      ( m.,.        $ [ m.m.m.c.@     , t.m.r.:     c m.m.L       ( m.,.        $ [ m.m.m.c.@                 # u.m.!           ",
"      $.m.X.      7 >.m.8.J m.m.3       s b.m.[   1 p.m.&.X       $.m.X.      7 >.m.8.J m.m.3                 C m.c.6           ",
"      -.m.'     f p.m.#.> p m.m.0         U m.m.x #.m.i.2         -.m.'     f p.m.#.> p m.m.0               + r.m.{             ",
"      ;.m._   H v.n.U X   i m.m.9         O ;.m.l.m.n.k           ;.m._   H v.n.U X   i m.m.9               N m.n.q             ",
"      %.m...| m.h.z       j m.m.3           6 f.m.m.Q             %.m...| m.h.z       j m.m.3             O 0.m.+.              ",
"      ` m.m.m.5.9         V m.l.o           t z.m.m.=.o           ` m.m.m.5.9         V m.l.o             m m.m.u               ",
"      S m.m.o.=           ] m.:.          : 0.m.1.n.m.I           S m.m.o.=           ] m.:.            X 6.m.=.                ",
"      w m.m.x           % a.m.P           ..m.d.3 ~ m.b.d         w m.m.x           % a.m.P             v m.m.l                 ",
"        <.m.1.$         Y m.l.7         Z m.m.m   * q.m.y.<         <.m.1.$         Y m.l.7           . 3.m.2..                 ",
"        f m.m.=.u & 6 E n.m.P         r z.m.@.      d n.m.$..       f m.m.=.u & 6 E n.m.P             x m.m.b                   ",
"          Z b.m.m.m.m.m.m.) .       ; 9.m.s.2         / m.m.G         Z b.m.m.m.m.m.m.) .             :.m.q.O                   ",
"            t } t.z.u.+.l            .m.m.n           * w.m.x.y         t } t.z.u.+.l               k m.m.V                     ",
"                                                                                                                                ",
"                                                                                                                                ",
"                                                                                                                                ",
"                                                                                                                                ",
"                                                                                                                                ",
"                                                                                                                                ",
"                                                                                                                                ",
"                                                                                                                                ",
"                                                                                                                                ",
"                                                                                                                                ",
"                                                                                                                                ",
"                                                                                                                                ",
"                                                                                                                                ",
"                                                                                                                                ",
"                                                                                                                                ",
"                                                                                                                                ",
"                                                                                                                                ",
"                                                                                                                                ",
"                                                                                                                                ",
"                                                                                                                                ",
"                                                                                                                                ",
"                                                                                                                                ",
"                                                                                                                                "
};
