/* XPM */
static char *debug_23[] = {
/* columns rows colors chars-per-pixel */
"64 64 152 2 ",
"   c black",
".  c #010101",
"X  c #020202",
"o  c gray1",
"O  c #040404",
"+  c #060606",
"@  c #070707",
"#  c gray3",
"$  c #090909",
"%  c gray4",
"&  c #0B0B0B",
"*  c #0C0C0C",
"=  c gray5",
"-  c #0E0E0E",
";  c gray6",
":  c #101010",
">  c #111111",
",  c gray8",
"<  c #151515",
"1  c #191919",
"2  c gray10",
"3  c #1B1B1B",
"4  c gray11",
"5  c #1D1D1D",
"6  c gray12",
"7  c #202020",
"8  c gray14",
"9  c #282828",
"0  c gray16",
"q  c #2C2C2C",
"w  c #2F2F2F",
"e  c #323232",
"r  c gray20",
"t  c #353535",
"y  c gray21",
"u  c gray23",
"i  c #3C3C3C",
"p  c gray24",
"a  c #3F3F3F",
"s  c #414141",
"d  c gray26",
"f  c #444444",
"g  c #464646",
"h  c gray28",
"j  c #494949",
"k  c gray29",
"l  c #4B4B4B",
"z  c #505050",
"x  c #515151",
"c  c gray33",
"v  c #585858",
"b  c gray35",
"n  c #5B5B5B",
"m  c #5D5D5D",
"M  c #5F5F5F",
"N  c #606060",
"B  c gray40",
"V  c #686868",
"C  c gray42",
"Z  c #6D6D6D",
"A  c gray43",
"S  c #6F6F6F",
"D  c #727272",
"F  c gray45",
"G  c #747474",
"H  c gray46",
"J  c #767676",
"K  c #797979",
"L  c #7B7B7B",
"P  c gray50",
"I  c #808080",
"U  c #838383",
"Y  c #848484",
"T  c #868686",
"R  c #888888",
"E  c #8D8D8D",
"W  c #8E8E8E",
"Q  c gray56",
"!  c gray57",
"~  c #939393",
"^  c #959595",
"/  c gray59",
"(  c #979797",
")  c #989898",
"_  c #9A9A9A",
"`  c gray61",
"'  c #9F9F9F",
"]  c #A0A0A0",
"[  c gray63",
"{  c #A2A2A2",
"}  c gray64",
"|  c #A4A4A4",
" . c gray65",
".. c #AAAAAA",
"X. c #ACACAC",
"o. c gray68",
"O. c #AEAEAE",
"+. c #AFAFAF",
"@. c gray69",
"#. c gray70",
"$. c #B4B4B4",
"%. c #B6B6B6",
"&. c #B7B7B7",
"*. c gray72",
"=. c gray",
"-. c #C0C0C0",
";. c #C1C1C1",
":. c #C3C3C3",
">. c #C5C5C5",
",. c #C6C6C6",
"<. c #CDCDCD",
"1. c #CECECE",
"2. c gray81",
"3. c #D0D0D0",
"4. c gray82",
"5. c #D2D2D2",
"6. c LightGray",
"7. c gray83",
"8. c #D7D7D7",
"9. c #D8D8D8",
"0. c gray85",
"q. c gray86",
"w. c gainsboro",
"e. c #DDDDDD",
"r. c gray87",
"t. c #DFDFDF",
"y. c gray88",
"u. c #E1E1E1",
"i. c gray89",
"p. c #E4E4E4",
"a. c gray90",
"s. c #E6E6E6",
"d. c #E7E7E7",
"f. c #E9E9E9",
"g. c gray92",
"h. c #ECECEC",
"j. c gray93",
"k. c #EEEEEE",
"l. c #EFEFEF",
"z. c gray94",
"x. c #F1F1F1",
"c. c gray95",
"v. c #F4F4F4",
"b. c #F6F6F6",
"n. c #F8F8F8",
"m. c #F9F9F9",
"M. c gray98",
"N. c #FBFBFB",
"B. c gray99",
"V. c #FDFDFD",
"C. c #FEFEFE",
"Z. c white",
/* pixels */
"                                                                                                                                ",
"                                                                                                                                ",
"                                                                                                                                ",
"                                                                                                                                ",
"                                                                                                                                ",
"                                                                                                                                ",
"                                                                                                                                ",
"                                                                                                                                ",
"                                                                                                                                ",
"                                                                                                                                ",
"                                                                                                                                ",
"                                                                                                                                ",
"                                                                                                                                ",
"                                                                                                                                ",
"                                                                                                                                ",
"                                                                                                                                ",
"                                                                                                                                ",
"                                                                                                                                ",
"                                                                                                                                ",
"                                                                                                                                ",
"                                                                                                                                ",
"                                                                                                                                ",
"                                                                                                                                ",
"            5 E 0.b.k.:.B o                                               # G j.Z.|             V Z.Z.Z.Z.Z.Z.Z.Z.Z.Z.Z.@.      ",
"          h z.Z.Z.Z.Z.Z.Z.;.&                                         O B p.Z.Z.Z.|             V Z.Z.Z.Z.Z.Z.Z.Z.Z.Z.Z.@.      ",
"        9 v.Z.2.a % 8 Q Z.Z.}                                     . v q.Z.l.b Z.Z.|                               - l.Z.F       ",
"        #.Z.t.:         R Z.Z.e                                   @ f.Z.=.5   Z.Z.|                               L Z.k.*       ",
"      4 C.Z.N           * x.Z.!     S Z.Z./           ; u.Z.a.,     K G .     Z.Z.|                             & h.Z.U         ",
"      V Z.m.=           Z N.Z.7.      #.Z.Z.g         } Z.V.a                 Z.Z.|                             G Z.b.<         ",
"      ) Z.2.        $ { Z.Z.Z.N.@     , a.Z.i.:     c Z.Z.P                   Z.Z.|                           # d.Z.~           ",
"      &.Z.O.      7 1.Z.w.K Z.Z.3       s V.Z.{   1 h.Z.-.X                   Z.Z.|                           Z Z.N.6           ",
"      >.Z.]     f h.Z.%.> p Z.Z.0         Y Z.Z.x %.Z.g.2                     Z.Z.|                         + i.Z.}             ",
"      ,.Z.`   J B.C.Y X   i Z.Z.9         O ,.Z.n.Z.C.k                       Z.Z.|                         B Z.C.q             ",
"      *.Z.o...Z.c.z       j Z.Z.3           6 z.Z.Z.!                         Z.Z.|                       O r.Z.#.              ",
"      ' Z.Z.Z.8.9         C Z.n.o           t m.Z.Z.:.o                       Z.Z.|                       M Z.Z.u               ",
"      D Z.Z.+.=           [ Z.<.          : r.Z.4.C.Z.U                       Z.Z.|                     X 9.Z.:.                ",
"      w Z.Z.x           % j.Z.I           o.Z.l.3 ^ Z.V.d                     Z.Z.|                     v Z.Z.l                 ",
"        3.Z.4.$         T Z.n.7         A Z.Z.M   * t.Z.s.<                   Z.Z.|                   . 6.Z.5..                 ",
"        f Z.Z.:.u & 6 W C.Z.I         r m.Z.$.      d C.Z.&..                 Z.Z.|                   x Z.Z.n                   ",
"          A V.Z.Z.Z.Z.Z.Z._ .       ; e.Z.k.2         ( Z.Z.H       ) Z.Z.Z.Z.Z.Z.Z.Z.Z.Z.]           <.Z.t.O                   ",
"            t  .a.m.d.#.l           X.Z.Z.m           * y.Z.M.y     ) Z.Z.Z.Z.Z.Z.Z.Z.Z.Z.]         k Z.Z.C                     ",
"                                                                                                                                ",
"                                                                                                                                ",
"                                                                                                                                ",
"                                                                                                                                ",
"                                                                                                                                ",
"                                                                                                                                ",
"                                                                                                                                ",
"                                                                                                                                ",
"                                                                                                                                ",
"                                                                                                                                ",
"                                                                                                                                ",
"                                                                                                                                ",
"                                                                                                                                ",
"                                                                                                                                ",
"                                                                                                                                ",
"                                                                                                                                ",
"                                                                                                                                ",
"                                                                                                                                ",
"                                                                                                                                ",
"                                                                                                                                ",
"                                                                                                                                ",
"                                                                                                                                ",
"                                                                                                                                "
};
