/* XPM */
static char *debug_17[] = {
/* columns rows colors chars-per-pixel */
"64 64 141 2 ",
"   c black",
".  c #010101",
"X  c #020202",
"o  c gray1",
"O  c #040404",
"+  c #070707",
"@  c gray3",
"#  c #090909",
"$  c gray4",
"%  c #0B0B0B",
"&  c #0C0C0C",
"*  c gray5",
"=  c gray6",
"-  c #101010",
";  c #111111",
":  c gray8",
">  c #151515",
",  c #191919",
"<  c gray10",
"1  c #1B1B1B",
"2  c gray11",
"3  c #1D1D1D",
"4  c gray12",
"5  c #202020",
"6  c gray14",
"7  c #282828",
"8  c gray16",
"9  c #2F2F2F",
"0  c #323232",
"q  c gray20",
"w  c #353535",
"e  c gray21",
"r  c gray23",
"t  c #3C3C3C",
"y  c gray24",
"u  c #3F3F3F",
"i  c #414141",
"p  c gray26",
"a  c #444444",
"s  c #464646",
"d  c gray28",
"f  c #494949",
"g  c gray29",
"h  c #4B4B4B",
"j  c #505050",
"k  c #515151",
"l  c gray33",
"z  c #585858",
"x  c gray35",
"c  c #5D5D5D",
"v  c #5F5F5F",
"b  c #606060",
"n  c gray40",
"m  c #686868",
"M  c gray42",
"N  c #6D6D6D",
"B  c gray43",
"V  c #6F6F6F",
"C  c #727272",
"Z  c #747474",
"A  c gray46",
"S  c #767676",
"D  c #797979",
"F  c gray50",
"G  c #808080",
"H  c #838383",
"J  c #848484",
"K  c #868686",
"L  c #888888",
"P  c #8D8D8D",
"I  c #8E8E8E",
"U  c gray56",
"Y  c gray57",
"T  c #959595",
"R  c gray59",
"E  c #979797",
"W  c #989898",
"Q  c #9A9A9A",
"!  c gray61",
"~  c #9F9F9F",
"^  c #A0A0A0",
"/  c gray63",
"(  c #A2A2A2",
")  c gray64",
"_  c #A4A4A4",
"`  c gray65",
"'  c #AAAAAA",
"]  c #ACACAC",
"[  c gray68",
"{  c #AEAEAE",
"}  c #AFAFAF",
"|  c gray70",
" . c #B4B4B4",
".. c #B6B6B6",
"X. c #B7B7B7",
"o. c gray72",
"O. c gray",
"+. c #C0C0C0",
"@. c #C1C1C1",
"#. c #C3C3C3",
"$. c #C5C5C5",
"%. c #C6C6C6",
"&. c #CDCDCD",
"*. c #CECECE",
"=. c gray81",
"-. c #D0D0D0",
";. c gray82",
":. c gray83",
">. c #D7D7D7",
",. c gray85",
"<. c gray86",
"1. c gainsboro",
"2. c #DDDDDD",
"3. c gray87",
"4. c #DFDFDF",
"5. c gray88",
"6. c #E1E1E1",
"7. c gray89",
"8. c #E4E4E4",
"9. c gray90",
"0. c #E6E6E6",
"q. c #E7E7E7",
"w. c #E9E9E9",
"e. c gray92",
"r. c #ECECEC",
"t. c gray93",
"y. c #EEEEEE",
"u. c #EFEFEF",
"i. c gray94",
"p. c #F1F1F1",
"a. c gray95",
"s. c #F4F4F4",
"d. c #F6F6F6",
"f. c #F8F8F8",
"g. c #F9F9F9",
"h. c gray98",
"j. c #FBFBFB",
"k. c gray99",
"l. c #FDFDFD",
"z. c #FEFEFE",
"x. c white",
/* pixels */
"                                                                                                                                ",
"                                                                                                                                ",
"                                                                                                                                ",
"                                                                                                                                ",
"                                                                                                                                ",
"                                                                                                                                ",
"                                                                                                                                ",
"                                                                                                                                ",
"                                                                                                                                ",
"                                                                                                                                ",
"                                                                                                                                ",
"                                                                                                                                ",
"                                                                                                                                ",
"                                                                                                                                ",
"                                                                                                                                ",
"                                                                                                                                ",
"                                                                                                                                ",
"                                                                                                                                ",
"                                                                                                                                ",
"                                                                                                                                ",
"                                                                                                                                ",
"                                                                                                                                ",
"                                                                                                                                ",
"            3 P ,.d.y.#.n o                                               @ Z t.x._                     @ Z t.x._               ",
"          d i.x.x.x.x.x.x.@.%                                         O n 8.x.x.x._                 O n 8.x.x.x._               ",
"        7 s.x.=.u $ 6 U x.x.)                                     . z <.x.u.x x.x._             . z <.x.u.x x.x._               ",
"        | x.4.-         L x.x.0                                   + w.x.O.3   x.x._             + w.x.O.3   x.x._               ",
"      2 z.x.b           & p.x.Y     V x.x.R           = 6.x.9.:     D Z .     x.x._               D Z .     x.x._               ",
"      m x.g.*           N j.x.:.      | x.x.s         ) x.l.u                 x.x._                         x.x._               ",
"      W x.=.        # ( x.x.x.j.+     : 9.x.7.-     l x.x.F                   x.x._                         x.x._               ",
"      X.x.{       5 *.x.1.D x.x.1       i l.x.(   , r.x.+.X                   x.x._                         x.x._               ",
"      $.x.^     a r.x...; y x.x.8         J x.x.k ..x.e.<                     x.x._                         x.x._               ",
"      %.x.!   S k.z.J X   t x.x.7         O %.x.f.x.z.g                       x.x._                         x.x._               ",
"      o.x.[ ' x.a.j       f x.x.1           4 i.x.x.Y                         x.x._                         x.x._               ",
"      ~ x.x.x.>.7         M x.f.o           w g.x.x.#.o                       x.x._                         x.x._               ",
"      C x.x.} *           / x.&.          - 3.x.;.z.x.H                       x.x._                         x.x._               ",
"      9 x.x.k           $ t.x.G           [ x.u.1 T x.l.p                     x.x._                         x.x._               ",
"        -.x.;.#         K x.f.5         B x.x.v   & 4.x.0.>                   x.x._                         x.x._               ",
"        a x.x.#.r % 4 I z.x.G         q g.x. .      p z.x.X..                 x.x._                         x.x._               ",
"          B l.x.x.x.x.x.x.Q .       = 2.x.y.<         E x.x.A       W x.x.x.x.x.x.x.x.x.x.^       W x.x.x.x.x.x.x.x.x.x.^       ",
"            w ` 9.g.q.| h           ] x.x.c           & 5.x.h.e     W x.x.x.x.x.x.x.x.x.x.^       W x.x.x.x.x.x.x.x.x.x.^       ",
"                                                                                                                                ",
"                                                                                                                                ",
"                                                                                                                                ",
"                                                                                                                                ",
"                                                                                                                                ",
"                                                                                                                                ",
"                                                                                                                                ",
"                                                                                                                                ",
"                                                                                                                                ",
"                                                                                                                                ",
"                                                                                                                                ",
"                                                                                                                                ",
"                                                                                                                                ",
"                                                                                                                                ",
"                                                                                                                                ",
"                                                                                                                                ",
"                                                                                                                                ",
"                                                                                                                                ",
"                                                                                                                                ",
"                                                                                                                                ",
"                                                                                                                                ",
"                                                                                                                                ",
"                                                                                                                                "
};
