/* XPM */
static char *debug_15[] = {
/* columns rows colors chars-per-pixel */
"64 64 135 2 ",
"   c black",
".  c #010101",
"X  c #020202",
"o  c gray1",
"O  c #040404",
"+  c #070707",
"@  c #090909",
"#  c gray4",
"$  c #0B0B0B",
"%  c #0C0C0C",
"&  c gray5",
"*  c gray6",
"=  c #101010",
"-  c #111111",
";  c gray8",
":  c #151515",
">  c #191919",
",  c gray10",
"<  c #1B1B1B",
"1  c gray11",
"2  c #1D1D1D",
"3  c gray12",
"4  c #202020",
"5  c gray14",
"6  c #282828",
"7  c gray16",
"8  c #2F2F2F",
"9  c #323232",
"0  c gray20",
"q  c #343434",
"w  c #353535",
"e  c gray21",
"r  c gray23",
"t  c #3C3C3C",
"y  c gray24",
"u  c #3F3F3F",
"i  c #414141",
"p  c gray26",
"a  c #444444",
"s  c #464646",
"d  c gray28",
"f  c #494949",
"g  c gray29",
"h  c #4B4B4B",
"j  c #4C4C4C",
"k  c #505050",
"l  c #515151",
"z  c gray33",
"x  c #5D5D5D",
"c  c #5F5F5F",
"v  c #606060",
"b  c gray40",
"n  c #686868",
"m  c gray42",
"M  c #6D6D6D",
"N  c gray43",
"B  c #6F6F6F",
"V  c #727272",
"C  c gray46",
"Z  c #767676",
"A  c #797979",
"S  c #7C7C7C",
"D  c gray50",
"F  c #808080",
"G  c #838383",
"H  c #848484",
"J  c #868686",
"K  c #888888",
"L  c #8D8D8D",
"P  c #8E8E8E",
"I  c gray56",
"U  c gray57",
"Y  c #959595",
"T  c gray59",
"R  c #979797",
"E  c #989898",
"W  c #9A9A9A",
"Q  c gray61",
"!  c #9F9F9F",
"~  c #A0A0A0",
"^  c gray63",
"/  c #A2A2A2",
"(  c gray64",
")  c gray65",
"_  c #AAAAAA",
"`  c #ACACAC",
"'  c gray68",
"]  c #AEAEAE",
"[  c #AFAFAF",
"{  c gray70",
"}  c #B4B4B4",
"|  c #B6B6B6",
" . c #B7B7B7",
".. c gray72",
"X. c #C0C0C0",
"o. c #C1C1C1",
"O. c #C3C3C3",
"+. c #C5C5C5",
"@. c #C6C6C6",
"#. c #CDCDCD",
"$. c #CECECE",
"%. c gray81",
"&. c #D0D0D0",
"*. c gray82",
"=. c gray83",
"-. c #D7D7D7",
";. c gray85",
":. c gainsboro",
">. c #DDDDDD",
",. c gray87",
"<. c #DFDFDF",
"1. c gray88",
"2. c #E1E1E1",
"3. c gray89",
"4. c gray90",
"5. c #E6E6E6",
"6. c #E7E7E7",
"7. c gray92",
"8. c #ECECEC",
"9. c gray93",
"0. c #EEEEEE",
"q. c #EFEFEF",
"w. c gray94",
"e. c #F1F1F1",
"r. c gray95",
"t. c #F4F4F4",
"y. c #F6F6F6",
"u. c #F8F8F8",
"i. c #F9F9F9",
"p. c gray98",
"a. c #FBFBFB",
"s. c gray99",
"d. c #FDFDFD",
"f. c #FEFEFE",
"g. c white",
/* pixels */
"                                                                                                                                ",
"                                                                                                                                ",
"                                                                                                                                ",
"                                                                                                                                ",
"                                                                                                                                ",
"                                                                                                                                ",
"                                                                                                                                ",
"                                                                                                                                ",
"                                                                                                                                ",
"                                                                                                                                ",
"                                                                                                                                ",
"                                                                                                                                ",
"                                                                                                                                ",
"                                                                                                                                ",
"                                                                                                                                ",
"                                                                                                                                ",
"                                                                                                                                ",
"                                                                                                                                ",
"                                                                                                                                ",
"                                                                                                                                ",
"                                                                                                                                ",
"                                                                                                                                ",
"                                                                                                                                ",
"            2 L ;.y.0.O.b o                                             2 L ;.y.0.O.b o           q g.g.g.g.g.g.g.g.g.1.        ",
"          d w.g.g.g.g.g.g.o.$                                         d w.g.g.g.g.g.g.o.$         q g.g.g.g.g.g.g.g.g.1.        ",
"        6 t.g.%.u # 5 I g.g.(                                       6 t.g.%.u # 5 I g.g.(         q g.g.j                       ",
"        { g.<.=         K g.g.9                                     { g.<.=         K g.g.9       q g.g.j                       ",
"      1 f.g.v           % e.g.U     B g.g.T           * 2.g.4.;   1 f.g.v           % e.g.U       q g.g.j                       ",
"      n g.i.&           M a.g.=.      { g.g.s         ( g.d.u     n g.i.&           M a.g.=.      q g.g.j                       ",
"      E g.%.        @ / g.g.g.a.+     ; 4.g.3.=     z g.g.D       E g.%.        @ / g.g.g.a.+     q g.g.j                       ",
"       .g.]       4 $.g.:.A g.g.<       i d.g./   > 8.g.X.X        .g.]       4 $.g.:.A g.g.<     q g.g.j                       ",
"      +.g.~     a 8.g.| - y g.g.7         H g.g.l | g.7.,         +.g.~     a 8.g.| - y g.g.7     q g.g.g.g.g.g.g.g.g.S         ",
"      @.g.Q   Z s.f.H X   t g.g.6         O @.g.u.g.f.g           @.g.Q   Z s.f.H X   t g.g.6     q g.g.g.g.g.g.g.g.g.S         ",
"      ..g.' _ g.r.k       f g.g.<           3 w.g.g.U             ..g.' _ g.r.k       f g.g.<     q g.g.j                       ",
"      ! g.g.g.-.6         m g.u.o           w i.g.g.O.o           ! g.g.g.-.6         m g.u.o     q g.g.j                       ",
"      V g.g.[ &           ^ g.#.          = ,.g.*.f.g.G           V g.g.[ &           ^ g.#.      q g.g.j                       ",
"      8 g.g.l           # 9.g.F           ' g.q.< Y g.d.p         8 g.g.l           # 9.g.F       q g.g.j                       ",
"        &.g.*.@         J g.u.4         N g.g.c   % <.g.5.:         &.g.*.@         J g.u.4       q g.g.j                       ",
"        a g.g.O.r $ 3 P f.g.F         0 i.g.}       p f.g. ..       a g.g.O.r $ 3 P f.g.F         q g.g.j                       ",
"          N d.g.g.g.g.g.g.W .       * >.g.0.,         R g.g.C         N d.g.g.g.g.g.g.W .         q g.g.j                       ",
"            w ) 4.i.6.{ h           ` g.g.x           % 1.g.p.e         w ) 4.i.6.{ h             q g.g.j                       ",
"                                                                                                                                ",
"                                                                                                                                ",
"                                                                                                                                ",
"                                                                                                                                ",
"                                                                                                                                ",
"                                                                                                                                ",
"                                                                                                                                ",
"                                                                                                                                ",
"                                                                                                                                ",
"                                                                                                                                ",
"                                                                                                                                ",
"                                                                                                                                ",
"                                                                                                                                ",
"                                                                                                                                ",
"                                                                                                                                ",
"                                                                                                                                ",
"                                                                                                                                ",
"                                                                                                                                ",
"                                                                                                                                ",
"                                                                                                                                ",
"                                                                                                                                ",
"                                                                                                                                ",
"                                                                                                                                "
};
