/* XPM */
static char *pb1[] = {
/* columns rows colors chars-per-pixel */
"32 32 13 1 ",
"  c #90D8E1",
". c #7FD4DF",
"X c #AC3232",
"o c #D95763",
"O c #A2DDE5",
"+ c #791E26",
"@ c #5FCDE4",
"# c #45283C",
"$ c #663931",
"% c #EEC39A",
"& c #306082",
"* c #3F3F74",
"= c white",
/* pixels */
"    XXXXXXXXXoooooo.....    OOOO",
"    XXXXXXXXXoooooo.....    OOOO",
"    XXXXXXXXXoooooo.....    OOOO",
" +++XXXXXXXXXXXXoooooo..    OOOO",
".+++XXXXXXXXXXXXoooooo  OOOO    ",
".+++XXXXXXXXXXXXoooooo  OOOO    ",
".++++++XXXXXXXXXXXXXXXooOOOO    ",
".++++++XXXXXXXXXXXXXXXooOOOO    ",
" +++++++++XXXXXXXXXXXXoo    ....",
" +++++++++XXXXXXXXXXXXoo    ....",
" +++++++++XXXXXXXXXXXXoo    ....",
" ++++++++++++XXXXXXXXXXX    ....",
".++++++++++++XXXXXXXXXXX........",
".++++++++++++XXXXXXXXXXX........",
"....+++++++++XXXXXXXXXXX........",
"....+++++++++XXXXXXXXXXX........",
"....+++++++++XXXXXXXXXXX        ",
"....@@@###$$$+++XXXXXXXXooo     ",
"....@@@###$$$+++XXXXXXXXooo     ",
"....@@@###$$$+++XXXXXXXXooo     ",
"....%%%###$$$$$$+++XXXXXXXX.OOOO",
"....%%%###$$$$$$+++XXXXXXXX.OOOO",
"....%%%###$$$$$$+++XXXXXXXX.OOOO",
".......&&&&&&&&&        ...oooOO",
"       &&&&&&&&&...........ooo..",
"       &&&&&&&&&...........ooo..",
"       &&&...&&&................",
"       &&&...&&&................",
"OOOO   &&&...&&&............    ",
"OOOO   ***...***............    ",
"OOOO   ***...***............    ",
"OOOO   ***...***............    "
};
