/* XPM */
static char *pb3[] = {
/* columns rows colors chars-per-pixel */
"32 32 13 1 ",
"  c #90D8E1",
". c #7FD4DF",
"X c #A2DDE5",
"o c #AC3232",
"O c #D95763",
"+ c #791E26",
"@ c #5FCDE4",
"# c #45283C",
"$ c #663931",
"% c #EEC39A",
"& c #306082",
"* c #3F3F74",
"= c white",
/* pixels */
"    ....    ............    XXXX",
"    ....    ............    XXXX",
"    ....    ............    XXXX",
"    oooooooooOOOOOO.....    XXXX",
"....oooooooooOOOOOO.    XXXX    ",
"....oooooooooOOOOOO.    XXXX    ",
".+++ooooooooooooOOOOOO  XXXX    ",
".+++ooooooooooooOOOOOO  XXXX    ",
" ++++++oooooooooooooooOO    ....",
" ++++++oooooooooooooooOO    ....",
" ++++++oooooooooooooooOO    ....",
" +++++++++ooooooooooooOO    ....",
".+++++++++ooooooooooooOO........",
".+++++++++ooooooooooooOO........",
".++++++++++++ooooooooooo........",
".++++++++++++ooooooooooo........",
".++++++++++++ooooooooooo        ",
"....+++++++++ooooooooooo        ",
"....+++++++++oooooooooooOOO     ",
"....+++++++++oooooooooooOOO     ",
"....@@@###$$$+++ooooooooOOO.XXXX",
"....@@@###$$$+++ooooooooOOO.XXXX",
"....@@@###$$$+++ooooooooOOO.XXXX",
"....%%%###$$$$$$%%%oooooooooooXX",
"    %%%###$$$$$$%%%ooooooooooo..",
"    %%%###$$$$$$%%%ooooooooooo..",
"       &&&&&&&&&................",
"       &&&&&&&&&................",
"XXXX   &&&&&&&&&............    ",
"XXXX   ***...***............    ",
"XXXX   ***...***............    ",
"XXXX   ***...***............    "
};
