/* XPM */
static char *pf1[] = {
/* columns rows colors chars-per-pixel */
"32 32 14 1 ",
"  c #90D8E1",
". c #7FD4DF",
"X c #AC3232",
"o c #D95763",
"O c #A2DDE5",
"+ c #D9A066",
"@ c #EEC39A",
"# c #791E26",
"$ c #663931",
"% c #639BFF",
"& c #5FCDE4",
"* c #306082",
"= c #3F3F74",
"- c white",
/* pixels */
"    ....    .XXXXXXXXXooooo OOOO",
"    ....    .XXXXXXXXXooooo OOOO",
"    ....    .XXXXXXXXXooooo OOOO",
"    ....  XXXXXXXXXXXXXXooooooOO",
"....      XXXXXXXXXXXXXXoooooo  ",
"....      XXXXXXXXXXXXXXoooooo  ",
"....   XXXXXXXXX++++++@@XXXXXX  ",
"....   XXXXXXXXX++++++@@XXXXXX  ",
"       ###XXX+++@@@@@@@@@@@XXX..",
"       ###XXX+++@@@@@@@@@@@XXX..",
"       ###XXX+++@@@@@@@@@@@XXX..",
"       ######+++@@@@@@@@@@@XXX..",
"....OOO######+++@@@@@@@@@@@XXX..",
"....OOO######+++@@@@@@@@@@@XXX..",
"....OOO######XXX$$$%%%$$XXX.....",
"....OOO######XXX$$$%%%$$XXX.....",
".......######XXX$$$%%%$$XXX     ",
"....#########%%%$$$&&&$$&&&     ",
"....#########%%%$$$&&&$$&&&     ",
"....#########%%%$$$&&&$$&&&     ",
"....#########@@@&&&&&&&&@@@.OOOO",
"....#########@@@&&&&&&&&@@@.OOOO",
"....#########@@@&&&&&&&&@@@.OOOO",
".###....    ....********....OOOO",
" ###    ........********........",
" ###    ........********........",
"        ........***...**........",
"        ........***...**........",
"OOOO    ........***...**....    ",
"OOOO    ........===...==....    ",
"OOOO    ........===...==....    ",
"OOOO    ........===...==....    "
};
