/* XPM */
static char *pl2[] = {
/* columns rows colors chars-per-pixel */
"32 32 15 1 ",
"  c #90D8E1",
". c #7FD4DF",
"X c #A2DDE5",
"o c #AC3232",
"O c #D95763",
"+ c #791E26",
"@ c #D9A066",
"# c #EEC39A",
"$ c #639BFF",
"% c #45283C",
"& c #5FCDE4",
"* c #663931",
"= c #306082",
"- c #3F3F74",
"; c white",
/* pixels */
"    ....    ............    XXXX",
"    ....    ............    XXXX",
"    ....    ............    XXXX",
"    ooooooOOOOOO........    XXXX",
"....ooooooOOOOOO....    XXXX    ",
"....ooooooOOOOOO....    XXXX    ",
".ooooooooooooOOOOOO.    XXXX    ",
".ooooooooooooOOOOOO.    XXXX    ",
" +++@@@@@@@@@ooooooOOOXX    ....",
" +++@@@@@@@@@ooooooOOOXX    ....",
" +++@@@@@@@@@ooooooOOOXX    ....",
" +++@@@#########ooooooXX    ....",
".+++@@@#########oooooo..........",
".+++@@@#########oooooo..........",
".+++@@@#########ooooooOO........",
".+++@@@#########ooooooOO........",
".+++@@@#########ooooooOO        ",
"....+++$$$$$$%%%+++oooooOOO     ",
"....+++$$$$$$%%%+++oooooOOO     ",
"....+++$$$$$$%%%+++oooooOOO     ",
".......$$$$$$%%%&&&***oooooOOOXX",
".......$$$$$$%%%&&&***oooooOOOXX",
".......$$$$$$%%%&&&***oooooOOOXX",
".......$$$&&&&&&###***  ....XXXX",
"       $$$&&&&&&###***..........",
"       $$$&&&&&&###***..........",
"       =========***.............",
"       =========***.............",
"XXXX   =========***.........    ",
"XXXX   ---...---............    ",
"XXXX   ---...---............    ",
"XXXX   ---...---............    "
};
