/* XPM */
static char *pl4[] = {
/* columns rows colors chars-per-pixel */
"32 32 15 1 ",
"  c #90D8E1",
". c #7FD4DF",
"X c #AC3232",
"o c #D95763",
"O c #A2DDE5",
"+ c #791E26",
"@ c #D9A066",
"# c #EEC39A",
"$ c #639BFF",
"% c #45283C",
"& c #5FCDE4",
"* c #663931",
"= c #306082",
"- c #3F3F74",
"; c white",
/* pixels */
"    XXXXXXoooooo........    OOOO",
"    XXXXXXoooooo........    OOOO",
"    XXXXXXoooooo........    OOOO",
" XXXXXXXXXXXXoooooo.....    OOOO",
".XXXXXXXXXXXXoooooo.    OOOO    ",
".XXXXXXXXXXXXoooooo.    OOOO    ",
".+++@@@@@@@@@XXXXXXooo  OOOO    ",
".+++@@@@@@@@@XXXXXXooo  OOOO    ",
" +++@@@#########XXXXXXOO    ....",
" +++@@@#########XXXXXXOO    ....",
" +++@@@#########XXXXXXOO    ....",
" +++@@@#########XXXXXXooooo ....",
".+++@@@#########XXXXXXooooo.....",
".+++@@@#########XXXXXXooooo.....",
"....+++$$$$$$%%%+++XXXXXoooooo..",
"....+++$$$$$$%%%+++XXXXXoooooo..",
"....+++$$$$$$%%%+++XXXXXoooooo  ",
".......$$$$$$%%%&&&***..        ",
".......$$$$$$%%%&&&***..        ",
".......$$$$$$%%%&&&***..        ",
".......$$$&&&&&&###***  ....OOOO",
".......$$$&&&&&&###***  ....OOOO",
".......$$$&&&&&&###***  ....OOOO",
".......=========***     ....OOOO",
"       =========***.............",
"       =========***.............",
"       ===...===................",
"       ===...===................",
"OOOO   ===...===............    ",
"OOOO   ---...---............    ",
"OOOO   ---...---............    ",
"OOOO   ---...---............    "
};
