/* XPM */
static char *pr3[] = {
/* columns rows colors chars-per-pixel */
"32 32 15 1 ",
"  c #90D8E1",
". c #7FD4DF",
"X c #A2DDE5",
"o c #AC3232",
"O c #D95763",
"+ c #D9A066",
"@ c #791E26",
"# c #EEC39A",
"$ c #663931",
"% c #639BFF",
"& c #45283C",
"* c #5FCDE4",
"= c #306082",
"- c #3F3F74",
"; c white",
/* pixels */
"    ....    ............    XXXX",
"    ....    ............    XXXX",
"    ....    ............    XXXX",
"    ....    ....ooooooOOOOO XXXX",
"....        ....ooooooOOOOOX    ",
"....        ....ooooooOOOOOX    ",
"....        .ooooooooooooooOOO  ",
"....        .ooooooooooooooOOO  ",
"        XXooooooooo++++++++ooo..",
"        XXooooooooo++++++++ooo..",
"        XXooooooooo++++++++ooo..",
"        XXooo@@@+++########ooo..",
"....XXXX..ooo@@@+++########ooo..",
"....XXXX..ooo@@@+++########ooo..",
"....oooooo@@@@@@+++########ooo..",
"....oooooo@@@@@@+++########ooo..",
"....oooooo@@@@@@+++########ooo  ",
".@@@@@@@@@@@@@@@$$$%%%%%@@@     ",
".@@@@@@@@@@@@@@@$$$%%%%%@@@     ",
".@@@@@@@@@@@@@@@$$$%%%%%@@@     ",
"........  &&&***$$$%%%**....XXXX",
"........  &&&***$$$%%%**....XXXX",
"........  &&&***$$$%%%**....XXXX",
"........  &&&###%%%*****....XXXX",
"        ..&&&###%%%*****........",
"        ..&&&###%%%*****........",
"        .....&&&========........",
"        .....&&&========........",
"XXXX    .....&&&========....    ",
"XXXX    ........---...--....    ",
"XXXX    ........---...--....    ",
"XXXX    ........---...--....    "
};
