/* XPM */
static char *berry_1[] = {
/* columns rows colors chars-per-pixel */
"64 64 8 1 ",
"  c #90D8E1",
". c #7FD4DF",
"X c #A2DDE5",
"o c #477A63",
"O c #3EB367",
"+ c #8A535F",
"@ c #DE4062",
"# c #DB992E",
/* pixels */
"        ........        ........................        XXXXXXXX",
"        ........        ........................        XXXXXXXX",
"        ........        ........................        XXXXXXXX",
"        ........        ........................        XXXXXXXX",
"        ........        ........................        XXXXXXXX",
"        ........        ........................        XXXXXXXX",
"        ......oooooo    ........OOOOOO......OOOOOO      XXXXXXXX",
"        ......oooooo    ........OOOOOO......OOOOOO      XXXXXXXX",
"........      oooooo    ........OOOOOO..    OOOOOOXXXXXX        ",
"........      oooooo    ........OOOOOO..    OOOOOOXXXXXX        ",
"........      oooooo    ........OOOOOO..    OOOOOOXXXXXX        ",
"........      oooooo    ........OOOOOO..    OOOOOOXXXXXX        ",
"........            ooooooOOOOOOoooooooooooo    XXXXXXXX        ",
"........            ooooooOOOOOOoooooooooooo    XXXXXXXX        ",
"........            ooooooOOOOOOoooooooooooo    XXXXXXXX        ",
"........            ooooooOOOOOOoooooooooooo    XXXXXXXX        ",
"                XXXXooooooOOOOOOooooooooooooXXXX        ........",
"                XXXXooooooOOOOOOooooooooooooXXXX        ........",
"              ++++++@@@@@@@@@@@@@@@@@@@@@@@@++++++      ........",
"              ++++++@@@@@@@@@@@@@@@@@@@@@@@@++++++      ........",
"              ++++++@@@@@@@@@@@@@@@@@@@@@@@@++++++      ........",
"              ++++++@@@@@@@@@@@@@@@@@@@@@@@@++++++      ........",
"              ++++++@@@@@@@@@@@@@@@@@@@@@@@@++++++      ........",
"              ++++++@@@@@@@@@@@@@@@@@@@@@@@@++++++      ........",
"........XXXXXX@@@@@@######@@@@@@@@@@@@@@@@@@@@@@@@..............",
"........XXXXXX@@@@@@######@@@@@@@@@@@@@@@@@@@@@@@@..............",
"........XXXXXX@@@@@@######@@@@@@@@@@@@@@@@@@@@@@@@..............",
"........XXXXXX@@@@@@######@@@@@@@@@@@@@@@@@@@@@@@@..............",
"........XXXXXX@@@@@@######@@@@@@@@@@@@@@@@@@@@@@@@..............",
"........XXXXXX@@@@@@######@@@@@@@@@@@@@@@@@@@@@@@@..............",
"........XXXXXX@@@@@@@@@@@@@@@@@@@@@@@@######@@@@@@..............",
"........XXXXXX@@@@@@@@@@@@@@@@@@@@@@@@######@@@@@@..............",
"..............@@@@@@@@@@@@@@@@@@@@@@@@######@@@@@@              ",
"..............@@@@@@@@@@@@@@@@@@@@@@@@######@@@@@@              ",
"..............@@@@@@@@@@@@@@@@@@@@@@@@######@@@@@@              ",
"..............@@@@@@@@@@@@@@@@@@@@@@@@######@@@@@@              ",
"..............@@@@@@@@@@@@######@@@@@@@@@@@@@@@@@@              ",
"..............@@@@@@@@@@@@######@@@@@@@@@@@@@@@@@@              ",
"..............@@@@@@@@@@@@######@@@@@@@@@@@@@@@@@@              ",
"..............@@@@@@@@@@@@######@@@@@@@@@@@@@@@@@@              ",
"..............@@@@@@@@@@@@######@@@@@@@@@@@@@@@@@@......XXXXXXXX",
"..............@@@@@@@@@@@@######@@@@@@@@@@@@@@@@@@......XXXXXXXX",
"................    @@@@@@@@@@@@@@@@@@@@@@@@    ........XXXXXXXX",
"................    @@@@@@@@@@@@@@@@@@@@@@@@    ........XXXXXXXX",
"................    @@@@@@@@@@@@@@@@@@@@@@@@    ........XXXXXXXX",
"................    @@@@@@@@@@@@@@@@@@@@@@@@    ........XXXXXXXX",
"................    @@@@@@@@@@@@@@@@@@@@@@@@    ........XXXXXXXX",
"................    @@@@@@@@@@@@@@@@@@@@@@@@    ........XXXXXXXX",
"                ..........@@@@@@@@@@@@..........................",
"                ..........@@@@@@@@@@@@..........................",
"                ..........@@@@@@@@@@@@..........................",
"                ..........@@@@@@@@@@@@..........................",
"                ..........@@@@@@@@@@@@..........................",
"                ..........@@@@@@@@@@@@..........................",
"                ................................................",
"                ................................................",
"XXXXXXXX        ........................................        ",
"XXXXXXXX        ........................................        ",
"XXXXXXXX        ........................................        ",
"XXXXXXXX        ........................................        ",
"XXXXXXXX        ........................................        ",
"XXXXXXXX        ........................................        ",
"XXXXXXXX        ........................................        ",
"XXXXXXXX        ........................................        "
};
