/* XPM */
static char *gberry_4[] = {
/* columns rows colors chars-per-pixel */
"64 64 8 1 ",
"  c #90D8E1",
". c #7FD4DF",
"X c #A2DDE5",
"o c #686868",
"O c gray53",
"+ c #656565",
"@ c gray45",
"# c gray63",
/* pixels */
"        ........        ........................        XXXXXXXX",
"        ......oooooo    ........OOOOOO......OOOOOO      XXXXXXXX",
"        ......oooooo    ........OOOOOO......OOOOOO      XXXXXXXX",
"        ......oooooo    ........OOOOOO......OOOOOO      XXXXXXXX",
"        ......oooooo    ........OOOOOO......OOOOOO      XXXXXXXX",
"        ......oooooo    ........OOOOOO......OOOOOO      XXXXXXXX",
"        ......oooooo    ........OOOOOO......OOOOOO      XXXXXXXX",
"        ........    ooooooOOOOOOoooooooooooo....        XXXXXXXX",
"........            ooooooOOOOOOoooooooooooo    XXXXXXXX        ",
"........            ooooooOOOOOOoooooooooooo    XXXXXXXX        ",
"........            ooooooOOOOOOoooooooooooo    XXXXXXXX        ",
"........            ooooooOOOOOOoooooooooooo    XXXXXXXX        ",
"........            ooooooOOOOOOoooooooooooo    XXXXXXXX        ",
"........      ++++++@@@@@@@@@@@@@@@@@@@@@@@@++++++XXXXXX        ",
"........      ++++++@@@@@@@@@@@@@@@@@@@@@@@@++++++XXXXXX        ",
"........      ++++++@@@@@@@@@@@@@@@@@@@@@@@@++++++XXXXXX        ",
"              ++++++@@@@@@@@@@@@@@@@@@@@@@@@++++++      ........",
"              ++++++@@@@@@@@@@@@@@@@@@@@@@@@++++++      ........",
"              ++++++@@@@@@@@@@@@@@@@@@@@@@@@++++++      ........",
"              @@@@@@######@@@@@@@@@@@@@@@@@@@@@@@@      ........",
"              @@@@@@######@@@@@@@@@@@@@@@@@@@@@@@@      ........",
"              @@@@@@######@@@@@@@@@@@@@@@@@@@@@@@@      ........",
"              @@@@@@######@@@@@@@@@@@@@@@@@@@@@@@@      ........",
"              @@@@@@######@@@@@@@@@@@@@@@@@@@@@@@@      ........",
"........XXXXXX@@@@@@######@@@@@@@@@@@@@@@@@@@@@@@@..............",
"........XXXXXX@@@@@@@@@@@@@@@@@@@@@@@@######@@@@@@..............",
"........XXXXXX@@@@@@@@@@@@@@@@@@@@@@@@######@@@@@@..............",
"........XXXXXX@@@@@@@@@@@@@@@@@@@@@@@@######@@@@@@..............",
"........XXXXXX@@@@@@@@@@@@@@@@@@@@@@@@######@@@@@@..............",
"........XXXXXX@@@@@@@@@@@@@@@@@@@@@@@@######@@@@@@..............",
"........XXXXXX@@@@@@@@@@@@@@@@@@@@@@@@######@@@@@@..............",
"........XXXXXX@@@@@@@@@@@@######@@@@@@@@@@@@@@@@@@..............",
"..............@@@@@@@@@@@@######@@@@@@@@@@@@@@@@@@              ",
"..............@@@@@@@@@@@@######@@@@@@@@@@@@@@@@@@              ",
"..............@@@@@@@@@@@@######@@@@@@@@@@@@@@@@@@              ",
"..............@@@@@@@@@@@@######@@@@@@@@@@@@@@@@@@              ",
"..............@@@@@@@@@@@@######@@@@@@@@@@@@@@@@@@              ",
"....................@@@@@@@@@@@@@@@@@@@@@@@@....                ",
"....................@@@@@@@@@@@@@@@@@@@@@@@@....                ",
"....................@@@@@@@@@@@@@@@@@@@@@@@@....                ",
"................    @@@@@@@@@@@@@@@@@@@@@@@@    ........XXXXXXXX",
"................    @@@@@@@@@@@@@@@@@@@@@@@@    ........XXXXXXXX",
"................    @@@@@@@@@@@@@@@@@@@@@@@@    ........XXXXXXXX",
"................        ..@@@@@@@@@@@@          ........XXXXXXXX",
"................        ..@@@@@@@@@@@@          ........XXXXXXXX",
"................        ..@@@@@@@@@@@@          ........XXXXXXXX",
"................        ..@@@@@@@@@@@@          ........XXXXXXXX",
"................        ..@@@@@@@@@@@@          ........XXXXXXXX",
"                ..........@@@@@@@@@@@@..........................",
"                ................................................",
"                ................................................",
"                ................................................",
"                ................................................",
"                ................................................",
"                ................................................",
"                ................................................",
"XXXXXXXX        ........................................        ",
"XXXXXXXX        ........................................        ",
"XXXXXXXX        ........................................        ",
"XXXXXXXX        ........................................        ",
"XXXXXXXX        ........................................        ",
"XXXXXXXX        ........................................        ",
"XXXXXXXX        ........................................        ",
"XXXXXXXX        ........................................        "
};
