/* XPM */
static char *gberry_0[] = {
/* columns rows colors chars-per-pixel */
"64 64 8 1 ",
"  c #90D8E1",
". c #7FD4DF",
"X c #A2DDE5",
"o c #686868",
"O c gray53",
"+ c #656565",
"@ c gray45",
"# c gray63",
/* pixels */
"        ........        ........................        XXXXXXXX",
"        ........        ........................        XXXXXXXX",
"        ........        ........................        XXXXXXXX",
"        ........        ........................        XXXXXXXX",
"        ........        ........................        XXXXXXXX",
"        ........        ........................        XXXXXXXX",
"        ........        ........................        XXXXXXXX",
"        ........        ........................        XXXXXXXX",
"........      oooooo    ........OOOOOO..    OOOOOOXXXXXX        ",
"........      oooooo    ........OOOOOO..    OOOOOOXXXXXX        ",
"........      oooooo    ........OOOOOO..    OOOOOOXXXXXX        ",
"........      oooooo    ........OOOOOO..    OOOOOOXXXXXX        ",
"........      oooooo    ........OOOOOO..    OOOOOOXXXXXX        ",
"........      oooooo    ........OOOOOO..    OOOOOOXXXXXX        ",
"........            ooooooOOOOOOoooooooooooo    XXXXXXXX        ",
"........            ooooooOOOOOOoooooooooooo    XXXXXXXX        ",
"                XXXXooooooOOOOOOooooooooooooXXXX        ........",
"                XXXXooooooOOOOOOooooooooooooXXXX        ........",
"                XXXXooooooOOOOOOooooooooooooXXXX        ........",
"                XXXXooooooOOOOOOooooooooooooXXXX        ........",
"              ++++++@@@@@@@@@@@@@@@@@@@@@@@@++++++      ........",
"              ++++++@@@@@@@@@@@@@@@@@@@@@@@@++++++      ........",
"              ++++++@@@@@@@@@@@@@@@@@@@@@@@@++++++      ........",
"              ++++++@@@@@@@@@@@@@@@@@@@@@@@@++++++      ........",
"........XXXXXX++++++@@@@@@@@@@@@@@@@@@@@@@@@++++++..............",
"........XXXXXX++++++@@@@@@@@@@@@@@@@@@@@@@@@++++++..............",
"........XXXXXX@@@@@@######@@@@@@@@@@@@@@@@@@@@@@@@..............",
"........XXXXXX@@@@@@######@@@@@@@@@@@@@@@@@@@@@@@@..............",
"........XXXXXX@@@@@@######@@@@@@@@@@@@@@@@@@@@@@@@..............",
"........XXXXXX@@@@@@######@@@@@@@@@@@@@@@@@@@@@@@@..............",
"........XXXXXX@@@@@@######@@@@@@@@@@@@@@@@@@@@@@@@..............",
"........XXXXXX@@@@@@######@@@@@@@@@@@@@@@@@@@@@@@@..............",
"..............@@@@@@@@@@@@@@@@@@@@@@@@######@@@@@@              ",
"..............@@@@@@@@@@@@@@@@@@@@@@@@######@@@@@@              ",
"..............@@@@@@@@@@@@@@@@@@@@@@@@######@@@@@@              ",
"..............@@@@@@@@@@@@@@@@@@@@@@@@######@@@@@@              ",
"..............@@@@@@@@@@@@@@@@@@@@@@@@######@@@@@@              ",
"..............@@@@@@@@@@@@@@@@@@@@@@@@######@@@@@@              ",
"..............@@@@@@@@@@@@######@@@@@@@@@@@@@@@@@@              ",
"..............@@@@@@@@@@@@######@@@@@@@@@@@@@@@@@@              ",
"..............@@@@@@@@@@@@######@@@@@@@@@@@@@@@@@@......XXXXXXXX",
"..............@@@@@@@@@@@@######@@@@@@@@@@@@@@@@@@......XXXXXXXX",
"..............@@@@@@@@@@@@######@@@@@@@@@@@@@@@@@@......XXXXXXXX",
"..............@@@@@@@@@@@@######@@@@@@@@@@@@@@@@@@......XXXXXXXX",
"................    @@@@@@@@@@@@@@@@@@@@@@@@    ........XXXXXXXX",
"................    @@@@@@@@@@@@@@@@@@@@@@@@    ........XXXXXXXX",
"................    @@@@@@@@@@@@@@@@@@@@@@@@    ........XXXXXXXX",
"................    @@@@@@@@@@@@@@@@@@@@@@@@    ........XXXXXXXX",
"                ....@@@@@@@@@@@@@@@@@@@@@@@@....................",
"                ....@@@@@@@@@@@@@@@@@@@@@@@@....................",
"                ..........@@@@@@@@@@@@..........................",
"                ..........@@@@@@@@@@@@..........................",
"                ..........@@@@@@@@@@@@..........................",
"                ..........@@@@@@@@@@@@..........................",
"                ..........@@@@@@@@@@@@..........................",
"                ..........@@@@@@@@@@@@..........................",
"XXXXXXXX        ........................................        ",
"XXXXXXXX        ........................................        ",
"XXXXXXXX        ........................................        ",
"XXXXXXXX        ........................................        ",
"XXXXXXXX        ........................................        ",
"XXXXXXXX        ........................................        ",
"XXXXXXXX        ........................................        ",
"XXXXXXXX        ........................................        "
};
