/* XPM */
static char *seed_3[] = {
/* columns rows colors chars-per-pixel */
"64 64 5 1 ",
"  c #90D8E1",
". c #7FD4DF",
"X c #A2DDE5",
"o c #E5EB63",
"O c #90B640",
/* pixels */
"        ........        ........................        XXXXXXXX",
"        ........        ........................        XXXXXXXX",
"        ........        ........................        XXXXXXXX",
"        ........        ........................        XXXXXXXX",
"        ........        ........................        XXXXXXXX",
"        ........       ooooooooooooOOOOOO.......        XXXXXXXX",
"        ........       ooooooooooooOOOOOO.......        XXXXXXXX",
"        ........       ooooooooooooOOOOOO.......        XXXXXXXX",
"........               ooooooooooooOOOOOO       XXXXXXXX        ",
"........               ooooooooooooOOOOOO       XXXXXXXX        ",
"........               ooooooooooooOOOOOO       XXXXXXXX        ",
"........         ooooooooooooooooooooooooOOOOOO XXXXXXXX        ",
"........         ooooooooooooooooooooooooOOOOOO XXXXXXXX        ",
"........         ooooooooooooooooooooooooOOOOOO XXXXXXXX        ",
"........         ooooooooooooooooooooooooOOOOOO XXXXXXXX        ",
"........         ooooooooooooooooooooooooOOOOOO XXXXXXXX        ",
"                XooooooooooooooooooooooooOOOOOOX        ........",
"                XooooooooooooooooooooooooOOOOOOX        ........",
"                XooooooooooooooooooooooooOOOOOOX        ........",
"                XooooooooooooooooooooooooOOOOOOX        ........",
"                XooooooooooooooooooooooooOOOOOOX        ........",
"                XooooooooooooooooooooooooOOOOOOX        ........",
"                XooooooooooooooooooooooooOOOOOOX        ........",
"                XXXXXXXooooooooooooOOOOOOXXXXXXX        ........",
"........XXXXXXXX.......ooooooooooooOOOOOO.......................",
"........XXXXXXXX.......ooooooooooooOOOOOO.......................",
"........XXXXXXXX.......ooooooooooooOOOOOO.......................",
"........XXXXXXXX.......ooooooooooooOOOOOO.......................",
"........XXXXXXXX.......ooooooooooooOOOOOO.......................",
"........XXXXXXXX.......OOOOOOooooooOOOOOO.......................",
"........XXXXXXXX.......OOOOOOooooooOOOOOO.......................",
"........XXXXXXXX.......OOOOOOooooooOOOOOO.......................",
".......................OOOOOOooooooOOOOOO.......                ",
".......................OOOOOOooooooOOOOOO.......                ",
".......................OOOOOOooooooOOOOOO.......                ",
".............................OOOOOO.............                ",
".............................OOOOOO.............                ",
".............................OOOOOO.............                ",
".............................OOOOOO.............                ",
".............................OOOOOO.............                ",
"................        .....OOOOOO             ........XXXXXXXX",
"................        ........                ........XXXXXXXX",
"................        ........                ........XXXXXXXX",
"................        ........                ........XXXXXXXX",
"................        ........                ........XXXXXXXX",
"................        ........                ........XXXXXXXX",
"................        ........                ........XXXXXXXX",
"................        ........                ........XXXXXXXX",
"                ................................................",
"                ................................................",
"                ................................................",
"                ................................................",
"                ................................................",
"                ................................................",
"                ................................................",
"                ................................................",
"XXXXXXXX        ........................................        ",
"XXXXXXXX        ........................................        ",
"XXXXXXXX        ........................................        ",
"XXXXXXXX        ........................................        ",
"XXXXXXXX        ........................................        ",
"XXXXXXXX        ........................................        ",
"XXXXXXXX        ........................................        ",
"XXXXXXXX        ........................................        "
};
