/* XPM */
static char *seed_2[] = {
/* columns rows colors chars-per-pixel */
"64 64 5 1 ",
"  c #90D8E1",
". c #7FD4DF",
"X c #A2DDE5",
"o c #E5EB63",
"O c #90B640",
/* pixels */
"        ........        ........................        XXXXXXXX",
"        ........        ........................        XXXXXXXX",
"        ........        ........................        XXXXXXXX",
"        ........        ........................        XXXXXXXX",
"        ........        ........................        XXXXXXXX",
"        ........        ........................        XXXXXXXX",
"        ........        ........................        XXXXXXXX",
"        ........        ........................        XXXXXXXX",
"........               ooooooooooooOOOOOO       XXXXXXXX        ",
"........               ooooooooooooOOOOOO       XXXXXXXX        ",
"........               ooooooooooooOOOOOO       XXXXXXXX        ",
"........               ooooooooooooOOOOOO       XXXXXXXX        ",
"........               ooooooooooooOOOOOO       XXXXXXXX        ",
"........               ooooooooooooOOOOOO       XXXXXXXX        ",
"........         ooooooooooooooooooooooooOOOOOO XXXXXXXX        ",
"........         ooooooooooooooooooooooooOOOOOO XXXXXXXX        ",
"                XooooooooooooooooooooooooOOOOOOX        ........",
"                XooooooooooooooooooooooooOOOOOOX        ........",
"                XooooooooooooooooooooooooOOOOOOX        ........",
"                XooooooooooooooooooooooooOOOOOOX        ........",
"                XooooooooooooooooooooooooOOOOOOX        ........",
"                XooooooooooooooooooooooooOOOOOOX        ........",
"                XooooooooooooooooooooooooOOOOOOX        ........",
"                XooooooooooooooooooooooooOOOOOOX        ........",
"........XXXXXXXX.ooooooooooooooooooooooooOOOOOO.................",
"........XXXXXXXX.ooooooooooooooooooooooooOOOOOO.................",
"........XXXXXXXX.......ooooooooooooOOOOOO.......................",
"........XXXXXXXX.......ooooooooooooOOOOOO.......................",
"........XXXXXXXX.......ooooooooooooOOOOOO.......................",
"........XXXXXXXX.......ooooooooooooOOOOOO.......................",
"........XXXXXXXX.......ooooooooooooOOOOOO.......................",
"........XXXXXXXX.......ooooooooooooOOOOOO.......................",
".......................OOOOOOooooooOOOOOO.......                ",
".......................OOOOOOooooooOOOOOO.......                ",
".......................OOOOOOooooooOOOOOO.......                ",
".......................OOOOOOooooooOOOOOO.......                ",
".......................OOOOOOooooooOOOOOO.......                ",
".......................OOOOOOooooooOOOOOO.......                ",
".............................OOOOOO.............                ",
".............................OOOOOO.............                ",
"................        .....OOOOOO             ........XXXXXXXX",
"................        .....OOOOOO             ........XXXXXXXX",
"................        .....OOOOOO             ........XXXXXXXX",
"................        .....OOOOOO             ........XXXXXXXX",
"................        ........                ........XXXXXXXX",
"................        ........                ........XXXXXXXX",
"................        ........                ........XXXXXXXX",
"................        ........                ........XXXXXXXX",
"                ................................................",
"                ................................................",
"                ................................................",
"                ................................................",
"                ................................................",
"                ................................................",
"                ................................................",
"                ................................................",
"XXXXXXXX        ........................................        ",
"XXXXXXXX        ........................................        ",
"XXXXXXXX        ........................................        ",
"XXXXXXXX        ........................................        ",
"XXXXXXXX        ........................................        ",
"XXXXXXXX        ........................................        ",
"XXXXXXXX        ........................................        ",
"XXXXXXXX        ........................................        "
};
