/* XPM */
static char *pb1[] = {
/* columns rows colors chars-per-pixel */
"48 48 13 1 ",
"  c #90D8E1",
". c #7FD4DF",
"X c #AC3232",
"o c #D95763",
"O c #A2DDE5",
"+ c #791E26",
"@ c #5FCDE4",
"# c #45283C",
"$ c #663931",
"% c #EEC39A",
"& c #306082",
"* c #3F3F74",
"= c white",
/* pixels */
"      .XXXXXXXXXXXXXoooooooo........      OOOOOO",
"      .XXXXXXXXXXXXXoooooooo........      OOOOOO",
"      .XXXXXXXXXXXXXoooooooo........      OOOOOO",
"      .XXXXXXXXXXXXXoooooooo........      OOOOOO",
"      .XXXXXXXXXXXXXoooooooo........      OOOOOO",
"  +++++XXXXXXXXXXXXXXXXXooooooooo...      OOOOOO",
"..+++++XXXXXXXXXXXXXXXXXooooooooo   OOOOOO      ",
"..+++++XXXXXXXXXXXXXXXXXooooooooo   OOOOOO      ",
"..+++++XXXXXXXXXXXXXXXXXooooooooo   OOOOOO      ",
"..+++++++++XXXXXXXXXXXXXXXXXXXXXXooooOOOOO      ",
"..+++++++++XXXXXXXXXXXXXXXXXXXXXXooooOOOOO      ",
"..+++++++++XXXXXXXXXXXXXXXXXXXXXXooooOOOOO      ",
"  +++++++++XXXXXXXXXXXXXXXXXXXXXXoooo     ......",
"  +++++++++++++XXXXXXXXXXXXXXXXXXoooo     ......",
"  +++++++++++++XXXXXXXXXXXXXXXXXXoooo     ......",
"  +++++++++++++XXXXXXXXXXXXXXXXXXoooo     ......",
"  +++++++++++++XXXXXXXXXXXXXXXXXXoooo     ......",
"  ++++++++++++++++++XXXXXXXXXXXXXXXXX     ......",
"..++++++++++++++++++XXXXXXXXXXXXXXXXX...........",
"..++++++++++++++++++XXXXXXXXXXXXXXXXX...........",
"..++++++++++++++++++XXXXXXXXXXXXXXXXX...........",
"..++++++++++++++++++XXXXXXXXXXXXXXXXX...........",
"......O+++++++++++++XXXXXXXXXXXXXXXXX...........",
"......O+++++++++++++XXXXXXXXXXXXXXXXX...........",
".......+++++++++++++XXXXXXXXXXXXXXXXX           ",
".......+++++++++++++XXXXXXXXXXXXXXXXX           ",
".......@@@@####$$$$$++++XXXXXXXXXXXXXoooo       ",
".......@@@@####$$$$$++++XXXXXXXXXXXXXoooo       ",
".......@@@@####$$$$$++++XXXXXXXXXXXXXoooo       ",
".......@@@@####$$$$$++++XXXXXXXXXXXXXoooo       ",
".......@@@@####$$$$$++++XXXXXXXXXXXXXoooo.OOOOOO",
".......%%%%####$$$$$$$$$++++XXXXXXXXXXXXX.OOOOOO",
".......%%%%####$$$$$$$$$++++XXXXXXXXXXXXX.OOOOOO",
".......%%%%####$$$$$$$$$++++XXXXXXXXXXXXX.OOOOOO",
".......%%%%####$$$$$$$$$++++XXXXXXXXXXXXX.OOOOOO",
"...........&&&&&&&&&&&&&            .....oooooOO",
"           &&&&&&&&&&&&&.................ooooo..",
"           &&&&&&&&&&&&&.................ooooo..",
"           &&&&&&&&&&&&&.................ooooo..",
"           &&&&.....&&&&........................",
"           &&&&.....&&&&........................",
"           &&&&.....&&&&........................",
"OOOOOO     &&&&.....&&&&..................      ",
"OOOOOO     ****.....****..................      ",
"OOOOOO     ****.....****..................      ",
"OOOOOO     ****.....****..................      ",
"OOOOOO     ****.....****..................      ",
"OOOOOO     ****.....****..................      "
};
