/* XPM */
static char *pb3[] = {
/* columns rows colors chars-per-pixel */
"48 48 13 1 ",
"  c #90D8E1",
". c #7FD4DF",
"X c #A2DDE5",
"o c #AC3232",
"O c #D95763",
"+ c #791E26",
"@ c #5FCDE4",
"# c #45283C",
"$ c #663931",
"% c #EEC39A",
"& c #306082",
"* c #3F3F74",
"= c white",
/* pixels */
"      ......      ..................      XXXXXX",
"      ......      ..................      XXXXXX",
"      ......      ..................      XXXXXX",
"      ......      ..................      XXXXXX",
"      ......      ..................      XXXXXX",
"      .oooooooooooooOOOOOOOO........      XXXXXX",
"...... oooooooooooooOOOOOOOO..      XXXXXX      ",
"...... oooooooooooooOOOOOOOO..      XXXXXX      ",
"...... oooooooooooooOOOOOOOO..      XXXXXX      ",
"..+++++oooooooooooooooooOOOOOOOOO   XXXXXX      ",
"..+++++oooooooooooooooooOOOOOOOOO   XXXXXX      ",
"..+++++oooooooooooooooooOOOOOOOOO   XXXXXX      ",
"  +++++oooooooooooooooooOOOOOOOOOXXX      ......",
"  +++++++++ooooooooooooooooooooooOOOO     ......",
"  +++++++++ooooooooooooooooooooooOOOO     ......",
"  +++++++++ooooooooooooooooooooooOOOO     ......",
"  +++++++++ooooooooooooooooooooooOOOO     ......",
"  +++++++++++++ooooooooooooooooooOOOO     ......",
"..+++++++++++++ooooooooooooooooooOOOO...........",
"..+++++++++++++ooooooooooooooooooOOOO...........",
"..+++++++++++++ooooooooooooooooooOOOO...........",
"..+++++++++++++ooooooooooooooooooOOOO...........",
"..++++++++++++++++++ooooooooooooooooo...........",
"..++++++++++++++++++ooooooooooooooooo...........",
"..++++++++++++++++++ooooooooooooooooo           ",
"..++++++++++++++++++ooooooooooooooooo           ",
".......+++++++++++++ooooooooooooooooo           ",
".......+++++++++++++oooooooooooooooooOOOO       ",
".......+++++++++++++oooooooooooooooooOOOO       ",
".......+++++++++++++oooooooooooooooooOOOO       ",
".......+++++++++++++oooooooooooooooooOOOO.XXXXXX",
".......@@@@####$$$$$++++oooooooooooooOOOO.XXXXXX",
".......@@@@####$$$$$++++oooooooooooooOOOO.XXXXXX",
".......@@@@####$$$$$++++oooooooooooooOOOO.XXXXXX",
".......@@@@####$$$$$++++oooooooooooooOOOO.XXXXXX",
".......%%%%####$$$$$$$$$%%%%ooooooooooooooooooXX",
"       %%%%####$$$$$$$$$%%%%oooooooooooooooooo..",
"       %%%%####$$$$$$$$$%%%%oooooooooooooooooo..",
"       %%%%####$$$$$$$$$%%%%oooooooooooooooooo..",
"           &&&&&&&&&&&&&........................",
"           &&&&&&&&&&&&&........................",
"           &&&&&&&&&&&&&........................",
"XXXXXX     &&&&&&&&&&&&&..................      ",
"XXXXXX     ****.....****..................      ",
"XXXXXX     ****.....****..................      ",
"XXXXXX     ****.....****..................      ",
"XXXXXX     ****.....****..................      ",
"XXXXXX     ****.....****..................      "
};
