/* XPM */
static char *pf3[] = {
/* columns rows colors chars-per-pixel */
"48 48 14 1 ",
"  c #90D8E1",
". c #7FD4DF",
"X c #A2DDE5",
"o c #AC3232",
"O c #D95763",
"+ c #D9A066",
"@ c #EEC39A",
"# c #791E26",
"$ c #663931",
"% c #639BFF",
"& c #5FCDE4",
"* c #306082",
"= c #3F3F74",
"- c white",
/* pixels */
"      ......      ..................      XXXXXX",
"      ......      ..................      XXXXXX",
"      ......      ..................      XXXXXX",
"      ......      ..................      XXXXXX",
"      ......      ..................      XXXXXX",
"      ......      ..oooooooooooooOOOOOOOO XXXXXX",
"......            ..oooooooooooooOOOOOOOOX      ",
"......            ..oooooooooooooOOOOOOOOX      ",
"......            ..oooooooooooooOOOOOOOOX      ",
"......         ooooooooooooooooooooooOOOOOOOOO  ",
"......         ooooooooooooooooooooooOOOOOOOOO  ",
"......         ooooooooooooooooooooooOOOOOOOOO  ",
"            XXXooooooooooooooooooooooOOOOOOOOO..",
"           ooooooooooooo+++++++++@@@@ooooooooo..",
"           ooooooooooooo+++++++++@@@@ooooooooo..",
"           ooooooooooooo+++++++++@@@@ooooooooo..",
"           ooooooooooooo+++++++++@@@@ooooooooo..",
"           ####ooooo++++@@@@@@@@@@@@@@@@@ooooo..",
"......XXXXX####ooooo++++@@@@@@@@@@@@@@@@@ooooo..",
"......XXXXX####ooooo++++@@@@@@@@@@@@@@@@@ooooo..",
"......XXXXX####ooooo++++@@@@@@@@@@@@@@@@@ooooo..",
"......XXXXX####ooooo++++@@@@@@@@@@@@@@@@@ooooo..",
"......XXXXX#########++++@@@@@@@@@@@@@@@@@ooooo..",
"......XXXXX#########++++@@@@@@@@@@@@@@@@@ooooo..",
"...........#########++++@@@@@@@@@@@@@@@@@ooooo  ",
"...........#########++++@@@@@@@@@@@@@@@@@ooooo  ",
".......#############oooo$$$$%%%%%$$$$oooo       ",
".......#############oooo$$$$%%%%%$$$$oooo       ",
".......#############oooo$$$$%%%%%$$$$oooo       ",
".......#############oooo$$$$%%%%%$$$$oooo       ",
".......#############oooo$$$$%%%%%$$$$oooo.XXXXXX",
".......#############%%%%$$$$&&&&&$$$$&&&&.XXXXXX",
".......#############%%%%$$$$&&&&&$$$$&&&&.XXXXXX",
".......#############%%%%$$$$&&&&&$$$$&&&&.XXXXXX",
".......#############%%%%$$$$&&&&&$$$$&&&&.XXXXXX",
"..#############   ..@@@@&&&&&&&&&&&&&@@@@.XXXXXX",
"  #############.....@@@@&&&&&&&&&&&&&@@@@.......",
"  #############.....@@@@&&&&&&&&&&&&&@@@@.......",
"  #############.....@@@@&&&&&&&&&&&&&@@@@.......",
"            ............*************...........",
"            ............*************...........",
"            ............*************...........",
"XXXXXX      ............*************.....      ",
"XXXXXX      ............====.....====.....      ",
"XXXXXX      ............====.....====.....      ",
"XXXXXX      ............====.....====.....      ",
"XXXXXX      ............====.....====.....      ",
"XXXXXX      ............====.....====.....      "
};
