/* XPM */
static char *pf4[] = {
/* columns rows colors chars-per-pixel */
"48 48 14 1 ",
"  c #90D8E1",
". c #7FD4DF",
"X c #AC3232",
"o c #D95763",
"O c #A2DDE5",
"+ c #D9A066",
"@ c #EEC39A",
"# c #791E26",
"$ c #663931",
"% c #639BFF",
"& c #5FCDE4",
"* c #306082",
"= c #3F3F74",
"- c white",
/* pixels */
"      ......      ..XXXXXXXXXXXXXoooooooo OOOOOO",
"      ......      ..XXXXXXXXXXXXXoooooooo OOOOOO",
"      ......      ..XXXXXXXXXXXXXoooooooo OOOOOO",
"      ......      ..XXXXXXXXXXXXXoooooooo OOOOOO",
"      ......      ..XXXXXXXXXXXXXoooooooo OOOOOO",
"      ......   XXXXXXXXXXXXXXXXXXXXXXoooooooooOO",
"......         XXXXXXXXXXXXXXXXXXXXXXooooooooo  ",
"......         XXXXXXXXXXXXXXXXXXXXXXooooooooo  ",
"......         XXXXXXXXXXXXXXXXXXXXXXooooooooo  ",
"......     XXXXXXXXXXXXX+++++++++@@@@XXXXXXXXX  ",
"......     XXXXXXXXXXXXX+++++++++@@@@XXXXXXXXX  ",
"......     XXXXXXXXXXXXX+++++++++@@@@XXXXXXXXX  ",
"           XXXXXXXXXXXXX+++++++++@@@@XXXXXXXXX..",
"           ####XXXXX++++@@@@@@@@@@@@@@@@@XXXXX..",
"           ####XXXXX++++@@@@@@@@@@@@@@@@@XXXXX..",
"           ####XXXXX++++@@@@@@@@@@@@@@@@@XXXXX..",
"           ####XXXXX++++@@@@@@@@@@@@@@@@@XXXXX..",
"           #########++++@@@@@@@@@@@@@@@@@XXXXX..",
"......OOOOO#########++++@@@@@@@@@@@@@@@@@XXXXX..",
"......OOOOO#########++++@@@@@@@@@@@@@@@@@XXXXX..",
"......OOOOO#########++++@@@@@@@@@@@@@@@@@XXXXX..",
"......OOOOO#########++++@@@@@@@@@@@@@@@@@XXXXX..",
"......O#############XXXX$$$$%%%%%$$$$XXXX.......",
"......O#############XXXX$$$$%%%%%$$$$XXXX.......",
".......#############XXXX$$$$%%%%%$$$$XXXX       ",
".......#############XXXX$$$$%%%%%$$$$XXXX       ",
".......#############%%%%$$$$&&&&&$$$$&&&&       ",
".......#############%%%%$$$$&&&&&$$$$&&&&       ",
".......#############%%%%$$$$&&&&&$$$$&&&&       ",
".......#############%%%%$$$$&&&&&$$$$&&&&       ",
".......#############%%%%$$$$&&&&&$$$$&&&&.OOOOOO",
"..#############   ..@@@@&&&&&&&&&&&&&@@@@.OOOOOO",
"..#############   ..@@@@&&&&&&&&&&&&&@@@@.OOOOOO",
"..#############   ..@@@@&&&&&&&&&&&&&@@@@.OOOOOO",
"..#############   ..@@@@&&&&&&&&&&&&&@@@@.OOOOOO",
"............      ......*************.....OOOOOO",
"            ............*************...........",
"            ............*************...........",
"            ............*************...........",
"            ............****.....****...........",
"            ............****.....****...........",
"            ............****.....****...........",
"OOOOOO      ............****.....****.....      ",
"OOOOOO      ............====.....====.....      ",
"OOOOOO      ............====.....====.....      ",
"OOOOOO      ............====.....====.....      ",
"OOOOOO      ............====.....====.....      ",
"OOOOOO      ............====.....====.....      "
};
