/* XPM */
static char *pl1[] = {
/* columns rows colors chars-per-pixel */
"48 48 15 1 ",
"  c #90D8E1",
". c #7FD4DF",
"X c #AC3232",
"o c #D95763",
"O c #A2DDE5",
"+ c #791E26",
"@ c #D9A066",
"# c #EEC39A",
"$ c #639BFF",
"% c #45283C",
"& c #5FCDE4",
"* c #663931",
"= c #306082",
"- c #3F3F74",
"; c white",
/* pixels */
"      .XXXXXXXXooooooooo............      OOOOOO",
"      .XXXXXXXXooooooooo............      OOOOOO",
"      .XXXXXXXXooooooooo............      OOOOOO",
"      .XXXXXXXXooooooooo............      OOOOOO",
"      .XXXXXXXXooooooooo............      OOOOOO",
"  XXXXXXXXXXXXXXXXXXoooooooo........      OOOOOO",
"..XXXXXXXXXXXXXXXXXXoooooooo..      OOOOOO      ",
"..XXXXXXXXXXXXXXXXXXoooooooo..      OOOOOO      ",
"..XXXXXXXXXXXXXXXXXXoooooooo..      OOOOOO      ",
"..+++++@@@@@@@@@@@@@XXXXXXXXooooo   OOOOOO      ",
"..+++++@@@@@@@@@@@@@XXXXXXXXooooo   OOOOOO      ",
"..+++++@@@@@@@@@@@@@XXXXXXXXooooo   OOOOOO      ",
"  +++++@@@@@@@@@@@@@XXXXXXXXoooooOOO      ......",
"  +++++@@@@#############XXXXXXXXXOOO      ......",
"  +++++@@@@#############XXXXXXXXXOOO      ......",
"  +++++@@@@#############XXXXXXXXXOOO      ......",
"  +++++@@@@#############XXXXXXXXXOOO      ......",
"  +++++@@@@#############XXXXXXXXXoooo     ......",
"..+++++@@@@#############XXXXXXXXXoooo...........",
"..+++++@@@@#############XXXXXXXXXoooo...........",
"..+++++@@@@#############XXXXXXXXXoooo...........",
"..+++++@@@@#############XXXXXXXXXoooo...........",
"......O++++$$$$$$$$$%%%%++++XXXXXXXXXoooo.......",
"......O++++$$$$$$$$$%%%%++++XXXXXXXXXoooo.......",
".......++++$$$$$$$$$%%%%++++XXXXXXXXXoooo       ",
".......++++$$$$$$$$$%%%%++++XXXXXXXXXoooo       ",
"...........$$$$$$$$$%%%%&&&&*****XXXXXXXXooooo  ",
"...........$$$$$$$$$%%%%&&&&*****XXXXXXXXooooo  ",
"...........$$$$$$$$$%%%%&&&&*****XXXXXXXXooooo  ",
"...........$$$$$$$$$%%%%&&&&*****XXXXXXXXooooo  ",
"...........$$$$&&&&&%%%%&&&&*****XXXXXXXXoooooOO",
"...........$$$$&&&&&&&&&####*****   ......OOOOOO",
"...........$$$$&&&&&&&&&####*****   ......OOOOOO",
"...........$$$$&&&&&&&&&####*****   ......OOOOOO",
"...........$$$$&&&&&&&&&####*****   ......OOOOOO",
"...........=============****        ......OOOOOO",
"           =============****....................",
"           =============****....................",
"           =============****....................",
"           ====.....====........................",
"           ====.....====........................",
"           ====.....====........................",
"OOOOOO     ====.....====..................      ",
"OOOOOO     ----.....----..................      ",
"OOOOOO     ----.....----..................      ",
"OOOOOO     ----.....----..................      ",
"OOOOOO     ----.....----..................      ",
"OOOOOO     ----.....----..................      "
};
