/* XPM */
static char *pl2[] = {
/* columns rows colors chars-per-pixel */
"48 48 15 1 ",
"  c #90D8E1",
". c #7FD4DF",
"X c #A2DDE5",
"o c #AC3232",
"O c #D95763",
"+ c #791E26",
"@ c #D9A066",
"# c #EEC39A",
"$ c #639BFF",
"% c #45283C",
"& c #5FCDE4",
"* c #663931",
"= c #306082",
"- c #3F3F74",
"; c white",
/* pixels */
"      ......      ..................      XXXXXX",
"      ......      ..................      XXXXXX",
"      ......      ..................      XXXXXX",
"      ......      ..................      XXXXXX",
"      ......      ..................      XXXXXX",
"      .ooooooooOOOOOOOOO............      XXXXXX",
"...... ooooooooOOOOOOOOO......      XXXXXX      ",
"...... ooooooooOOOOOOOOO......      XXXXXX      ",
"...... ooooooooOOOOOOOOO......      XXXXXX      ",
"..ooooooooooooooooooOOOOOOOO..      XXXXXX      ",
"..ooooooooooooooooooOOOOOOOO..      XXXXXX      ",
"..ooooooooooooooooooOOOOOOOO..      XXXXXX      ",
"  ooooooooooooooooooOOOOOOOO..XXXXXX      ......",
"  +++++@@@@@@@@@@@@@ooooooooOOOOOXXX      ......",
"  +++++@@@@@@@@@@@@@ooooooooOOOOOXXX      ......",
"  +++++@@@@@@@@@@@@@ooooooooOOOOOXXX      ......",
"  +++++@@@@@@@@@@@@@ooooooooOOOOOXXX      ......",
"  +++++@@@@#############oooooooooXXX      ......",
"..+++++@@@@#############ooooooooo...............",
"..+++++@@@@#############ooooooooo...............",
"..+++++@@@@#############ooooooooo...............",
"..+++++@@@@#############ooooooooo...............",
"..+++++@@@@#############oooooooooOOOO...........",
"..+++++@@@@#############oooooooooOOOO...........",
"..+++++@@@@#############oooooooooOOOO           ",
"..+++++@@@@#############oooooooooOOOO           ",
".......++++$$$$$$$$$%%%%++++oooooooooOOOO       ",
".......++++$$$$$$$$$%%%%++++oooooooooOOOO       ",
".......++++$$$$$$$$$%%%%++++oooooooooOOOO       ",
".......++++$$$$$$$$$%%%%++++oooooooooOOOO       ",
".......++++$$$$$$$$$%%%%++++oooooooooOOOO.XXXXXX",
"...........$$$$$$$$$%%%%&&&&*****ooooooooOOOOOXX",
"...........$$$$$$$$$%%%%&&&&*****ooooooooOOOOOXX",
"...........$$$$$$$$$%%%%&&&&*****ooooooooOOOOOXX",
"...........$$$$&&&&&%%%%&&&&*****ooooooooOOOOOXX",
"...........$$$$&&&&&&&&&####*****   ......XXXXXX",
"           $$$$&&&&&&&&&####*****...............",
"           $$$$&&&&&&&&&####*****...............",
"           $$$$&&&&&&&&&####*****...............",
"           =============****....................",
"           =============****....................",
"           =============****....................",
"XXXXXX     =============****..............      ",
"XXXXXX     ----.....----..................      ",
"XXXXXX     ----.....----..................      ",
"XXXXXX     ----.....----..................      ",
"XXXXXX     ----.....----..................      ",
"XXXXXX     ----.....----..................      "
};
