/* XPM */
static char *pr4[] = {
/* columns rows colors chars-per-pixel */
"48 48 15 1 ",
"  c #90D8E1",
". c #7FD4DF",
"X c #AC3232",
"o c #D95763",
"O c #A2DDE5",
"+ c #D9A066",
"@ c #791E26",
"# c #EEC39A",
"$ c #663931",
"% c #639BFF",
"& c #45283C",
"* c #5FCDE4",
"= c #306082",
"- c #3F3F74",
"; c white",
/* pixels */
"      ......      ......XXXXXXXXXoooooooo OOOOOO",
"      ......      ......XXXXXXXXXoooooooo OOOOOO",
"      ......      ......XXXXXXXXXoooooooo OOOOOO",
"      ......      ......XXXXXXXXXoooooooo OOOOOO",
"      ......      ......XXXXXXXXXoooooooo OOOOOO",
"      ......      ..XXXXXXXXXXXXXXXXXXXXXoooooOO",
"......            ..XXXXXXXXXXXXXXXXXXXXXooooo  ",
"......            ..XXXXXXXXXXXXXXXXXXXXXooooo  ",
"......            ..XXXXXXXXXXXXXXXXXXXXXooooo  ",
"......         XXXXXXXXXXXXX+++++++++++++XXXXX  ",
"......         XXXXXXXXXXXXX+++++++++++++XXXXX  ",
"......         XXXXXXXXXXXXX+++++++++++++XXXXX  ",
"            OOOXXXXXXXXXXXXX+++++++++++++XXXXX..",
"            OOOXXXXX@@@@++++#############XXXXX..",
"            OOOXXXXX@@@@++++#############XXXXX..",
"            OOOXXXXX@@@@++++#############XXXXX..",
"            OOOXXXXX@@@@++++#############XXXXX..",
"       XXXXXXXX@@@@@@@@@++++#############XXXXX..",
"......OXXXXXXXX@@@@@@@@@++++#############XXXXX..",
"......OXXXXXXXX@@@@@@@@@++++#############XXXXX..",
"......OXXXXXXXX@@@@@@@@@++++#############XXXXX..",
"......OXXXXXXXX@@@@@@@@@++++#############XXXXX..",
"..@@@@@@@@@@@@@@@@@@@@@@$$$$%%%%%%%%%@@@@.......",
"..@@@@@@@@@@@@@@@@@@@@@@$$$$%%%%%%%%%@@@@.......",
"..@@@@@@@@@@@@@@@@@@@@@@$$$$%%%%%%%%%@@@@       ",
"..@@@@@@@@@@@@@@@@@@@@@@$$$$%%%%%%%%%@@@@       ",
"...............&&&&&****$$$$%%%%%****           ",
"...............&&&&&****$$$$%%%%%****           ",
"...............&&&&&****$$$$%%%%%****           ",
"...............&&&&&****$$$$%%%%%****           ",
"............   &&&&&****$$$$%%%%%****.....OOOOOO",
"............   &&&&&####%%%%*********.....OOOOOO",
"............   &&&&&####%%%%*********.....OOOOOO",
"............   &&&&&####%%%%*********.....OOOOOO",
"............   &&&&&####%%%%*********.....OOOOOO",
"............      ..&&&&=============.....OOOOOO",
"            ........&&&&=============...........",
"            ........&&&&=============...........",
"            ........&&&&=============...........",
"            ............====.....====...........",
"            ............====.....====...........",
"            ............====.....====...........",
"OOOOOO      ............====.....====.....      ",
"OOOOOO      ............----.....----.....      ",
"OOOOOO      ............----.....----.....      ",
"OOOOOO      ............----.....----.....      ",
"OOOOOO      ............----.....----.....      ",
"OOOOOO      ............----.....----.....      "
};
