/* XPM */
static char *ice[] = {
/* columns rows colors chars-per-pixel */
"32 32 4 1 ",
"  c #90D8E1",
". c #7FD4DF",
"X c #A2DDE5",
"o c white",
/* pixels */
"    ....    ............    XXXX",
"    ....    ............    XXXX",
"    ....    ............    XXXX",
"    ....    ............    XXXX",
"....        ........    XXXX    ",
"....        ........    XXXX    ",
"....        ........    XXXX    ",
"....        ........    XXXX    ",
"        XXXX........XXXX    ....",
"        XXXX........XXXX    ....",
"        XXXX........XXXX    ....",
"        XXXX........XXXX    ....",
"....XXXX........    ............",
"....XXXX........    ............",
"....XXXX........    ............",
"....XXXX........    ............",
"........................        ",
"........................        ",
"........................        ",
"........................        ",
"........    ....        ....XXXX",
"........    ....        ....XXXX",
"........    ....        ....XXXX",
"........    ....        ....XXXX",
"        ........................",
"        ........................",
"        ........................",
"        ........................",
"XXXX    ....................    ",
"XXXX    ....................    ",
"XXXX    ....................    ",
"XXXX    ....................    "
};
