/* XPM */
static char *wall[] = {
/* columns rows colors chars-per-pixel */
"32 32 7 1 ",
"  c #90D8E1",
". c #7FD4DF",
"X c #A2DDE5",
"o c gray46",
"O c gray62",
"+ c gray38",
"@ c white",
/* pixels */
"    ....    ............    XXXX",
"    ....    ............    XXXX",
"    ....    ............    XXXX",
"    ....    ............    XXXX",
"....ooooOOOOOOOOOOOOOOOOoooo    ",
"....ooooOOOOOOOOOOOOOOOOoooo    ",
"....ooooOOOOOOOOOOOOOOOOoooo    ",
"....ooooOOOOOOOOOOOOOOOOoooo    ",
"    ooooooooOOOOOOOOoooooooo....",
"    ooooooooOOOOOOOOoooooooo....",
"    ooooooooOOOOOOOOoooooooo....",
"    ooooooooOOOOOOOOoooooooo....",
"....ooooOOOOOOOOoooooooo++++....",
"....ooooOOOOOOOOoooooooo++++....",
"....ooooOOOOOOOOoooooooo++++....",
"....ooooOOOOOOOOoooooooo++++....",
"....++++ooooooooooooOOOOoooo    ",
"....++++ooooooooooooOOOOoooo    ",
"....++++ooooooooooooOOOOoooo    ",
"....++++ooooooooooooOOOOoooo    ",
"....oooo++++oooo++++++++ooooXXXX",
"....oooo++++oooo++++++++ooooXXXX",
"....oooo++++oooo++++++++ooooXXXX",
"....oooo++++oooo++++++++ooooXXXX",
"    ++++++++++++++++oooo++++....",
"    ++++++++++++++++oooo++++....",
"    ++++++++++++++++oooo++++....",
"    ++++++++++++++++oooo++++....",
"XXXX    ....................    ",
"XXXX    ....................    ",
"XXXX    ....................    ",
"XXXX    ....................    "
};
