/* XPM */
static char *ice[] = {
/* columns rows colors chars-per-pixel */
"48 48 4 1 ",
"  c #90D8E1",
". c #7FD4DF",
"X c #A2DDE5",
"o c white",
/* pixels */
"      ......      ..................      XXXXXX",
"      ......      ..................      XXXXXX",
"      ......      ..................      XXXXXX",
"      ......      ..................      XXXXXX",
"      ......      ..................      XXXXXX",
"      ......      ..................      XXXXXX",
"......            ............      XXXXXX      ",
"......            ............      XXXXXX      ",
"......            ............      XXXXXX      ",
"......            ............      XXXXXX      ",
"......            ............      XXXXXX      ",
"......            ............      XXXXXX      ",
"            XXXXXX............XXXXXX      ......",
"            XXXXXX............XXXXXX      ......",
"            XXXXXX............XXXXXX      ......",
"            XXXXXX............XXXXXX      ......",
"            XXXXXX............XXXXXX      ......",
"            XXXXXX............XXXXXX      ......",
"......XXXXXX............      ..................",
"......XXXXXX............      ..................",
"......XXXXXX............      ..................",
"......XXXXXX............      ..................",
"......XXXXXX............      ..................",
"......XXXXXX............      ..................",
"....................................            ",
"....................................            ",
"....................................            ",
"....................................            ",
"....................................            ",
"....................................            ",
"............      ......            ......XXXXXX",
"............      ......            ......XXXXXX",
"............      ......            ......XXXXXX",
"............      ......            ......XXXXXX",
"............      ......            ......XXXXXX",
"............      ......            ......XXXXXX",
"            ....................................",
"            ....................................",
"            ....................................",
"            ....................................",
"            ....................................",
"            ....................................",
"XXXXXX      ..............................      ",
"XXXXXX      ..............................      ",
"XXXXXX      ..............................      ",
"XXXXXX      ..............................      ",
"XXXXXX      ..............................      ",
"XXXXXX      ..............................      "
};
