/* XPM */
static char *wall[] = {
/* columns rows colors chars-per-pixel */
"48 48 7 1 ",
"  c #90D8E1",
". c #7FD4DF",
"X c #A2DDE5",
"o c gray46",
"O c gray62",
"+ c gray38",
"@ c white",
/* pixels */
"      ......      ..................      XXXXXX",
"      ......      ..................      XXXXXX",
"      ......      ..................      XXXXXX",
"      ......      ..................      XXXXXX",
"      ......      ..................      XXXXXX",
"      ......      ..................      XXXXXX",
"......ooooooOOOOOOOOOOOOOOOOOOOOOOOOoooooo      ",
"......ooooooOOOOOOOOOOOOOOOOOOOOOOOOoooooo      ",
"......ooooooOOOOOOOOOOOOOOOOOOOOOOOOoooooo      ",
"......ooooooOOOOOOOOOOOOOOOOOOOOOOOOoooooo      ",
"......ooooooOOOOOOOOOOOOOOOOOOOOOOOOoooooo      ",
"......ooooooOOOOOOOOOOOOOOOOOOOOOOOOoooooo      ",
"      ooooooooooooOOOOOOOOOOOOoooooooooooo......",
"      ooooooooooooOOOOOOOOOOOOoooooooooooo......",
"      ooooooooooooOOOOOOOOOOOOoooooooooooo......",
"      ooooooooooooOOOOOOOOOOOOoooooooooooo......",
"      ooooooooooooOOOOOOOOOOOOoooooooooooo......",
"      ooooooooooooOOOOOOOOOOOOoooooooooooo......",
"......ooooooOOOOOOOOOOOOoooooooooooo++++++......",
"......ooooooOOOOOOOOOOOOoooooooooooo++++++......",
"......ooooooOOOOOOOOOOOOoooooooooooo++++++......",
"......ooooooOOOOOOOOOOOOoooooooooooo++++++......",
"......ooooooOOOOOOOOOOOOoooooooooooo++++++......",
"......ooooooOOOOOOOOOOOOoooooooooooo++++++......",
"......++++++ooooooooooooooooooOOOOOOoooooo      ",
"......++++++ooooooooooooooooooOOOOOOoooooo      ",
"......++++++ooooooooooooooooooOOOOOOoooooo      ",
"......++++++ooooooooooooooooooOOOOOOoooooo      ",
"......++++++ooooooooooooooooooOOOOOOoooooo      ",
"......++++++ooooooooooooooooooOOOOOOoooooo      ",
"......oooooo++++++oooooo++++++++++++ooooooXXXXXX",
"......oooooo++++++oooooo++++++++++++ooooooXXXXXX",
"......oooooo++++++oooooo++++++++++++ooooooXXXXXX",
"......oooooo++++++oooooo++++++++++++ooooooXXXXXX",
"......oooooo++++++oooooo++++++++++++ooooooXXXXXX",
"......oooooo++++++oooooo++++++++++++ooooooXXXXXX",
"      ++++++++++++++++++++++++oooooo++++++......",
"      ++++++++++++++++++++++++oooooo++++++......",
"      ++++++++++++++++++++++++oooooo++++++......",
"      ++++++++++++++++++++++++oooooo++++++......",
"      ++++++++++++++++++++++++oooooo++++++......",
"      ++++++++++++++++++++++++oooooo++++++......",
"XXXXXX      ..............................      ",
"XXXXXX      ..............................      ",
"XXXXXX      ..............................      ",
"XXXXXX      ..............................      ",
"XXXXXX      ..............................      ",
"XXXXXX      ..............................      "
};
