/* XPM */
static char *berry_4[] = {
/* columns rows colors chars-per-pixel */
"32 32 9 1 ",
"  c #90D8E1",
". c #7FD4DF",
"X c #A2DDE5",
"o c #477A63",
"O c #3EB367",
"+ c #8A535F",
"@ c #DE4062",
"# c #DB992E",
"$ c white",
/* pixels */
"    ...ooo  ....OOO...OOO   XXXX",
"    ...ooo  ....OOO...OOO   XXXX",
"    ...ooo  ....OOO...OOO   XXXX",
"    ....  oooOOOoooooo..    XXXX",
"....      oooOOOoooooo  XXXX    ",
"....      oooOOOoooooo  XXXX    ",
"....   +++@@@@@@@@@@@@+++XXX    ",
"....   +++@@@@@@@@@@@@+++XXX    ",
"       +++@@@@@@@@@@@@+++   ....",
"       @@@###@@@@@@@@@@@@   ....",
"       @@@###@@@@@@@@@@@@   ....",
"       @@@###@@@@@@@@@@@@   ....",
"....XXX@@@@@@@@@@@@###@@@.......",
"....XXX@@@@@@@@@@@@###@@@.......",
"....XXX@@@@@@@@@@@@###@@@.......",
"....XXX@@@@@@###@@@@@@@@@.......",
".......@@@@@@###@@@@@@@@@       ",
".......@@@@@@###@@@@@@@@@       ",
"..........@@@@@@@@@@@@..        ",
"..........@@@@@@@@@@@@..        ",
"........  @@@@@@@@@@@@  ....XXXX",
"........    .@@@@@@     ....XXXX",
"........    .@@@@@@     ....XXXX",
"........    .@@@@@@     ....XXXX",
"        ........................",
"        ........................",
"        ........................",
"        ........................",
"XXXX    ....................    ",
"XXXX    ....................    ",
"XXXX    ....................    ",
"XXXX    ....................    "
};
