/* XPM */
static char *gberry_2[] = {
/* columns rows colors chars-per-pixel */
"32 32 9 1 ",
"  c #90D8E1",
". c #7FD4DF",
"X c #A2DDE5",
"o c #686868",
"O c gray53",
"+ c #656565",
"@ c gray45",
"# c gray63",
"$ c white",
/* pixels */
"    ....    ............    XXXX",
"    ....    ............    XXXX",
"    ...ooo  ....OOO...OOO   XXXX",
"    ...ooo  ....OOO...OOO   XXXX",
"....   ooo  ....OOO.  OOOXXX    ",
"....      oooOOOoooooo  XXXX    ",
"....      oooOOOoooooo  XXXX    ",
"....      oooOOOoooooo  XXXX    ",
"       +++@@@@@@@@@@@@+++   ....",
"       +++@@@@@@@@@@@@+++   ....",
"       +++@@@@@@@@@@@@+++   ....",
"       @@@###@@@@@@@@@@@@   ....",
"....XXX@@@###@@@@@@@@@@@@.......",
"....XXX@@@###@@@@@@@@@@@@.......",
"....XXX@@@@@@@@@@@@###@@@.......",
"....XXX@@@@@@@@@@@@###@@@.......",
".......@@@@@@@@@@@@###@@@       ",
".......@@@@@@###@@@@@@@@@       ",
".......@@@@@@###@@@@@@@@@       ",
".......@@@@@@###@@@@@@@@@       ",
"........  @@@@@@@@@@@@  ....XXXX",
"........  @@@@@@@@@@@@  ....XXXX",
"........  @@@@@@@@@@@@  ....XXXX",
"........    .@@@@@@     ....XXXX",
"        .....@@@@@@.............",
"        .....@@@@@@.............",
"        ........................",
"        ........................",
"XXXX    ....................    ",
"XXXX    ....................    ",
"XXXX    ....................    ",
"XXXX    ....................    "
};
