/* XPM */
static char *seed_1[] = {
/* columns rows colors chars-per-pixel */
"32 32 6 1 ",
"  c #90D8E1",
". c #7FD4DF",
"X c #A2DDE5",
"o c #E5EB63",
"O c #90B640",
"+ c white",
/* pixels */
"    ....    ............    XXXX",
"    ....    ............    XXXX",
"    ....    ............    XXXX",
"    ....    ............    XXXX",
"....        ........    XXXX    ",
"....       ooooooOOO    XXXX    ",
"....       ooooooOOO    XXXX    ",
"....       ooooooOOO    XXXX    ",
"        ooooooooooooOOOX    ....",
"        ooooooooooooOOOX    ....",
"        ooooooooooooOOOX    ....",
"        ooooooooooooOOOX    ....",
"....XXXXooooooooooooOOO.........",
"....XXXXooooooooooooOOO.........",
"....XXXX...ooooooOOO............",
"....XXXX...ooooooOOO............",
"...........ooooooOOO....        ",
"...........OOOoooOOO....        ",
"...........OOOoooOOO....        ",
"...........OOOoooOOO....        ",
"........    ..OOO       ....XXXX",
"........    ..OOO       ....XXXX",
"........    ..OOO       ....XXXX",
"........    ....        ....XXXX",
"        ........................",
"        ........................",
"        ........................",
"        ........................",
"XXXX    ....................    ",
"XXXX    ....................    ",
"XXXX    ....................    ",
"XXXX    ....................    "
};
