/* XPM */
static char *seed_4[] = {
/* columns rows colors chars-per-pixel */
"32 32 6 1 ",
"  c #90D8E1",
". c #7FD4DF",
"X c #A2DDE5",
"o c #E5EB63",
"O c #90B640",
"+ c white",
/* pixels */
"    ....   ooooooOOO....    XXXX",
"    ....   ooooooOOO....    XXXX",
"    ....   ooooooOOO....    XXXX",
"    ....ooooooooooooOOO.    XXXX",
"....    ooooooooooooOOO XXXX    ",
"....    ooooooooooooOOO XXXX    ",
"....    ooooooooooooOOO XXXX    ",
"....    ooooooooooooOOO XXXX    ",
"        ooooooooooooOOOX    ....",
"        XXXooooooOOOXXXX    ....",
"        XXXooooooOOOXXXX    ....",
"        XXXooooooOOOXXXX    ....",
"....XXXX...OOOoooOOO............",
"....XXXX...OOOoooOOO............",
"....XXXX...OOOoooOOO............",
"....XXXX......OOO   ............",
"..............OOO.......        ",
"..............OOO.......        ",
"........................        ",
"........................        ",
"........    ....        ....XXXX",
"........    ....        ....XXXX",
"........    ....        ....XXXX",
"........    ....        ....XXXX",
"        ........................",
"        ........................",
"        ........................",
"        ........................",
"XXXX    ....................    ",
"XXXX    ....................    ",
"XXXX    ....................    ",
"XXXX    ....................    "
};
