/* XPM */
static char *seed_3[] = {
/* columns rows colors chars-per-pixel */
"32 32 6 1 ",
"  c #90D8E1",
". c #7FD4DF",
"X c #A2DDE5",
"o c #E5EB63",
"O c #90B640",
"+ c white",
/* pixels */
"    ....    ............    XXXX",
"    ....    ............    XXXX",
"    ....   ooooooOOO....    XXXX",
"    ....   ooooooOOO....    XXXX",
"....       ooooooOOO    XXXX    ",
"....    ooooooooooooOOO XXXX    ",
"....    ooooooooooooOOO XXXX    ",
"....    ooooooooooooOOO XXXX    ",
"        ooooooooooooOOOX    ....",
"        ooooooooooooOOOX    ....",
"        ooooooooooooOOOX    ....",
"        XXXooooooOOOXXXX    ....",
"....XXXX...ooooooOOO............",
"....XXXX...ooooooOOO............",
"....XXXX...OOOoooOOO............",
"....XXXX...OOOoooOOO............",
"...........OOOoooOOO....        ",
"..............OOO.......        ",
"..............OOO.......        ",
"..............OOO.......        ",
"........    ....        ....XXXX",
"........    ....        ....XXXX",
"........    ....        ....XXXX",
"........    ....        ....XXXX",
"        ........................",
"        ........................",
"        ........................",
"        ........................",
"XXXX    ....................    ",
"XXXX    ....................    ",
"XXXX    ....................    ",
"XXXX    ....................    "
};
