/* XPM */
static char *berry_1[] = {
/* columns rows colors chars-per-pixel */
"48 48 9 1 ",
"  c #90D8E1",
". c #7FD4DF",
"X c #A2DDE5",
"o c #477A63",
"O c #3EB367",
"+ c #8A535F",
"@ c #DE4062",
"# c #DB992E",
"$ c white",
/* pixels */
"      ......      ..................      XXXXXX",
"      ......      ..................      XXXXXX",
"      ......      ..................      XXXXXX",
"      ......      ..................      XXXXXX",
"      ......      ..................      XXXXXX",
"      ....ooooo   ......OOOO.....OOOO     XXXXXX",
"......    ooooo   ......OOOO..   OOOOXXXXX      ",
"......    ooooo   ......OOOO..   OOOOXXXXX      ",
"......    ooooo   ......OOOO..   OOOOXXXXX      ",
"......         oooooOOOOooooooooo   XXXXXX      ",
"......         oooooOOOOooooooooo   XXXXXX      ",
"......         oooooOOOOooooooooo   XXXXXX      ",
"            XXXoooooOOOOoooooooooXXX      ......",
"          +++++@@@@@@@@@@@@@@@@@@++++     ......",
"          +++++@@@@@@@@@@@@@@@@@@++++     ......",
"          +++++@@@@@@@@@@@@@@@@@@++++     ......",
"          +++++@@@@@@@@@@@@@@@@@@++++     ......",
"          +++++@@@@@@@@@@@@@@@@@@++++     ......",
"......XXXX@@@@@#####@@@@@@@@@@@@@@@@@...........",
"......XXXX@@@@@#####@@@@@@@@@@@@@@@@@...........",
"......XXXX@@@@@#####@@@@@@@@@@@@@@@@@...........",
"......XXXX@@@@@#####@@@@@@@@@@@@@@@@@...........",
"......XXXX@@@@@#####@@@@@@@@@@@@@@@@@...........",
"......XXXX@@@@@@@@@@@@@@@@@@#####@@@@...........",
"..........@@@@@@@@@@@@@@@@@@#####@@@@           ",
"..........@@@@@@@@@@@@@@@@@@#####@@@@           ",
"..........@@@@@@@@@@@@@@@@@@#####@@@@           ",
"..........@@@@@@@@@@####@@@@@@@@@@@@@           ",
"..........@@@@@@@@@@####@@@@@@@@@@@@@           ",
"..........@@@@@@@@@@####@@@@@@@@@@@@@           ",
"..........@@@@@@@@@@####@@@@@@@@@@@@@.....XXXXXX",
"............   @@@@@@@@@@@@@@@@@@   ......XXXXXX",
"............   @@@@@@@@@@@@@@@@@@   ......XXXXXX",
"............   @@@@@@@@@@@@@@@@@@   ......XXXXXX",
"............   @@@@@@@@@@@@@@@@@@   ......XXXXXX",
"............   @@@@@@@@@@@@@@@@@@   ......XXXXXX",
"            ........@@@@@@@@....................",
"            ........@@@@@@@@....................",
"            ........@@@@@@@@....................",
"            ........@@@@@@@@....................",
"            ....................................",
"            ....................................",
"XXXXXX      ..............................      ",
"XXXXXX      ..............................      ",
"XXXXXX      ..............................      ",
"XXXXXX      ..............................      ",
"XXXXXX      ..............................      ",
"XXXXXX      ..............................      "
};
