/* XPM */
static char *gberry_2[] = {
/* columns rows colors chars-per-pixel */
"48 48 9 1 ",
"  c #90D8E1",
". c #7FD4DF",
"X c #A2DDE5",
"o c #686868",
"O c gray53",
"+ c #656565",
"@ c gray45",
"# c gray63",
"$ c white",
/* pixels */
"      ......      ..................      XXXXXX",
"      ......      ..................      XXXXXX",
"      ......      ..................      XXXXXX",
"      ....ooooo   ......OOOO.....OOOO     XXXXXX",
"      ....ooooo   ......OOOO.....OOOO     XXXXXX",
"      ....ooooo   ......OOOO.....OOOO     XXXXXX",
"......    ooooo   ......OOOO..   OOOOXXXXX      ",
"......         oooooOOOOooooooooo   XXXXXX      ",
"......         oooooOOOOooooooooo   XXXXXX      ",
"......         oooooOOOOooooooooo   XXXXXX      ",
"......         oooooOOOOooooooooo   XXXXXX      ",
"......         oooooOOOOooooooooo   XXXXXX      ",
"          +++++@@@@@@@@@@@@@@@@@@++++     ......",
"          +++++@@@@@@@@@@@@@@@@@@++++     ......",
"          +++++@@@@@@@@@@@@@@@@@@++++     ......",
"          +++++@@@@@@@@@@@@@@@@@@++++     ......",
"          +++++@@@@@@@@@@@@@@@@@@++++     ......",
"          @@@@@#####@@@@@@@@@@@@@@@@@     ......",
"......XXXX@@@@@#####@@@@@@@@@@@@@@@@@...........",
"......XXXX@@@@@#####@@@@@@@@@@@@@@@@@...........",
"......XXXX@@@@@#####@@@@@@@@@@@@@@@@@...........",
"......XXXX@@@@@@@@@@@@@@@@@@#####@@@@...........",
"......XXXX@@@@@@@@@@@@@@@@@@#####@@@@...........",
"......XXXX@@@@@@@@@@@@@@@@@@#####@@@@...........",
"..........@@@@@@@@@@@@@@@@@@#####@@@@           ",
"..........@@@@@@@@@@@@@@@@@@#####@@@@           ",
"..........@@@@@@@@@@####@@@@@@@@@@@@@           ",
"..........@@@@@@@@@@####@@@@@@@@@@@@@           ",
"..........@@@@@@@@@@####@@@@@@@@@@@@@           ",
"..........@@@@@@@@@@####@@@@@@@@@@@@@           ",
"............   @@@@@@@@@@@@@@@@@@   ......XXXXXX",
"............   @@@@@@@@@@@@@@@@@@   ......XXXXXX",
"............   @@@@@@@@@@@@@@@@@@   ......XXXXXX",
"............   @@@@@@@@@@@@@@@@@@   ......XXXXXX",
"............      ..@@@@@@@@        ......XXXXXX",
"............      ..@@@@@@@@        ......XXXXXX",
"            ........@@@@@@@@....................",
"            ........@@@@@@@@....................",
"            ........@@@@@@@@....................",
"            ....................................",
"            ....................................",
"            ....................................",
"XXXXXX      ..............................      ",
"XXXXXX      ..............................      ",
"XXXXXX      ..............................      ",
"XXXXXX      ..............................      ",
"XXXXXX      ..............................      ",
"XXXXXX      ..............................      "
};
