/* XPM */
static char *seed_2[] = {
/* columns rows colors chars-per-pixel */
"48 48 6 1 ",
"  c #90D8E1",
". c #7FD4DF",
"X c #A2DDE5",
"o c #E5EB63",
"O c #90B640",
"+ c white",
/* pixels */
"      ......      ..................      XXXXXX",
"      ......      ..................      XXXXXX",
"      ......      ..................      XXXXXX",
"      ......      ..................      XXXXXX",
"      ......      ..................      XXXXXX",
"      ......      ..................      XXXXXX",
"......           oooooooooOOOOO     XXXXXX      ",
"......           oooooooooOOOOO     XXXXXX      ",
"......           oooooooooOOOOO     XXXXXX      ",
"......           oooooooooOOOOO     XXXXXX      ",
"......       ooooooooooooooooooOOOO XXXXXX      ",
"......       ooooooooooooooooooOOOO XXXXXX      ",
"            XooooooooooooooooooOOOOX      ......",
"            XooooooooooooooooooOOOOX      ......",
"            XooooooooooooooooooOOOOX      ......",
"            XooooooooooooooooooOOOOX      ......",
"            XooooooooooooooooooOOOOX      ......",
"            XooooooooooooooooooOOOOX      ......",
"......XXXXXX.ooooooooooooooooooOOOO.............",
"......XXXXXX.ooooooooooooooooooOOOO.............",
"......XXXXXX.....oooooooooOOOOO.................",
"......XXXXXX.....oooooooooOOOOO.................",
"......XXXXXX.....oooooooooOOOOO.................",
"......XXXXXX.....oooooooooOOOOO.................",
".................OOOOOooooOOOOO.....            ",
".................OOOOOooooOOOOO.....            ",
".................OOOOOooooOOOOO.....            ",
".................OOOOOooooOOOOO.....            ",
"......................OOOO..........            ",
"......................OOOO..........            ",
"............      ....OOOO          ......XXXXXX",
"............      ....OOOO          ......XXXXXX",
"............      ....OOOO          ......XXXXXX",
"............      ......            ......XXXXXX",
"............      ......            ......XXXXXX",
"............      ......            ......XXXXXX",
"            ....................................",
"            ....................................",
"            ....................................",
"            ....................................",
"            ....................................",
"            ....................................",
"XXXXXX      ..............................      ",
"XXXXXX      ..............................      ",
"XXXXXX      ..............................      ",
"XXXXXX      ..............................      ",
"XXXXXX      ..............................      ",
"XXXXXX      ..............................      "
};
