/* XPM */
static char *seed_4[] = {
/* columns rows colors chars-per-pixel */
"48 48 6 1 ",
"  c #90D8E1",
". c #7FD4DF",
"X c #A2DDE5",
"o c #E5EB63",
"O c #90B640",
"+ c white",
/* pixels */
"      ......      ..................      XXXXXX",
"      ......     oooooooooOOOOO.....      XXXXXX",
"      ......     oooooooooOOOOO.....      XXXXXX",
"      ......     oooooooooOOOOO.....      XXXXXX",
"      ......     oooooooooOOOOO.....      XXXXXX",
"      ...... ooooooooooooooooooOOOO.      XXXXXX",
"......       ooooooooooooooooooOOOO XXXXXX      ",
"......       ooooooooooooooooooOOOO XXXXXX      ",
"......       ooooooooooooooooooOOOO XXXXXX      ",
"......       ooooooooooooooooooOOOO XXXXXX      ",
"......       ooooooooooooooooooOOOO XXXXXX      ",
"......       ooooooooooooooooooOOOO XXXXXX      ",
"            XooooooooooooooooooOOOOX      ......",
"            XooooooooooooooooooOOOOX      ......",
"            XXXXXoooooooooOOOOOXXXXX      ......",
"            XXXXXoooooooooOOOOOXXXXX      ......",
"            XXXXXoooooooooOOOOOXXXXX      ......",
"            XXXXXoooooooooOOOOOXXXXX      ......",
"......XXXXXX.....oooooooooOOOOO.................",
"......XXXXXX.....OOOOOooooOOOOO.................",
"......XXXXXX.....OOOOOooooOOOOO.................",
"......XXXXXX.....OOOOOooooOOOOO.................",
"......XXXXXX.....OOOOOooooOOOOO.................",
"......XXXXXX..........OOOO    ..................",
"......................OOOO..........            ",
"......................OOOO..........            ",
"......................OOOO..........            ",
"......................OOOO..........            ",
"....................................            ",
"....................................            ",
"............      ......            ......XXXXXX",
"............      ......            ......XXXXXX",
"............      ......            ......XXXXXX",
"............      ......            ......XXXXXX",
"............      ......            ......XXXXXX",
"............      ......            ......XXXXXX",
"            ....................................",
"            ....................................",
"            ....................................",
"            ....................................",
"            ....................................",
"            ....................................",
"XXXXXX      ..............................      ",
"XXXXXX      ..............................      ",
"XXXXXX      ..............................      ",
"XXXXXX      ..............................      ",
"XXXXXX      ..............................      ",
"XXXXXX      ..............................      "
};
