/* XPM */
static char *berry[] = {
/* columns rows colors chars-per-pixel */
"24 32 6 1 ",
"  c #008751",
". c black",
"X c #00E436",
"o c #7E2553",
"O c #FF004D",
"+ c #FFA300",
/* pixels */
"    ........XXXX....XXXX",
"    ........XXXX....XXXX",
"    ........XXXX....XXXX",
"    ........XXXX....XXXX",
"....    XXXX        ....",
"....    XXXX        ....",
"....    XXXX        ....",
"....    XXXX        ....",
"ooooOOOOOOOOOOOOOOOOoooo",
"ooooOOOOOOOOOOOOOOOOoooo",
"ooooOOOOOOOOOOOOOOOOoooo",
"ooooOOOOOOOOOOOOOOOOoooo",
"OOOO++++OOOOOOOOOOOOOOOO",
"OOOO++++OOOOOOOOOOOOOOOO",
"OOOO++++OOOOOOOOOOOOOOOO",
"OOOO++++OOOOOOOOOOOOOOOO",
"OOOOOOOOOOOOOOOO++++OOOO",
"OOOOOOOOOOOOOOOO++++OOOO",
"OOOOOOOOOOOOOOOO++++OOOO",
"OOOOOOOOOOOOOOOO++++OOOO",
"OOOOOOOO++++OOOOOOOOOOOO",
"OOOOOOOO++++OOOOOOOOOOOO",
"OOOOOOOO++++OOOOOOOOOOOO",
"OOOOOOOO++++OOOOOOOOOOOO",
"ooooOOOOOOOOOOOOOOOOoooo",
"ooooOOOOOOOOOOOOOOOOoooo",
"ooooOOOOOOOOOOOOOOOOoooo",
"ooooOOOOOOOOOOOOOOOOoooo",
"....ooooOOOOOOOOoooo....",
"....ooooOOOOOOOOoooo....",
"....ooooOOOOOOOOoooo....",
"....ooooOOOOOOOOoooo...."
};
