/* XPM */
static char *colon[] = {
/* columns rows colors chars-per-pixel */
"6 18 2 1 ",
"  c #FFF1E8",
". c black",
/* pixels */
"      ",
"      ",
"      ",
"      ",
"      ",
"      ",
"......",
"......",
"......",
"......",
"......",
"......",
"      ",
"      ",
"      ",
"      ",
"      ",
"      "
};
