/* XPM */
static char *player[] = {
/* columns rows colors chars-per-pixel */
"26 32 12 1 ",
"  c black",
". c #D95763",
"X c #AC3232",
"o c #D9A066",
"O c #791E26",
"+ c #EEC39A",
"@ c #45283C",
"# c #639BFF",
"$ c #663931",
"% c #5FCDE4",
"& c #306082",
"* c #3F3F74",
/* pixels */
"            .....XXXXXX   ",
"            .....XXXXXX   ",
"            .....XXXXXX   ",
"         ......XXXXXXXXXXX",
"         ......XXXXXXXXXXX",
"         ......XXXXXXXXXXX",
"      ...XXXXXXooooooooOOO",
"      ...XXXXXXooooooooOOO",
"      ...XXXXXXooooooooOOO",
"      XXXXXX++++++++oooOOO",
"      XXXXXX++++++++oooOOO",
"   ...XXXXXX++++++++oooOOO",
"   ...XXXXXX++++++++oooOOO",
"   ...XXXXXX++++++++oooOOO",
"   ...XXXXXX++++++++oooOOO",
"   ...XXXOOO@@@#####OOO   ",
"   ...XXXOOO@@@#####OOO   ",
"...XXX$$$%%%@@@#####      ",
"...XXX$$$%%%@@@#####      ",
"...XXX$$$%%%@@@#####      ",
"...XXX$$$%%%@@@%%###      ",
"      $$$+++%%%%%###      ",
"      $$$+++%%%%%###      ",
"         $$$&&&&&&&&      ",
"         $$$&&&&&&&&      ",
"         $$$&&&&&&&&      ",
"            &&&  &&&      ",
"            &&&  &&&      ",
"            &&&  &&&      ",
"            ***  ***      ",
"            ***  ***      ",
"            ***  ***      "
};
