/* XPM */
static char *seed[] = {
/* columns rows colors chars-per-pixel */
"24 32 3 1 ",
"  c black",
". c #E5EB63",
"X c #90B640",
/* pixels */
"                        ",
"                        ",
"                        ",
"                        ",
"                        ",
"                        ",
"                        ",
"       ......XXXX       ",
"       ......XXXX       ",
"       ......XXXX       ",
"     ............XX     ",
"     ............XX     ",
"     ............XX     ",
"     ............XX     ",
"     ............XX     ",
"     ............XX     ",
"       ......XXXX       ",
"       ......XXXX       ",
"       ......XXXX       ",
"       XXXX..XXXX       ",
"       XXXX..XXXX       ",
"       XXXX..XXXX       ",
"           XX           ",
"           XX           ",
"           XX           ",
"                        ",
"                        ",
"                        ",
"                        ",
"                        ",
"                        ",
"                        "
};
