/* XPM */
static char *x[] = {
/* columns rows colors chars-per-pixel */
"18 32 2 1 ",
"  c #FFF1E8",
". c black",
/* pixels */
"      ......      ",
"      ......      ",
"      ......      ",
"      ......      ",
"      ......      ",
"      ......      ",
"      ......      ",
"      ......      ",
"      ......      ",
"      ......      ",
"      ......      ",
"      ......      ",
"      ......      ",
"......      ......",
"......      ......",
"......      ......",
"......      ......",
"......      ......",
"......      ......",
"      ......      ",
"      ......      ",
"      ......      ",
"      ......      ",
"      ......      ",
"      ......      ",
"      ......      ",
"      ......      ",
"      ......      ",
"      ......      ",
"      ......      ",
"      ......      ",
"      ......      "
};
