/* XPM */
static char *berry[] = {
/* columns rows colors chars-per-pixel */
"64 64 8 1 ",
"  c #477A63",
". c #8A535F",
"X c #DE4062",
"o c #3EB367",
"O c #DB992E",
"+ c #7FD4DF",
"@ c #90D8E1",
"# c #A2DDE5",
/* pixels */
"@@@@@@@@        @@@@@@@@++++++++oooooooo++++++++oooooooo########",
"@@@@@@@@        @@@@@@@@++++++++oooooooo++++++++oooooooo########",
"@@@@@@@@        @@@@@@@@++++++++oooooooo++++++++oooooooo########",
"@@@@@@@@        @@@@@@@@++++++++oooooooo++++++++oooooooo########",
"@@@@@@@@        @@@@@@@@++++++++oooooooo++++++++oooooooo########",
"@@@@@@@@        @@@@@@@@++++++++oooooooo++++++++oooooooo########",
"@@@@@@@@        @@@@@@@@++++++++oooooooo++++++++oooooooo########",
"@@@@@@@@        @@@@@@@@++++++++oooooooo++++++++oooooooo########",
"++++++++@@@@@@@@        oooooooo                ########@@@@@@@@",
"++++++++@@@@@@@@        oooooooo                ########@@@@@@@@",
"++++++++@@@@@@@@        oooooooo                ########@@@@@@@@",
"++++++++@@@@@@@@        oooooooo                ########@@@@@@@@",
"++++++++@@@@@@@@        oooooooo                ########@@@@@@@@",
"++++++++@@@@@@@@        oooooooo                ########@@@@@@@@",
"++++++++@@@@@@@@        oooooooo                ########@@@@@@@@",
"++++++++@@@@@@@@        oooooooo                ########@@@@@@@@",
"@@@@@@@@........XXXXXXXXXXXXXXXXXXXXXXXXXXXXXXXX........++++++++",
"@@@@@@@@........XXXXXXXXXXXXXXXXXXXXXXXXXXXXXXXX........++++++++",
"@@@@@@@@........XXXXXXXXXXXXXXXXXXXXXXXXXXXXXXXX........++++++++",
"@@@@@@@@........XXXXXXXXXXXXXXXXXXXXXXXXXXXXXXXX........++++++++",
"@@@@@@@@........XXXXXXXXXXXXXXXXXXXXXXXXXXXXXXXX........++++++++",
"@@@@@@@@........XXXXXXXXXXXXXXXXXXXXXXXXXXXXXXXX........++++++++",
"@@@@@@@@........XXXXXXXXXXXXXXXXXXXXXXXXXXXXXXXX........++++++++",
"@@@@@@@@........XXXXXXXXXXXXXXXXXXXXXXXXXXXXXXXX........++++++++",
"++++++++XXXXXXXXOOOOOOOOXXXXXXXXXXXXXXXXXXXXXXXXXXXXXXXX++++++++",
"++++++++XXXXXXXXOOOOOOOOXXXXXXXXXXXXXXXXXXXXXXXXXXXXXXXX++++++++",
"++++++++XXXXXXXXOOOOOOOOXXXXXXXXXXXXXXXXXXXXXXXXXXXXXXXX++++++++",
"++++++++XXXXXXXXOOOOOOOOXXXXXXXXXXXXXXXXXXXXXXXXXXXXXXXX++++++++",
"++++++++XXXXXXXXOOOOOOOOXXXXXXXXXXXXXXXXXXXXXXXXXXXXXXXX++++++++",
"++++++++XXXXXXXXOOOOOOOOXXXXXXXXXXXXXXXXXXXXXXXXXXXXXXXX++++++++",
"++++++++XXXXXXXXOOOOOOOOXXXXXXXXXXXXXXXXXXXXXXXXXXXXXXXX++++++++",
"++++++++XXXXXXXXOOOOOOOOXXXXXXXXXXXXXXXXXXXXXXXXXXXXXXXX++++++++",
"++++++++XXXXXXXXXXXXXXXXXXXXXXXXXXXXXXXXOOOOOOOOXXXXXXXX@@@@@@@@",
"++++++++XXXXXXXXXXXXXXXXXXXXXXXXXXXXXXXXOOOOOOOOXXXXXXXX@@@@@@@@",
"++++++++XXXXXXXXXXXXXXXXXXXXXXXXXXXXXXXXOOOOOOOOXXXXXXXX@@@@@@@@",
"++++++++XXXXXXXXXXXXXXXXXXXXXXXXXXXXXXXXOOOOOOOOXXXXXXXX@@@@@@@@",
"++++++++XXXXXXXXXXXXXXXXXXXXXXXXXXXXXXXXOOOOOOOOXXXXXXXX@@@@@@@@",
"++++++++XXXXXXXXXXXXXXXXXXXXXXXXXXXXXXXXOOOOOOOOXXXXXXXX@@@@@@@@",
"++++++++XXXXXXXXXXXXXXXXXXXXXXXXXXXXXXXXOOOOOOOOXXXXXXXX@@@@@@@@",
"++++++++XXXXXXXXXXXXXXXXXXXXXXXXXXXXXXXXOOOOOOOOXXXXXXXX@@@@@@@@",
"++++++++XXXXXXXXXXXXXXXXOOOOOOOOXXXXXXXXXXXXXXXXXXXXXXXX########",
"++++++++XXXXXXXXXXXXXXXXOOOOOOOOXXXXXXXXXXXXXXXXXXXXXXXX########",
"++++++++XXXXXXXXXXXXXXXXOOOOOOOOXXXXXXXXXXXXXXXXXXXXXXXX########",
"++++++++XXXXXXXXXXXXXXXXOOOOOOOOXXXXXXXXXXXXXXXXXXXXXXXX########",
"++++++++XXXXXXXXXXXXXXXXOOOOOOOOXXXXXXXXXXXXXXXXXXXXXXXX########",
"++++++++XXXXXXXXXXXXXXXXOOOOOOOOXXXXXXXXXXXXXXXXXXXXXXXX########",
"++++++++XXXXXXXXXXXXXXXXOOOOOOOOXXXXXXXXXXXXXXXXXXXXXXXX########",
"++++++++XXXXXXXXXXXXXXXXOOOOOOOOXXXXXXXXXXXXXXXXXXXXXXXX########",
"@@@@@@@@@@@@@@@@XXXXXXXXXXXXXXXXXXXXXXXXXXXXXXXX++++++++++++++++",
"@@@@@@@@@@@@@@@@XXXXXXXXXXXXXXXXXXXXXXXXXXXXXXXX++++++++++++++++",
"@@@@@@@@@@@@@@@@XXXXXXXXXXXXXXXXXXXXXXXXXXXXXXXX++++++++++++++++",
"@@@@@@@@@@@@@@@@XXXXXXXXXXXXXXXXXXXXXXXXXXXXXXXX++++++++++++++++",
"@@@@@@@@@@@@@@@@XXXXXXXXXXXXXXXXXXXXXXXXXXXXXXXX++++++++++++++++",
"@@@@@@@@@@@@@@@@XXXXXXXXXXXXXXXXXXXXXXXXXXXXXXXX++++++++++++++++",
"@@@@@@@@@@@@@@@@XXXXXXXXXXXXXXXXXXXXXXXXXXXXXXXX++++++++++++++++",
"@@@@@@@@@@@@@@@@XXXXXXXXXXXXXXXXXXXXXXXXXXXXXXXX++++++++++++++++",
"########@@@@@@@@++++++++XXXXXXXXXXXXXXXX++++++++++++++++@@@@@@@@",
"########@@@@@@@@++++++++XXXXXXXXXXXXXXXX++++++++++++++++@@@@@@@@",
"########@@@@@@@@++++++++XXXXXXXXXXXXXXXX++++++++++++++++@@@@@@@@",
"########@@@@@@@@++++++++XXXXXXXXXXXXXXXX++++++++++++++++@@@@@@@@",
"########@@@@@@@@++++++++XXXXXXXXXXXXXXXX++++++++++++++++@@@@@@@@",
"########@@@@@@@@++++++++XXXXXXXXXXXXXXXX++++++++++++++++@@@@@@@@",
"########@@@@@@@@++++++++XXXXXXXXXXXXXXXX++++++++++++++++@@@@@@@@",
"########@@@@@@@@++++++++XXXXXXXXXXXXXXXX++++++++++++++++@@@@@@@@"
};
