/* XPM */
static char *gberry[] = {
/* columns rows colors chars-per-pixel */
"64 64 8 1 ",
"  c #717171",
". c gray46",
"X c #7FD4DF",
"o c gray51",
"O c #9B9B9B",
"+ c #B9B9B9",
"@ c #90D8E1",
"# c #A2DDE5",
/* pixels */
"@@@@@@@@........@@@@@@@@XXXXXXXXOOOOOOOOXXXXXXXXOOOOOOOO########",
"@@@@@@@@........@@@@@@@@XXXXXXXXOOOOOOOOXXXXXXXXOOOOOOOO########",
"@@@@@@@@........@@@@@@@@XXXXXXXXOOOOOOOOXXXXXXXXOOOOOOOO########",
"@@@@@@@@........@@@@@@@@XXXXXXXXOOOOOOOOXXXXXXXXOOOOOOOO########",
"@@@@@@@@........@@@@@@@@XXXXXXXXOOOOOOOOXXXXXXXXOOOOOOOO########",
"@@@@@@@@........@@@@@@@@XXXXXXXXOOOOOOOOXXXXXXXXOOOOOOOO########",
"@@@@@@@@........@@@@@@@@XXXXXXXXOOOOOOOOXXXXXXXXOOOOOOOO########",
"@@@@@@@@........@@@@@@@@XXXXXXXXOOOOOOOOXXXXXXXXOOOOOOOO########",
"XXXXXXXX@@@@@@@@........OOOOOOOO................########@@@@@@@@",
"XXXXXXXX@@@@@@@@........OOOOOOOO................########@@@@@@@@",
"XXXXXXXX@@@@@@@@........OOOOOOOO................########@@@@@@@@",
"XXXXXXXX@@@@@@@@........OOOOOOOO................########@@@@@@@@",
"XXXXXXXX@@@@@@@@........OOOOOOOO................########@@@@@@@@",
"XXXXXXXX@@@@@@@@........OOOOOOOO................########@@@@@@@@",
"XXXXXXXX@@@@@@@@........OOOOOOOO................########@@@@@@@@",
"XXXXXXXX@@@@@@@@........OOOOOOOO................########@@@@@@@@",
"@@@@@@@@        oooooooooooooooooooooooooooooooo        XXXXXXXX",
"@@@@@@@@        oooooooooooooooooooooooooooooooo        XXXXXXXX",
"@@@@@@@@        oooooooooooooooooooooooooooooooo        XXXXXXXX",
"@@@@@@@@        oooooooooooooooooooooooooooooooo        XXXXXXXX",
"@@@@@@@@        oooooooooooooooooooooooooooooooo        XXXXXXXX",
"@@@@@@@@        oooooooooooooooooooooooooooooooo        XXXXXXXX",
"@@@@@@@@        oooooooooooooooooooooooooooooooo        XXXXXXXX",
"@@@@@@@@        oooooooooooooooooooooooooooooooo        XXXXXXXX",
"XXXXXXXXoooooooo++++++++ooooooooooooooooooooooooooooooooXXXXXXXX",
"XXXXXXXXoooooooo++++++++ooooooooooooooooooooooooooooooooXXXXXXXX",
"XXXXXXXXoooooooo++++++++ooooooooooooooooooooooooooooooooXXXXXXXX",
"XXXXXXXXoooooooo++++++++ooooooooooooooooooooooooooooooooXXXXXXXX",
"XXXXXXXXoooooooo++++++++ooooooooooooooooooooooooooooooooXXXXXXXX",
"XXXXXXXXoooooooo++++++++ooooooooooooooooooooooooooooooooXXXXXXXX",
"XXXXXXXXoooooooo++++++++ooooooooooooooooooooooooooooooooXXXXXXXX",
"XXXXXXXXoooooooo++++++++ooooooooooooooooooooooooooooooooXXXXXXXX",
"XXXXXXXXoooooooooooooooooooooooooooooooo++++++++oooooooo@@@@@@@@",
"XXXXXXXXoooooooooooooooooooooooooooooooo++++++++oooooooo@@@@@@@@",
"XXXXXXXXoooooooooooooooooooooooooooooooo++++++++oooooooo@@@@@@@@",
"XXXXXXXXoooooooooooooooooooooooooooooooo++++++++oooooooo@@@@@@@@",
"XXXXXXXXoooooooooooooooooooooooooooooooo++++++++oooooooo@@@@@@@@",
"XXXXXXXXoooooooooooooooooooooooooooooooo++++++++oooooooo@@@@@@@@",
"XXXXXXXXoooooooooooooooooooooooooooooooo++++++++oooooooo@@@@@@@@",
"XXXXXXXXoooooooooooooooooooooooooooooooo++++++++oooooooo@@@@@@@@",
"XXXXXXXXoooooooooooooooo++++++++oooooooooooooooooooooooo########",
"XXXXXXXXoooooooooooooooo++++++++oooooooooooooooooooooooo########",
"XXXXXXXXoooooooooooooooo++++++++oooooooooooooooooooooooo########",
"XXXXXXXXoooooooooooooooo++++++++oooooooooooooooooooooooo########",
"XXXXXXXXoooooooooooooooo++++++++oooooooooooooooooooooooo########",
"XXXXXXXXoooooooooooooooo++++++++oooooooooooooooooooooooo########",
"XXXXXXXXoooooooooooooooo++++++++oooooooooooooooooooooooo########",
"XXXXXXXXoooooooooooooooo++++++++oooooooooooooooooooooooo########",
"@@@@@@@@@@@@@@@@ooooooooooooooooooooooooooooooooXXXXXXXXXXXXXXXX",
"@@@@@@@@@@@@@@@@ooooooooooooooooooooooooooooooooXXXXXXXXXXXXXXXX",
"@@@@@@@@@@@@@@@@ooooooooooooooooooooooooooooooooXXXXXXXXXXXXXXXX",
"@@@@@@@@@@@@@@@@ooooooooooooooooooooooooooooooooXXXXXXXXXXXXXXXX",
"@@@@@@@@@@@@@@@@ooooooooooooooooooooooooooooooooXXXXXXXXXXXXXXXX",
"@@@@@@@@@@@@@@@@ooooooooooooooooooooooooooooooooXXXXXXXXXXXXXXXX",
"@@@@@@@@@@@@@@@@ooooooooooooooooooooooooooooooooXXXXXXXXXXXXXXXX",
"@@@@@@@@@@@@@@@@ooooooooooooooooooooooooooooooooXXXXXXXXXXXXXXXX",
"########@@@@@@@@XXXXXXXXooooooooooooooooXXXXXXXXXXXXXXXX@@@@@@@@",
"########@@@@@@@@XXXXXXXXooooooooooooooooXXXXXXXXXXXXXXXX@@@@@@@@",
"########@@@@@@@@XXXXXXXXooooooooooooooooXXXXXXXXXXXXXXXX@@@@@@@@",
"########@@@@@@@@XXXXXXXXooooooooooooooooXXXXXXXXXXXXXXXX@@@@@@@@",
"########@@@@@@@@XXXXXXXXooooooooooooooooXXXXXXXXXXXXXXXX@@@@@@@@",
"########@@@@@@@@XXXXXXXXooooooooooooooooXXXXXXXXXXXXXXXX@@@@@@@@",
"########@@@@@@@@XXXXXXXXooooooooooooooooXXXXXXXXXXXXXXXX@@@@@@@@",
"########@@@@@@@@XXXXXXXXooooooooooooooooXXXXXXXXXXXXXXXX@@@@@@@@"
};
