/* XPM */
static char *pf4[] = {
/* columns rows colors chars-per-pixel */
"64 64 13 1 ",
"  c #791E26",
". c #663931",
"X c #3F3F74",
"o c #AC3232",
"O c #D95763",
"+ c #D9A066",
"@ c #306082",
"# c #639BFF",
"$ c #7FD4DF",
"% c #5FCDE4",
"& c #EEC39A",
"* c #90D8E1",
"= c #A2DDE5",
/* pixels */
"********$$$$$$$$********$$ooooooooooooooooooOOOOOOOOOOO*========",
"********$$$$$$$$********$$ooooooooooooooooooOOOOOOOOOOO*========",
"********$$$$$$$$********$$ooooooooooooooooooOOOOOOOOOOO*========",
"********$$$$$$$$********$$ooooooooooooooooooOOOOOOOOOOO*========",
"********$$$$$$$$********$$ooooooooooooooooooOOOOOOOOOOO*========",
"********$$$$$$$$********$$ooooooooooooooooooOOOOOOOOOOO*========",
"********$$$$$$$$****oooooooooooooooooooooooooooooOOOOOOOOOOOO===",
"********$$$$$$$$****oooooooooooooooooooooooooooooOOOOOOOOOOOO===",
"$$$$$$$$************oooooooooooooooooooooooooooooOOOOOOOOOOOO***",
"$$$$$$$$************oooooooooooooooooooooooooooooOOOOOOOOOOOO***",
"$$$$$$$$************oooooooooooooooooooooooooooooOOOOOOOOOOOO***",
"$$$$$$$$************oooooooooooooooooooooooooooooOOOOOOOOOOOO***",
"$$$$$$$$*******ooooooooooooooooo++++++++++++&&&&&oooooooooooo***",
"$$$$$$$$*******ooooooooooooooooo++++++++++++&&&&&oooooooooooo***",
"$$$$$$$$*******ooooooooooooooooo++++++++++++&&&&&oooooooooooo***",
"$$$$$$$$*******ooooooooooooooooo++++++++++++&&&&&oooooooooooo***",
"***************ooooooooooooooooo++++++++++++&&&&&oooooooooooo$$$",
"***************     oooooo++++++&&&&&&&&&&&&&&&&&&&&&&&oooooo$$$",
"***************     oooooo++++++&&&&&&&&&&&&&&&&&&&&&&&oooooo$$$",
"***************     oooooo++++++&&&&&&&&&&&&&&&&&&&&&&&oooooo$$$",
"***************     oooooo++++++&&&&&&&&&&&&&&&&&&&&&&&oooooo$$$",
"***************     oooooo++++++&&&&&&&&&&&&&&&&&&&&&&&oooooo$$$",
"***************     oooooo++++++&&&&&&&&&&&&&&&&&&&&&&&oooooo$$$",
"***************           ++++++&&&&&&&&&&&&&&&&&&&&&&&oooooo$$$",
"$$$$$$$$=======           ++++++&&&&&&&&&&&&&&&&&&&&&&&oooooo$$$",
"$$$$$$$$=======           ++++++&&&&&&&&&&&&&&&&&&&&&&&oooooo$$$",
"$$$$$$$$=======           ++++++&&&&&&&&&&&&&&&&&&&&&&&oooooo$$$",
"$$$$$$$$=======           ++++++&&&&&&&&&&&&&&&&&&&&&&&oooooo$$$",
"$$$$$$$$=======           ++++++&&&&&&&&&&&&&&&&&&&&&&&oooooo$$$",
"$$$$$$$$=                 oooooo......######.....oooooo$$$$$$$$$",
"$$$$$$$$=                 oooooo......######.....oooooo$$$$$$$$$",
"$$$$$$$$=                 oooooo......######.....oooooo$$$$$$$$$",
"$$$$$$$$$                 oooooo......######.....oooooo*********",
"$$$$$$$$$                 oooooo......######.....oooooo*********",
"$$$$$$$$$                 oooooo......######.....oooooo*********",
"$$$$$$$$$                 ######......%%%%%%.....%%%%%%*********",
"$$$$$$$$$                 ######......%%%%%%.....%%%%%%*********",
"$$$$$$$$$                 ######......%%%%%%.....%%%%%%*********",
"$$$$$$$$$                 ######......%%%%%%.....%%%%%%*********",
"$$$$$$$$$                 ######......%%%%%%.....%%%%%%*********",
"$$$$$$$$$                 ######......%%%%%%.....%%%%%%$========",
"$$$                 ****$$&&&&&&%%%%%%%%%%%%%%%%%&&&&&&$========",
"$$$                 ****$$&&&&&&%%%%%%%%%%%%%%%%%&&&&&&$========",
"$$$                 ****$$&&&&&&%%%%%%%%%%%%%%%%%&&&&&&$========",
"$$$                 ****$$&&&&&&%%%%%%%%%%%%%%%%%&&&&&&$========",
"$$$                 ****$$&&&&&&%%%%%%%%%%%%%%%%%&&&&&&$========",
"$$$                 ****$$&&&&&&%%%%%%%%%%%%%%%%%&&&&&&$========",
"$$$$$$$$$$$$$$$$********$$$$$$$$@@@@@@@@@@@@@@@@@$$$$$$$========",
"****************$$$$$$$$$$$$$$$$@@@@@@@@@@@@@@@@@$$$$$$$$$$$$$$$",
"****************$$$$$$$$$$$$$$$$@@@@@@@@@@@@@@@@@$$$$$$$$$$$$$$$",
"****************$$$$$$$$$$$$$$$$@@@@@@@@@@@@@@@@@$$$$$$$$$$$$$$$",
"****************$$$$$$$$$$$$$$$$@@@@@@@@@@@@@@@@@$$$$$$$$$$$$$$$",
"****************$$$$$$$$$$$$$$$$@@@@@@$$$$$$@@@@@$$$$$$$$$$$$$$$",
"****************$$$$$$$$$$$$$$$$@@@@@@$$$$$$@@@@@$$$$$$$$$$$$$$$",
"****************$$$$$$$$$$$$$$$$@@@@@@$$$$$$@@@@@$$$$$$$$$$$$$$$",
"****************$$$$$$$$$$$$$$$$@@@@@@$$$$$$@@@@@$$$$$$$$$$$$$$$",
"========********$$$$$$$$$$$$$$$$@@@@@@$$$$$$@@@@@$$$$$$$********",
"========********$$$$$$$$$$$$$$$$@@@@@@$$$$$$@@@@@$$$$$$$********",
"========********$$$$$$$$$$$$$$$$XXXXXX$$$$$$XXXXX$$$$$$$********",
"========********$$$$$$$$$$$$$$$$XXXXXX$$$$$$XXXXX$$$$$$$********",
"========********$$$$$$$$$$$$$$$$XXXXXX$$$$$$XXXXX$$$$$$$********",
"========********$$$$$$$$$$$$$$$$XXXXXX$$$$$$XXXXX$$$$$$$********",
"========********$$$$$$$$$$$$$$$$XXXXXX$$$$$$XXXXX$$$$$$$********",
"========********$$$$$$$$$$$$$$$$XXXXXX$$$$$$XXXXX$$$$$$$********"
};
