/* XPM */
static char *seed[] = {
/* columns rows colors chars-per-pixel */
"64 64 6 1 ",
"  c black",
". c #90B640",
"X c #E5EB63",
"o c #7FD4DF",
"O c #90D8E1",
"+ c #A2DDE5",
/* pixels */
"OOOOOOOOooooooooOOOO                        ooooOOOOOOOO++++++++",
"OOOOOOOOooooooooOOOO                        ooooOOOOOOOO++++++++",
"OOOOOOOOooooooooOOOO                        ooooOOOOOOOO++++++++",
"OOOOOOOOooooooooOOOO                        ooooOOOOOOOO++++++++",
"OOOOOOOOooooooooOOOO                        ooooOOOOOOOO++++++++",
"OOOOOOOOooooooooOOOO                        ooooOOOOOOOO++++++++",
"OOOOOOOOooooooooOOOO                        ooooOOOOOOOO++++++++",
"OOOOOOOOooooooooOOOO                        ooooOOOOOOOO++++++++",
"ooooooooOOOO        XXXXXXXXXXXXXXXX........        ++++OOOOOOOO",
"ooooooooOOOO        XXXXXXXXXXXXXXXX........        ++++OOOOOOOO",
"ooooooooOOOO        XXXXXXXXXXXXXXXX........        ++++OOOOOOOO",
"ooooooooOOOO        XXXXXXXXXXXXXXXX........        ++++OOOOOOOO",
"ooooooooOOOO        XXXXXXXXXXXXXXXX........        ++++OOOOOOOO",
"ooooooooOOOO        XXXXXXXXXXXXXXXX........        ++++OOOOOOOO",
"ooooooooOOOO        XXXXXXXXXXXXXXXX........        ++++OOOOOOOO",
"ooooooooOOOO        XXXXXXXXXXXXXXXX........        ++++OOOOOOOO",
"OOOO        XXXXXXXXXXXXXXXXXXXXXXXXXXXXXXXX........        oooo",
"OOOO        XXXXXXXXXXXXXXXXXXXXXXXXXXXXXXXX........        oooo",
"OOOO        XXXXXXXXXXXXXXXXXXXXXXXXXXXXXXXX........        oooo",
"OOOO        XXXXXXXXXXXXXXXXXXXXXXXXXXXXXXXX........        oooo",
"OOOO        XXXXXXXXXXXXXXXXXXXXXXXXXXXXXXXX........        oooo",
"OOOO        XXXXXXXXXXXXXXXXXXXXXXXXXXXXXXXX........        oooo",
"OOOO        XXXXXXXXXXXXXXXXXXXXXXXXXXXXXXXX........        oooo",
"OOOO        XXXXXXXXXXXXXXXXXXXXXXXXXXXXXXXX........        oooo",
"oooo        XXXXXXXXXXXXXXXXXXXXXXXXXXXXXXXX........        oooo",
"oooo        XXXXXXXXXXXXXXXXXXXXXXXXXXXXXXXX........        oooo",
"oooo        XXXXXXXXXXXXXXXXXXXXXXXXXXXXXXXX........        oooo",
"oooo        XXXXXXXXXXXXXXXXXXXXXXXXXXXXXXXX........        oooo",
"oooo        XXXXXXXXXXXXXXXXXXXXXXXXXXXXXXXX........        oooo",
"oooo        XXXXXXXXXXXXXXXXXXXXXXXXXXXXXXXX........        oooo",
"oooo        XXXXXXXXXXXXXXXXXXXXXXXXXXXXXXXX........        oooo",
"oooo        XXXXXXXXXXXXXXXXXXXXXXXXXXXXXXXX........        oooo",
"oooooooooooo        XXXXXXXXXXXXXXXX........        OOOOOOOOOOOO",
"oooooooooooo        XXXXXXXXXXXXXXXX........        OOOOOOOOOOOO",
"oooooooooooo        XXXXXXXXXXXXXXXX........        OOOOOOOOOOOO",
"oooooooooooo        XXXXXXXXXXXXXXXX........        OOOOOOOOOOOO",
"oooooooooooo        XXXXXXXXXXXXXXXX........        OOOOOOOOOOOO",
"oooooooooooo        XXXXXXXXXXXXXXXX........        OOOOOOOOOOOO",
"oooooooooooo        XXXXXXXXXXXXXXXX........        OOOOOOOOOOOO",
"oooooooooooo        XXXXXXXXXXXXXXXX........        OOOOOOOOOOOO",
"oooooooooooo        ........XXXXXXXX........        oooo++++++++",
"oooooooooooo        ........XXXXXXXX........        oooo++++++++",
"oooooooooooo        ........XXXXXXXX........        oooo++++++++",
"oooooooooooo        ........XXXXXXXX........        oooo++++++++",
"oooooooooooo        ........XXXXXXXX........        oooo++++++++",
"oooooooooooo        ........XXXXXXXX........        oooo++++++++",
"oooooooooooo        ........XXXXXXXX........        oooo++++++++",
"oooooooooooo        ........XXXXXXXX........        oooo++++++++",
"OOOOOOOOOOOOOOOOoooo        ........        oooooooooooooooooooo",
"OOOOOOOOOOOOOOOOoooo        ........        oooooooooooooooooooo",
"OOOOOOOOOOOOOOOOoooo        ........        oooooooooooooooooooo",
"OOOOOOOOOOOOOOOOoooo        ........        oooooooooooooooooooo",
"OOOOOOOOOOOOOOOOoooo        ........        oooooooooooooooooooo",
"OOOOOOOOOOOOOOOOoooo        ........        oooooooooooooooooooo",
"OOOOOOOOOOOOOOOOoooo        ........        oooooooooooooooooooo",
"OOOOOOOOOOOOOOOOoooo        ........        oooooooooooooooooooo",
"++++++++OOOOOOOOoooooooooooo        ooooooooooooooooooooOOOOOOOO",
"++++++++OOOOOOOOoooooooooooo        ooooooooooooooooooooOOOOOOOO",
"++++++++OOOOOOOOoooooooooooo        ooooooooooooooooooooOOOOOOOO",
"++++++++OOOOOOOOoooooooooooo        ooooooooooooooooooooOOOOOOOO",
"++++++++OOOOOOOOoooooooooooo        ooooooooooooooooooooOOOOOOOO",
"++++++++OOOOOOOOoooooooooooo        ooooooooooooooooooooOOOOOOOO",
"++++++++OOOOOOOOoooooooooooo        ooooooooooooooooooooOOOOOOOO",
"++++++++OOOOOOOOoooooooooooo        ooooooooooooooooooooOOOOOOOO"
};
