/* XPM */
static char *_a0ca1493d984cf7a4b68f018ea3daadoJ3wXUaF26gxP6NM[] = {
/* columns rows colors chars-per-pixel */
"64 64 12 1 ",
"  c None",
". c #791E26",
"X c #45283C",
"o c #663931",
"O c #3F3F74",
"+ c #AC3232",
"@ c #D95763",
"# c #D9A066",
"$ c #306082",
"% c #639BFF",
"& c #5FCDE4",
"* c #EEC39A",
/* pixels */
"                                +++++++++++++@@@@@@@@@@         ",
"                                +++++++++++++@@@@@@@@@@         ",
"                                +++++++++++++@@@@@@@@@@         ",
"                                +++++++++++++@@@@@@@@@@         ",
"                                +++++++++++++@@@@@@@@@@         ",
"                                +++++++++++++@@@@@@@@@@         ",
"                          +++++++++++++++++++++++++++++@@@@@@   ",
"                          +++++++++++++++++++++++++++++@@@@@@   ",
"                          +++++++++++++++++++++++++++++@@@@@@   ",
"                          +++++++++++++++++++++++++++++@@@@@@   ",
"                          +++++++++++++++++++++++++++++@@@@@@   ",
"                    ++++++++++++++++++#################++++++   ",
"                    ++++++++++++++++++#################++++++   ",
"                    ++++++++++++++++++#################++++++   ",
"                    ++++++++++++++++++#################++++++   ",
"                    ++++++++++++++++++#################++++++   ",
"                    ++++++++++++++++++#################++++++   ",
"                    ++++++......######*****************++++++   ",
"                    ++++++......######*****************++++++   ",
"                    ++++++......######*****************++++++   ",
"                    ++++++......######*****************++++++   ",
"                    ++++++......######*****************++++++   ",
"                    ++++++......######*****************++++++   ",
"              ++++++............######*****************++++++   ",
"              ++++++............######*****************++++++   ",
"              ++++++............######*****************++++++   ",
"              ++++++............######*****************++++++   ",
"              ++++++............######*****************++++++   ",
"              ++++++............######*****************++++++   ",
"        ........................oooooo%%%%%%%%%%%%.....         ",
"        ........................oooooo%%%%%%%%%%%%.....         ",
"        ........................oooooo%%%%%%%%%%%%.....         ",
"        ........................oooooo%%%%%%%%%%%%.....         ",
"        ........................oooooo%%%%%%%%%%%%.....         ",
"        ........................oooooo%%%%%%%%%%%%.....         ",
"        ........................oooooo%%%%%%%%%%%%.....         ",
"  ..................XXXXXX&&&&&&oooooo%%%%%%&&&&&&              ",
"  ..................XXXXXX&&&&&&oooooo%%%%%%&&&&&&              ",
"  ..................XXXXXX&&&&&&oooooo%%%%%%&&&&&&              ",
"  ..................XXXXXX&&&&&&oooooo%%%%%%&&&&&&              ",
"  ..................XXXXXX&&&&&&oooooo%%%%%%&&&&&&              ",
"                    XXXXXX******%%%%%%&&&&&&&&&&&&              ",
"                    XXXXXX******%%%%%%&&&&&&&&&&&&              ",
"                    XXXXXX******%%%%%%&&&&&&&&&&&&              ",
"                    XXXXXX******%%%%%%&&&&&&&&&&&&              ",
"                    XXXXXX******%%%%%%&&&&&&&&&&&&              ",
"                    XXXXXX******%%%%%%&&&&&&&&&&&&              ",
"                          XXXXXX$$$$$$$$$$$$$$$$$$              ",
"                          XXXXXX$$$$$$$$$$$$$$$$$$              ",
"                          XXXXXX$$$$$$$$$$$$$$$$$$              ",
"                          XXXXXX$$$$$$$$$$$$$$$$$$              ",
"                          XXXXXX$$$$$$$$$$$$$$$$$$              ",
"                          XXXXXX$$$$$$$$$$$$$$$$$$              ",
"                                $$$$$$      $$$$$$              ",
"                                $$$$$$      $$$$$$              ",
"                                $$$$$$      $$$$$$              ",
"                                $$$$$$      $$$$$$              ",
"                                $$$$$$      $$$$$$              ",
"                                $$$$$$      $$$$$$              ",
"                                OOOOOO      OOOOOO              ",
"                                OOOOOO      OOOOOO              ",
"                                OOOOOO      OOOOOO              ",
"                                OOOOOO      OOOOOO              ",
"                                OOOOOO      OOOOOO              "
};
