/* XPM */
static char *_[] = {
/* columns rows colors chars-per-pixel */
"27 48 2 1 ",
"  c #FFF1E8",
". c black",
/* pixels */
"                           ",
"                           ",
"                           ",
"                           ",
"                           ",
"                           ",
"                           ",
"                           ",
"                           ",
"         .........         ",
"         .........         ",
"         .........         ",
"         .........         ",
"         .........         ",
"         .........         ",
"         .........         ",
"         .........         ",
"         .........         ",
"         .........         ",
"                           ",
"                           ",
"                           ",
"                           ",
"                           ",
"                           ",
"                           ",
"                           ",
"                           ",
"         .........         ",
"         .........         ",
"         .........         ",
"         .........         ",
"         .........         ",
"         .........         ",
"         .........         ",
"         .........         ",
"         .........         ",
"         .........         ",
"                           ",
"                           ",
"                           ",
"                           ",
"                           ",
"                           ",
"                           ",
"                           ",
"                           ",
"                           "
};
