/* XPM */
static char *berry[] = {
/* columns rows colors chars-per-pixel */
"36 48 6 1 ",
"  c #008751",
". c black",
"X c #00E436",
"o c #7E2553",
"O c #FF004D",
"+ c #FFA300",
/* pixels */
"      ............XXXXXX......XXXXXX",
"      ............XXXXXX......XXXXXX",
"      ............XXXXXX......XXXXXX",
"      ............XXXXXX......XXXXXX",
"      ............XXXXXX......XXXXXX",
"      ............XXXXXX......XXXXXX",
"......      XXXXXX            ......",
"......      XXXXXX            ......",
"......      XXXXXX            ......",
"......      XXXXXX            ......",
"......      XXXXXX            ......",
"......      XXXXXX            ......",
"ooooooOOOOOOOOOOOOOOOOOOOOOOOOoooooo",
"ooooooOOOOOOOOOOOOOOOOOOOOOOOOoooooo",
"ooooooOOOOOOOOOOOOOOOOOOOOOOOOoooooo",
"ooooooOOOOOOOOOOOOOOOOOOOOOOOOoooooo",
"ooooooOOOOOOOOOOOOOOOOOOOOOOOOoooooo",
"ooooooOOOOOOOOOOOOOOOOOOOOOOOOoooooo",
"OOOOOO++++++OOOOOOOOOOOOOOOOOOOOOOOO",
"OOOOOO++++++OOOOOOOOOOOOOOOOOOOOOOOO",
"OOOOOO++++++OOOOOOOOOOOOOOOOOOOOOOOO",
"OOOOOO++++++OOOOOOOOOOOOOOOOOOOOOOOO",
"OOOOOO++++++OOOOOOOOOOOOOOOOOOOOOOOO",
"OOOOOO++++++OOOOOOOOOOOOOOOOOOOOOOOO",
"OOOOOOOOOOOOOOOOOOOOOOOO++++++OOOOOO",
"OOOOOOOOOOOOOOOOOOOOOOOO++++++OOOOOO",
"OOOOOOOOOOOOOOOOOOOOOOOO++++++OOOOOO",
"OOOOOOOOOOOOOOOOOOOOOOOO++++++OOOOOO",
"OOOOOOOOOOOOOOOOOOOOOOOO++++++OOOOOO",
"OOOOOOOOOOOOOOOOOOOOOOOO++++++OOOOOO",
"OOOOOOOOOOOO++++++OOOOOOOOOOOOOOOOOO",
"OOOOOOOOOOOO++++++OOOOOOOOOOOOOOOOOO",
"OOOOOOOOOOOO++++++OOOOOOOOOOOOOOOOOO",
"OOOOOOOOOOOO++++++OOOOOOOOOOOOOOOOOO",
"OOOOOOOOOOOO++++++OOOOOOOOOOOOOOOOOO",
"OOOOOOOOOOOO++++++OOOOOOOOOOOOOOOOOO",
"ooooooOOOOOOOOOOOOOOOOOOOOOOOOoooooo",
"ooooooOOOOOOOOOOOOOOOOOOOOOOOOoooooo",
"ooooooOOOOOOOOOOOOOOOOOOOOOOOOoooooo",
"ooooooOOOOOOOOOOOOOOOOOOOOOOOOoooooo",
"ooooooOOOOOOOOOOOOOOOOOOOOOOOOoooooo",
"ooooooOOOOOOOOOOOOOOOOOOOOOOOOoooooo",
"......ooooooOOOOOOOOOOOOoooooo......",
"......ooooooOOOOOOOOOOOOoooooo......",
"......ooooooOOOOOOOOOOOOoooooo......",
"......ooooooOOOOOOOOOOOOoooooo......",
"......ooooooOOOOOOOOOOOOoooooo......",
"......ooooooOOOOOOOOOOOOoooooo......"
};
