/* XPM */
static char *colon[] = {
/* columns rows colors chars-per-pixel */
"9 28 2 1 ",
"  c #FFF1E8",
". c black",
/* pixels */
"         ",
"         ",
"         ",
"         ",
"         ",
"         ",
"         ",
"         ",
"         ",
"         ",
".........",
".........",
".........",
".........",
".........",
".........",
".........",
".........",
"         ",
"         ",
"         ",
"         ",
"         ",
"         ",
"         ",
"         ",
"         ",
"         "
};
