/* XPM */
static char *player[] = {
/* columns rows colors chars-per-pixel */
"39 48 12 1 ",
"  c black",
". c #D95763",
"X c #AC3232",
"o c #D9A066",
"O c #791E26",
"+ c #EEC39A",
"@ c #45283C",
"# c #639BFF",
"$ c #663931",
"% c #5FCDE4",
"& c #306082",
"* c #3F3F74",
/* pixels */
"                  ........XXXXXXXXX    ",
"                  ........XXXXXXXXX    ",
"                  ........XXXXXXXXX    ",
"                  ........XXXXXXXXX    ",
"                  ........XXXXXXXXX    ",
"             .........XXXXXXXXXXXXXXXXX",
"             .........XXXXXXXXXXXXXXXXX",
"             .........XXXXXXXXXXXXXXXXX",
"             .........XXXXXXXXXXXXXXXXX",
"         ....XXXXXXXXXoooooooooooooOOOO",
"         ....XXXXXXXXXoooooooooooooOOOO",
"         ....XXXXXXXXXoooooooooooooOOOO",
"         ....XXXXXXXXXoooooooooooooOOOO",
"         XXXXXXXXX++++++++++++oooooOOOO",
"         XXXXXXXXX++++++++++++oooooOOOO",
"         XXXXXXXXX++++++++++++oooooOOOO",
"         XXXXXXXXX++++++++++++oooooOOOO",
"     ....XXXXXXXXX++++++++++++oooooOOOO",
"     ....XXXXXXXXX++++++++++++oooooOOOO",
"     ....XXXXXXXXX++++++++++++oooooOOOO",
"     ....XXXXXXXXX++++++++++++oooooOOOO",
"     ....XXXXXXXXX++++++++++++oooooOOOO",
"     ....XXXXOOOOO@@@@########OOOOO    ",
"     ....XXXXOOOOO@@@@########OOOOO    ",
"     ....XXXXOOOOO@@@@########OOOOO    ",
"     ....XXXXOOOOO@@@@########OOOOO    ",
"....XXXXX$$$$%%%%%@@@@########         ",
"....XXXXX$$$$%%%%%@@@@########         ",
"....XXXXX$$$$%%%%%@@@@########         ",
"....XXXXX$$$$%%%%%@@@@########         ",
"....XXXXX$$$$%%%%%@@@@%%%%####         ",
"         $$$$+++++%%%%%%%%####         ",
"         $$$$+++++%%%%%%%%####         ",
"         $$$$+++++%%%%%%%%####         ",
"         $$$$+++++%%%%%%%%####         ",
"             $$$$$&&&&&&&&&&&&         ",
"             $$$$$&&&&&&&&&&&&         ",
"             $$$$$&&&&&&&&&&&&         ",
"             $$$$$&&&&&&&&&&&&         ",
"                  &&&&    &&&&         ",
"                  &&&&    &&&&         ",
"                  &&&&    &&&&         ",
"                  &&&&    &&&&         ",
"                  ****    ****         ",
"                  ****    ****         ",
"                  ****    ****         ",
"                  ****    ****         ",
"                  ****    ****         "
};
