/* XPM */
static char *seed[] = {
/* columns rows colors chars-per-pixel */
"36 48 3 1 ",
"  c black",
". c #E5EB63",
"X c #90B640",
/* pixels */
"                                    ",
"                                    ",
"                                    ",
"                                    ",
"                                    ",
"                                    ",
"                                    ",
"                                    ",
"                                    ",
"                                    ",
"           .........XXXXX           ",
"           .........XXXXX           ",
"           .........XXXXX           ",
"           .........XXXXX           ",
"           .........XXXXX           ",
"       ..................XXXX       ",
"       ..................XXXX       ",
"       ..................XXXX       ",
"       ..................XXXX       ",
"       ..................XXXX       ",
"       ..................XXXX       ",
"       ..................XXXX       ",
"       ..................XXXX       ",
"       ..................XXXX       ",
"           .........XXXXX           ",
"           .........XXXXX           ",
"           .........XXXXX           ",
"           .........XXXXX           ",
"           XXXXX....XXXXX           ",
"           XXXXX....XXXXX           ",
"           XXXXX....XXXXX           ",
"           XXXXX....XXXXX           ",
"           XXXXX....XXXXX           ",
"                XXXX                ",
"                XXXX                ",
"                XXXX                ",
"                XXXX                ",
"                                    ",
"                                    ",
"                                    ",
"                                    ",
"                                    ",
"                                    ",
"                                    ",
"                                    ",
"                                    ",
"                                    ",
"                                    "
};
