/* XPM */
static char *pb3[] = {
/* columns rows colors chars-per-pixel */
"64 64 12 1 ",
"  c #791E26",
". c #45283C",
"X c #663931",
"o c #3F3F74",
"O c #AC3232",
"+ c #D95763",
"@ c #306082",
"# c #7FD4DF",
"$ c #5FCDE4",
"% c #EEC39A",
"& c #90D8E1",
"* c #A2DDE5",
/* pixels */
"&&&&&&&&########&&&&&&&&########################&&&&&&&&********",
"&&&&&&&&########&&&&&&&&########################&&&&&&&&********",
"&&&&&&&&########&&&&&&&&########################&&&&&&&&********",
"&&&&&&&&########&&&&&&&&########################&&&&&&&&********",
"&&&&&&&&########&&&&&&&&########################&&&&&&&&********",
"&&&&&&&&########&&&&&&&&########################&&&&&&&&********",
"&&&&&&&&#OOOOOOOOOOOOOOOOO++++++++++++##########&&&&&&&&********",
"&&&&&&&&#OOOOOOOOOOOOOOOOO++++++++++++##########&&&&&&&&********",
"########&OOOOOOOOOOOOOOOOO++++++++++++##&&&&&&&&********&&&&&&&&",
"########&OOOOOOOOOOOOOOOOO++++++++++++##&&&&&&&&********&&&&&&&&",
"########&OOOOOOOOOOOOOOOOO++++++++++++##&&&&&&&&********&&&&&&&&",
"########&OOOOOOOOOOOOOOOOO++++++++++++##&&&&&&&&********&&&&&&&&",
"###      OOOOOOOOOOOOOOOOOOOOOOO++++++++++++&&&&********&&&&&&&&",
"###      OOOOOOOOOOOOOOOOOOOOOOO++++++++++++&&&&********&&&&&&&&",
"###      OOOOOOOOOOOOOOOOOOOOOOO++++++++++++&&&&********&&&&&&&&",
"###      OOOOOOOOOOOOOOOOOOOOOOO++++++++++++&&&&********&&&&&&&&",
"&&&      OOOOOOOOOOOOOOOOOOOOOOO++++++++++++****&&&&&&&&########",
"&&&            OOOOOOOOOOOOOOOOOOOOOOOOOOOOO+++++&&&&&&&########",
"&&&            OOOOOOOOOOOOOOOOOOOOOOOOOOOOO+++++&&&&&&&########",
"&&&            OOOOOOOOOOOOOOOOOOOOOOOOOOOOO+++++&&&&&&&########",
"&&&            OOOOOOOOOOOOOOOOOOOOOOOOOOOOO+++++&&&&&&&########",
"&&&            OOOOOOOOOOOOOOOOOOOOOOOOOOOOO+++++&&&&&&&########",
"&&&            OOOOOOOOOOOOOOOOOOOOOOOOOOOOO+++++&&&&&&&########",
"&&&                 OOOOOOOOOOOOOOOOOOOOOOOO+++++&&&&&&&########",
"###                 OOOOOOOOOOOOOOOOOOOOOOOO+++++###############",
"###                 OOOOOOOOOOOOOOOOOOOOOOOO+++++###############",
"###                 OOOOOOOOOOOOOOOOOOOOOOOO+++++###############",
"###                 OOOOOOOOOOOOOOOOOOOOOOOO+++++###############",
"###                 OOOOOOOOOOOOOOOOOOOOOOOO+++++###############",
"###                       OOOOOOOOOOOOOOOOOOOOOOO###############",
"###                       OOOOOOOOOOOOOOOOOOOOOOO###############",
"###                       OOOOOOOOOOOOOOOOOOOOOOO###############",
"###                       OOOOOOOOOOOOOOOOOOOOOOO&&&&&&&&&&&&&&&",
"###                       OOOOOOOOOOOOOOOOOOOOOOO&&&&&&&&&&&&&&&",
"###                       OOOOOOOOOOOOOOOOOOOOOOO&&&&&&&&&&&&&&&",
"#########                 OOOOOOOOOOOOOOOOOOOOOOO&&&&&&&&&&&&&&&",
"#########                 OOOOOOOOOOOOOOOOOOOOOOO++++++&&&&&&&&&",
"#########                 OOOOOOOOOOOOOOOOOOOOOOO++++++&&&&&&&&&",
"#########                 OOOOOOOOOOOOOOOOOOOOOOO++++++&&&&&&&&&",
"#########                 OOOOOOOOOOOOOOOOOOOOOOO++++++&&&&&&&&&",
"#########                 OOOOOOOOOOOOOOOOOOOOOOO++++++#********",
"#########$$$$$$.....XXXXXX      OOOOOOOOOOOOOOOOO++++++#********",
"#########$$$$$$.....XXXXXX      OOOOOOOOOOOOOOOOO++++++#********",
"#########$$$$$$.....XXXXXX      OOOOOOOOOOOOOOOOO++++++#********",
"#########$$$$$$.....XXXXXX      OOOOOOOOOOOOOOOOO++++++#********",
"#########$$$$$$.....XXXXXX      OOOOOOOOOOOOOOOOO++++++#********",
"#########$$$$$$.....XXXXXX      OOOOOOOOOOOOOOOOO++++++#********",
"#########%%%%%%.....XXXXXXXXXXXX%%%%%%OOOOOOOOOOOOOOOOOOOOOOO***",
"&&&&&&&&&%%%%%%.....XXXXXXXXXXXX%%%%%%OOOOOOOOOOOOOOOOOOOOOOO###",
"&&&&&&&&&%%%%%%.....XXXXXXXXXXXX%%%%%%OOOOOOOOOOOOOOOOOOOOOOO###",
"&&&&&&&&&%%%%%%.....XXXXXXXXXXXX%%%%%%OOOOOOOOOOOOOOOOOOOOOOO###",
"&&&&&&&&&%%%%%%.....XXXXXXXXXXXX%%%%%%OOOOOOOOOOOOOOOOOOOOOOO###",
"&&&&&&&&&&&&&&&@@@@@@@@@@@@@@@@@################################",
"&&&&&&&&&&&&&&&@@@@@@@@@@@@@@@@@################################",
"&&&&&&&&&&&&&&&@@@@@@@@@@@@@@@@@################################",
"&&&&&&&&&&&&&&&@@@@@@@@@@@@@@@@@################################",
"********&&&&&&&@@@@@@@@@@@@@@@@@########################&&&&&&&&",
"********&&&&&&&@@@@@@@@@@@@@@@@@########################&&&&&&&&",
"********&&&&&&&ooooo######oooooo########################&&&&&&&&",
"********&&&&&&&ooooo######oooooo########################&&&&&&&&",
"********&&&&&&&ooooo######oooooo########################&&&&&&&&",
"********&&&&&&&ooooo######oooooo########################&&&&&&&&",
"********&&&&&&&ooooo######oooooo########################&&&&&&&&",
"********&&&&&&&ooooo######oooooo########################&&&&&&&&"
};
