/* XPM */
static char *pr3[] = {
/* columns rows colors chars-per-pixel */
"64 64 14 1 ",
"  c #791E26",
". c #45283C",
"X c #663931",
"o c #3F3F74",
"O c #AC3232",
"+ c #D95763",
"@ c #D9A066",
"# c #306082",
"$ c #639BFF",
"% c #7FD4DF",
"& c #5FCDE4",
"* c #EEC39A",
"= c #90D8E1",
"- c #A2DDE5",
/* pixels */
"========%%%%%%%%========%%%%%%%%%%%%%%%%%%%%%%%%========--------",
"========%%%%%%%%========%%%%%%%%%%%%%%%%%%%%%%%%========--------",
"========%%%%%%%%========%%%%%%%%%%%%%%%%%%%%%%%%========--------",
"========%%%%%%%%========%%%%%%%%%%%%%%%%%%%%%%%%========--------",
"========%%%%%%%%========%%%%%%%%%%%%%%%%%%%%%%%%========--------",
"========%%%%%%%%========%%%%%%%%%%%%%%%%%%%%%%%%========--------",
"========%%%%%%%%========%%%%%%%%OOOOOOOOOOOO+++++++++++=--------",
"========%%%%%%%%========%%%%%%%%OOOOOOOOOOOO+++++++++++=--------",
"%%%%%%%%================%%%%%%%%OOOOOOOOOOOO+++++++++++-========",
"%%%%%%%%================%%%%%%%%OOOOOOOOOOOO+++++++++++-========",
"%%%%%%%%================%%%%%%%%OOOOOOOOOOOO+++++++++++-========",
"%%%%%%%%================%%%%%%%%OOOOOOOOOOOO+++++++++++-========",
"%%%%%%%%================%%OOOOOOOOOOOOOOOOOOOOOOOOOOOOO++++++===",
"%%%%%%%%================%%OOOOOOOOOOOOOOOOOOOOOOOOOOOOO++++++===",
"%%%%%%%%================%%OOOOOOOOOOOOOOOOOOOOOOOOOOOOO++++++===",
"%%%%%%%%================%%OOOOOOOOOOOOOOOOOOOOOOOOOOOOO++++++===",
"================--------%%OOOOOOOOOOOOOOOOOOOOOOOOOOOOO++++++%%%",
"================----OOOOOOOOOOOOOOOOOO@@@@@@@@@@@@@@@@@OOOOOO%%%",
"================----OOOOOOOOOOOOOOOOOO@@@@@@@@@@@@@@@@@OOOOOO%%%",
"================----OOOOOOOOOOOOOOOOOO@@@@@@@@@@@@@@@@@OOOOOO%%%",
"================----OOOOOOOOOOOOOOOOOO@@@@@@@@@@@@@@@@@OOOOOO%%%",
"================----OOOOOOOOOOOOOOOOOO@@@@@@@@@@@@@@@@@OOOOOO%%%",
"================----OOOOOOOOOOOOOOOOOO@@@@@@@@@@@@@@@@@OOOOOO%%%",
"================----OOOOOO      @@@@@@*****************OOOOOO%%%",
"%%%%%%%%--------%%%%OOOOOO      @@@@@@*****************OOOOOO%%%",
"%%%%%%%%--------%%%%OOOOOO      @@@@@@*****************OOOOOO%%%",
"%%%%%%%%--------%%%%OOOOOO      @@@@@@*****************OOOOOO%%%",
"%%%%%%%%--------%%%%OOOOOO      @@@@@@*****************OOOOOO%%%",
"%%%%%%%%--------%%%%OOOOOO      @@@@@@*****************OOOOOO%%%",
"%%%%%%%%-OOOOOOOOOOO            @@@@@@*****************OOOOOO%%%",
"%%%%%%%%-OOOOOOOOOOO            @@@@@@*****************OOOOOO%%%",
"%%%%%%%%-OOOOOOOOOOO            @@@@@@*****************OOOOOO%%%",
"%%%%%%%%%OOOOOOOOOOO            @@@@@@*****************OOOOOO===",
"%%%%%%%%%OOOOOOOOOOO            @@@@@@*****************OOOOOO===",
"%%%%%%%%%OOOOOOOOOOO            @@@@@@*****************OOOOOO===",
"%%%                             XXXXXX$$$$$$$$$$$      =========",
"%%%                             XXXXXX$$$$$$$$$$$      =========",
"%%%                             XXXXXX$$$$$$$$$$$      =========",
"%%%                             XXXXXX$$$$$$$$$$$      =========",
"%%%                             XXXXXX$$$$$$$$$$$      =========",
"%%%                             XXXXXX$$$$$$$$$$$      %--------",
"%%%%%%%%%%%%%%%%====......&&&&&&XXXXXX$$$$$$&&&&&%%%%%%%--------",
"%%%%%%%%%%%%%%%%====......&&&&&&XXXXXX$$$$$$&&&&&%%%%%%%--------",
"%%%%%%%%%%%%%%%%====......&&&&&&XXXXXX$$$$$$&&&&&%%%%%%%--------",
"%%%%%%%%%%%%%%%%====......&&&&&&XXXXXX$$$$$$&&&&&%%%%%%%--------",
"%%%%%%%%%%%%%%%%====......&&&&&&XXXXXX$$$$$$&&&&&%%%%%%%--------",
"%%%%%%%%%%%%%%%%====......&&&&&&XXXXXX$$$$$$&&&&&%%%%%%%--------",
"%%%%%%%%%%%%%%%%====......******$$$$$$&&&&&&&&&&&%%%%%%%--------",
"================%%%%......******$$$$$$&&&&&&&&&&&%%%%%%%%%%%%%%%",
"================%%%%......******$$$$$$&&&&&&&&&&&%%%%%%%%%%%%%%%",
"================%%%%......******$$$$$$&&&&&&&&&&&%%%%%%%%%%%%%%%",
"================%%%%......******$$$$$$&&&&&&&&&&&%%%%%%%%%%%%%%%",
"================%%%%%%%%%%......#################%%%%%%%%%%%%%%%",
"================%%%%%%%%%%......#################%%%%%%%%%%%%%%%",
"================%%%%%%%%%%......#################%%%%%%%%%%%%%%%",
"================%%%%%%%%%%......#################%%%%%%%%%%%%%%%",
"--------========%%%%%%%%%%......#################%%%%%%%========",
"--------========%%%%%%%%%%......#################%%%%%%%========",
"--------========%%%%%%%%%%%%%%%%oooooo%%%%%%ooooo%%%%%%%========",
"--------========%%%%%%%%%%%%%%%%oooooo%%%%%%ooooo%%%%%%%========",
"--------========%%%%%%%%%%%%%%%%oooooo%%%%%%ooooo%%%%%%%========",
"--------========%%%%%%%%%%%%%%%%oooooo%%%%%%ooooo%%%%%%%========",
"--------========%%%%%%%%%%%%%%%%oooooo%%%%%%ooooo%%%%%%%========",
"--------========%%%%%%%%%%%%%%%%oooooo%%%%%%ooooo%%%%%%%========"
};
