/* XPM */
static char *ice[] = {
/* columns rows colors chars-per-pixel */
"64 64 3 1 ",
"  c #7FD4DF",
". c #90D8E1",
"X c #A2DDE5",
/* pixels */
"........        ........                        ........XXXXXXXX",
"........        ........                        ........XXXXXXXX",
"........        ........                        ........XXXXXXXX",
"........        ........                        ........XXXXXXXX",
"........        ........                        ........XXXXXXXX",
"........        ........                        ........XXXXXXXX",
"........        ........                        ........XXXXXXXX",
"........        ........                        ........XXXXXXXX",
"        ................                ........XXXXXXXX........",
"        ................                ........XXXXXXXX........",
"        ................                ........XXXXXXXX........",
"        ................                ........XXXXXXXX........",
"        ................                ........XXXXXXXX........",
"        ................                ........XXXXXXXX........",
"        ................                ........XXXXXXXX........",
"        ................                ........XXXXXXXX........",
"................XXXXXXXX                XXXXXXXX........        ",
"................XXXXXXXX                XXXXXXXX........        ",
"................XXXXXXXX                XXXXXXXX........        ",
"................XXXXXXXX                XXXXXXXX........        ",
"................XXXXXXXX                XXXXXXXX........        ",
"................XXXXXXXX                XXXXXXXX........        ",
"................XXXXXXXX                XXXXXXXX........        ",
"................XXXXXXXX                XXXXXXXX........        ",
"        XXXXXXXX                ........                        ",
"        XXXXXXXX                ........                        ",
"        XXXXXXXX                ........                        ",
"        XXXXXXXX                ........                        ",
"        XXXXXXXX                ........                        ",
"        XXXXXXXX                ........                        ",
"        XXXXXXXX                ........                        ",
"        XXXXXXXX                ........                        ",
"                                                ................",
"                                                ................",
"                                                ................",
"                                                ................",
"                                                ................",
"                                                ................",
"                                                ................",
"                                                ................",
"                ........        ................        XXXXXXXX",
"                ........        ................        XXXXXXXX",
"                ........        ................        XXXXXXXX",
"                ........        ................        XXXXXXXX",
"                ........        ................        XXXXXXXX",
"                ........        ................        XXXXXXXX",
"                ........        ................        XXXXXXXX",
"                ........        ................        XXXXXXXX",
"................                                                ",
"................                                                ",
"................                                                ",
"................                                                ",
"................                                                ",
"................                                                ",
"................                                                ",
"................                                                ",
"XXXXXXXX........                                        ........",
"XXXXXXXX........                                        ........",
"XXXXXXXX........                                        ........",
"XXXXXXXX........                                        ........",
"XXXXXXXX........                                        ........",
"XXXXXXXX........                                        ........",
"XXXXXXXX........                                        ........",
"XXXXXXXX........                                        ........"
};
