/* XPM */
static char *wall[] = {
/* columns rows colors chars-per-pixel */
"64 64 6 1 ",
"  c gray38",
". c gray46",
"X c #7FD4DF",
"o c gray62",
"O c #90D8E1",
"+ c #A2DDE5",
/* pixels */
"OOOOOOOOXXXXXXXXOOOOOOOOXXXXXXXXXXXXXXXXXXXXXXXXOOOOOOOO++++++++",
"OOOOOOOOXXXXXXXXOOOOOOOOXXXXXXXXXXXXXXXXXXXXXXXXOOOOOOOO++++++++",
"OOOOOOOOXXXXXXXXOOOOOOOOXXXXXXXXXXXXXXXXXXXXXXXXOOOOOOOO++++++++",
"OOOOOOOOXXXXXXXXOOOOOOOOXXXXXXXXXXXXXXXXXXXXXXXXOOOOOOOO++++++++",
"OOOOOOOOXXXXXXXXOOOOOOOOXXXXXXXXXXXXXXXXXXXXXXXXOOOOOOOO++++++++",
"OOOOOOOOXXXXXXXXOOOOOOOOXXXXXXXXXXXXXXXXXXXXXXXXOOOOOOOO++++++++",
"OOOOOOOOXXXXXXXXOOOOOOOOXXXXXXXXXXXXXXXXXXXXXXXXOOOOOOOO++++++++",
"OOOOOOOOXXXXXXXXOOOOOOOOXXXXXXXXXXXXXXXXXXXXXXXXOOOOOOOO++++++++",
"XXXXXXXX........oooooooooooooooooooooooooooooooo........OOOOOOOO",
"XXXXXXXX........oooooooooooooooooooooooooooooooo........OOOOOOOO",
"XXXXXXXX........oooooooooooooooooooooooooooooooo........OOOOOOOO",
"XXXXXXXX........oooooooooooooooooooooooooooooooo........OOOOOOOO",
"XXXXXXXX........oooooooooooooooooooooooooooooooo........OOOOOOOO",
"XXXXXXXX........oooooooooooooooooooooooooooooooo........OOOOOOOO",
"XXXXXXXX........oooooooooooooooooooooooooooooooo........OOOOOOOO",
"XXXXXXXX........oooooooooooooooooooooooooooooooo........OOOOOOOO",
"OOOOOOOO................oooooooooooooooo................XXXXXXXX",
"OOOOOOOO................oooooooooooooooo................XXXXXXXX",
"OOOOOOOO................oooooooooooooooo................XXXXXXXX",
"OOOOOOOO................oooooooooooooooo................XXXXXXXX",
"OOOOOOOO................oooooooooooooooo................XXXXXXXX",
"OOOOOOOO................oooooooooooooooo................XXXXXXXX",
"OOOOOOOO................oooooooooooooooo................XXXXXXXX",
"OOOOOOOO................oooooooooooooooo................XXXXXXXX",
"XXXXXXXX........oooooooooooooooo................        XXXXXXXX",
"XXXXXXXX........oooooooooooooooo................        XXXXXXXX",
"XXXXXXXX........oooooooooooooooo................        XXXXXXXX",
"XXXXXXXX........oooooooooooooooo................        XXXXXXXX",
"XXXXXXXX........oooooooooooooooo................        XXXXXXXX",
"XXXXXXXX........oooooooooooooooo................        XXXXXXXX",
"XXXXXXXX........oooooooooooooooo................        XXXXXXXX",
"XXXXXXXX........oooooooooooooooo................        XXXXXXXX",
"XXXXXXXX        ........................oooooooo........OOOOOOOO",
"XXXXXXXX        ........................oooooooo........OOOOOOOO",
"XXXXXXXX        ........................oooooooo........OOOOOOOO",
"XXXXXXXX        ........................oooooooo........OOOOOOOO",
"XXXXXXXX        ........................oooooooo........OOOOOOOO",
"XXXXXXXX        ........................oooooooo........OOOOOOOO",
"XXXXXXXX        ........................oooooooo........OOOOOOOO",
"XXXXXXXX        ........................oooooooo........OOOOOOOO",
"XXXXXXXX........        ........                ........++++++++",
"XXXXXXXX........        ........                ........++++++++",
"XXXXXXXX........        ........                ........++++++++",
"XXXXXXXX........        ........                ........++++++++",
"XXXXXXXX........        ........                ........++++++++",
"XXXXXXXX........        ........                ........++++++++",
"XXXXXXXX........        ........                ........++++++++",
"XXXXXXXX........        ........                ........++++++++",
"OOOOOOOO                                ........        XXXXXXXX",
"OOOOOOOO                                ........        XXXXXXXX",
"OOOOOOOO                                ........        XXXXXXXX",
"OOOOOOOO                                ........        XXXXXXXX",
"OOOOOOOO                                ........        XXXXXXXX",
"OOOOOOOO                                ........        XXXXXXXX",
"OOOOOOOO                                ........        XXXXXXXX",
"OOOOOOOO                                ........        XXXXXXXX",
"++++++++OOOOOOOOXXXXXXXXXXXXXXXXXXXXXXXXXXXXXXXXXXXXXXXXOOOOOOOO",
"++++++++OOOOOOOOXXXXXXXXXXXXXXXXXXXXXXXXXXXXXXXXXXXXXXXXOOOOOOOO",
"++++++++OOOOOOOOXXXXXXXXXXXXXXXXXXXXXXXXXXXXXXXXXXXXXXXXOOOOOOOO",
"++++++++OOOOOOOOXXXXXXXXXXXXXXXXXXXXXXXXXXXXXXXXXXXXXXXXOOOOOOOO",
"++++++++OOOOOOOOXXXXXXXXXXXXXXXXXXXXXXXXXXXXXXXXXXXXXXXXOOOOOOOO",
"++++++++OOOOOOOOXXXXXXXXXXXXXXXXXXXXXXXXXXXXXXXXXXXXXXXXOOOOOOOO",
"++++++++OOOOOOOOXXXXXXXXXXXXXXXXXXXXXXXXXXXXXXXXXXXXXXXXOOOOOOOO",
"++++++++OOOOOOOOXXXXXXXXXXXXXXXXXXXXXXXXXXXXXXXXXXXXXXXXOOOOOOOO"
};
